<?xml version="1.0" encoding="UTF-8" standalone="no"?>
<!DOCTYPE svg PUBLIC "-//W3C//DTD SVG 1.1//EN"
 "http://www.w3.org/Graphics/SVG/1.1/DTD/svg11.dtd">
<!-- Generated by graphviz version 14.1.2 (20260124.0452)
 -->
<!-- Title: G Pages: 1 -->
<svg width="1023pt" height="1020pt"
 viewBox="0.00 0.00 1023.00 1020.00" xmlns="http://www.w3.org/2000/svg" xmlns:xlink="http://www.w3.org/1999/xlink">
<g id="graph0" class="graph" transform="scale(1 1) rotate(0) translate(4 1015.95)">
<title>G</title><style>.edge>path:hover{stroke-width:8}</style>
<polygon fill="white" stroke="none" points="-4,4 -4,-1015.95 1019.13,-1015.95 1019.13,4 -4,4"/>
<!-- dotenv -->
<g id="node1" class="node">
<title>dotenv</title><style>.edge>path:hover{stroke-width:8}</style>
<polygon fill="#b65353" stroke="black" points="537.01,-666.43 534.01,-670.43 513.01,-670.43 510.01,-666.43 483.01,-666.43 483.01,-630.43 537.01,-630.43 537.01,-666.43"/>
<text xml:space="preserve" text-anchor="middle" x="510.01" y="-644.56" font-family="Helvetica,sans-Serif" font-size="10.00" fill="#ffffff">dotenv</text>
</g>
<!-- rich -->
<g id="node2" class="node">
<title>rich</title><style>.edge>path:hover{stroke-width:8}</style>
<polygon fill="blue" stroke="black" points="1015.13,-750.43 1012.13,-754.43 991.13,-754.43 988.13,-750.43 961.13,-750.43 961.13,-714.43 1015.13,-714.43 1015.13,-750.43"/>
<text xml:space="preserve" text-anchor="middle" x="988.13" y="-728.56" font-family="Helvetica,sans-Serif" font-size="10.00" fill="white">rich</text>
</g>
<!-- src_cli -->
<g id="node3" class="node">
<title>src_cli</title><style>.edge>path:hover{stroke-width:8}</style>
<ellipse fill="#3ab069" stroke="black" cx="27" cy="-725.43" rx="27" ry="18"/>
<text xml:space="preserve" text-anchor="middle" x="27" y="-721.56" font-family="Helvetica,sans-Serif" font-size="10.00" fill="#000000">src.cli</text>
</g>
<!-- src_cli_dashkit -->
<g id="node4" class="node">
<title>src_cli_dashkit</title><style>.edge>path:hover{stroke-width:8}</style>
<ellipse fill="#38a865" stroke="black" cx="132.6" cy="-802.43" rx="33.59" ry="29.52"/>
<text xml:space="preserve" text-anchor="middle" x="132.6" y="-809.81" font-family="Helvetica,sans-Serif" font-size="10.00" fill="#ffffff">src.</text>
<text xml:space="preserve" text-anchor="middle" x="132.6" y="-798.56" font-family="Helvetica,sans-Serif" font-size="10.00" fill="#ffffff">cli.</text>
<text xml:space="preserve" text-anchor="middle" x="132.6" y="-787.31" font-family="Helvetica,sans-Serif" font-size="10.00" fill="#ffffff">dashkit</text>
</g>
<!-- src_cli&#45;&gt;src_cli_dashkit -->
<g id="edge8" class="edge">
<title>src_cli&#45;&gt;src_cli_dashkit</title><style>.edge>path:hover{stroke-width:8}</style>
<path fill="none" stroke="black" d="M45.57,-738.49C59.6,-748.92 79.69,-763.85 96.93,-776.66"/>
<polygon fill="#3ab069" stroke="black" points="94.83,-779.46 104.94,-782.62 99.01,-773.84 94.83,-779.46"/>
</g>
<!-- src_cli_lighthouse -->
<g id="node5" class="node">
<title>src_cli_lighthouse</title><style>.edge>path:hover{stroke-width:8}</style>
<ellipse fill="#35a160" stroke="black" cx="132.6" cy="-648.43" rx="42.6" ry="29.52"/>
<text xml:space="preserve" text-anchor="middle" x="132.6" y="-655.81" font-family="Helvetica,sans-Serif" font-size="10.00" fill="#ffffff">src.</text>
<text xml:space="preserve" text-anchor="middle" x="132.6" y="-644.56" font-family="Helvetica,sans-Serif" font-size="10.00" fill="#ffffff">cli.</text>
<text xml:space="preserve" text-anchor="middle" x="132.6" y="-633.31" font-family="Helvetica,sans-Serif" font-size="10.00" fill="#ffffff">lighthouse</text>
</g>
<!-- src_cli&#45;&gt;src_cli_lighthouse -->
<g id="edge9" class="edge">
<title>src_cli&#45;&gt;src_cli_lighthouse</title><style>.edge>path:hover{stroke-width:8}</style>
<path fill="none" stroke="black" d="M45.57,-712.37C58.82,-702.52 77.48,-688.66 94.03,-676.35"/>
<polygon fill="#3ab069" stroke="black" points="95.81,-679.39 101.75,-670.62 91.64,-673.77 95.81,-679.39"/>
</g>
<!-- src_cli_printer -->
<g id="node6" class="node">
<title>src_cli_printer</title><style>.edge>path:hover{stroke-width:8}</style>
<ellipse fill="#38a865" stroke="black" cx="132.6" cy="-725.43" rx="30.41" ry="29.52"/>
<text xml:space="preserve" text-anchor="middle" x="132.6" y="-732.81" font-family="Helvetica,sans-Serif" font-size="10.00" fill="#ffffff">src.</text>
<text xml:space="preserve" text-anchor="middle" x="132.6" y="-721.56" font-family="Helvetica,sans-Serif" font-size="10.00" fill="#ffffff">cli.</text>
<text xml:space="preserve" text-anchor="middle" x="132.6" y="-710.31" font-family="Helvetica,sans-Serif" font-size="10.00" fill="#ffffff">printer</text>
</g>
<!-- src_cli&#45;&gt;src_cli_printer -->
<g id="edge10" class="edge">
<title>src_cli&#45;&gt;src_cli_printer</title><style>.edge>path:hover{stroke-width:8}</style>
<path fill="none" stroke="black" d="M54.41,-725.43C65.41,-725.43 78.43,-725.43 90.61,-725.43"/>
<polygon fill="#3ab069" stroke="black" points="90.43,-728.93 100.43,-725.43 90.43,-721.93 90.43,-728.93"/>
</g>
<!-- src_dashkit -->
<g id="node7" class="node">
<title>src_dashkit</title><style>.edge>path:hover{stroke-width:8}</style>
<ellipse fill="#47c278" stroke="black" cx="380.85" cy="-972.43" rx="37.87" ry="18"/>
<text xml:space="preserve" text-anchor="middle" x="380.85" y="-968.56" font-family="Helvetica,sans-Serif" font-size="10.00" fill="#000000">src.dashkit</text>
</g>
<!-- src_cli_dashkit&#45;&gt;src_dashkit -->
<g id="edge11" class="edge">
<title>src_cli_dashkit&#45;&gt;src_dashkit</title><style>.edge>path:hover{stroke-width:8}</style>
<path fill="none" stroke="black" d="M254.81,-848.43C307.54,-864.8 290.43,-909.58 332.41,-945.43 335.98,-948.48 339.94,-951.36 344.01,-954.02"/>
<polygon fill="#38a865" stroke="black" points="341.91,-956.83 352.27,-959.02 345.53,-950.85 341.91,-956.83"/>
</g>
<!-- src_dashkit_app -->
<g id="node8" class="node">
<title>src_dashkit_app</title><style>.edge>path:hover{stroke-width:8}</style>
<ellipse fill="#33995c" stroke="black" cx="380.85" cy="-906.43" rx="35.71" ry="29.52"/>
<text xml:space="preserve" text-anchor="middle" x="380.85" y="-913.81" font-family="Helvetica,sans-Serif" font-size="10.00" fill="#ffffff">src.</text>
<text xml:space="preserve" text-anchor="middle" x="380.85" y="-902.56" font-family="Helvetica,sans-Serif" font-size="10.00" fill="#ffffff">dashkit.</text>
<text xml:space="preserve" text-anchor="middle" x="380.85" y="-891.31" font-family="Helvetica,sans-Serif" font-size="10.00" fill="#ffffff">app</text>
</g>
<!-- src_cli_dashkit&#45;&gt;src_dashkit_app -->
<g id="edge12" class="edge">
<title>src_cli_dashkit&#45;&gt;src_dashkit_app</title><style>.edge>path:hover{stroke-width:8}</style>
<path fill="none" stroke="black" d="M254.81,-848.43C284.67,-857.7 316.62,-872.62 340.75,-885"/>
<polygon fill="#38a865" stroke="black" points="339.09,-888.09 349.58,-889.61 342.33,-881.88 339.09,-888.09"/>
</g>
<!-- src_services -->
<g id="node23" class="node">
<title>src_services</title><style>.edge>path:hover{stroke-width:8}</style>
<ellipse fill="#22e771" stroke="black" cx="757.16" cy="-686.43" rx="40.97" ry="18"/>
<text xml:space="preserve" text-anchor="middle" x="757.16" y="-682.56" font-family="Helvetica,sans-Serif" font-size="10.00" fill="#000000">src.services</text>
</g>
<!-- src_cli_dashkit&#45;&gt;src_services -->
<g id="edge30" class="edge">
<title>src_cli_dashkit&#45;&gt;src_services</title><style>.edge>path:hover{stroke-width:8}</style>
<path fill="none" stroke="black" d="M254.81,-848.43C329.31,-871.56 355.88,-855.83 429.29,-829.43 532,-792.49 525.32,-696.22 634.46,-694.43"/>
</g>
<!-- src_services_workspaces -->
<g id="node25" class="node">
<title>src_services_workspaces</title><style>.edge>path:hover{stroke-width:8}</style>
<ellipse fill="#26d96e" stroke="black" cx="380.85" cy="-790.43" rx="48.44" ry="29.52"/>
<text xml:space="preserve" text-anchor="middle" x="380.85" y="-797.81" font-family="Helvetica,sans-Serif" font-size="10.00" fill="#000000">src.</text>
<text xml:space="preserve" text-anchor="middle" x="380.85" y="-786.56" font-family="Helvetica,sans-Serif" font-size="10.00" fill="#000000">services.</text>
<text xml:space="preserve" text-anchor="middle" x="380.85" y="-775.31" font-family="Helvetica,sans-Serif" font-size="10.00" fill="#000000">workspaces</text>
</g>
<!-- src_cli_dashkit&#45;&gt;src_services_workspaces -->
<g id="edge35" class="edge">
<title>src_cli_dashkit&#45;&gt;src_services_workspaces</title><style>.edge>path:hover{stroke-width:8}</style>
<path fill="none" stroke="black" d="M163.1,-815.09C186.98,-825.03 221.67,-838.76 252.81,-848.43"/>
<path fill="none" stroke="black" d="M254.81,-848.43C286.42,-858.25 320.38,-840.52 344.92,-822.15"/>
<polygon fill="#38a865" stroke="black" points="346.95,-825 352.65,-816.07 342.62,-819.5 346.95,-825"/>
</g>
<!-- src_cli_lighthouse&#45;&gt;dotenv -->
<g id="edge1" class="edge">
<title>src_cli_lighthouse&#45;&gt;dotenv</title><style>.edge>path:hover{stroke-width:8}</style>
<path fill="none" stroke="black" d="M175.53,-648.43C198.38,-648.43 227.15,-648.43 252.81,-648.43"/>
<path fill="none" stroke="black" d="M254.81,-648.43C291.33,-648.43 296.41,-627.52 332.41,-621.43 374.87,-614.26 386.8,-614.43 429.29,-621.43 443.59,-623.79 458.79,-628.37 472.03,-633.11"/>
<polygon fill="#35a160" stroke="black" points="470.62,-636.32 481.21,-636.54 473.07,-629.76 470.62,-636.32"/>
</g>
<!-- src_modules -->
<g id="node11" class="node">
<title>src_modules</title><style>.edge>path:hover{stroke-width:8}</style>
<ellipse fill="#3bce76" stroke="black" cx="380.85" cy="-648.43" rx="40.97" ry="18"/>
<text xml:space="preserve" text-anchor="middle" x="380.85" y="-644.56" font-family="Helvetica,sans-Serif" font-size="10.00" fill="#000000">src.modules</text>
</g>
<!-- src_cli_lighthouse&#45;&gt;src_modules -->
<g id="edge15" class="edge">
<title>src_cli_lighthouse&#45;&gt;src_modules</title><style>.edge>path:hover{stroke-width:8}</style>
<path fill="none" stroke="black" d="M254.81,-648.43C278.93,-648.43 305.68,-648.43 328.22,-648.43"/>
<polygon fill="#35a160" stroke="black" points="328.07,-651.93 338.07,-648.43 328.07,-644.93 328.07,-651.93"/>
</g>
<!-- src_modules_lighthouse -->
<g id="node12" class="node">
<title>src_modules_lighthouse</title><style>.edge>path:hover{stroke-width:8}</style>
<ellipse fill="#269b55" stroke="black" cx="253.81" cy="-332.43" rx="42.6" ry="29.52"/>
<text xml:space="preserve" text-anchor="middle" x="253.81" y="-339.81" font-family="Helvetica,sans-Serif" font-size="10.00" fill="#ffffff">src.</text>
<text xml:space="preserve" text-anchor="middle" x="253.81" y="-328.56" font-family="Helvetica,sans-Serif" font-size="10.00" fill="#ffffff">modules.</text>
<text xml:space="preserve" text-anchor="middle" x="253.81" y="-317.31" font-family="Helvetica,sans-Serif" font-size="10.00" fill="#ffffff">lighthouse</text>
</g>
<!-- src_cli_lighthouse&#45;&gt;src_modules_lighthouse -->
<g id="edge16" class="edge">
<title>src_cli_lighthouse&#45;&gt;src_modules_lighthouse</title><style>.edge>path:hover{stroke-width:8}</style>
<path fill="none" stroke="black" d="M144.39,-619.83C165.79,-563.1 213.64,-436.26 237.98,-371.74"/>
<polygon fill="#35a160" stroke="black" points="241.17,-373.2 241.42,-362.61 234.62,-370.73 241.17,-373.2"/>
</g>
<!-- src_cli_lighthouse&#45;&gt;src_services -->
<g id="edge31" class="edge">
<title>src_cli_lighthouse&#45;&gt;src_services</title><style>.edge>path:hover{stroke-width:8}</style>
<path fill="none" stroke="black" d="M381.85,-694.43C493.67,-704.47 522.2,-695.73 634.46,-694.43"/>
<path fill="none" stroke="black" d="M254.81,-648.43C314.01,-649.7 320.95,-688.31 379.85,-694.43"/>
</g>
<!-- src_cli_lighthouse&#45;&gt;src_services_workspaces -->
<g id="edge36" class="edge">
<title>src_cli_lighthouse&#45;&gt;src_services_workspaces</title><style>.edge>path:hover{stroke-width:8}</style>
<path fill="none" stroke="black" d="M166.05,-667.14C209.33,-692.1 286.17,-736.41 334.98,-764.56"/>
<polygon fill="#35a160" stroke="black" points="333.22,-767.58 343.64,-769.55 336.72,-761.52 333.22,-767.58"/>
</g>
<!-- src_cli_printer&#45;&gt;rich -->
<g id="edge2" class="edge">
<title>src_cli_printer&#45;&gt;rich</title><style>.edge>path:hover{stroke-width:8}</style>
<path fill="none" stroke="black" d="M254.81,-770.43C289.96,-775.47 297.44,-757.57 332.41,-751.43 410.17,-737.79 430.07,-732.43 509.01,-732.43 509.01,-732.43 509.01,-732.43 636.46,-732.43 735.87,-732.43 764.93,-703.83 860.13,-732.43"/>
<path fill="none" stroke="black" d="M159.75,-738.73C183.36,-749.9 219.42,-764.89 252.81,-770.43"/>
</g>
<!-- src_cli_printer&#45;&gt;src_services -->
<g id="edge32" class="edge">
<title>src_cli_printer&#45;&gt;src_services</title><style>.edge>path:hover{stroke-width:8}</style>
<path fill="none" stroke="black" d="M162.37,-717.51C208.28,-705.84 300.99,-686.24 379.85,-694.43"/>
</g>
<!-- src_cli_printer&#45;&gt;src_services_workspaces -->
<g id="edge37" class="edge">
<title>src_cli_printer&#45;&gt;src_services_workspaces</title><style>.edge>path:hover{stroke-width:8}</style>
<path fill="none" stroke="black" d="M254.81,-770.43C276.95,-773.6 301.23,-777.41 322.46,-780.85"/>
<polygon fill="#38a865" stroke="black" points="321.66,-784.27 332.09,-782.42 322.79,-777.36 321.66,-784.27"/>
</g>
<!-- src_dashkit_parsers -->
<g id="node9" class="node">
<title>src_dashkit_parsers</title><style>.edge>path:hover{stroke-width:8}</style>
<ellipse fill="#47c278" stroke="black" cx="510.01" cy="-982.43" rx="35.71" ry="29.52"/>
<text xml:space="preserve" text-anchor="middle" x="510.01" y="-989.81" font-family="Helvetica,sans-Serif" font-size="10.00" fill="#000000">src.</text>
<text xml:space="preserve" text-anchor="middle" x="510.01" y="-978.56" font-family="Helvetica,sans-Serif" font-size="10.00" fill="#000000">dashkit.</text>
<text xml:space="preserve" text-anchor="middle" x="510.01" y="-967.31" font-family="Helvetica,sans-Serif" font-size="10.00" fill="#000000">parsers</text>
</g>
<!-- src_dashkit_app&#45;&gt;src_dashkit_parsers -->
<g id="edge13" class="edge">
<title>src_dashkit_app&#45;&gt;src_dashkit_parsers</title><style>.edge>path:hover{stroke-width:8}</style>
<path fill="none" stroke="black" d="M410.39,-923.49C428.22,-934.15 451.4,-948 470.81,-959.6"/>
<polygon fill="#33995c" stroke="black" points="468.89,-962.53 479.27,-964.66 472.48,-956.52 468.89,-962.53"/>
</g>
<!-- src_dashkit_sidebar -->
<g id="node10" class="node">
<title>src_dashkit_sidebar</title><style>.edge>path:hover{stroke-width:8}</style>
<ellipse fill="#38a865" stroke="black" cx="510.01" cy="-866.43" rx="35.71" ry="29.52"/>
<text xml:space="preserve" text-anchor="middle" x="510.01" y="-873.81" font-family="Helvetica,sans-Serif" font-size="10.00" fill="#ffffff">src.</text>
<text xml:space="preserve" text-anchor="middle" x="510.01" y="-862.56" font-family="Helvetica,sans-Serif" font-size="10.00" fill="#ffffff">dashkit.</text>
<text xml:space="preserve" text-anchor="middle" x="510.01" y="-851.31" font-family="Helvetica,sans-Serif" font-size="10.00" fill="#ffffff">sidebar</text>
</g>
<!-- src_dashkit_app&#45;&gt;src_dashkit_sidebar -->
<g id="edge14" class="edge">
<title>src_dashkit_app&#45;&gt;src_dashkit_sidebar</title><style>.edge>path:hover{stroke-width:8}</style>
<path fill="none" stroke="black" d="M414.6,-896.13C430.17,-891.23 449,-885.31 465.74,-880.04"/>
<polygon fill="#33995c" stroke="black" points="466.44,-883.49 474.93,-877.15 464.34,-876.81 466.44,-883.49"/>
</g>
<!-- textual -->
<g id="node26" class="node">
<title>textual</title><style>.edge>path:hover{stroke-width:8}</style>
<polygon fill="blue" stroke="black" points="888.13,-842.43 885.13,-846.43 864.13,-846.43 861.13,-842.43 834.13,-842.43 834.13,-806.43 888.13,-806.43 888.13,-842.43"/>
<text xml:space="preserve" text-anchor="middle" x="861.13" y="-820.56" font-family="Helvetica,sans-Serif" font-size="10.00" fill="white">textual</text>
</g>
<!-- src_dashkit_app&#45;&gt;textual -->
<g id="edge38" class="edge">
<title>src_dashkit_app&#45;&gt;textual</title><style>.edge>path:hover{stroke-width:8}</style>
<path fill="none" stroke="black" d="M416.8,-908.81C451.85,-910.59 507.28,-911.76 554.74,-905.43 653.88,-892.22 766.73,-856.73 823.46,-837.41"/>
<polygon fill="#33995c" stroke="black" points="824.29,-840.82 832.61,-834.26 822.01,-834.2 824.29,-840.82"/>
</g>
<!-- src_dashkit_sidebar&#45;&gt;rich -->
<g id="edge3" class="edge">
<title>src_dashkit_sidebar&#45;&gt;rich</title><style>.edge>path:hover{stroke-width:8}</style>
<path fill="none" stroke="black" d="M545.68,-861.36C593.32,-854.18 681.59,-840.19 756.16,-824.43"/>
<path fill="none" stroke="black" d="M758.16,-824.43C776.95,-818.62 782.54,-817.42 798.13,-805.43 831.89,-779.49 819.37,-720.18 860.13,-732.43"/>
</g>
<!-- src_dashkit_sidebar&#45;&gt;textual -->
<g id="edge39" class="edge">
<title>src_dashkit_sidebar&#45;&gt;textual</title><style>.edge>path:hover{stroke-width:8}</style>
<path fill="none" stroke="black" d="M758.16,-824.43C779.1,-820.01 803.01,-819.76 822.41,-820.73"/>
<polygon fill="#38a865" stroke="black" points="822.12,-824.22 832.33,-821.37 822.57,-817.24 822.12,-824.22"/>
</g>
<!-- src_modules_lighthouse_providers -->
<g id="node17" class="node">
<title>src_modules_lighthouse_providers</title><style>.edge>path:hover{stroke-width:8}</style>
<ellipse fill="#3ab069" stroke="black" cx="380.85" cy="-146.43" rx="44.72" ry="37.48"/>
<text xml:space="preserve" text-anchor="middle" x="380.85" y="-159.43" font-family="Helvetica,sans-Serif" font-size="10.00" fill="#000000">src.</text>
<text xml:space="preserve" text-anchor="middle" x="380.85" y="-148.18" font-family="Helvetica,sans-Serif" font-size="10.00" fill="#000000">modules.</text>
<text xml:space="preserve" text-anchor="middle" x="380.85" y="-136.93" font-family="Helvetica,sans-Serif" font-size="10.00" fill="#000000">lighthouse.</text>
<text xml:space="preserve" text-anchor="middle" x="380.85" y="-125.68" font-family="Helvetica,sans-Serif" font-size="10.00" fill="#000000">providers</text>
</g>
<!-- src_modules_lighthouse&#45;&gt;src_modules_lighthouse_providers -->
<g id="edge24" class="edge">
<title>src_modules_lighthouse&#45;&gt;src_modules_lighthouse_providers</title><style>.edge>path:hover{stroke-width:8}</style>
<path fill="none" stroke="black" d="M267.69,-304.12C281.6,-274.99 305.41,-228.98 332.41,-193.43 335.29,-189.64 338.47,-185.86 341.77,-182.17"/>
<polygon fill="#269b55" stroke="black" points="344.3,-184.6 348.6,-174.92 339.2,-179.81 344.3,-184.6"/>
</g>
<!-- src_modules_lighthouse_runner -->
<g id="node18" class="node">
<title>src_modules_lighthouse_runner</title><style>.edge>path:hover{stroke-width:8}</style>
<ellipse fill="#3ab069" stroke="black" cx="380.85" cy="-504.43" rx="44.72" ry="37.48"/>
<text xml:space="preserve" text-anchor="middle" x="380.85" y="-517.43" font-family="Helvetica,sans-Serif" font-size="10.00" fill="#000000">src.</text>
<text xml:space="preserve" text-anchor="middle" x="380.85" y="-506.18" font-family="Helvetica,sans-Serif" font-size="10.00" fill="#000000">modules.</text>
<text xml:space="preserve" text-anchor="middle" x="380.85" y="-494.93" font-family="Helvetica,sans-Serif" font-size="10.00" fill="#000000">lighthouse.</text>
<text xml:space="preserve" text-anchor="middle" x="380.85" y="-483.68" font-family="Helvetica,sans-Serif" font-size="10.00" fill="#000000">runner</text>
</g>
<!-- src_modules_lighthouse&#45;&gt;src_modules_lighthouse_runner -->
<g id="edge25" class="edge">
<title>src_modules_lighthouse&#45;&gt;src_modules_lighthouse_runner</title><style>.edge>path:hover{stroke-width:8}</style>
<path fill="none" stroke="black" d="M273.8,-358.55C294.01,-386.35 326.26,-430.72 349.9,-463.24"/>
<polygon fill="#269b55" stroke="black" points="347.03,-465.24 355.74,-471.27 352.69,-461.12 347.03,-465.24"/>
</g>
<!-- src_modules_lighthouse_views -->
<g id="node20" class="node">
<title>src_modules_lighthouse_views</title><style>.edge>path:hover{stroke-width:8}</style>
<ellipse fill="#33995c" stroke="black" cx="380.85" cy="-332.43" rx="44.72" ry="37.48"/>
<text xml:space="preserve" text-anchor="middle" x="380.85" y="-345.43" font-family="Helvetica,sans-Serif" font-size="10.00" fill="#ffffff">src.</text>
<text xml:space="preserve" text-anchor="middle" x="380.85" y="-334.18" font-family="Helvetica,sans-Serif" font-size="10.00" fill="#ffffff">modules.</text>
<text xml:space="preserve" text-anchor="middle" x="380.85" y="-322.93" font-family="Helvetica,sans-Serif" font-size="10.00" fill="#ffffff">lighthouse.</text>
<text xml:space="preserve" text-anchor="middle" x="380.85" y="-311.68" font-family="Helvetica,sans-Serif" font-size="10.00" fill="#ffffff">views</text>
</g>
<!-- src_modules_lighthouse&#45;&gt;src_modules_lighthouse_views -->
<g id="edge27" class="edge">
<title>src_modules_lighthouse&#45;&gt;src_modules_lighthouse_views</title><style>.edge>path:hover{stroke-width:8}</style>
<path fill="none" stroke="black" d="M296.79,-332.43C305.77,-332.43 315.39,-332.43 324.77,-332.43"/>
<polygon fill="#269b55" stroke="black" points="324.54,-335.93 334.54,-332.43 324.54,-328.93 324.54,-335.93"/>
</g>
<!-- src_modules_lighthouse_widgets -->
<g id="node21" class="node">
<title>src_modules_lighthouse_widgets</title><style>.edge>path:hover{stroke-width:8}</style>
<ellipse fill="#40c073" stroke="black" cx="380.85" cy="-239.43" rx="44.72" ry="37.48"/>
<text xml:space="preserve" text-anchor="middle" x="380.85" y="-252.43" font-family="Helvetica,sans-Serif" font-size="10.00" fill="#000000">src.</text>
<text xml:space="preserve" text-anchor="middle" x="380.85" y="-241.18" font-family="Helvetica,sans-Serif" font-size="10.00" fill="#000000">modules.</text>
<text xml:space="preserve" text-anchor="middle" x="380.85" y="-229.93" font-family="Helvetica,sans-Serif" font-size="10.00" fill="#000000">lighthouse.</text>
<text xml:space="preserve" text-anchor="middle" x="380.85" y="-218.68" font-family="Helvetica,sans-Serif" font-size="10.00" fill="#000000">widgets</text>
</g>
<!-- src_modules_lighthouse&#45;&gt;src_modules_lighthouse_widgets -->
<g id="edge28" class="edge">
<title>src_modules_lighthouse&#45;&gt;src_modules_lighthouse_widgets</title><style>.edge>path:hover{stroke-width:8}</style>
<path fill="none" stroke="black" d="M283.5,-311.1C299.58,-299.13 319.95,-283.99 337.8,-270.7"/>
<polygon fill="#269b55" stroke="black" points="339.73,-273.63 345.66,-264.86 335.55,-268.02 339.73,-273.63"/>
</g>
<!-- src_modules_lighthouse_audits -->
<g id="node13" class="node">
<title>src_modules_lighthouse_audits</title><style>.edge>path:hover{stroke-width:8}</style>
<ellipse fill="#2fdb73" stroke="black" cx="635.46" cy="-146.43" rx="44.72" ry="37.48"/>
<text xml:space="preserve" text-anchor="middle" x="635.46" y="-159.43" font-family="Helvetica,sans-Serif" font-size="10.00" fill="#000000">src.</text>
<text xml:space="preserve" text-anchor="middle" x="635.46" y="-148.18" font-family="Helvetica,sans-Serif" font-size="10.00" fill="#000000">modules.</text>
<text xml:space="preserve" text-anchor="middle" x="635.46" y="-136.93" font-family="Helvetica,sans-Serif" font-size="10.00" fill="#000000">lighthouse.</text>
<text xml:space="preserve" text-anchor="middle" x="635.46" y="-125.68" font-family="Helvetica,sans-Serif" font-size="10.00" fill="#000000">audits</text>
</g>
<!-- src_modules_lighthouse_categories -->
<g id="node14" class="node">
<title>src_modules_lighthouse_categories</title><style>.edge>path:hover{stroke-width:8}</style>
<ellipse fill="#40c073" stroke="black" cx="510.01" cy="-146.43" rx="44.72" ry="37.48"/>
<text xml:space="preserve" text-anchor="middle" x="510.01" y="-159.43" font-family="Helvetica,sans-Serif" font-size="10.00" fill="#000000">src.</text>
<text xml:space="preserve" text-anchor="middle" x="510.01" y="-148.18" font-family="Helvetica,sans-Serif" font-size="10.00" fill="#000000">modules.</text>
<text xml:space="preserve" text-anchor="middle" x="510.01" y="-136.93" font-family="Helvetica,sans-Serif" font-size="10.00" fill="#000000">lighthouse.</text>
<text xml:space="preserve" text-anchor="middle" x="510.01" y="-125.68" font-family="Helvetica,sans-Serif" font-size="10.00" fill="#000000">categories</text>
</g>
<!-- src_modules_lighthouse_categories&#45;&gt;src_modules_lighthouse_audits -->
<g id="edge17" class="edge">
<title>src_modules_lighthouse_categories&#45;&gt;src_modules_lighthouse_audits</title><style>.edge>path:hover{stroke-width:8}</style>
<path fill="none" stroke="black" d="M555.23,-146.43C563.04,-146.43 571.25,-146.43 579.31,-146.43"/>
<polygon fill="#40c073" stroke="black" points="579.04,-149.93 589.04,-146.43 579.04,-142.93 579.04,-149.93"/>
</g>
<!-- src_modules_lighthouse_config -->
<g id="node15" class="node">
<title>src_modules_lighthouse_config</title><style>.edge>path:hover{stroke-width:8}</style>
<ellipse fill="#3bce76" stroke="black" cx="510.01" cy="-239.43" rx="44.72" ry="37.48"/>
<text xml:space="preserve" text-anchor="middle" x="510.01" y="-252.43" font-family="Helvetica,sans-Serif" font-size="10.00" fill="#000000">src.</text>
<text xml:space="preserve" text-anchor="middle" x="510.01" y="-241.18" font-family="Helvetica,sans-Serif" font-size="10.00" fill="#000000">modules.</text>
<text xml:space="preserve" text-anchor="middle" x="510.01" y="-229.93" font-family="Helvetica,sans-Serif" font-size="10.00" fill="#000000">lighthouse.</text>
<text xml:space="preserve" text-anchor="middle" x="510.01" y="-218.68" font-family="Helvetica,sans-Serif" font-size="10.00" fill="#000000">config</text>
</g>
<!-- src_modules_lighthouse_http -->
<g id="node16" class="node">
<title>src_modules_lighthouse_http</title><style>.edge>path:hover{stroke-width:8}</style>
<ellipse fill="#47c278" stroke="black" cx="510.01" cy="-537.43" rx="44.72" ry="37.48"/>
<text xml:space="preserve" text-anchor="middle" x="510.01" y="-550.43" font-family="Helvetica,sans-Serif" font-size="10.00" fill="#000000">src.</text>
<text xml:space="preserve" text-anchor="middle" x="510.01" y="-539.18" font-family="Helvetica,sans-Serif" font-size="10.00" fill="#000000">modules.</text>
<text xml:space="preserve" text-anchor="middle" x="510.01" y="-527.93" font-family="Helvetica,sans-Serif" font-size="10.00" fill="#000000">lighthouse.</text>
<text xml:space="preserve" text-anchor="middle" x="510.01" y="-516.68" font-family="Helvetica,sans-Serif" font-size="10.00" fill="#000000">http</text>
</g>
<!-- src_modules_lighthouse_providers&#45;&gt;src_modules_lighthouse_audits -->
<g id="edge18" class="edge">
<title>src_modules_lighthouse_providers&#45;&gt;src_modules_lighthouse_audits</title><style>.edge>path:hover{stroke-width:8}</style>
<path fill="none" stroke="black" d="M415.92,-122.55C430.43,-113.77 447.99,-104.88 465.29,-100.43 503.79,-90.52 516.33,-90.15 554.74,-100.43 567.39,-103.82 580.12,-109.76 591.57,-116.26"/>
<polygon fill="#3ab069" stroke="black" points="589.6,-119.16 599.98,-121.3 593.2,-113.15 589.6,-119.16"/>
</g>
<!-- src_modules_lighthouse_providers&#45;&gt;src_modules_lighthouse_categories -->
<g id="edge20" class="edge">
<title>src_modules_lighthouse_providers&#45;&gt;src_modules_lighthouse_categories</title><style>.edge>path:hover{stroke-width:8}</style>
<path fill="none" stroke="black" d="M425.97,-146.43C434.84,-146.43 444.28,-146.43 453.49,-146.43"/>
<polygon fill="#3ab069" stroke="black" points="453.46,-149.93 463.46,-146.43 453.46,-142.93 453.46,-149.93"/>
</g>
<!-- src_modules_lighthouse_providers&#45;&gt;src_modules_lighthouse_config -->
<g id="edge21" class="edge">
<title>src_modules_lighthouse_providers&#45;&gt;src_modules_lighthouse_config</title><style>.edge>path:hover{stroke-width:8}</style>
<path fill="none" stroke="black" d="M415.26,-170.87C431.03,-182.4 450.02,-196.29 466.78,-208.55"/>
<polygon fill="#3ab069" stroke="black" points="464.46,-211.19 474.6,-214.27 468.6,-205.54 464.46,-211.19"/>
</g>
<!-- src_modules_lighthouse_runner&#45;&gt;src_modules_lighthouse_http -->
<g id="edge23" class="edge">
<title>src_modules_lighthouse_runner&#45;&gt;src_modules_lighthouse_http</title><style>.edge>path:hover{stroke-width:8}</style>
<path fill="none" stroke="black" d="M423.84,-515.33C434.15,-518 445.32,-520.9 456.07,-523.69"/>
<polygon fill="#3ab069" stroke="black" points="455.04,-527.04 465.6,-526.17 456.8,-520.27 455.04,-527.04"/>
</g>
<!-- src_modules_lighthouse_runner&#45;&gt;src_services -->
<g id="edge33" class="edge">
<title>src_modules_lighthouse_runner&#45;&gt;src_services</title><style>.edge>path:hover{stroke-width:8}</style>
<path fill="none" stroke="black" d="M408.28,-534.2C423.72,-550.31 444.26,-569.66 465.29,-583.43 501.42,-607.1 518.41,-598.07 554.74,-621.43 595.14,-647.42 586.42,-694.99 634.46,-694.43"/>
<path fill="none" stroke="black" d="M636.46,-694.43C659.04,-694.17 683.96,-692.7 705.2,-691.08"/>
<polygon fill="#3ab069" stroke="black" points="705.37,-694.58 715.07,-690.3 704.82,-687.6 705.37,-694.58"/>
</g>
<!-- src_services_reports -->
<g id="node24" class="node">
<title>src_services_reports</title><style>.edge>path:hover{stroke-width:8}</style>
<ellipse fill="#47c278" stroke="black" cx="757.16" cy="-492.43" rx="39.42" ry="29.52"/>
<text xml:space="preserve" text-anchor="middle" x="757.16" y="-499.81" font-family="Helvetica,sans-Serif" font-size="10.00" fill="#000000">src.</text>
<text xml:space="preserve" text-anchor="middle" x="757.16" y="-488.56" font-family="Helvetica,sans-Serif" font-size="10.00" fill="#000000">services.</text>
<text xml:space="preserve" text-anchor="middle" x="757.16" y="-477.31" font-family="Helvetica,sans-Serif" font-size="10.00" fill="#000000">reports</text>
</g>
<!-- src_modules_lighthouse_runner&#45;&gt;src_services_reports -->
<g id="edge34" class="edge">
<title>src_modules_lighthouse_runner&#45;&gt;src_services_reports</title><style>.edge>path:hover{stroke-width:8}</style>
<path fill="none" stroke="black" d="M425.01,-496.41C437.91,-494.36 452.13,-492.45 465.29,-491.43 549.6,-484.9 648.08,-487.34 706.1,-489.81"/>
<polygon fill="#3ab069" stroke="black" points="705.85,-493.3 715.99,-490.25 706.16,-486.31 705.85,-493.3"/>
</g>
<!-- src_modules_lighthouse_status -->
<g id="node19" class="node">
<title>src_modules_lighthouse_status</title><style>.edge>path:hover{stroke-width:8}</style>
<ellipse fill="#3db86e" stroke="black" cx="510.01" cy="-369.43" rx="44.72" ry="37.48"/>
<text xml:space="preserve" text-anchor="middle" x="510.01" y="-382.43" font-family="Helvetica,sans-Serif" font-size="10.00" fill="#000000">src.</text>
<text xml:space="preserve" text-anchor="middle" x="510.01" y="-371.18" font-family="Helvetica,sans-Serif" font-size="10.00" fill="#000000">modules.</text>
<text xml:space="preserve" text-anchor="middle" x="510.01" y="-359.93" font-family="Helvetica,sans-Serif" font-size="10.00" fill="#000000">lighthouse.</text>
<text xml:space="preserve" text-anchor="middle" x="510.01" y="-348.68" font-family="Helvetica,sans-Serif" font-size="10.00" fill="#000000">status</text>
</g>
<!-- src_modules_lighthouse_status&#45;&gt;rich -->
<g id="edge4" class="edge">
<title>src_modules_lighthouse_status&#45;&gt;rich</title><style>.edge>path:hover{stroke-width:8}</style>
<path fill="none" stroke="black" d="M636.46,-434.43C689.23,-441.16 732.66,-386.7 756.16,-434.43"/>
<path fill="none" stroke="black" d="M543.36,-394.73C567.06,-411.11 600.82,-430.15 634.46,-434.43"/>
</g>
<!-- src_modules_lighthouse_views&#45;&gt;rich -->
<g id="edge5" class="edge">
<title>src_modules_lighthouse_views&#45;&gt;rich</title><style>.edge>path:hover{stroke-width:8}</style>
<path fill="none" stroke="black" d="M404.84,-364.19C419.87,-382.39 441.15,-403.85 465.29,-415.43 533.5,-448.16 559.41,-424.87 634.46,-434.43"/>
</g>
<!-- src_modules_lighthouse_views&#45;&gt;src_modules_lighthouse_audits -->
<g id="edge19" class="edge">
<title>src_modules_lighthouse_views&#45;&gt;src_modules_lighthouse_audits</title><style>.edge>path:hover{stroke-width:8}</style>
<path fill="none" stroke="black" d="M425.74,-329.77C463.39,-325.48 517.32,-314.33 554.74,-285.43 585.06,-262 605.84,-223.54 618.56,-193.01"/>
<polygon fill="#33995c" stroke="black" points="621.7,-194.56 622.16,-183.98 615.2,-191.97 621.7,-194.56"/>
</g>
<!-- src_modules_lighthouse_views&#45;&gt;src_modules_lighthouse_config -->
<g id="edge22" class="edge">
<title>src_modules_lighthouse_views&#45;&gt;src_modules_lighthouse_config</title><style>.edge>path:hover{stroke-width:8}</style>
<path fill="none" stroke="black" d="M415.26,-308C431.03,-296.46 450.02,-282.57 466.78,-270.32"/>
<polygon fill="#33995c" stroke="black" points="468.6,-273.32 474.6,-264.6 464.46,-267.67 468.6,-273.32"/>
</g>
<!-- src_modules_lighthouse_views&#45;&gt;src_modules_lighthouse_status -->
<g id="edge26" class="edge">
<title>src_modules_lighthouse_views&#45;&gt;src_modules_lighthouse_status</title><style>.edge>path:hover{stroke-width:8}</style>
<path fill="none" stroke="black" d="M423.49,-344.55C434.03,-347.61 445.48,-350.95 456.48,-354.15"/>
<polygon fill="#33995c" stroke="black" points="455.25,-357.43 465.83,-356.87 457.2,-350.71 455.25,-357.43"/>
</g>
<!-- src_modules_lighthouse_widgets_thirdparty -->
<g id="node22" class="node">
<title>src_modules_lighthouse_widgets_thirdparty</title><style>.edge>path:hover{stroke-width:8}</style>
<ellipse fill="#38a865" stroke="black" cx="380.85" cy="-45.43" rx="44.72" ry="45.43"/>
<text xml:space="preserve" text-anchor="middle" x="380.85" y="-64.06" font-family="Helvetica,sans-Serif" font-size="10.00" fill="#ffffff">src.</text>
<text xml:space="preserve" text-anchor="middle" x="380.85" y="-52.81" font-family="Helvetica,sans-Serif" font-size="10.00" fill="#ffffff">modules.</text>
<text xml:space="preserve" text-anchor="middle" x="380.85" y="-41.56" font-family="Helvetica,sans-Serif" font-size="10.00" fill="#ffffff">lighthouse.</text>
<text xml:space="preserve" text-anchor="middle" x="380.85" y="-30.31" font-family="Helvetica,sans-Serif" font-size="10.00" fill="#ffffff">widgets.</text>
<text xml:space="preserve" text-anchor="middle" x="380.85" y="-19.06" font-family="Helvetica,sans-Serif" font-size="10.00" fill="#ffffff">thirdparty</text>
</g>
<!-- src_modules_lighthouse_widgets&#45;&gt;src_modules_lighthouse_widgets_thirdparty -->
<g id="edge29" class="edge">
<title>src_modules_lighthouse_widgets&#45;&gt;src_modules_lighthouse_widgets_thirdparty</title><style>.edge>path:hover{stroke-width:8}</style>
<path fill="none" stroke="black" d="M343.99,-217.63C332.3,-208.65 320.77,-197.11 314.41,-183.43 300.55,-153.61 301.54,-139.7 314.41,-109.43 319.21,-98.15 327.08,-87.89 335.76,-79.05"/>
<polygon fill="#40c073" stroke="black" points="337.94,-81.81 342.79,-72.39 333.12,-76.73 337.94,-81.81"/>
</g>
<!-- src_modules_lighthouse_widgets_thirdparty&#45;&gt;rich -->
<g id="edge6" class="edge">
<title>src_modules_lighthouse_widgets_thirdparty&#45;&gt;rich</title><style>.edge>path:hover{stroke-width:8}</style>
<path fill="none" stroke="black" d="M925.13,-732.43C932.86,-729.93 941.42,-728.9 949.64,-728.69"/>
<polygon fill="#38a865" stroke="black" points="949.36,-732.19 959.42,-728.86 949.48,-725.19 949.36,-732.19"/>
<path fill="none" stroke="black" d="M758.16,-434.43C766.85,-452.08 785.87,-438.05 798.13,-453.43 877.3,-552.77 738.48,-695.89 860.13,-732.43"/>
<path fill="none" stroke="black" d="M425.68,-39.86C490.41,-34.27 611.3,-34.34 680.18,-100.43 790.03,-205.83 688.91,-297.85 756.16,-434.43"/>
<path fill="none" stroke="black" d="M862.13,-732.43C888.52,-740.36 897.92,-740.93 924.13,-732.43"/>
</g>
<!-- yaml -->
<g id="node27" class="node">
<title>yaml</title><style>.edge>path:hover{stroke-width:8}</style>
<polygon fill="#a253b6" stroke="black" points="784.16,-796.43 781.16,-800.43 760.16,-800.43 757.16,-796.43 730.16,-796.43 730.16,-760.43 784.16,-760.43 784.16,-796.43"/>
<text xml:space="preserve" text-anchor="middle" x="757.16" y="-774.56" font-family="Helvetica,sans-Serif" font-size="10.00" fill="#ffffff">yaml</text>
</g>
<!-- src_services_workspaces&#45;&gt;yaml -->
<g id="edge40" class="edge">
<title>src_services_workspaces&#45;&gt;yaml</title><style>.edge>path:hover{stroke-width:8}</style>
<path fill="none" stroke="black" d="M429.64,-788.9C504.94,-786.49 649.68,-781.85 718.29,-779.65"/>
<polygon fill="#26d96e" stroke="black" points="718.4,-783.14 728.28,-779.33 718.18,-776.15 718.4,-783.14"/>
</g>
<!-- textual&#45;&gt;rich -->
<g id="edge7" class="edge">
<title>textual&#45;&gt;rich</title><style>.edge>path:hover{stroke-width:8}</style>
<path fill="none" stroke="black" d="M867.07,-806.16C874.68,-782.45 891.89,-742.88 924.13,-732.43"/>
</g>
</g>
</svg>
