<?xml version="1.0" encoding="UTF-8" standalone="no"?>
<!DOCTYPE svg PUBLIC "-//W3C//DTD SVG 1.1//EN"
 "http://www.w3.org/Graphics/SVG/1.1/DTD/svg11.dtd">
<!-- Generated by graphviz version 14.1.2 (20260124.0452)
 -->
<!-- Title: G Pages: 1 -->
<svg width="1191pt" height="1036pt"
 viewBox="0.00 0.00 1191.00 1036.00" xmlns="http://www.w3.org/2000/svg" xmlns:xlink="http://www.w3.org/1999/xlink">
<g id="graph0" class="graph" transform="scale(1 1) rotate(0) translate(4 1031.57)">
<title>G</title><style>.edge>path:hover{stroke-width:8}</style>
<polygon fill="white" stroke="none" points="-4,4 -4,-1031.57 1187.24,-1031.57 1187.24,4 -4,4"/>
<!-- dashkit_cli -->
<g id="node1" class="node">
<title>dashkit_cli</title><style>.edge>path:hover{stroke-width:8}</style>
<ellipse fill="#913030" stroke="black" cx="45.79" cy="-486" rx="27" ry="18"/>
<text xml:space="preserve" text-anchor="middle" x="45.79" y="-482.12" font-family="Helvetica,sans-Serif" font-size="10.00" fill="#ffffff">cli</text>
</g>
<!-- dashkit_cli_lighthouse -->
<g id="node2" class="node">
<title>dashkit_cli_lighthouse</title><style>.edge>path:hover{stroke-width:8}</style>
<ellipse fill="#a13535" stroke="black" cx="173.36" cy="-603" rx="43.19" ry="18"/>
<text xml:space="preserve" text-anchor="middle" x="173.36" y="-599.12" font-family="Helvetica,sans-Serif" font-size="10.00" fill="#ffffff">cli.lighthouse</text>
</g>
<!-- dashkit_cli&#45;&gt;dashkit_cli_lighthouse -->
<g id="edge1" class="edge">
<title>dashkit_cli&#45;&gt;dashkit_cli_lighthouse</title><style>.edge>path:hover{stroke-width:8}</style>
<path fill="none" stroke="black" d="M62.43,-500.58C83.37,-520.09 120.79,-554.95 146.08,-578.52"/>
<polygon fill="#913030" stroke="black" points="143.67,-581.06 153.37,-585.31 148.44,-575.93 143.67,-581.06"/>
</g>
<!-- dashkit_cli_printer -->
<g id="node3" class="node">
<title>dashkit_cli_printer</title><style>.edge>path:hover{stroke-width:8}</style>
<ellipse fill="#a83838" stroke="black" cx="458.19" cy="-231" rx="32.99" ry="18"/>
<text xml:space="preserve" text-anchor="middle" x="458.19" y="-227.12" font-family="Helvetica,sans-Serif" font-size="10.00" fill="#ffffff">cli.printer</text>
</g>
<!-- dashkit_cli&#45;&gt;dashkit_cli_printer -->
<g id="edge2" class="edge">
<title>dashkit_cli&#45;&gt;dashkit_cli_printer</title><style>.edge>path:hover{stroke-width:8}</style>
<path fill="none" stroke="black" d="M298.74,-486C399.11,-448.78 300.44,-333.47 376.35,-258 386.7,-247.71 401.07,-241.34 414.84,-237.4"/>
<polygon fill="#913030" stroke="black" points="415.31,-240.89 424.19,-235.09 413.64,-234.09 415.31,-240.89"/>
<path fill="none" stroke="black" d="M71.92,-491.57C118.14,-500.64 219.03,-514.82 296.74,-486"/>
</g>
<!-- dashkit_cli_tui -->
<g id="node4" class="node">
<title>dashkit_cli_tui</title><style>.edge>path:hover{stroke-width:8}</style>
<ellipse fill="#b83d3d" stroke="black" cx="173.36" cy="-440" rx="27" ry="18"/>
<text xml:space="preserve" text-anchor="middle" x="173.36" y="-436.12" font-family="Helvetica,sans-Serif" font-size="10.00" fill="#ffffff">cli.tui</text>
</g>
<!-- dashkit_cli&#45;&gt;dashkit_cli_tui -->
<g id="edge3" class="edge">
<title>dashkit_cli&#45;&gt;dashkit_cli_tui</title><style>.edge>path:hover{stroke-width:8}</style>
<path fill="none" stroke="black" d="M70.11,-477.46C89.32,-470.42 116.81,-460.35 138.45,-452.42"/>
<polygon fill="#913030" stroke="black" points="139.55,-455.75 147.73,-449.02 137.14,-449.17 139.55,-455.75"/>
</g>
<!-- dashkit_services -->
<g id="node23" class="node">
<title>dashkit_services</title><style>.edge>path:hover{stroke-width:8}</style>
<ellipse fill="#db2f2f" stroke="black" cx="920.46" cy="-956" rx="31.21" ry="18"/>
<text xml:space="preserve" text-anchor="middle" x="920.46" y="-952.12" font-family="Helvetica,sans-Serif" font-size="10.00" fill="#ffffff">services</text>
</g>
<!-- dashkit_cli&#45;&gt;dashkit_services -->
<g id="edge28" class="edge">
<title>dashkit_cli&#45;&gt;dashkit_services</title><style>.edge>path:hover{stroke-width:8}</style>
<path fill="none" stroke="black" d="M49.01,-503.91C58.61,-572.77 103.12,-822.09 255.14,-932 328.43,-984.98 366.92,-950.67 457.19,-956"/>
</g>
<!-- dashkit_services_workspaces -->
<g id="node25" class="node">
<title>dashkit_services_workspaces</title><style>.edge>path:hover{stroke-width:8}</style>
<ellipse fill="#cc3333" stroke="black" cx="458.19" cy="-289" rx="48.44" ry="21.57"/>
<text xml:space="preserve" text-anchor="middle" x="458.19" y="-290.75" font-family="Helvetica,sans-Serif" font-size="10.00" fill="#ffffff">services.</text>
<text xml:space="preserve" text-anchor="middle" x="458.19" y="-279.5" font-family="Helvetica,sans-Serif" font-size="10.00" fill="#ffffff">workspaces</text>
</g>
<!-- dashkit_cli&#45;&gt;dashkit_services_workspaces -->
<g id="edge32" class="edge">
<title>dashkit_cli&#45;&gt;dashkit_services_workspaces</title><style>.edge>path:hover{stroke-width:8}</style>
<path fill="none" stroke="black" d="M298.74,-486C375.1,-457.68 316.75,-375.5 376.35,-320 384.19,-312.7 393.92,-307.06 403.9,-302.73"/>
<polygon fill="#913030" stroke="black" points="404.85,-306.11 412.89,-299.22 402.31,-299.59 404.85,-306.11"/>
</g>
<!-- dotenv -->
<g id="node30" class="node">
<title>dotenv</title><style>.edge>path:hover{stroke-width:8}</style>
<polygon fill="#a9c247" stroke="black" points="670.57,-488 667.57,-492 646.57,-492 643.57,-488 616.57,-488 616.57,-452 670.57,-452 670.57,-488"/>
<text xml:space="preserve" text-anchor="middle" x="643.57" y="-466.12" font-family="Helvetica,sans-Serif" font-size="10.00" fill="#000000">dotenv</text>
</g>
<!-- dashkit_cli&#45;&gt;dotenv -->
<g id="edge38" class="edge">
<title>dashkit_cli&#45;&gt;dotenv</title><style>.edge>path:hover{stroke-width:8}</style>
<path fill="none" stroke="black" d="M459.19,-524C495.98,-520.95 504.57,-515.2 540.04,-505 546.64,-503.1 579.02,-492 605.65,-482.8"/>
<polygon fill="#913030" stroke="black" points="606.51,-486.21 614.82,-479.63 604.22,-479.59 606.51,-486.21"/>
<path fill="none" stroke="black" d="M298.74,-486C331.19,-471.57 341.82,-496.72 376.35,-505 412.24,-513.61 420.41,-527.05 457.19,-524"/>
</g>
<!-- dashkit_modules -->
<g id="node11" class="node">
<title>dashkit_modules</title><style>.edge>path:hover{stroke-width:8}</style>
<ellipse fill="#db2f2f" stroke="black" cx="458.19" cy="-910" rx="31.21" ry="18"/>
<text xml:space="preserve" text-anchor="middle" x="458.19" y="-906.12" font-family="Helvetica,sans-Serif" font-size="10.00" fill="#ffffff">modules</text>
</g>
<!-- dashkit_cli_lighthouse&#45;&gt;dashkit_modules -->
<g id="edge14" class="edge">
<title>dashkit_cli_lighthouse&#45;&gt;dashkit_modules</title><style>.edge>path:hover{stroke-width:8}</style>
<path fill="none" stroke="black" d="M175.14,-621.1C178.62,-676.31 197.27,-843.33 296.74,-918"/>
<path fill="none" stroke="black" d="M298.74,-918C333.83,-944.34 386.58,-934.81 421.45,-923.85"/>
<polygon fill="#a13535" stroke="black" points="422.29,-927.26 430.66,-920.76 420.06,-920.62 422.29,-927.26"/>
</g>
<!-- dashkit_modules_lighthouse -->
<g id="node12" class="node">
<title>dashkit_modules_lighthouse</title><style>.edge>path:hover{stroke-width:8}</style>
<ellipse fill="#b62020" stroke="black" cx="297.74" cy="-674" rx="42.6" ry="21.57"/>
<text xml:space="preserve" text-anchor="middle" x="297.74" y="-675.75" font-family="Helvetica,sans-Serif" font-size="10.00" fill="#ffffff">modules.</text>
<text xml:space="preserve" text-anchor="middle" x="297.74" y="-664.5" font-family="Helvetica,sans-Serif" font-size="10.00" fill="#ffffff">lighthouse</text>
</g>
<!-- dashkit_cli_lighthouse&#45;&gt;dashkit_modules_lighthouse -->
<g id="edge15" class="edge">
<title>dashkit_cli_lighthouse&#45;&gt;dashkit_modules_lighthouse</title><style>.edge>path:hover{stroke-width:8}</style>
<path fill="none" stroke="black" d="M199.71,-617.71C216.89,-627.67 239.87,-641.01 259.16,-652.2"/>
<polygon fill="#a13535" stroke="black" points="257.14,-655.07 267.55,-657.06 260.65,-649.02 257.14,-655.07"/>
</g>
<!-- dashkit_cli_lighthouse&#45;&gt;dashkit_services -->
<g id="edge29" class="edge">
<title>dashkit_cli_lighthouse&#45;&gt;dashkit_services</title><style>.edge>path:hover{stroke-width:8}</style>
<path fill="none" stroke="black" d="M459.19,-956C540.55,-960.8 566.78,-926.04 642.57,-956"/>
<path fill="none" stroke="black" d="M298.74,-918C327.7,-939.74 421.05,-953.87 457.19,-956"/>
</g>
<!-- dashkit_cli_lighthouse&#45;&gt;dashkit_services_workspaces -->
<g id="edge33" class="edge">
<title>dashkit_cli_lighthouse&#45;&gt;dashkit_services_workspaces</title><style>.edge>path:hover{stroke-width:8}</style>
<path fill="none" stroke="black" d="M298.74,-524C316.37,-511.97 327.9,-517.34 340.35,-500 387.91,-433.72 323.73,-382.35 376.35,-320 383.18,-311.9 392.38,-305.91 402.13,-301.48"/>
<polygon fill="#a13535" stroke="black" points="403.41,-304.74 411.43,-297.82 400.84,-298.23 403.41,-304.74"/>
<path fill="none" stroke="black" d="M198.52,-587.92C223.38,-572.28 263.11,-546.96 296.74,-524"/>
</g>
<!-- dashkit_cli_lighthouse&#45;&gt;dotenv -->
<g id="edge39" class="edge">
<title>dashkit_cli_lighthouse&#45;&gt;dotenv</title><style>.edge>path:hover{stroke-width:8}</style>
<path fill="none" stroke="black" d="M298.74,-524C356.91,-484.3 387.01,-529.82 457.19,-524"/>
</g>
<!-- dashkit_framework -->
<g id="node5" class="node">
<title>dashkit_framework</title><style>.edge>path:hover{stroke-width:8}</style>
<ellipse fill="#f31616" stroke="black" cx="920.46" cy="-240" rx="36.54" ry="18"/>
<text xml:space="preserve" text-anchor="middle" x="920.46" y="-236.12" font-family="Helvetica,sans-Serif" font-size="10.00" fill="#ffffff">framework</text>
</g>
<!-- dashkit_cli_printer&#45;&gt;dashkit_framework -->
<g id="edge4" class="edge">
<title>dashkit_cli_printer&#45;&gt;dashkit_framework</title><style>.edge>path:hover{stroke-width:8}</style>
<path fill="none" stroke="black" d="M793.88,-194C826.12,-196.88 860.47,-210.26 885.08,-221.85"/>
<polygon fill="#a83838" stroke="black" points="883.45,-224.95 893.97,-226.18 886.51,-218.65 883.45,-224.95"/>
</g>
<!-- dashkit_framework_views -->
<g id="node10" class="node">
<title>dashkit_framework_views</title><style>.edge>path:hover{stroke-width:8}</style>
<ellipse fill="#c43131" stroke="black" cx="792.88" cy="-106" rx="45.79" ry="21.57"/>
<text xml:space="preserve" text-anchor="middle" x="792.88" y="-107.75" font-family="Helvetica,sans-Serif" font-size="10.00" fill="#ffffff">framework.</text>
<text xml:space="preserve" text-anchor="middle" x="792.88" y="-96.5" font-family="Helvetica,sans-Serif" font-size="10.00" fill="#ffffff">views</text>
</g>
<!-- dashkit_cli_printer&#45;&gt;dashkit_framework_views -->
<g id="edge12" class="edge">
<title>dashkit_cli_printer&#45;&gt;dashkit_framework_views</title><style>.edge>path:hover{stroke-width:8}</style>
<path fill="none" stroke="black" d="M644.57,-194C688.75,-183.11 732.65,-153.89 760.88,-132.09"/>
<polygon fill="#a83838" stroke="black" points="762.96,-134.9 768.64,-125.95 758.62,-129.41 762.96,-134.9"/>
<path fill="none" stroke="black" d="M490.2,-225.58C526.81,-218.99 589.44,-207.1 642.57,-194"/>
</g>
<!-- rich -->
<g id="node31" class="node">
<title>rich</title><style>.edge>path:hover{stroke-width:8}</style>
<polygon fill="blue" stroke="black" points="1183.24,-82 1180.24,-86 1159.24,-86 1156.24,-82 1129.24,-82 1129.24,-46 1183.24,-46 1183.24,-82"/>
<text xml:space="preserve" text-anchor="middle" x="1156.24" y="-60.12" font-family="Helvetica,sans-Serif" font-size="10.00" fill="white">rich</text>
</g>
<!-- dashkit_cli_printer&#45;&gt;rich -->
<g id="edge40" class="edge">
<title>dashkit_cli_printer&#45;&gt;rich</title><style>.edge>path:hover{stroke-width:8}</style>
<path fill="none" stroke="black" d="M793.88,-194C849.47,-198.97 882.05,-152.58 919.46,-194"/>
<path fill="none" stroke="black" d="M644.57,-194C708.14,-178.32 726.67,-188.17 791.88,-194"/>
</g>
<!-- dashkit_tui -->
<g id="node26" class="node">
<title>dashkit_tui</title><style>.edge>path:hover{stroke-width:8}</style>
<ellipse fill="#c24747" stroke="black" cx="458.19" cy="-152" rx="27" ry="18"/>
<text xml:space="preserve" text-anchor="middle" x="458.19" y="-148.12" font-family="Helvetica,sans-Serif" font-size="10.00" fill="#ffffff">tui</text>
</g>
<!-- dashkit_cli_tui&#45;&gt;dashkit_tui -->
<g id="edge34" class="edge">
<title>dashkit_cli_tui&#45;&gt;dashkit_tui</title><style>.edge>path:hover{stroke-width:8}</style>
<path fill="none" stroke="black" d="M298.74,-152C332.9,-123.01 387.74,-130.91 423.11,-140.49"/>
<polygon fill="#b83d3d" stroke="black" points="421.82,-143.76 432.4,-143.19 423.78,-137.04 421.82,-143.76"/>
</g>
<!-- dashkit_tui_app -->
<g id="node27" class="node">
<title>dashkit_tui_app</title><style>.edge>path:hover{stroke-width:8}</style>
<ellipse fill="#822b2b" stroke="black" cx="458.19" cy="-72" rx="27" ry="18"/>
<text xml:space="preserve" text-anchor="middle" x="458.19" y="-68.12" font-family="Helvetica,sans-Serif" font-size="10.00" fill="#ffffff">tui.app</text>
</g>
<!-- dashkit_cli_tui&#45;&gt;dashkit_tui_app -->
<g id="edge35" class="edge">
<title>dashkit_cli_tui&#45;&gt;dashkit_tui_app</title><style>.edge>path:hover{stroke-width:8}</style>
<path fill="none" stroke="black" d="M176.46,-421.87C183.38,-370.93 210.17,-225.47 296.74,-152"/>
<path fill="none" stroke="black" d="M298.74,-152C336.38,-120.06 388.94,-96.77 423.03,-83.81"/>
<polygon fill="#b83d3d" stroke="black" points="423.82,-87.25 431.98,-80.5 421.39,-80.69 423.82,-87.25"/>
</g>
<!-- dashkit_framework_presenters_occurrence_tables -->
<g id="node6" class="node">
<title>dashkit_framework_presenters_occurrence_tables</title><style>.edge>path:hover{stroke-width:8}</style>
<ellipse fill="#8f3d3d" stroke="black" cx="643.57" cy="-690" rx="67.53" ry="29.52"/>
<text xml:space="preserve" text-anchor="middle" x="643.57" y="-697.38" font-family="Helvetica,sans-Serif" font-size="10.00" fill="#ffffff">framework.</text>
<text xml:space="preserve" text-anchor="middle" x="643.57" y="-686.12" font-family="Helvetica,sans-Serif" font-size="10.00" fill="#ffffff">presenters.</text>
<text xml:space="preserve" text-anchor="middle" x="643.57" y="-674.88" font-family="Helvetica,sans-Serif" font-size="10.00" fill="#ffffff">occurrence_tables</text>
</g>
<!-- dashkit_framework_status -->
<g id="node7" class="node">
<title>dashkit_framework_status</title><style>.edge>path:hover{stroke-width:8}</style>
<ellipse fill="#d02424" stroke="black" cx="920.46" cy="-658" rx="45.79" ry="21.57"/>
<text xml:space="preserve" text-anchor="middle" x="920.46" y="-659.75" font-family="Helvetica,sans-Serif" font-size="10.00" fill="#ffffff">framework.</text>
<text xml:space="preserve" text-anchor="middle" x="920.46" y="-648.5" font-family="Helvetica,sans-Serif" font-size="10.00" fill="#ffffff">status</text>
</g>
<!-- dashkit_framework_presenters_occurrence_tables&#45;&gt;dashkit_framework_status -->
<g id="edge8" class="edge">
<title>dashkit_framework_presenters_occurrence_tables&#45;&gt;dashkit_framework_status</title><style>.edge>path:hover{stroke-width:8}</style>
<path fill="none" stroke="black" d="M705.96,-678.34C732.31,-674.2 763.5,-670.45 791.88,-670"/>
<path fill="none" stroke="black" d="M793.88,-670C817.19,-669.63 842.83,-667.49 864.83,-665.12"/>
<polygon fill="#8f3d3d" stroke="black" points="864.91,-668.64 874.46,-664.04 864.13,-661.68 864.91,-668.64"/>
</g>
<!-- dashkit_framework_presenters_occurrence_tables&#45;&gt;rich -->
<g id="edge41" class="edge">
<title>dashkit_framework_presenters_occurrence_tables&#45;&gt;rich</title><style>.edge>path:hover{stroke-width:8}</style>
<path fill="none" stroke="black" d="M793.88,-670C852.19,-669.08 861.73,-716.22 919.46,-708"/>
<path fill="none" stroke="black" d="M921.46,-708C973.34,-700.61 981.53,-681.75 1028.24,-658"/>
</g>
<!-- dashkit_framework_status&#45;&gt;rich -->
<g id="edge42" class="edge">
<title>dashkit_framework_status&#45;&gt;rich</title><style>.edge>path:hover{stroke-width:8}</style>
<path fill="none" stroke="black" d="M963.06,-666.54C983.71,-668.71 1008.41,-668.08 1028.24,-658"/>
</g>
<!-- dashkit_framework_test_utils -->
<g id="node8" class="node">
<title>dashkit_framework_test_utils</title><style>.edge>path:hover{stroke-width:8}</style>
<ellipse fill="#b34c4c" stroke="black" cx="45.79" cy="-1006" rx="45.79" ry="21.57"/>
<text xml:space="preserve" text-anchor="middle" x="45.79" y="-1007.75" font-family="Helvetica,sans-Serif" font-size="10.00" fill="#ffffff">framework.</text>
<text xml:space="preserve" text-anchor="middle" x="45.79" y="-996.5" font-family="Helvetica,sans-Serif" font-size="10.00" fill="#ffffff">test_utils</text>
</g>
<!-- dashkit_framework_utils -->
<g id="node9" class="node">
<title>dashkit_framework_utils</title><style>.edge>path:hover{stroke-width:8}</style>
<ellipse fill="#c24747" stroke="black" cx="173.36" cy="-1006" rx="45.79" ry="21.57"/>
<text xml:space="preserve" text-anchor="middle" x="173.36" y="-1007.75" font-family="Helvetica,sans-Serif" font-size="10.00" fill="#ffffff">framework.</text>
<text xml:space="preserve" text-anchor="middle" x="173.36" y="-996.5" font-family="Helvetica,sans-Serif" font-size="10.00" fill="#ffffff">utils</text>
</g>
<!-- dashkit_framework_test_utils&#45;&gt;dashkit_framework_utils -->
<g id="edge11" class="edge">
<title>dashkit_framework_test_utils&#45;&gt;dashkit_framework_utils</title><style>.edge>path:hover{stroke-width:8}</style>
<path fill="none" stroke="black" d="M91.76,-1006C99.61,-1006 107.86,-1006 115.96,-1006"/>
<polygon fill="#b34c4c" stroke="black" points="115.75,-1009.5 125.75,-1006 115.75,-1002.5 115.75,-1009.5"/>
</g>
<!-- dashkit_framework_views&#45;&gt;rich -->
<g id="edge43" class="edge">
<title>dashkit_framework_views&#45;&gt;rich</title><style>.edge>path:hover{stroke-width:8}</style>
<path fill="none" stroke="black" d="M824.45,-122.14C851.86,-137.74 891.89,-163.47 919.46,-194"/>
<path fill="none" stroke="black" d="M1030.24,-658C1148.54,-597.85 984.08,-140.91 1092.24,-64"/>
<path fill="none" stroke="black" d="M921.46,-194C935.95,-210.05 953.09,-195.84 966.24,-213 1026.98,-292.24 939.24,-703.25 1028.24,-658"/>
</g>
<!-- dashkit_modules_lighthouse_runner -->
<g id="node17" class="node">
<title>dashkit_modules_lighthouse_runner</title><style>.edge>path:hover{stroke-width:8}</style>
<ellipse fill="#b03a3a" stroke="black" cx="458.19" cy="-674" rx="44.72" ry="29.52"/>
<text xml:space="preserve" text-anchor="middle" x="458.19" y="-681.38" font-family="Helvetica,sans-Serif" font-size="10.00" fill="#ffffff">modules.</text>
<text xml:space="preserve" text-anchor="middle" x="458.19" y="-670.12" font-family="Helvetica,sans-Serif" font-size="10.00" fill="#ffffff">lighthouse.</text>
<text xml:space="preserve" text-anchor="middle" x="458.19" y="-658.88" font-family="Helvetica,sans-Serif" font-size="10.00" fill="#ffffff">runner</text>
</g>
<!-- dashkit_modules_lighthouse&#45;&gt;dashkit_modules_lighthouse_runner -->
<g id="edge22" class="edge">
<title>dashkit_modules_lighthouse&#45;&gt;dashkit_modules_lighthouse_runner</title><style>.edge>path:hover{stroke-width:8}</style>
<path fill="none" stroke="black" d="M340.79,-674C359.41,-674 381.58,-674 401.55,-674"/>
<polygon fill="#b62020" stroke="black" points="401.5,-677.5 411.5,-674 401.5,-670.5 401.5,-677.5"/>
</g>
<!-- dashkit_modules_lighthouse_widgets -->
<g id="node18" class="node">
<title>dashkit_modules_lighthouse_widgets</title><style>.edge>path:hover{stroke-width:8}</style>
<ellipse fill="#bc2f2f" stroke="black" cx="458.19" cy="-844" rx="44.72" ry="29.52"/>
<text xml:space="preserve" text-anchor="middle" x="458.19" y="-851.38" font-family="Helvetica,sans-Serif" font-size="10.00" fill="#ffffff">modules.</text>
<text xml:space="preserve" text-anchor="middle" x="458.19" y="-840.12" font-family="Helvetica,sans-Serif" font-size="10.00" fill="#ffffff">lighthouse.</text>
<text xml:space="preserve" text-anchor="middle" x="458.19" y="-828.88" font-family="Helvetica,sans-Serif" font-size="10.00" fill="#ffffff">widgets</text>
</g>
<!-- dashkit_modules_lighthouse&#45;&gt;dashkit_modules_lighthouse_widgets -->
<g id="edge23" class="edge">
<title>dashkit_modules_lighthouse&#45;&gt;dashkit_modules_lighthouse_widgets</title><style>.edge>path:hover{stroke-width:8}</style>
<path fill="none" stroke="black" d="M306.7,-695.17C318.25,-723.42 342.08,-773.54 376.35,-805 385.49,-813.39 396.76,-820.34 407.96,-825.92"/>
<polygon fill="#b62020" stroke="black" points="406.25,-828.98 416.79,-830.03 409.2,-822.64 406.25,-828.98"/>
</g>
<!-- dashkit_modules_lighthouse_audits -->
<g id="node13" class="node">
<title>dashkit_modules_lighthouse_audits</title><style>.edge>path:hover{stroke-width:8}</style>
<ellipse fill="#db2f2f" stroke="black" cx="792.88" cy="-528" rx="44.72" ry="29.52"/>
<text xml:space="preserve" text-anchor="middle" x="792.88" y="-535.38" font-family="Helvetica,sans-Serif" font-size="10.00" fill="#ffffff">modules.</text>
<text xml:space="preserve" text-anchor="middle" x="792.88" y="-524.12" font-family="Helvetica,sans-Serif" font-size="10.00" fill="#ffffff">lighthouse.</text>
<text xml:space="preserve" text-anchor="middle" x="792.88" y="-512.88" font-family="Helvetica,sans-Serif" font-size="10.00" fill="#ffffff">audits</text>
</g>
<!-- dashkit_modules_lighthouse_categories -->
<g id="node14" class="node">
<title>dashkit_modules_lighthouse_categories</title><style>.edge>path:hover{stroke-width:8}</style>
<ellipse fill="#c04040" stroke="black" cx="643.57" cy="-574" rx="44.72" ry="29.52"/>
<text xml:space="preserve" text-anchor="middle" x="643.57" y="-581.38" font-family="Helvetica,sans-Serif" font-size="10.00" fill="#ffffff">modules.</text>
<text xml:space="preserve" text-anchor="middle" x="643.57" y="-570.12" font-family="Helvetica,sans-Serif" font-size="10.00" fill="#ffffff">lighthouse.</text>
<text xml:space="preserve" text-anchor="middle" x="643.57" y="-558.88" font-family="Helvetica,sans-Serif" font-size="10.00" fill="#ffffff">categories</text>
</g>
<!-- dashkit_modules_lighthouse_categories&#45;&gt;dashkit_modules_lighthouse_audits -->
<g id="edge16" class="edge">
<title>dashkit_modules_lighthouse_categories&#45;&gt;dashkit_modules_lighthouse_audits</title><style>.edge>path:hover{stroke-width:8}</style>
<path fill="none" stroke="black" d="M684.44,-561.55C701.88,-556.11 722.54,-549.65 741.07,-543.87"/>
<polygon fill="#c04040" stroke="black" points="742.04,-547.23 750.54,-540.91 739.95,-540.55 742.04,-547.23"/>
</g>
<!-- dashkit_modules_lighthouse_config -->
<g id="node15" class="node">
<title>dashkit_modules_lighthouse_config</title><style>.edge>path:hover{stroke-width:8}</style>
<ellipse fill="#c24747" stroke="black" cx="643.57" cy="-366" rx="44.72" ry="29.52"/>
<text xml:space="preserve" text-anchor="middle" x="643.57" y="-373.38" font-family="Helvetica,sans-Serif" font-size="10.00" fill="#ffffff">modules.</text>
<text xml:space="preserve" text-anchor="middle" x="643.57" y="-362.12" font-family="Helvetica,sans-Serif" font-size="10.00" fill="#ffffff">lighthouse.</text>
<text xml:space="preserve" text-anchor="middle" x="643.57" y="-350.88" font-family="Helvetica,sans-Serif" font-size="10.00" fill="#ffffff">config</text>
</g>
<!-- dashkit_modules_lighthouse_http -->
<g id="node16" class="node">
<title>dashkit_modules_lighthouse_http</title><style>.edge>path:hover{stroke-width:8}</style>
<ellipse fill="#c24747" stroke="black" cx="643.57" cy="-844" rx="44.72" ry="29.52"/>
<text xml:space="preserve" text-anchor="middle" x="643.57" y="-851.38" font-family="Helvetica,sans-Serif" font-size="10.00" fill="#ffffff">modules.</text>
<text xml:space="preserve" text-anchor="middle" x="643.57" y="-840.12" font-family="Helvetica,sans-Serif" font-size="10.00" fill="#ffffff">lighthouse.</text>
<text xml:space="preserve" text-anchor="middle" x="643.57" y="-828.88" font-family="Helvetica,sans-Serif" font-size="10.00" fill="#ffffff">http</text>
</g>
<!-- dashkit_modules_lighthouse_runner&#45;&gt;dashkit_modules_lighthouse_http -->
<g id="edge21" class="edge">
<title>dashkit_modules_lighthouse_runner&#45;&gt;dashkit_modules_lighthouse_http</title><style>.edge>path:hover{stroke-width:8}</style>
<path fill="none" stroke="black" d="M499.08,-686.46C513.48,-692.57 528.91,-701.22 540.04,-713 568.77,-743.42 549.42,-767.71 576.04,-800 582.18,-807.45 589.91,-814.1 597.91,-819.85"/>
<polygon fill="#b03a3a" stroke="black" points="595.83,-822.66 606.09,-825.32 599.72,-816.85 595.83,-822.66"/>
</g>
<!-- dashkit_modules_lighthouse_runner&#45;&gt;dashkit_services -->
<g id="edge30" class="edge">
<title>dashkit_modules_lighthouse_runner&#45;&gt;dashkit_services</title><style>.edge>path:hover{stroke-width:8}</style>
<path fill="none" stroke="black" d="M499.86,-685.26C514.53,-691.25 529.95,-700.12 540.04,-713 587.7,-773.77 540.8,-814.28 576.04,-883 596.07,-922.06 600.97,-941.98 642.57,-956"/>
<path fill="none" stroke="black" d="M644.57,-956C724.41,-982.91 824.86,-972.71 879.53,-963.78"/>
<polygon fill="#b03a3a" stroke="black" points="880.04,-967.24 889.3,-962.1 878.85,-960.34 880.04,-967.24"/>
</g>
<!-- dashkit_services_snapshots -->
<g id="node24" class="node">
<title>dashkit_services_snapshots</title><style>.edge>path:hover{stroke-width:8}</style>
<ellipse fill="#c24747" stroke="black" cx="920.46" cy="-758" rx="43.13" ry="21.57"/>
<text xml:space="preserve" text-anchor="middle" x="920.46" y="-759.75" font-family="Helvetica,sans-Serif" font-size="10.00" fill="#ffffff">services.</text>
<text xml:space="preserve" text-anchor="middle" x="920.46" y="-748.5" font-family="Helvetica,sans-Serif" font-size="10.00" fill="#ffffff">snapshots</text>
</g>
<!-- dashkit_modules_lighthouse_runner&#45;&gt;dashkit_services_snapshots -->
<g id="edge31" class="edge">
<title>dashkit_modules_lighthouse_runner&#45;&gt;dashkit_services_snapshots</title><style>.edge>path:hover{stroke-width:8}</style>
<path fill="none" stroke="black" d="M498.08,-688.15C512.2,-694.42 527.7,-702.74 540.04,-713 560.83,-730.27 551.93,-749.8 576.04,-762 671.66,-810.4 802.3,-788.86 871.65,-771.74"/>
<polygon fill="#b03a3a" stroke="black" points="872.35,-775.17 881.18,-769.31 870.62,-768.39 872.35,-775.17"/>
</g>
<!-- dashkit_modules_lighthouse_widgets_audits -->
<g id="node19" class="node">
<title>dashkit_modules_lighthouse_widgets_audits</title><style>.edge>path:hover{stroke-width:8}</style>
<ellipse fill="#8a2e2e" stroke="black" cx="458.19" cy="-589" rx="44.72" ry="37.48"/>
<text xml:space="preserve" text-anchor="middle" x="458.19" y="-602" font-family="Helvetica,sans-Serif" font-size="10.00" fill="#ffffff">modules.</text>
<text xml:space="preserve" text-anchor="middle" x="458.19" y="-590.75" font-family="Helvetica,sans-Serif" font-size="10.00" fill="#ffffff">lighthouse.</text>
<text xml:space="preserve" text-anchor="middle" x="458.19" y="-579.5" font-family="Helvetica,sans-Serif" font-size="10.00" fill="#ffffff">widgets.</text>
<text xml:space="preserve" text-anchor="middle" x="458.19" y="-568.25" font-family="Helvetica,sans-Serif" font-size="10.00" fill="#ffffff">audits</text>
</g>
<!-- dashkit_modules_lighthouse_widgets&#45;&gt;dashkit_modules_lighthouse_widgets_audits -->
<g id="edge24" class="edge">
<title>dashkit_modules_lighthouse_widgets&#45;&gt;dashkit_modules_lighthouse_widgets_audits</title><style>.edge>path:hover{stroke-width:8}</style>
<path fill="none" stroke="black" d="M415.16,-834.81C394.13,-827.89 370.73,-816.04 358.35,-796 340.59,-767.27 341.16,-673.08 358.35,-644 368.7,-626.48 386.84,-614.16 404.85,-605.69"/>
<polygon fill="#bc2f2f" stroke="black" points="406.2,-608.92 413.98,-601.74 403.42,-602.5 406.2,-608.92"/>
</g>
<!-- dashkit_modules_lighthouse_widgets_metrics_summary -->
<g id="node20" class="node">
<title>dashkit_modules_lighthouse_widgets_metrics_summary</title><style>.edge>path:hover{stroke-width:8}</style>
<ellipse fill="#9b2626" stroke="black" cx="458.19" cy="-366" rx="66.47" ry="37.48"/>
<text xml:space="preserve" text-anchor="middle" x="458.19" y="-379" font-family="Helvetica,sans-Serif" font-size="10.00" fill="#ffffff">modules.</text>
<text xml:space="preserve" text-anchor="middle" x="458.19" y="-367.75" font-family="Helvetica,sans-Serif" font-size="10.00" fill="#ffffff">lighthouse.</text>
<text xml:space="preserve" text-anchor="middle" x="458.19" y="-356.5" font-family="Helvetica,sans-Serif" font-size="10.00" fill="#ffffff">widgets.</text>
<text xml:space="preserve" text-anchor="middle" x="458.19" y="-345.25" font-family="Helvetica,sans-Serif" font-size="10.00" fill="#ffffff">metrics_summary</text>
</g>
<!-- dashkit_modules_lighthouse_widgets&#45;&gt;dashkit_modules_lighthouse_widgets_metrics_summary -->
<g id="edge25" class="edge">
<title>dashkit_modules_lighthouse_widgets&#45;&gt;dashkit_modules_lighthouse_widgets_metrics_summary</title><style>.edge>path:hover{stroke-width:8}</style>
<path fill="none" stroke="black" d="M415.16,-834.81C394.13,-827.89 370.73,-816.04 358.35,-796 336.5,-760.65 337.35,-457.86 358.35,-422 365.95,-409.02 377.79,-398.82 390.69,-390.89"/>
<polygon fill="#bc2f2f" stroke="black" points="392.39,-393.95 399.4,-386 388.96,-387.84 392.39,-393.95"/>
</g>
<!-- dashkit_modules_lighthouse_widgets_thirdparty -->
<g id="node22" class="node">
<title>dashkit_modules_lighthouse_widgets_thirdparty</title><style>.edge>path:hover{stroke-width:8}</style>
<ellipse fill="#a83838" stroke="black" cx="458.19" cy="-759" rx="44.72" ry="37.48"/>
<text xml:space="preserve" text-anchor="middle" x="458.19" y="-772" font-family="Helvetica,sans-Serif" font-size="10.00" fill="#ffffff">modules.</text>
<text xml:space="preserve" text-anchor="middle" x="458.19" y="-760.75" font-family="Helvetica,sans-Serif" font-size="10.00" fill="#ffffff">lighthouse.</text>
<text xml:space="preserve" text-anchor="middle" x="458.19" y="-749.5" font-family="Helvetica,sans-Serif" font-size="10.00" fill="#ffffff">widgets.</text>
<text xml:space="preserve" text-anchor="middle" x="458.19" y="-738.25" font-family="Helvetica,sans-Serif" font-size="10.00" fill="#ffffff">thirdparty</text>
</g>
<!-- dashkit_modules_lighthouse_widgets&#45;&gt;dashkit_modules_lighthouse_widgets_thirdparty -->
<g id="edge27" class="edge">
<title>dashkit_modules_lighthouse_widgets&#45;&gt;dashkit_modules_lighthouse_widgets_thirdparty</title><style>.edge>path:hover{stroke-width:8}</style>
<path fill="none" stroke="black" d="M458.19,-814.16C458.19,-812.18 458.19,-810.2 458.19,-808.21"/>
<polygon fill="#bc2f2f" stroke="black" points="461.69,-808.37 458.19,-798.37 454.69,-808.37 461.69,-808.37"/>
</g>
<!-- dashkit_modules_lighthouse_widgets_audits&#45;&gt;dashkit_framework -->
<g id="edge5" class="edge">
<title>dashkit_modules_lighthouse_widgets_audits&#45;&gt;dashkit_framework</title><style>.edge>path:hover{stroke-width:8}</style>
<path fill="none" stroke="black" d="M496.97,-569.69C519.54,-558.62 549,-544.98 576.04,-535 634.54,-513.41 660.11,-532.9 711.1,-497 813.67,-424.79 782.68,-352.28 874.67,-267 877.71,-264.18 881.09,-261.51 884.6,-259.02"/>
<polygon fill="#8a2e2e" stroke="black" points="886.28,-262.1 892.74,-253.71 882.45,-256.24 886.28,-262.1"/>
</g>
<!-- dashkit_modules_lighthouse_widgets_audits&#45;&gt;dashkit_framework_status -->
<g id="edge9" class="edge">
<title>dashkit_modules_lighthouse_widgets_audits&#45;&gt;dashkit_framework_status</title><style>.edge>path:hover{stroke-width:8}</style>
<path fill="none" stroke="black" d="M644.57,-632C721.88,-627.85 811.06,-639.29 866.35,-648.29"/>
<polygon fill="#8a2e2e" stroke="black" points="865.69,-651.73 876.13,-649.92 866.84,-644.83 865.69,-651.73"/>
</g>
<!-- dashkit_modules_lighthouse_widgets_audits&#45;&gt;dashkit_modules_lighthouse_audits -->
<g id="edge17" class="edge">
<title>dashkit_modules_lighthouse_widgets_audits&#45;&gt;dashkit_modules_lighthouse_audits</title><style>.edge>path:hover{stroke-width:8}</style>
<path fill="none" stroke="black" d="M644.57,-632C675.28,-630.35 684.8,-628.93 711.1,-613 732.16,-600.25 751.35,-580.58 765.73,-563.37"/>
<polygon fill="#8a2e2e" stroke="black" points="768.27,-565.8 771.85,-555.82 762.84,-561.39 768.27,-565.8"/>
<path fill="none" stroke="black" d="M499.02,-605.2C535.78,-618.48 592.12,-634.71 642.57,-632"/>
</g>
<!-- dashkit_modules_lighthouse_widgets_audits&#45;&gt;dashkit_modules_lighthouse_categories -->
<g id="edge19" class="edge">
<title>dashkit_modules_lighthouse_widgets_audits&#45;&gt;dashkit_modules_lighthouse_categories</title><style>.edge>path:hover{stroke-width:8}</style>
<path fill="none" stroke="black" d="M503.12,-585.41C528.43,-583.34 560.48,-580.72 587.47,-578.51"/>
<polygon fill="#8a2e2e" stroke="black" points="587.5,-582.02 597.18,-577.71 586.93,-575.04 587.5,-582.02"/>
</g>
<!-- dashkit_modules_lighthouse_widgets_audits&#45;&gt;rich -->
<g id="edge44" class="edge">
<title>dashkit_modules_lighthouse_widgets_audits&#45;&gt;rich</title><style>.edge>path:hover{stroke-width:8}</style>
<path fill="none" stroke="black" d="M498.87,-604.71C513.41,-612.09 528.99,-622.14 540.04,-635 569.19,-668.94 539.18,-703.65 576.04,-729 611.98,-753.72 889.19,-712.31 919.46,-708"/>
</g>
<!-- dashkit_modules_lighthouse_widgets_metrics_summary&#45;&gt;dashkit_framework -->
<g id="edge6" class="edge">
<title>dashkit_modules_lighthouse_widgets_metrics_summary&#45;&gt;dashkit_framework</title><style>.edge>path:hover{stroke-width:8}</style>
<path fill="none" stroke="black" d="M506.73,-340.09C517.8,-333.74 529.45,-326.81 540.04,-320 556.64,-309.33 557.79,-301.52 576.04,-294 676.14,-252.77 804.56,-242.81 872.47,-240.54"/>
<polygon fill="#9b2626" stroke="black" points="872.23,-244.04 882.12,-240.26 872.03,-237.05 872.23,-244.04"/>
</g>
<!-- dashkit_modules_lighthouse_widgets_metrics_summary&#45;&gt;dashkit_framework_status -->
<g id="edge10" class="edge">
<title>dashkit_modules_lighthouse_widgets_metrics_summary&#45;&gt;dashkit_framework_status</title><style>.edge>path:hover{stroke-width:8}</style>
<path fill="none" stroke="black" d="M515.49,-385.35C534.65,-391.78 556.23,-398.87 576.04,-405 605.42,-414.09 613.71,-413.38 642.57,-424"/>
<path fill="none" stroke="black" d="M644.57,-424C729.95,-455.42 777.02,-422.1 838.67,-489 880.17,-534.03 841.16,-570.74 874.67,-622 877.25,-625.95 880.4,-629.66 883.83,-633.1"/>
<polygon fill="#9b2626" stroke="black" points="881.27,-635.5 891.05,-639.57 885.94,-630.29 881.27,-635.5"/>
</g>
<!-- dashkit_modules_lighthouse_widgets_metrics_summary&#45;&gt;dashkit_modules_lighthouse_audits -->
<g id="edge18" class="edge">
<title>dashkit_modules_lighthouse_widgets_metrics_summary&#45;&gt;dashkit_modules_lighthouse_audits</title><style>.edge>path:hover{stroke-width:8}</style>
<path fill="none" stroke="black" d="M644.57,-424C673.43,-434.62 684.8,-427.07 711.1,-443 732.16,-455.75 751.35,-475.42 765.73,-492.63"/>
<polygon fill="#9b2626" stroke="black" points="762.84,-494.61 771.85,-500.18 768.27,-490.2 762.84,-494.61"/>
</g>
<!-- dashkit_modules_lighthouse_widgets_metrics_summary&#45;&gt;dashkit_modules_lighthouse_config -->
<g id="edge20" class="edge">
<title>dashkit_modules_lighthouse_widgets_metrics_summary&#45;&gt;dashkit_modules_lighthouse_config</title><style>.edge>path:hover{stroke-width:8}</style>
<path fill="none" stroke="black" d="M525.14,-366C545.39,-366 567.46,-366 586.94,-366"/>
<polygon fill="#9b2626" stroke="black" points="586.88,-369.5 596.88,-366 586.88,-362.5 586.88,-369.5"/>
</g>
<!-- dashkit_modules_lighthouse_widgets_metrics_summary&#45;&gt;rich -->
<g id="edge45" class="edge">
<title>dashkit_modules_lighthouse_widgets_metrics_summary&#45;&gt;rich</title><style>.edge>path:hover{stroke-width:8}</style>
<path fill="none" stroke="black" d="M510.94,-343.13C563,-323.51 644.84,-302.04 711.1,-327 796.21,-359.06 1020.31,-662.03 1028.24,-658"/>
</g>
<!-- dashkit_modules_lighthouse_widgets_test_metrics_summary -->
<g id="node21" class="node">
<title>dashkit_modules_lighthouse_widgets_test_metrics_summary</title><style>.edge>path:hover{stroke-width:8}</style>
<ellipse fill="#964040" stroke="black" cx="458.19" cy="-459" rx="81.85" ry="37.48"/>
<text xml:space="preserve" text-anchor="middle" x="458.19" y="-472" font-family="Helvetica,sans-Serif" font-size="10.00" fill="#ffffff">modules.</text>
<text xml:space="preserve" text-anchor="middle" x="458.19" y="-460.75" font-family="Helvetica,sans-Serif" font-size="10.00" fill="#ffffff">lighthouse.</text>
<text xml:space="preserve" text-anchor="middle" x="458.19" y="-449.5" font-family="Helvetica,sans-Serif" font-size="10.00" fill="#ffffff">widgets.</text>
<text xml:space="preserve" text-anchor="middle" x="458.19" y="-438.25" font-family="Helvetica,sans-Serif" font-size="10.00" fill="#ffffff">test_metrics_summary</text>
</g>
<!-- dashkit_modules_lighthouse_widgets_test_metrics_summary&#45;&gt;dashkit_modules_lighthouse_widgets_metrics_summary -->
<g id="edge26" class="edge">
<title>dashkit_modules_lighthouse_widgets_test_metrics_summary&#45;&gt;dashkit_modules_lighthouse_widgets_metrics_summary</title><style>.edge>path:hover{stroke-width:8}</style>
<path fill="none" stroke="black" d="M458.19,-421.04C458.19,-419.06 458.19,-417.08 458.19,-415.11"/>
<polygon fill="#964040" stroke="black" points="461.69,-415.29 458.19,-405.29 454.69,-415.29 461.69,-415.29"/>
</g>
<!-- dashkit_modules_lighthouse_widgets_thirdparty&#45;&gt;rich -->
<g id="edge46" class="edge">
<title>dashkit_modules_lighthouse_widgets_thirdparty&#45;&gt;rich</title><style>.edge>path:hover{stroke-width:8}</style>
<path fill="none" stroke="black" d="M498.84,-775.31C513.21,-782.72 528.68,-792.63 540.04,-805 565.87,-833.12 543.88,-862.42 576.04,-883 626.6,-915.35 652.01,-893.54 711.1,-883 830.07,-861.78 877.07,-870.56 966.24,-789 1013.77,-745.53 969.46,-684.35 1028.24,-658"/>
</g>
<!-- yaml -->
<g id="node33" class="node">
<title>yaml</title><style>.edge>path:hover{stroke-width:8}</style>
<polygon fill="#a253b6" stroke="black" points="947.46,-312 944.46,-316 923.46,-316 920.46,-312 893.46,-312 893.46,-276 947.46,-276 947.46,-312"/>
<text xml:space="preserve" text-anchor="middle" x="920.46" y="-290.12" font-family="Helvetica,sans-Serif" font-size="10.00" fill="#ffffff">yaml</text>
</g>
<!-- dashkit_services_workspaces&#45;&gt;yaml -->
<g id="edge51" class="edge">
<title>dashkit_services_workspaces&#45;&gt;yaml</title><style>.edge>path:hover{stroke-width:8}</style>
<path fill="none" stroke="black" d="M506.72,-289.52C598.44,-290.51 798.19,-292.68 881.63,-293.59"/>
<polygon fill="#cc3333" stroke="black" points="881.52,-297.09 891.56,-293.7 881.6,-290.09 881.52,-297.09"/>
</g>
<!-- dashkit_tui_app&#45;&gt;dashkit_framework -->
<g id="edge7" class="edge">
<title>dashkit_tui_app&#45;&gt;dashkit_framework</title><style>.edge>path:hover{stroke-width:8}</style>
<path fill="none" stroke="black" d="M644.57,-118C689.7,-121.69 798.61,-158.89 838.67,-180 856.6,-189.45 858.42,-195.88 874.67,-208 879.34,-211.48 884.32,-215.12 889.21,-218.64"/>
<polygon fill="#822b2b" stroke="black" points="886.97,-221.34 897.14,-224.32 891.04,-215.65 886.97,-221.34"/>
</g>
<!-- dashkit_tui_app&#45;&gt;dashkit_framework_views -->
<g id="edge13" class="edge">
<title>dashkit_tui_app&#45;&gt;dashkit_framework_views</title><style>.edge>path:hover{stroke-width:8}</style>
<path fill="none" stroke="black" d="M644.57,-118C675.59,-120.53 710.28,-117.97 738.21,-114.58"/>
<polygon fill="#822b2b" stroke="black" points="738.37,-118.09 747.84,-113.33 737.47,-111.14 738.37,-118.09"/>
</g>
<!-- dashkit_tui_parsers -->
<g id="node28" class="node">
<title>dashkit_tui_parsers</title><style>.edge>path:hover{stroke-width:8}</style>
<ellipse fill="#c24747" stroke="black" cx="643.57" cy="-72" rx="36.54" ry="18"/>
<text xml:space="preserve" text-anchor="middle" x="643.57" y="-68.12" font-family="Helvetica,sans-Serif" font-size="10.00" fill="#ffffff">tui.parsers</text>
</g>
<!-- dashkit_tui_app&#45;&gt;dashkit_tui_parsers -->
<g id="edge36" class="edge">
<title>dashkit_tui_app&#45;&gt;dashkit_tui_parsers</title><style>.edge>path:hover{stroke-width:8}</style>
<path fill="none" stroke="black" d="M485.47,-72C514.03,-72 560.26,-72 595.19,-72"/>
<polygon fill="#822b2b" stroke="black" points="595.05,-75.5 605.05,-72 595.05,-68.5 595.05,-75.5"/>
</g>
<!-- dashkit_tui_sidebar -->
<g id="node29" class="node">
<title>dashkit_tui_sidebar</title><style>.edge>path:hover{stroke-width:8}</style>
<ellipse fill="#a83838" stroke="black" cx="643.57" cy="-18" rx="36.09" ry="18"/>
<text xml:space="preserve" text-anchor="middle" x="643.57" y="-14.12" font-family="Helvetica,sans-Serif" font-size="10.00" fill="#ffffff">tui.sidebar</text>
</g>
<!-- dashkit_tui_app&#45;&gt;dashkit_tui_sidebar -->
<g id="edge37" class="edge">
<title>dashkit_tui_app&#45;&gt;dashkit_tui_sidebar</title><style>.edge>path:hover{stroke-width:8}</style>
<path fill="none" stroke="black" d="M483.17,-64.94C513.08,-56.13 564.72,-40.92 601.1,-30.21"/>
<polygon fill="#822b2b" stroke="black" points="601.81,-33.65 610.41,-27.47 599.83,-26.94 601.81,-33.65"/>
</g>
<!-- textual -->
<g id="node32" class="node">
<title>textual</title><style>.edge>path:hover{stroke-width:8}</style>
<polygon fill="blue" stroke="black" points="1056.24,-82 1053.24,-86 1032.24,-86 1029.24,-82 1002.24,-82 1002.24,-46 1056.24,-46 1056.24,-82"/>
<text xml:space="preserve" text-anchor="middle" x="1029.24" y="-60.12" font-family="Helvetica,sans-Serif" font-size="10.00" fill="white">textual</text>
</g>
<!-- dashkit_tui_app&#45;&gt;textual -->
<g id="edge49" class="edge">
<title>dashkit_tui_app&#45;&gt;textual</title><style>.edge>path:hover{stroke-width:8}</style>
<path fill="none" stroke="black" d="M644.57,-118C675.2,-120.71 683.19,-111.91 711.1,-99 728.55,-90.93 728.81,-80.93 747.1,-75 830.65,-47.91 935.53,-53.45 990.55,-59.14"/>
<polygon fill="#822b2b" stroke="black" points="990.01,-62.6 1000.33,-60.22 990.77,-55.65 990.01,-62.6"/>
<path fill="none" stroke="black" d="M482.54,-80.2C517.01,-91.78 583.78,-112.14 642.57,-118"/>
</g>
<!-- dashkit_tui_sidebar&#45;&gt;rich -->
<g id="edge47" class="edge">
<title>dashkit_tui_sidebar&#45;&gt;rich</title><style>.edge>path:hover{stroke-width:8}</style>
<path fill="none" stroke="black" d="M921.46,-18C981.62,-24.29 1000.33,-13.9 1056.24,-37 1074.72,-44.64 1075.94,-75.59 1092.24,-64"/>
<path fill="none" stroke="black" d="M679.47,-15.12C731.85,-11.46 833.8,-6.83 919.46,-18"/>
<path fill="none" stroke="black" d="M1093.24,-64C1100.3,-58.95 1109.06,-57.08 1117.76,-56.89"/>
<polygon fill="#a83838" stroke="black" points="1117.32,-60.37 1127.49,-57.4 1117.69,-53.38 1117.32,-60.37"/>
</g>
<!-- dashkit_tui_sidebar&#45;&gt;textual -->
<g id="edge50" class="edge">
<title>dashkit_tui_sidebar&#45;&gt;textual</title><style>.edge>path:hover{stroke-width:8}</style>
<path fill="none" stroke="black" d="M921.46,-18C946.25,-20.59 971.96,-31.39 991.95,-41.87"/>
<polygon fill="#a83838" stroke="black" points="990.06,-44.82 1000.51,-46.55 993.42,-38.68 990.06,-44.82"/>
</g>
<!-- textual&#45;&gt;rich -->
<g id="edge48" class="edge">
<title>textual&#45;&gt;rich</title><style>.edge>path:hover{stroke-width:8}</style>
<path fill="none" stroke="black" d="M1056.46,-70.49C1068.38,-71.91 1082.06,-71.24 1092.24,-64"/>
</g>
</g>
</svg>
