<?xml version="1.0" encoding="UTF-8" standalone="no"?>
<!DOCTYPE svg PUBLIC "-//W3C//DTD SVG 1.1//EN"
 "http://www.w3.org/Graphics/SVG/1.1/DTD/svg11.dtd">
<!-- Generated by graphviz version 14.1.2 (20260124.0452)
 -->
<!-- Title: G Pages: 1 -->
<svg width="1074pt" height="994pt"
 viewBox="0.00 0.00 1074.00 994.00" xmlns="http://www.w3.org/2000/svg" xmlns:xlink="http://www.w3.org/1999/xlink">
<g id="graph0" class="graph" transform="scale(1 1) rotate(0) translate(4 990.49)">
<title>G</title><style>.edge>path:hover{stroke-width:8}</style>
<polygon fill="white" stroke="none" points="-4,4 -4,-990.49 1070.12,-990.49 1070.12,4 -4,4"/>
<!-- dotenv -->
<g id="node1" class="node">
<title>dotenv</title><style>.edge>path:hover{stroke-width:8}</style>
<polygon fill="#b65353" stroke="black" points="558.75,-494.97 555.75,-498.97 534.75,-498.97 531.75,-494.97 504.75,-494.97 504.75,-458.97 558.75,-458.97 558.75,-494.97"/>
<text xml:space="preserve" text-anchor="middle" x="531.75" y="-473.09" font-family="Helvetica,sans-Serif" font-size="10.00" fill="#ffffff">dotenv</text>
</g>
<!-- rich -->
<g id="node2" class="node">
<title>rich</title><style>.edge>path:hover{stroke-width:8}</style>
<polygon fill="blue" stroke="black" points="1066.12,-908.97 1063.12,-912.97 1042.12,-912.97 1039.12,-908.97 1012.12,-908.97 1012.12,-872.97 1066.12,-872.97 1066.12,-908.97"/>
<text xml:space="preserve" text-anchor="middle" x="1039.12" y="-887.09" font-family="Helvetica,sans-Serif" font-size="10.00" fill="white">rich</text>
</g>
<!-- src_cli -->
<g id="node3" class="node">
<title>src_cli</title><style>.edge>path:hover{stroke-width:8}</style>
<ellipse fill="#3ab069" stroke="black" cx="27" cy="-581.97" rx="27" ry="18"/>
<text xml:space="preserve" text-anchor="middle" x="27" y="-578.09" font-family="Helvetica,sans-Serif" font-size="10.00" fill="#000000">src.cli</text>
</g>
<!-- src_cli_dashkit -->
<g id="node4" class="node">
<title>src_cli_dashkit</title><style>.edge>path:hover{stroke-width:8}</style>
<ellipse fill="#38a865" stroke="black" cx="132.6" cy="-658.97" rx="33.59" ry="29.52"/>
<text xml:space="preserve" text-anchor="middle" x="132.6" y="-666.34" font-family="Helvetica,sans-Serif" font-size="10.00" fill="#ffffff">src.</text>
<text xml:space="preserve" text-anchor="middle" x="132.6" y="-655.09" font-family="Helvetica,sans-Serif" font-size="10.00" fill="#ffffff">cli.</text>
<text xml:space="preserve" text-anchor="middle" x="132.6" y="-643.84" font-family="Helvetica,sans-Serif" font-size="10.00" fill="#ffffff">dashkit</text>
</g>
<!-- src_cli&#45;&gt;src_cli_dashkit -->
<g id="edge9" class="edge">
<title>src_cli&#45;&gt;src_cli_dashkit</title><style>.edge>path:hover{stroke-width:8}</style>
<path fill="none" stroke="black" d="M45.57,-595.03C59.6,-605.46 79.69,-620.39 96.93,-633.2"/>
<polygon fill="#3ab069" stroke="black" points="94.83,-636 104.94,-639.15 99.01,-630.38 94.83,-636"/>
</g>
<!-- src_cli_lighthouse -->
<g id="node5" class="node">
<title>src_cli_lighthouse</title><style>.edge>path:hover{stroke-width:8}</style>
<ellipse fill="#35a160" stroke="black" cx="132.6" cy="-581.97" rx="42.6" ry="29.52"/>
<text xml:space="preserve" text-anchor="middle" x="132.6" y="-589.34" font-family="Helvetica,sans-Serif" font-size="10.00" fill="#ffffff">src.</text>
<text xml:space="preserve" text-anchor="middle" x="132.6" y="-578.09" font-family="Helvetica,sans-Serif" font-size="10.00" fill="#ffffff">cli.</text>
<text xml:space="preserve" text-anchor="middle" x="132.6" y="-566.84" font-family="Helvetica,sans-Serif" font-size="10.00" fill="#ffffff">lighthouse</text>
</g>
<!-- src_cli&#45;&gt;src_cli_lighthouse -->
<g id="edge10" class="edge">
<title>src_cli&#45;&gt;src_cli_lighthouse</title><style>.edge>path:hover{stroke-width:8}</style>
<path fill="none" stroke="black" d="M54.41,-581.97C61.75,-581.97 69.99,-581.97 78.28,-581.97"/>
<polygon fill="#3ab069" stroke="black" points="78.02,-585.47 88.02,-581.97 78.02,-578.47 78.02,-585.47"/>
</g>
<!-- src_cli_printer -->
<g id="node6" class="node">
<title>src_cli_printer</title><style>.edge>path:hover{stroke-width:8}</style>
<ellipse fill="#38a865" stroke="black" cx="132.6" cy="-504.97" rx="30.41" ry="29.52"/>
<text xml:space="preserve" text-anchor="middle" x="132.6" y="-512.34" font-family="Helvetica,sans-Serif" font-size="10.00" fill="#ffffff">src.</text>
<text xml:space="preserve" text-anchor="middle" x="132.6" y="-501.09" font-family="Helvetica,sans-Serif" font-size="10.00" fill="#ffffff">cli.</text>
<text xml:space="preserve" text-anchor="middle" x="132.6" y="-489.84" font-family="Helvetica,sans-Serif" font-size="10.00" fill="#ffffff">printer</text>
</g>
<!-- src_cli&#45;&gt;src_cli_printer -->
<g id="edge11" class="edge">
<title>src_cli&#45;&gt;src_cli_printer</title><style>.edge>path:hover{stroke-width:8}</style>
<path fill="none" stroke="black" d="M45.57,-568.91C60.13,-558.09 81.2,-542.43 98.85,-529.31"/>
<polygon fill="#3ab069" stroke="black" points="100.56,-532.4 106.5,-523.63 96.38,-526.78 100.56,-532.4"/>
</g>
<!-- src_dashkit -->
<g id="node7" class="node">
<title>src_dashkit</title><style>.edge>path:hover{stroke-width:8}</style>
<ellipse fill="#47c278" stroke="black" cx="380.85" cy="-906.97" rx="37.87" ry="18"/>
<text xml:space="preserve" text-anchor="middle" x="380.85" y="-903.09" font-family="Helvetica,sans-Serif" font-size="10.00" fill="#000000">src.dashkit</text>
</g>
<!-- src_cli_dashkit&#45;&gt;src_dashkit -->
<g id="edge12" class="edge">
<title>src_cli_dashkit&#45;&gt;src_dashkit</title><style>.edge>path:hover{stroke-width:8}</style>
<path fill="none" stroke="black" d="M254.81,-811.97C293.35,-836.81 295.05,-853.38 332.41,-879.97 336.32,-882.75 340.54,-885.49 344.79,-888.09"/>
<polygon fill="#38a865" stroke="black" points="342.94,-891.06 353.34,-893.1 346.49,-885.02 342.94,-891.06"/>
</g>
<!-- src_dashkit_app -->
<g id="node8" class="node">
<title>src_dashkit_app</title><style>.edge>path:hover{stroke-width:8}</style>
<ellipse fill="#33995c" stroke="black" cx="380.85" cy="-840.97" rx="35.71" ry="29.52"/>
<text xml:space="preserve" text-anchor="middle" x="380.85" y="-848.34" font-family="Helvetica,sans-Serif" font-size="10.00" fill="#ffffff">src.</text>
<text xml:space="preserve" text-anchor="middle" x="380.85" y="-837.09" font-family="Helvetica,sans-Serif" font-size="10.00" fill="#ffffff">dashkit.</text>
<text xml:space="preserve" text-anchor="middle" x="380.85" y="-825.84" font-family="Helvetica,sans-Serif" font-size="10.00" fill="#ffffff">app</text>
</g>
<!-- src_cli_dashkit&#45;&gt;src_dashkit_app -->
<g id="edge13" class="edge">
<title>src_cli_dashkit&#45;&gt;src_dashkit_app</title><style>.edge>path:hover{stroke-width:8}</style>
<path fill="none" stroke="black" d="M254.81,-811.97C278.17,-827.03 308.46,-834.3 333.37,-837.79"/>
<polygon fill="#38a865" stroke="black" points="332.9,-841.26 343.25,-839 333.75,-834.31 332.9,-841.26"/>
</g>
<!-- src_services -->
<g id="node23" class="node">
<title>src_services</title><style>.edge>path:hover{stroke-width:8}</style>
<ellipse fill="#22e771" stroke="black" cx="804.4" cy="-522.97" rx="40.97" ry="18"/>
<text xml:space="preserve" text-anchor="middle" x="804.4" y="-519.09" font-family="Helvetica,sans-Serif" font-size="10.00" fill="#000000">src.services</text>
</g>
<!-- src_cli_dashkit&#45;&gt;src_services -->
<g id="edge31" class="edge">
<title>src_cli_dashkit&#45;&gt;src_services</title><style>.edge>path:hover{stroke-width:8}</style>
<path fill="none" stroke="black" d="M254.81,-811.97C255.82,-812.62 597.3,-764.74 598.22,-763.97 684.87,-691.71 566.93,-543.07 677.95,-522.97"/>
<path fill="none" stroke="black" d="M147.28,-685.72C166.27,-720.15 203.89,-779.42 252.81,-811.97"/>
</g>
<!-- src_services_workspaces -->
<g id="node25" class="node">
<title>src_services_workspaces</title><style>.edge>path:hover{stroke-width:8}</style>
<ellipse fill="#26d96e" stroke="black" cx="380.85" cy="-464.97" rx="48.44" ry="29.52"/>
<text xml:space="preserve" text-anchor="middle" x="380.85" y="-472.34" font-family="Helvetica,sans-Serif" font-size="10.00" fill="#000000">src.</text>
<text xml:space="preserve" text-anchor="middle" x="380.85" y="-461.09" font-family="Helvetica,sans-Serif" font-size="10.00" fill="#000000">services.</text>
<text xml:space="preserve" text-anchor="middle" x="380.85" y="-449.84" font-family="Helvetica,sans-Serif" font-size="10.00" fill="#000000">workspaces</text>
</g>
<!-- src_cli_dashkit&#45;&gt;src_services_workspaces -->
<g id="edge36" class="edge">
<title>src_cli_dashkit&#45;&gt;src_services_workspaces</title><style>.edge>path:hover{stroke-width:8}</style>
<path fill="none" stroke="black" d="M159.4,-640.48C191.86,-617.03 249.08,-575.05 296.41,-536.97 312.49,-524.03 329.83,-509.22 344.51,-496.41"/>
<polygon fill="#38a865" stroke="black" points="346.47,-499.34 351.68,-490.12 341.85,-494.08 346.47,-499.34"/>
</g>
<!-- src_cli_lighthouse&#45;&gt;dotenv -->
<g id="edge1" class="edge">
<title>src_cli_lighthouse&#45;&gt;dotenv</title><style>.edge>path:hover{stroke-width:8}</style>
<path fill="none" stroke="black" d="M381.85,-522.97C421.38,-519.97 464.43,-505.34 494.03,-493.37"/>
<polygon fill="#35a160" stroke="black" points="495,-496.76 502.9,-489.69 492.32,-490.29 495,-496.76"/>
<path fill="none" stroke="black" d="M254.81,-522.97C308.76,-509.64 324.44,-527.17 379.85,-522.97"/>
</g>
<!-- src_modules -->
<g id="node11" class="node">
<title>src_modules</title><style>.edge>path:hover{stroke-width:8}</style>
<ellipse fill="#3bce76" stroke="black" cx="380.85" cy="-568.97" rx="40.97" ry="18"/>
<text xml:space="preserve" text-anchor="middle" x="380.85" y="-565.09" font-family="Helvetica,sans-Serif" font-size="10.00" fill="#000000">src.modules</text>
</g>
<!-- src_cli_lighthouse&#45;&gt;src_modules -->
<g id="edge16" class="edge">
<title>src_cli_lighthouse&#45;&gt;src_modules</title><style>.edge>path:hover{stroke-width:8}</style>
<path fill="none" stroke="black" d="M254.81,-522.97C288.16,-514.73 324.91,-531.53 349.88,-547.1"/>
<polygon fill="#35a160" stroke="black" points="347.94,-550.01 358.22,-552.56 351.77,-544.16 347.94,-550.01"/>
</g>
<!-- src_modules_lighthouse -->
<g id="node12" class="node">
<title>src_modules_lighthouse</title><style>.edge>path:hover{stroke-width:8}</style>
<ellipse fill="#2bac5e" stroke="black" cx="253.81" cy="-641.97" rx="42.6" ry="29.52"/>
<text xml:space="preserve" text-anchor="middle" x="253.81" y="-649.34" font-family="Helvetica,sans-Serif" font-size="10.00" fill="#ffffff">src.</text>
<text xml:space="preserve" text-anchor="middle" x="253.81" y="-638.09" font-family="Helvetica,sans-Serif" font-size="10.00" fill="#ffffff">modules.</text>
<text xml:space="preserve" text-anchor="middle" x="253.81" y="-626.84" font-family="Helvetica,sans-Serif" font-size="10.00" fill="#ffffff">lighthouse</text>
</g>
<!-- src_cli_lighthouse&#45;&gt;src_modules_lighthouse -->
<g id="edge17" class="edge">
<title>src_cli_lighthouse&#45;&gt;src_modules_lighthouse</title><style>.edge>path:hover{stroke-width:8}</style>
<path fill="none" stroke="black" d="M167.76,-599.16C180.48,-605.56 195.1,-612.92 208.6,-619.71"/>
<polygon fill="#35a160" stroke="black" points="206.79,-622.72 217.29,-624.09 209.93,-616.47 206.79,-622.72"/>
</g>
<!-- src_cli_lighthouse&#45;&gt;src_services -->
<g id="edge32" class="edge">
<title>src_cli_lighthouse&#45;&gt;src_services</title><style>.edge>path:hover{stroke-width:8}</style>
<path fill="none" stroke="black" d="M381.85,-522.97C447.84,-517.97 465.74,-535.32 530.75,-522.97"/>
<path fill="none" stroke="black" d="M532.75,-522.97C596.15,-510.92 614.45,-534.47 677.95,-522.97"/>
</g>
<!-- src_cli_lighthouse&#45;&gt;src_services_workspaces -->
<g id="edge37" class="edge">
<title>src_cli_lighthouse&#45;&gt;src_services_workspaces</title><style>.edge>path:hover{stroke-width:8}</style>
<path fill="none" stroke="black" d="M164.53,-561.97C187.78,-548.13 220.98,-530.83 252.81,-522.97"/>
<path fill="none" stroke="black" d="M254.81,-522.97C282.84,-516.04 312.22,-502.76 335.45,-490.66"/>
<polygon fill="#35a160" stroke="black" points="336.83,-493.89 344,-486.1 333.53,-487.71 336.83,-493.89"/>
</g>
<!-- src_cli_printer&#45;&gt;rich -->
<g id="edge2" class="edge">
<title>src_cli_printer&#45;&gt;rich</title><style>.edge>path:hover{stroke-width:8}</style>
<path fill="none" stroke="black" d="M381.85,-406.97C515.53,-400.2 548.4,-318.32 677.95,-351.97"/>
<path fill="none" stroke="black" d="M151,-481.33C171.77,-455.7 209.22,-417.07 252.81,-406.97"/>
<path fill="none" stroke="black" d="M254.81,-406.97C308.95,-394.42 324.3,-408.61 379.85,-406.97"/>
</g>
<!-- src_cli_printer&#45;&gt;src_services -->
<g id="edge33" class="edge">
<title>src_cli_printer&#45;&gt;src_services</title><style>.edge>path:hover{stroke-width:8}</style>
<path fill="none" stroke="black" d="M679.95,-522.97C703.55,-518.63 730.13,-518.09 752.56,-518.85"/>
<polygon fill="#38a865" stroke="black" points="752.21,-522.34 762.36,-519.29 752.52,-515.34 752.21,-522.34"/>
<path fill="none" stroke="black" d="M381.85,-406.97C479.79,-402.43 510.75,-405.67 598.22,-449.97 641.08,-471.67 630.7,-531.65 677.95,-522.97"/>
</g>
<!-- src_cli_printer&#45;&gt;src_services_workspaces -->
<g id="edge38" class="edge">
<title>src_cli_printer&#45;&gt;src_services_workspaces</title><style>.edge>path:hover{stroke-width:8}</style>
<path fill="none" stroke="black" d="M254.81,-406.97C286.5,-399.62 319.8,-416.44 344.06,-433.82"/>
<polygon fill="#38a865" stroke="black" points="341.91,-436.59 352.01,-439.81 346.12,-431 341.91,-436.59"/>
</g>
<!-- src_dashkit_parsers -->
<g id="node9" class="node">
<title>src_dashkit_parsers</title><style>.edge>path:hover{stroke-width:8}</style>
<ellipse fill="#47c278" stroke="black" cx="531.75" cy="-840.97" rx="35.71" ry="29.52"/>
<text xml:space="preserve" text-anchor="middle" x="531.75" y="-848.34" font-family="Helvetica,sans-Serif" font-size="10.00" fill="#000000">src.</text>
<text xml:space="preserve" text-anchor="middle" x="531.75" y="-837.09" font-family="Helvetica,sans-Serif" font-size="10.00" fill="#000000">dashkit.</text>
<text xml:space="preserve" text-anchor="middle" x="531.75" y="-825.84" font-family="Helvetica,sans-Serif" font-size="10.00" fill="#000000">parsers</text>
</g>
<!-- src_dashkit_app&#45;&gt;src_dashkit_parsers -->
<g id="edge14" class="edge">
<title>src_dashkit_app&#45;&gt;src_dashkit_parsers</title><style>.edge>path:hover{stroke-width:8}</style>
<path fill="none" stroke="black" d="M416.76,-840.97C436.87,-840.97 462.4,-840.97 484.21,-840.97"/>
<polygon fill="#33995c" stroke="black" points="484.03,-844.47 494.03,-840.97 484.03,-837.47 484.03,-844.47"/>
</g>
<!-- src_dashkit_sidebar -->
<g id="node10" class="node">
<title>src_dashkit_sidebar</title><style>.edge>path:hover{stroke-width:8}</style>
<ellipse fill="#38a865" stroke="black" cx="531.75" cy="-956.97" rx="35.71" ry="29.52"/>
<text xml:space="preserve" text-anchor="middle" x="531.75" y="-964.34" font-family="Helvetica,sans-Serif" font-size="10.00" fill="#ffffff">src.</text>
<text xml:space="preserve" text-anchor="middle" x="531.75" y="-953.09" font-family="Helvetica,sans-Serif" font-size="10.00" fill="#ffffff">dashkit.</text>
<text xml:space="preserve" text-anchor="middle" x="531.75" y="-941.84" font-family="Helvetica,sans-Serif" font-size="10.00" fill="#ffffff">sidebar</text>
</g>
<!-- src_dashkit_app&#45;&gt;src_dashkit_sidebar -->
<g id="edge15" class="edge">
<title>src_dashkit_app&#45;&gt;src_dashkit_sidebar</title><style>.edge>path:hover{stroke-width:8}</style>
<path fill="none" stroke="black" d="M407.17,-861.36C414.38,-867.29 422.2,-873.82 429.29,-879.97 445.68,-894.2 448.23,-899.54 465.29,-912.97 474.07,-919.88 483.91,-926.86 493.24,-933.16"/>
<polygon fill="#33995c" stroke="black" points="491.18,-936 501.45,-938.61 495.05,-930.17 491.18,-936"/>
</g>
<!-- textual -->
<g id="node26" class="node">
<title>textual</title><style>.edge>path:hover{stroke-width:8}</style>
<polygon fill="blue" stroke="black" points="939.12,-908.97 936.12,-912.97 915.12,-912.97 912.12,-908.97 885.12,-908.97 885.12,-872.97 939.12,-872.97 939.12,-908.97"/>
<text xml:space="preserve" text-anchor="middle" x="912.12" y="-887.09" font-family="Helvetica,sans-Serif" font-size="10.00" fill="white">textual</text>
</g>
<!-- src_dashkit_app&#45;&gt;textual -->
<g id="edge39" class="edge">
<title>src_dashkit_app&#45;&gt;textual</title><style>.edge>path:hover{stroke-width:8}</style>
<path fill="none" stroke="black" d="M410.51,-857.96C426.13,-866.29 446.14,-875.47 465.29,-879.97 613.15,-914.74 796.21,-902.68 873.69,-895.14"/>
<polygon fill="#33995c" stroke="black" points="873.66,-898.66 883.26,-894.18 872.96,-891.7 873.66,-898.66"/>
</g>
<!-- src_dashkit_sidebar&#45;&gt;rich -->
<g id="edge3" class="edge">
<title>src_dashkit_sidebar&#45;&gt;rich</title><style>.edge>path:hover{stroke-width:8}</style>
<path fill="none" stroke="black" d="M805.4,-936.97C864.77,-928.13 883.65,-940.92 939.12,-917.97 957.6,-910.32 958.63,-879.66 975.12,-890.97"/>
</g>
<!-- src_dashkit_sidebar&#45;&gt;textual -->
<g id="edge40" class="edge">
<title>src_dashkit_sidebar&#45;&gt;textual</title><style>.edge>path:hover{stroke-width:8}</style>
<path fill="none" stroke="black" d="M805.4,-936.97C829.86,-934.39 855.21,-923.68 874.95,-913.24"/>
<polygon fill="#38a865" stroke="black" points="876.62,-916.32 883.68,-908.43 873.24,-910.19 876.62,-916.32"/>
<path fill="none" stroke="black" d="M567.85,-955.08C619.52,-952.14 719.06,-945.87 803.4,-936.97"/>
</g>
<!-- src_modules_lighthouse_runner -->
<g id="node17" class="node">
<title>src_modules_lighthouse_runner</title><style>.edge>path:hover{stroke-width:8}</style>
<ellipse fill="#3ab069" stroke="black" cx="380.85" cy="-641.97" rx="44.72" ry="37.48"/>
<text xml:space="preserve" text-anchor="middle" x="380.85" y="-654.97" font-family="Helvetica,sans-Serif" font-size="10.00" fill="#000000">src.</text>
<text xml:space="preserve" text-anchor="middle" x="380.85" y="-643.72" font-family="Helvetica,sans-Serif" font-size="10.00" fill="#000000">modules.</text>
<text xml:space="preserve" text-anchor="middle" x="380.85" y="-632.47" font-family="Helvetica,sans-Serif" font-size="10.00" fill="#000000">lighthouse.</text>
<text xml:space="preserve" text-anchor="middle" x="380.85" y="-621.22" font-family="Helvetica,sans-Serif" font-size="10.00" fill="#000000">runner</text>
</g>
<!-- src_modules_lighthouse&#45;&gt;src_modules_lighthouse_runner -->
<g id="edge24" class="edge">
<title>src_modules_lighthouse&#45;&gt;src_modules_lighthouse_runner</title><style>.edge>path:hover{stroke-width:8}</style>
<path fill="none" stroke="black" d="M296.79,-641.97C305.77,-641.97 315.39,-641.97 324.77,-641.97"/>
<polygon fill="#2bac5e" stroke="black" points="324.54,-645.47 334.54,-641.97 324.54,-638.47 324.54,-645.47"/>
</g>
<!-- src_modules_lighthouse_widgets -->
<g id="node19" class="node">
<title>src_modules_lighthouse_widgets</title><style>.edge>path:hover{stroke-width:8}</style>
<ellipse fill="#3ab069" stroke="black" cx="531.75" cy="-717.97" rx="44.72" ry="37.48"/>
<text xml:space="preserve" text-anchor="middle" x="531.75" y="-730.97" font-family="Helvetica,sans-Serif" font-size="10.00" fill="#000000">src.</text>
<text xml:space="preserve" text-anchor="middle" x="531.75" y="-719.72" font-family="Helvetica,sans-Serif" font-size="10.00" fill="#000000">modules.</text>
<text xml:space="preserve" text-anchor="middle" x="531.75" y="-708.47" font-family="Helvetica,sans-Serif" font-size="10.00" fill="#000000">lighthouse.</text>
<text xml:space="preserve" text-anchor="middle" x="531.75" y="-697.22" font-family="Helvetica,sans-Serif" font-size="10.00" fill="#000000">widgets</text>
</g>
<!-- src_modules_lighthouse&#45;&gt;src_modules_lighthouse_widgets -->
<g id="edge27" class="edge">
<title>src_modules_lighthouse&#45;&gt;src_modules_lighthouse_widgets</title><style>.edge>path:hover{stroke-width:8}</style>
<path fill="none" stroke="black" d="M284.06,-662.95C298.07,-672.02 315.45,-681.92 332.41,-687.97 378.94,-704.56 434.79,-711.98 475.36,-715.29"/>
<polygon fill="#2bac5e" stroke="black" points="474.89,-718.77 485.13,-716.03 475.42,-711.79 474.89,-718.77"/>
</g>
<!-- src_modules_lighthouse_audits -->
<g id="node13" class="node">
<title>src_modules_lighthouse_audits</title><style>.edge>path:hover{stroke-width:8}</style>
<ellipse fill="#2fdb73" stroke="black" cx="804.4" cy="-96.97" rx="44.72" ry="37.48"/>
<text xml:space="preserve" text-anchor="middle" x="804.4" y="-109.97" font-family="Helvetica,sans-Serif" font-size="10.00" fill="#000000">src.</text>
<text xml:space="preserve" text-anchor="middle" x="804.4" y="-98.72" font-family="Helvetica,sans-Serif" font-size="10.00" fill="#000000">modules.</text>
<text xml:space="preserve" text-anchor="middle" x="804.4" y="-87.47" font-family="Helvetica,sans-Serif" font-size="10.00" fill="#000000">lighthouse.</text>
<text xml:space="preserve" text-anchor="middle" x="804.4" y="-76.22" font-family="Helvetica,sans-Serif" font-size="10.00" fill="#000000">audits</text>
</g>
<!-- src_modules_lighthouse_categories -->
<g id="node14" class="node">
<title>src_modules_lighthouse_categories</title><style>.edge>path:hover{stroke-width:8}</style>
<ellipse fill="#40c073" stroke="black" cx="678.95" cy="-63.97" rx="44.72" ry="37.48"/>
<text xml:space="preserve" text-anchor="middle" x="678.95" y="-76.97" font-family="Helvetica,sans-Serif" font-size="10.00" fill="#000000">src.</text>
<text xml:space="preserve" text-anchor="middle" x="678.95" y="-65.72" font-family="Helvetica,sans-Serif" font-size="10.00" fill="#000000">modules.</text>
<text xml:space="preserve" text-anchor="middle" x="678.95" y="-54.47" font-family="Helvetica,sans-Serif" font-size="10.00" fill="#000000">lighthouse.</text>
<text xml:space="preserve" text-anchor="middle" x="678.95" y="-43.22" font-family="Helvetica,sans-Serif" font-size="10.00" fill="#000000">categories</text>
</g>
<!-- src_modules_lighthouse_categories&#45;&gt;src_modules_lighthouse_audits -->
<g id="edge18" class="edge">
<title>src_modules_lighthouse_categories&#45;&gt;src_modules_lighthouse_audits</title><style>.edge>path:hover{stroke-width:8}</style>
<path fill="none" stroke="black" d="M722.09,-75.23C731.22,-77.67 741,-80.29 750.49,-82.83"/>
<polygon fill="#40c073" stroke="black" points="749.42,-86.16 759.98,-85.36 751.23,-79.4 749.42,-86.16"/>
</g>
<!-- src_modules_lighthouse_config -->
<g id="node15" class="node">
<title>src_modules_lighthouse_config</title><style>.edge>path:hover{stroke-width:8}</style>
<ellipse fill="#47c278" stroke="black" cx="678.95" cy="-286.97" rx="44.72" ry="37.48"/>
<text xml:space="preserve" text-anchor="middle" x="678.95" y="-299.97" font-family="Helvetica,sans-Serif" font-size="10.00" fill="#000000">src.</text>
<text xml:space="preserve" text-anchor="middle" x="678.95" y="-288.72" font-family="Helvetica,sans-Serif" font-size="10.00" fill="#000000">modules.</text>
<text xml:space="preserve" text-anchor="middle" x="678.95" y="-277.47" font-family="Helvetica,sans-Serif" font-size="10.00" fill="#000000">lighthouse.</text>
<text xml:space="preserve" text-anchor="middle" x="678.95" y="-266.22" font-family="Helvetica,sans-Serif" font-size="10.00" fill="#000000">config</text>
</g>
<!-- src_modules_lighthouse_http -->
<g id="node16" class="node">
<title>src_modules_lighthouse_http</title><style>.edge>path:hover{stroke-width:8}</style>
<ellipse fill="#47c278" stroke="black" cx="531.75" cy="-587.97" rx="44.72" ry="37.48"/>
<text xml:space="preserve" text-anchor="middle" x="531.75" y="-600.97" font-family="Helvetica,sans-Serif" font-size="10.00" fill="#000000">src.</text>
<text xml:space="preserve" text-anchor="middle" x="531.75" y="-589.72" font-family="Helvetica,sans-Serif" font-size="10.00" fill="#000000">modules.</text>
<text xml:space="preserve" text-anchor="middle" x="531.75" y="-578.47" font-family="Helvetica,sans-Serif" font-size="10.00" fill="#000000">lighthouse.</text>
<text xml:space="preserve" text-anchor="middle" x="531.75" y="-567.22" font-family="Helvetica,sans-Serif" font-size="10.00" fill="#000000">http</text>
</g>
<!-- src_modules_lighthouse_runner&#45;&gt;src_modules_lighthouse_http -->
<g id="edge23" class="edge">
<title>src_modules_lighthouse_runner&#45;&gt;src_modules_lighthouse_http</title><style>.edge>path:hover{stroke-width:8}</style>
<path fill="none" stroke="black" d="M422.15,-627.35C439.79,-620.96 460.69,-613.38 479.43,-606.58"/>
<polygon fill="#3ab069" stroke="black" points="480.54,-609.9 488.74,-603.2 478.15,-603.32 480.54,-609.9"/>
</g>
<!-- src_modules_lighthouse_runner&#45;&gt;src_services -->
<g id="edge34" class="edge">
<title>src_modules_lighthouse_runner&#45;&gt;src_services</title><style>.edge>path:hover{stroke-width:8}</style>
<path fill="none" stroke="black" d="M411.95,-614.67C417.94,-608.73 424,-602.32 429.29,-595.97 447.74,-573.8 442.02,-559.02 465.29,-541.97 489.72,-524.05 500.99,-528.62 530.75,-522.97"/>
</g>
<!-- src_services_reports -->
<g id="node24" class="node">
<title>src_services_reports</title><style>.edge>path:hover{stroke-width:8}</style>
<ellipse fill="#47c278" stroke="black" cx="804.4" cy="-652.97" rx="39.42" ry="29.52"/>
<text xml:space="preserve" text-anchor="middle" x="804.4" y="-660.34" font-family="Helvetica,sans-Serif" font-size="10.00" fill="#000000">src.</text>
<text xml:space="preserve" text-anchor="middle" x="804.4" y="-649.09" font-family="Helvetica,sans-Serif" font-size="10.00" fill="#000000">services.</text>
<text xml:space="preserve" text-anchor="middle" x="804.4" y="-637.84" font-family="Helvetica,sans-Serif" font-size="10.00" fill="#000000">reports</text>
</g>
<!-- src_modules_lighthouse_runner&#45;&gt;src_services_reports -->
<g id="edge35" class="edge">
<title>src_modules_lighthouse_runner&#45;&gt;src_services_reports</title><style>.edge>path:hover{stroke-width:8}</style>
<path fill="none" stroke="black" d="M425.77,-643.11C504.64,-645.17 669.79,-649.48 753.08,-651.65"/>
<polygon fill="#3ab069" stroke="black" points="752.91,-655.15 763,-651.91 753.09,-648.15 752.91,-655.15"/>
</g>
<!-- src_modules_lighthouse_status -->
<g id="node18" class="node">
<title>src_modules_lighthouse_status</title><style>.edge>path:hover{stroke-width:8}</style>
<ellipse fill="#31c46c" stroke="black" cx="678.95" cy="-193.97" rx="44.72" ry="37.48"/>
<text xml:space="preserve" text-anchor="middle" x="678.95" y="-206.97" font-family="Helvetica,sans-Serif" font-size="10.00" fill="#000000">src.</text>
<text xml:space="preserve" text-anchor="middle" x="678.95" y="-195.72" font-family="Helvetica,sans-Serif" font-size="10.00" fill="#000000">modules.</text>
<text xml:space="preserve" text-anchor="middle" x="678.95" y="-184.47" font-family="Helvetica,sans-Serif" font-size="10.00" fill="#000000">lighthouse.</text>
<text xml:space="preserve" text-anchor="middle" x="678.95" y="-173.22" font-family="Helvetica,sans-Serif" font-size="10.00" fill="#000000">status</text>
</g>
<!-- src_modules_lighthouse_status&#45;&gt;rich -->
<g id="edge4" class="edge">
<title>src_modules_lighthouse_status&#45;&gt;rich</title><style>.edge>path:hover{stroke-width:8}</style>
<path fill="none" stroke="black" d="M805.4,-351.97C850.54,-365 895.29,-307.73 911.12,-351.97"/>
<path fill="none" stroke="black" d="M707.82,-222.79C713.22,-228.68 718.73,-234.93 723.67,-240.97 762.15,-287.96 745.04,-335.12 803.4,-351.97"/>
</g>
<!-- src_modules_lighthouse_widgets_audits -->
<g id="node20" class="node">
<title>src_modules_lighthouse_widgets_audits</title><style>.edge>path:hover{stroke-width:8}</style>
<ellipse fill="#309157" stroke="black" cx="531.75" cy="-63.97" rx="44.72" ry="45.43"/>
<text xml:space="preserve" text-anchor="middle" x="531.75" y="-82.59" font-family="Helvetica,sans-Serif" font-size="10.00" fill="#ffffff">src.</text>
<text xml:space="preserve" text-anchor="middle" x="531.75" y="-71.34" font-family="Helvetica,sans-Serif" font-size="10.00" fill="#ffffff">modules.</text>
<text xml:space="preserve" text-anchor="middle" x="531.75" y="-60.09" font-family="Helvetica,sans-Serif" font-size="10.00" fill="#ffffff">lighthouse.</text>
<text xml:space="preserve" text-anchor="middle" x="531.75" y="-48.84" font-family="Helvetica,sans-Serif" font-size="10.00" fill="#ffffff">widgets.</text>
<text xml:space="preserve" text-anchor="middle" x="531.75" y="-37.59" font-family="Helvetica,sans-Serif" font-size="10.00" fill="#ffffff">audits</text>
</g>
<!-- src_modules_lighthouse_widgets&#45;&gt;src_modules_lighthouse_widgets_audits -->
<g id="edge28" class="edge">
<title>src_modules_lighthouse_widgets&#45;&gt;src_modules_lighthouse_widgets_audits</title><style>.edge>path:hover{stroke-width:8}</style>
<path fill="none" stroke="black" d="M492.19,-700.4C475.1,-690.57 456.86,-676.51 447.29,-657.97 433.78,-631.8 434.18,-154.34 447.29,-127.97 454.87,-112.71 468.02,-100.11 481.72,-90.25"/>
<polygon fill="#3ab069" stroke="black" points="483.63,-93.19 489.98,-84.7 479.73,-87.38 483.63,-93.19"/>
</g>
<!-- src_modules_lighthouse_widgets_metrics_summary -->
<g id="node21" class="node">
<title>src_modules_lighthouse_widgets_metrics_summary</title><style>.edge>path:hover{stroke-width:8}</style>
<ellipse fill="#309157" stroke="black" cx="531.75" cy="-172.97" rx="66.47" ry="45.43"/>
<text xml:space="preserve" text-anchor="middle" x="531.75" y="-191.59" font-family="Helvetica,sans-Serif" font-size="10.00" fill="#ffffff">src.</text>
<text xml:space="preserve" text-anchor="middle" x="531.75" y="-180.34" font-family="Helvetica,sans-Serif" font-size="10.00" fill="#ffffff">modules.</text>
<text xml:space="preserve" text-anchor="middle" x="531.75" y="-169.09" font-family="Helvetica,sans-Serif" font-size="10.00" fill="#ffffff">lighthouse.</text>
<text xml:space="preserve" text-anchor="middle" x="531.75" y="-157.84" font-family="Helvetica,sans-Serif" font-size="10.00" fill="#ffffff">widgets.</text>
<text xml:space="preserve" text-anchor="middle" x="531.75" y="-146.59" font-family="Helvetica,sans-Serif" font-size="10.00" fill="#ffffff">metrics_summary</text>
</g>
<!-- src_modules_lighthouse_widgets&#45;&gt;src_modules_lighthouse_widgets_metrics_summary -->
<g id="edge29" class="edge">
<title>src_modules_lighthouse_widgets&#45;&gt;src_modules_lighthouse_widgets_metrics_summary</title><style>.edge>path:hover{stroke-width:8}</style>
<path fill="none" stroke="black" d="M492.19,-700.4C475.1,-690.57 456.86,-676.51 447.29,-657.97 425.83,-616.4 426.47,-278.86 447.29,-236.97 452.74,-225.99 461.07,-216.4 470.42,-208.2"/>
<polygon fill="#3ab069" stroke="black" points="472.48,-211.04 478.06,-202.03 468.08,-205.59 472.48,-211.04"/>
</g>
<!-- src_modules_lighthouse_widgets_thirdparty -->
<g id="node22" class="node">
<title>src_modules_lighthouse_widgets_thirdparty</title><style>.edge>path:hover{stroke-width:8}</style>
<ellipse fill="#38a865" stroke="black" cx="531.75" cy="-281.97" rx="44.72" ry="45.43"/>
<text xml:space="preserve" text-anchor="middle" x="531.75" y="-300.59" font-family="Helvetica,sans-Serif" font-size="10.00" fill="#ffffff">src.</text>
<text xml:space="preserve" text-anchor="middle" x="531.75" y="-289.34" font-family="Helvetica,sans-Serif" font-size="10.00" fill="#ffffff">modules.</text>
<text xml:space="preserve" text-anchor="middle" x="531.75" y="-278.09" font-family="Helvetica,sans-Serif" font-size="10.00" fill="#ffffff">lighthouse.</text>
<text xml:space="preserve" text-anchor="middle" x="531.75" y="-266.84" font-family="Helvetica,sans-Serif" font-size="10.00" fill="#ffffff">widgets.</text>
<text xml:space="preserve" text-anchor="middle" x="531.75" y="-255.59" font-family="Helvetica,sans-Serif" font-size="10.00" fill="#ffffff">thirdparty</text>
</g>
<!-- src_modules_lighthouse_widgets&#45;&gt;src_modules_lighthouse_widgets_thirdparty -->
<g id="edge30" class="edge">
<title>src_modules_lighthouse_widgets&#45;&gt;src_modules_lighthouse_widgets_thirdparty</title><style>.edge>path:hover{stroke-width:8}</style>
<path fill="none" stroke="black" d="M492.19,-700.4C475.1,-690.57 456.86,-676.51 447.29,-657.97 427,-618.67 437.52,-502.1 447.29,-458.97 457.76,-412.72 481.83,-364.42 501.61,-329.97"/>
<polygon fill="#3ab069" stroke="black" points="504.54,-331.9 506.56,-321.5 498.49,-328.37 504.54,-331.9"/>
</g>
<!-- src_modules_lighthouse_widgets_audits&#45;&gt;rich -->
<g id="edge5" class="edge">
<title>src_modules_lighthouse_widgets_audits&#45;&gt;rich</title><style>.edge>path:hover{stroke-width:8}</style>
<path fill="none" stroke="black" d="M976.12,-890.97C983.12,-895.81 991.71,-897.66 1000.24,-897.9"/>
<polygon fill="#309157" stroke="black" points="1000.34,-901.4 1010.17,-897.45 1000.02,-894.41 1000.34,-901.4"/>
<path fill="none" stroke="black" d="M570.93,-41.99C589.4,-32.6 612.29,-22.71 634.22,-17.97 728.67,2.44 782.67,19.18 849.12,-50.97 943.05,-150.13 865.09,-223.37 911.12,-351.97"/>
<path fill="none" stroke="black" d="M913.12,-351.97C954.55,-465.2 875.96,-822.39 975.12,-890.97"/>
</g>
<!-- src_modules_lighthouse_widgets_audits&#45;&gt;src_modules_lighthouse_audits -->
<g id="edge19" class="edge">
<title>src_modules_lighthouse_widgets_audits&#45;&gt;src_modules_lighthouse_audits</title><style>.edge>path:hover{stroke-width:8}</style>
<path fill="none" stroke="black" d="M567.6,-91.45C595.92,-110.77 637.65,-132.58 677.95,-128.97"/>
<path fill="none" stroke="black" d="M679.95,-128.97C703.89,-126.82 729.73,-120.74 751.55,-114.45"/>
<polygon fill="#309157" stroke="black" points="752.53,-117.81 761.11,-111.59 750.53,-111.1 752.53,-117.81"/>
</g>
<!-- src_modules_lighthouse_widgets_audits&#45;&gt;src_modules_lighthouse_categories -->
<g id="edge21" class="edge">
<title>src_modules_lighthouse_widgets_audits&#45;&gt;src_modules_lighthouse_categories</title><style>.edge>path:hover{stroke-width:8}</style>
<path fill="none" stroke="black" d="M576.71,-63.97C591.21,-63.97 607.52,-63.97 622.75,-63.97"/>
<polygon fill="#309157" stroke="black" points="622.63,-67.47 632.63,-63.97 622.63,-60.47 622.63,-67.47"/>
</g>
<!-- src_modules_lighthouse_widgets_audits&#45;&gt;src_modules_lighthouse_status -->
<g id="edge25" class="edge">
<title>src_modules_lighthouse_widgets_audits&#45;&gt;src_modules_lighthouse_status</title><style>.edge>path:hover{stroke-width:8}</style>
<path fill="none" stroke="black" d="M567.04,-92.16C577.18,-100.66 588.24,-110.09 598.22,-118.97 612.33,-131.52 627.5,-145.62 640.78,-158.19"/>
<polygon fill="#309157" stroke="black" points="638.02,-160.39 647.68,-164.74 642.84,-155.32 638.02,-160.39"/>
</g>
<!-- src_modules_lighthouse_widgets_metrics_summary&#45;&gt;rich -->
<g id="edge6" class="edge">
<title>src_modules_lighthouse_widgets_metrics_summary&#45;&gt;rich</title><style>.edge>path:hover{stroke-width:8}</style>
<path fill="none" stroke="black" d="M578.25,-205.53C585.65,-212.32 592.68,-219.89 598.22,-227.97 626.13,-268.65 600.75,-296.72 634.22,-332.97 648.6,-348.54 657.44,-346.64 677.95,-351.97"/>
<path fill="none" stroke="black" d="M679.95,-351.97C733.05,-365.76 750.68,-336.75 803.4,-351.97"/>
</g>
<!-- src_modules_lighthouse_widgets_metrics_summary&#45;&gt;src_modules_lighthouse_audits -->
<g id="edge20" class="edge">
<title>src_modules_lighthouse_widgets_metrics_summary&#45;&gt;src_modules_lighthouse_audits</title><style>.edge>path:hover{stroke-width:8}</style>
<path fill="none" stroke="black" d="M589.61,-149.84C615.98,-140.66 648.04,-131.64 677.95,-128.97"/>
</g>
<!-- src_modules_lighthouse_widgets_metrics_summary&#45;&gt;src_modules_lighthouse_config -->
<g id="edge22" class="edge">
<title>src_modules_lighthouse_widgets_metrics_summary&#45;&gt;src_modules_lighthouse_config</title><style>.edge>path:hover{stroke-width:8}</style>
<path fill="none" stroke="black" d="M576.32,-207.17C595.41,-222.16 617.71,-239.68 636.55,-254.47"/>
<polygon fill="#309157" stroke="black" points="634.28,-257.13 644.31,-260.55 638.6,-251.63 634.28,-257.13"/>
</g>
<!-- src_modules_lighthouse_widgets_metrics_summary&#45;&gt;src_modules_lighthouse_status -->
<g id="edge26" class="edge">
<title>src_modules_lighthouse_widgets_metrics_summary&#45;&gt;src_modules_lighthouse_status</title><style>.edge>path:hover{stroke-width:8}</style>
<path fill="none" stroke="black" d="M597.28,-182.3C605.93,-183.55 614.72,-184.82 623.18,-186.05"/>
<polygon fill="#309157" stroke="black" points="622.55,-189.49 632.95,-187.46 623.55,-182.56 622.55,-189.49"/>
</g>
<!-- src_modules_lighthouse_widgets_thirdparty&#45;&gt;rich -->
<g id="edge7" class="edge">
<title>src_modules_lighthouse_widgets_thirdparty&#45;&gt;rich</title><style>.edge>path:hover{stroke-width:8}</style>
<path fill="none" stroke="black" d="M570.61,-305.31C599.02,-321.53 639.49,-341.98 677.95,-351.97"/>
</g>
<!-- yaml -->
<g id="node27" class="node">
<title>yaml</title><style>.edge>path:hover{stroke-width:8}</style>
<polygon fill="#a253b6" stroke="black" points="831.4,-415.97 828.4,-419.97 807.4,-419.97 804.4,-415.97 777.4,-415.97 777.4,-379.97 831.4,-379.97 831.4,-415.97"/>
<text xml:space="preserve" text-anchor="middle" x="804.4" y="-394.09" font-family="Helvetica,sans-Serif" font-size="10.00" fill="#ffffff">yaml</text>
</g>
<!-- src_services_workspaces&#45;&gt;yaml -->
<g id="edge41" class="edge">
<title>src_services_workspaces&#45;&gt;yaml</title><style>.edge>path:hover{stroke-width:8}</style>
<path fill="none" stroke="black" d="M427.72,-456.51C439.92,-454.32 453.09,-452 465.29,-449.97 574.25,-431.8 703.38,-412.58 765.83,-403.43"/>
<polygon fill="#26d96e" stroke="black" points="766.17,-406.92 775.56,-402.01 765.16,-399.99 766.17,-406.92"/>
</g>
<!-- textual&#45;&gt;rich -->
<g id="edge8" class="edge">
<title>textual&#45;&gt;rich</title><style>.edge>path:hover{stroke-width:8}</style>
<path fill="none" stroke="black" d="M939.54,-884.6C951.36,-883.26 964.91,-883.97 975.12,-890.97"/>
</g>
</g>
</svg>
