<?xml version="1.0" encoding="UTF-8" standalone="no"?>
<!DOCTYPE svg PUBLIC "-//W3C//DTD SVG 1.1//EN"
 "http://www.w3.org/Graphics/SVG/1.1/DTD/svg11.dtd">
<!-- Generated by graphviz version 14.1.2 (20260124.0452)
 -->
<!-- Title: G Pages: 1 -->
<svg width="1160pt" height="1029pt"
 viewBox="0.00 0.00 1160.00 1029.00" xmlns="http://www.w3.org/2000/svg" xmlns:xlink="http://www.w3.org/1999/xlink">
<g id="graph0" class="graph" transform="scale(1 1) rotate(0) translate(4 1025.43)">
<title>G</title><style>.edge>path:hover{stroke-width:8}</style>
<polygon fill="white" stroke="none" points="-4,4 -4,-1025.43 1156.48,-1025.43 1156.48,4 -4,4"/>
<!-- dashkit_cli -->
<g id="node1" class="node">
<title>dashkit_cli</title><style>.edge>path:hover{stroke-width:8}</style>
<ellipse fill="#913030" stroke="black" cx="45.79" cy="-269.86" rx="27" ry="18"/>
<text xml:space="preserve" text-anchor="middle" x="45.79" y="-265.99" font-family="Helvetica,sans-Serif" font-size="10.00" fill="#ffffff">cli</text>
</g>
<!-- dashkit_cli_lighthouse -->
<g id="node2" class="node">
<title>dashkit_cli_lighthouse</title><style>.edge>path:hover{stroke-width:8}</style>
<ellipse fill="#a13535" stroke="black" cx="173.36" cy="-336.86" rx="43.19" ry="18"/>
<text xml:space="preserve" text-anchor="middle" x="173.36" y="-332.99" font-family="Helvetica,sans-Serif" font-size="10.00" fill="#ffffff">cli.lighthouse</text>
</g>
<!-- dashkit_cli&#45;&gt;dashkit_cli_lighthouse -->
<g id="edge1" class="edge">
<title>dashkit_cli&#45;&gt;dashkit_cli_lighthouse</title><style>.edge>path:hover{stroke-width:8}</style>
<path fill="none" stroke="black" d="M67.52,-280.93C86.04,-290.81 113.6,-305.51 135.81,-317.36"/>
<polygon fill="#913030" stroke="black" points="134.1,-320.42 144.57,-322.04 137.4,-314.24 134.1,-320.42"/>
</g>
<!-- dashkit_cli_printer -->
<g id="node3" class="node">
<title>dashkit_cli_printer</title><style>.edge>path:hover{stroke-width:8}</style>
<ellipse fill="#a83838" stroke="black" cx="442.82" cy="-211.86" rx="32.99" ry="18"/>
<text xml:space="preserve" text-anchor="middle" x="442.82" y="-207.99" font-family="Helvetica,sans-Serif" font-size="10.00" fill="#ffffff">cli.printer</text>
</g>
<!-- dashkit_cli&#45;&gt;dashkit_cli_printer -->
<g id="edge2" class="edge">
<title>dashkit_cli&#45;&gt;dashkit_cli_printer</title><style>.edge>path:hover{stroke-width:8}</style>
<path fill="none" stroke="black" d="M73.14,-271.56C118.81,-274.13 215.56,-277.9 296.74,-269.86"/>
<path fill="none" stroke="black" d="M298.74,-269.86C301.58,-269.53 363.94,-243.98 405.39,-226.9"/>
<polygon fill="#913030" stroke="black" points="406.63,-230.18 414.54,-223.13 403.96,-223.71 406.63,-230.18"/>
</g>
<!-- dashkit_cli_tui -->
<g id="node4" class="node">
<title>dashkit_cli_tui</title><style>.edge>path:hover{stroke-width:8}</style>
<ellipse fill="#b83d3d" stroke="black" cx="173.36" cy="-223.86" rx="27" ry="18"/>
<text xml:space="preserve" text-anchor="middle" x="173.36" y="-219.99" font-family="Helvetica,sans-Serif" font-size="10.00" fill="#ffffff">cli.tui</text>
</g>
<!-- dashkit_cli&#45;&gt;dashkit_cli_tui -->
<g id="edge3" class="edge">
<title>dashkit_cli&#45;&gt;dashkit_cli_tui</title><style>.edge>path:hover{stroke-width:8}</style>
<path fill="none" stroke="black" d="M70.11,-261.32C89.32,-254.28 116.81,-244.21 138.45,-236.28"/>
<polygon fill="#913030" stroke="black" points="139.55,-239.61 147.73,-232.88 137.14,-233.04 139.55,-239.61"/>
</g>
<!-- dashkit_services -->
<g id="node22" class="node">
<title>dashkit_services</title><style>.edge>path:hover{stroke-width:8}</style>
<ellipse fill="#db2f2f" stroke="black" cx="889.7" cy="-819.86" rx="31.21" ry="18"/>
<text xml:space="preserve" text-anchor="middle" x="889.7" y="-815.99" font-family="Helvetica,sans-Serif" font-size="10.00" fill="#ffffff">services</text>
</g>
<!-- dashkit_cli&#45;&gt;dashkit_services -->
<g id="edge27" class="edge">
<title>dashkit_cli&#45;&gt;dashkit_services</title><style>.edge>path:hover{stroke-width:8}</style>
<path fill="none" stroke="black" d="M443.82,-949.86C549.05,-956.76 577.01,-951.95 680.34,-930.86 717.43,-923.29 724.91,-914.88 761.13,-903.86"/>
</g>
<!-- dashkit_services_workspaces -->
<g id="node24" class="node">
<title>dashkit_services_workspaces</title><style>.edge>path:hover{stroke-width:8}</style>
<ellipse fill="#cc3333" stroke="black" cx="442.82" cy="-269.86" rx="48.44" ry="21.57"/>
<text xml:space="preserve" text-anchor="middle" x="442.82" y="-271.61" font-family="Helvetica,sans-Serif" font-size="10.00" fill="#ffffff">services.</text>
<text xml:space="preserve" text-anchor="middle" x="442.82" y="-260.36" font-family="Helvetica,sans-Serif" font-size="10.00" fill="#ffffff">workspaces</text>
</g>
<!-- dashkit_cli&#45;&gt;dashkit_services_workspaces -->
<g id="edge31" class="edge">
<title>dashkit_cli&#45;&gt;dashkit_services_workspaces</title><style>.edge>path:hover{stroke-width:8}</style>
<path fill="none" stroke="black" d="M298.74,-269.86C326.41,-267.12 357.24,-266.78 383.17,-267.26"/>
<polygon fill="#913030" stroke="black" points="382.74,-270.75 392.82,-267.49 382.91,-263.75 382.74,-270.75"/>
</g>
<!-- dotenv -->
<g id="node29" class="node">
<title>dotenv</title><style>.edge>path:hover{stroke-width:8}</style>
<polygon fill="#a9c247" stroke="black" points="639.81,-921.86 636.81,-925.86 615.81,-925.86 612.81,-921.86 585.81,-921.86 585.81,-885.86 639.81,-885.86 639.81,-921.86"/>
<text xml:space="preserve" text-anchor="middle" x="612.81" y="-899.99" font-family="Helvetica,sans-Serif" font-size="10.00" fill="#000000">dotenv</text>
</g>
<!-- dashkit_cli&#45;&gt;dotenv -->
<g id="edge37" class="edge">
<title>dashkit_cli&#45;&gt;dotenv</title><style>.edge>path:hover{stroke-width:8}</style>
<path fill="none" stroke="black" d="M443.82,-949.86C490.03,-946.75 541.09,-930.89 574.65,-918.66"/>
<polygon fill="#913030" stroke="black" points="575.76,-921.98 583.91,-915.2 573.32,-915.42 575.76,-921.98"/>
<path fill="none" stroke="black" d="M47.6,-288.17C52.18,-369.26 81.27,-700.06 255.14,-879.86 316.73,-943.56 353.41,-955.82 441.82,-949.86"/>
</g>
<!-- dashkit_modules -->
<g id="node11" class="node">
<title>dashkit_modules</title><style>.edge>path:hover{stroke-width:8}</style>
<ellipse fill="#ce3b3b" stroke="black" cx="442.82" cy="-865.86" rx="31.21" ry="18"/>
<text xml:space="preserve" text-anchor="middle" x="442.82" y="-861.99" font-family="Helvetica,sans-Serif" font-size="10.00" fill="#ffffff">modules</text>
</g>
<!-- dashkit_cli_lighthouse&#45;&gt;dashkit_modules -->
<g id="edge14" class="edge">
<title>dashkit_cli_lighthouse&#45;&gt;dashkit_modules</title><style>.edge>path:hover{stroke-width:8}</style>
<path fill="none" stroke="black" d="M298.74,-865.86C328.14,-889.15 372.61,-884.97 404.17,-877.62"/>
<polygon fill="#a13535" stroke="black" points="404.86,-881.06 413.69,-875.19 403.13,-874.27 404.86,-881.06"/>
</g>
<!-- dashkit_modules_lighthouse -->
<g id="node12" class="node">
<title>dashkit_modules_lighthouse</title><style>.edge>path:hover{stroke-width:8}</style>
<ellipse fill="#ac2b2b" stroke="black" cx="297.74" cy="-357.86" rx="42.6" ry="21.57"/>
<text xml:space="preserve" text-anchor="middle" x="297.74" y="-359.61" font-family="Helvetica,sans-Serif" font-size="10.00" fill="#ffffff">modules.</text>
<text xml:space="preserve" text-anchor="middle" x="297.74" y="-348.36" font-family="Helvetica,sans-Serif" font-size="10.00" fill="#ffffff">lighthouse</text>
</g>
<!-- dashkit_cli_lighthouse&#45;&gt;dashkit_modules_lighthouse -->
<g id="edge15" class="edge">
<title>dashkit_cli_lighthouse&#45;&gt;dashkit_modules_lighthouse</title><style>.edge>path:hover{stroke-width:8}</style>
<path fill="none" stroke="black" d="M213.75,-343.62C223.91,-345.37 235,-347.27 245.66,-349.1"/>
<polygon fill="#a13535" stroke="black" points="245.06,-352.55 255.51,-350.79 246.24,-345.65 245.06,-352.55"/>
</g>
<!-- dashkit_cli_lighthouse&#45;&gt;dashkit_services -->
<g id="edge28" class="edge">
<title>dashkit_cli_lighthouse&#45;&gt;dashkit_services</title><style>.edge>path:hover{stroke-width:8}</style>
<path fill="none" stroke="black" d="M763.13,-903.86C802.56,-892.05 840.84,-863.15 864.56,-842.55"/>
<polygon fill="#a13535" stroke="black" points="866.64,-845.39 871.78,-836.12 861.98,-840.16 866.64,-845.39"/>
<path fill="none" stroke="black" d="M177.19,-355C191.29,-444.12 254.89,-832.73 296.74,-865.86"/>
<path fill="none" stroke="black" d="M298.74,-865.86C327.38,-888.53 340.34,-844.95 376.35,-838.86 434.6,-829.02 450.55,-832.42 509.28,-838.86 586.7,-847.36 605.3,-856.05 680.34,-876.86 716.82,-886.98 724.86,-914.73 761.13,-903.86"/>
</g>
<!-- dashkit_cli_lighthouse&#45;&gt;dashkit_services_workspaces -->
<g id="edge32" class="edge">
<title>dashkit_cli_lighthouse&#45;&gt;dashkit_services_workspaces</title><style>.edge>path:hover{stroke-width:8}</style>
<path fill="none" stroke="black" d="M210.98,-327.69C256.97,-316.17 336.19,-296.32 388.79,-283.15"/>
<polygon fill="#a13535" stroke="black" points="389.6,-286.55 398.45,-280.73 387.9,-279.76 389.6,-286.55"/>
</g>
<!-- dashkit_cli_lighthouse&#45;&gt;dotenv -->
<g id="edge38" class="edge">
<title>dashkit_cli_lighthouse&#45;&gt;dotenv</title><style>.edge>path:hover{stroke-width:8}</style>
<path fill="none" stroke="black" d="M298.74,-865.86C379.55,-929.87 510.84,-920.28 574.64,-910.73"/>
<polygon fill="#a13535" stroke="black" points="574.92,-914.23 584.25,-909.2 573.83,-907.32 574.92,-914.23"/>
</g>
<!-- dashkit_framework -->
<g id="node5" class="node">
<title>dashkit_framework</title><style>.edge>path:hover{stroke-width:8}</style>
<ellipse fill="#f31616" stroke="black" cx="889.7" cy="-277.86" rx="36.54" ry="18"/>
<text xml:space="preserve" text-anchor="middle" x="889.7" y="-273.99" font-family="Helvetica,sans-Serif" font-size="10.00" fill="#ffffff">framework</text>
</g>
<!-- dashkit_cli_printer&#45;&gt;dashkit_framework -->
<g id="edge4" class="edge">
<title>dashkit_cli_printer&#45;&gt;dashkit_framework</title><style>.edge>path:hover{stroke-width:8}</style>
<path fill="none" stroke="black" d="M613.81,-177.86C686.61,-166.54 689.19,-237.96 761.13,-253.86"/>
<path fill="none" stroke="black" d="M763.13,-253.86C789.67,-259.73 819.55,-265.48 843.5,-269.87"/>
<polygon fill="#a83838" stroke="black" points="842.79,-273.3 853.26,-271.65 844.04,-266.41 842.79,-273.3"/>
</g>
<!-- dashkit_framework_views -->
<g id="node10" class="node">
<title>dashkit_framework_views</title><style>.edge>path:hover{stroke-width:8}</style>
<ellipse fill="#c43131" stroke="black" cx="762.13" cy="-51.86" rx="45.79" ry="21.57"/>
<text xml:space="preserve" text-anchor="middle" x="762.13" y="-53.61" font-family="Helvetica,sans-Serif" font-size="10.00" fill="#ffffff">framework.</text>
<text xml:space="preserve" text-anchor="middle" x="762.13" y="-42.36" font-family="Helvetica,sans-Serif" font-size="10.00" fill="#ffffff">views</text>
</g>
<!-- dashkit_cli_printer&#45;&gt;dashkit_framework_views -->
<g id="edge12" class="edge">
<title>dashkit_cli_printer&#45;&gt;dashkit_framework_views</title><style>.edge>path:hover{stroke-width:8}</style>
<path fill="none" stroke="black" d="M613.81,-177.86C670.35,-169.07 716.77,-116.38 741.57,-81.98"/>
<polygon fill="#a83838" stroke="black" points="744.25,-84.26 747.11,-74.06 738.51,-80.24 744.25,-84.26"/>
<path fill="none" stroke="black" d="M473.71,-204.96C507.19,-197.42 563.15,-185.43 611.81,-177.86"/>
</g>
<!-- rich -->
<g id="node30" class="node">
<title>rich</title><style>.edge>path:hover{stroke-width:8}</style>
<polygon fill="blue" stroke="black" points="1152.48,-249.86 1149.48,-253.86 1128.48,-253.86 1125.48,-249.86 1098.48,-249.86 1098.48,-213.86 1152.48,-213.86 1152.48,-249.86"/>
<text xml:space="preserve" text-anchor="middle" x="1125.48" y="-227.99" font-family="Helvetica,sans-Serif" font-size="10.00" fill="white">rich</text>
</g>
<!-- dashkit_cli_printer&#45;&gt;rich -->
<g id="edge39" class="edge">
<title>dashkit_cli_printer&#45;&gt;rich</title><style>.edge>path:hover{stroke-width:8}</style>
<path fill="none" stroke="black" d="M999.48,-388.86C1063.85,-350.33 988.52,-249.32 1061.48,-231.86"/>
<path fill="none" stroke="black" d="M613.81,-177.86C684.57,-166.86 878.86,-153.03 935.48,-196.86 1006.39,-251.75 920.54,-434.92 997.48,-388.86"/>
</g>
<!-- dashkit_tui -->
<g id="node25" class="node">
<title>dashkit_tui</title><style>.edge>path:hover{stroke-width:8}</style>
<ellipse fill="#c24747" stroke="black" cx="442.82" cy="-151.86" rx="27" ry="18"/>
<text xml:space="preserve" text-anchor="middle" x="442.82" y="-147.99" font-family="Helvetica,sans-Serif" font-size="10.00" fill="#ffffff">tui</text>
</g>
<!-- dashkit_cli_tui&#45;&gt;dashkit_tui -->
<g id="edge33" class="edge">
<title>dashkit_cli_tui&#45;&gt;dashkit_tui</title><style>.edge>path:hover{stroke-width:8}</style>
<path fill="none" stroke="black" d="M298.74,-151.86C333.21,-138.85 375.76,-140.92 405.46,-144.96"/>
<polygon fill="#b83d3d" stroke="black" points="404.65,-148.37 415.06,-146.41 405.7,-141.45 404.65,-148.37"/>
</g>
<!-- dashkit_tui_app -->
<g id="node26" class="node">
<title>dashkit_tui_app</title><style>.edge>path:hover{stroke-width:8}</style>
<ellipse fill="#822b2b" stroke="black" cx="442.82" cy="-93.86" rx="27" ry="18"/>
<text xml:space="preserve" text-anchor="middle" x="442.82" y="-89.99" font-family="Helvetica,sans-Serif" font-size="10.00" fill="#ffffff">tui.app</text>
</g>
<!-- dashkit_cli_tui&#45;&gt;dashkit_tui_app -->
<g id="edge34" class="edge">
<title>dashkit_cli_tui&#45;&gt;dashkit_tui_app</title><style>.edge>path:hover{stroke-width:8}</style>
<path fill="none" stroke="black" d="M298.74,-151.86C336.99,-137.42 380.44,-119.6 409.33,-107.55"/>
<polygon fill="#b83d3d" stroke="black" points="410.37,-110.91 418.25,-103.82 407.67,-104.45 410.37,-110.91"/>
<path fill="none" stroke="black" d="M192.03,-210.82C214.98,-194.51 256.84,-166.93 296.74,-151.86"/>
</g>
<!-- dashkit_framework_presenters_occurrence_tables -->
<g id="node6" class="node">
<title>dashkit_framework_presenters_occurrence_tables</title><style>.edge>path:hover{stroke-width:8}</style>
<ellipse fill="#8f3d3d" stroke="black" cx="612.81" cy="-541.86" rx="67.53" ry="29.52"/>
<text xml:space="preserve" text-anchor="middle" x="612.81" y="-549.24" font-family="Helvetica,sans-Serif" font-size="10.00" fill="#ffffff">framework.</text>
<text xml:space="preserve" text-anchor="middle" x="612.81" y="-537.99" font-family="Helvetica,sans-Serif" font-size="10.00" fill="#ffffff">presenters.</text>
<text xml:space="preserve" text-anchor="middle" x="612.81" y="-526.74" font-family="Helvetica,sans-Serif" font-size="10.00" fill="#ffffff">occurrence_tables</text>
</g>
<!-- dashkit_framework_status -->
<g id="node7" class="node">
<title>dashkit_framework_status</title><style>.edge>path:hover{stroke-width:8}</style>
<ellipse fill="#d02424" stroke="black" cx="889.7" cy="-438.86" rx="45.79" ry="21.57"/>
<text xml:space="preserve" text-anchor="middle" x="889.7" y="-440.61" font-family="Helvetica,sans-Serif" font-size="10.00" fill="#ffffff">framework.</text>
<text xml:space="preserve" text-anchor="middle" x="889.7" y="-429.36" font-family="Helvetica,sans-Serif" font-size="10.00" fill="#ffffff">status</text>
</g>
<!-- dashkit_framework_presenters_occurrence_tables&#45;&gt;dashkit_framework_status -->
<g id="edge8" class="edge">
<title>dashkit_framework_presenters_occurrence_tables&#45;&gt;dashkit_framework_status</title><style>.edge>path:hover{stroke-width:8}</style>
<path fill="none" stroke="black" d="M763.13,-502.86C795.42,-494.6 828.9,-477 853.16,-462.35"/>
<polygon fill="#8f3d3d" stroke="black" points="854.68,-465.53 861.35,-457.29 851,-459.57 854.68,-465.53"/>
<path fill="none" stroke="black" d="M671.12,-526.46C698.36,-519.19 731.4,-510.47 761.13,-502.86"/>
</g>
<!-- dashkit_framework_presenters_occurrence_tables&#45;&gt;rich -->
<g id="edge40" class="edge">
<title>dashkit_framework_presenters_occurrence_tables&#45;&gt;rich</title><style>.edge>path:hover{stroke-width:8}</style>
<path fill="none" stroke="black" d="M763.13,-502.86C817.19,-489.02 839.15,-528.55 888.7,-502.86"/>
<path fill="none" stroke="black" d="M890.7,-502.86C912.65,-491.48 917.84,-487.18 935.48,-469.86 967.83,-438.1 958.58,-412.15 997.48,-388.86"/>
</g>
<!-- dashkit_framework_status&#45;&gt;rich -->
<g id="edge41" class="edge">
<title>dashkit_framework_status&#45;&gt;rich</title><style>.edge>path:hover{stroke-width:8}</style>
<path fill="none" stroke="black" d="M925.27,-424.8C946.63,-415.6 974.3,-402.74 997.48,-388.86"/>
</g>
<!-- dashkit_framework_test_utils -->
<g id="node8" class="node">
<title>dashkit_framework_test_utils</title><style>.edge>path:hover{stroke-width:8}</style>
<ellipse fill="#b34c4c" stroke="black" cx="45.79" cy="-999.86" rx="45.79" ry="21.57"/>
<text xml:space="preserve" text-anchor="middle" x="45.79" y="-1001.61" font-family="Helvetica,sans-Serif" font-size="10.00" fill="#ffffff">framework.</text>
<text xml:space="preserve" text-anchor="middle" x="45.79" y="-990.36" font-family="Helvetica,sans-Serif" font-size="10.00" fill="#ffffff">test_utils</text>
</g>
<!-- dashkit_framework_utils -->
<g id="node9" class="node">
<title>dashkit_framework_utils</title><style>.edge>path:hover{stroke-width:8}</style>
<ellipse fill="#c24747" stroke="black" cx="173.36" cy="-999.86" rx="45.79" ry="21.57"/>
<text xml:space="preserve" text-anchor="middle" x="173.36" y="-1001.61" font-family="Helvetica,sans-Serif" font-size="10.00" fill="#ffffff">framework.</text>
<text xml:space="preserve" text-anchor="middle" x="173.36" y="-990.36" font-family="Helvetica,sans-Serif" font-size="10.00" fill="#ffffff">utils</text>
</g>
<!-- dashkit_framework_test_utils&#45;&gt;dashkit_framework_utils -->
<g id="edge11" class="edge">
<title>dashkit_framework_test_utils&#45;&gt;dashkit_framework_utils</title><style>.edge>path:hover{stroke-width:8}</style>
<path fill="none" stroke="black" d="M91.76,-999.86C99.61,-999.86 107.86,-999.86 115.96,-999.86"/>
<polygon fill="#b34c4c" stroke="black" points="115.75,-1003.36 125.75,-999.86 115.75,-996.36 115.75,-1003.36"/>
</g>
<!-- dashkit_framework_views&#45;&gt;rich -->
<g id="edge42" class="edge">
<title>dashkit_framework_views&#45;&gt;rich</title><style>.edge>path:hover{stroke-width:8}</style>
<path fill="none" stroke="black" d="M805.55,-44.33C830.58,-41.7 862.4,-41.58 888.7,-51.86"/>
</g>
<!-- dashkit_modules_lighthouse_runner -->
<g id="node17" class="node">
<title>dashkit_modules_lighthouse_runner</title><style>.edge>path:hover{stroke-width:8}</style>
<ellipse fill="#b03a3a" stroke="black" cx="442.82" cy="-761.86" rx="44.72" ry="29.52"/>
<text xml:space="preserve" text-anchor="middle" x="442.82" y="-769.24" font-family="Helvetica,sans-Serif" font-size="10.00" fill="#ffffff">modules.</text>
<text xml:space="preserve" text-anchor="middle" x="442.82" y="-757.99" font-family="Helvetica,sans-Serif" font-size="10.00" fill="#ffffff">lighthouse.</text>
<text xml:space="preserve" text-anchor="middle" x="442.82" y="-746.74" font-family="Helvetica,sans-Serif" font-size="10.00" fill="#ffffff">runner</text>
</g>
<!-- dashkit_modules_lighthouse&#45;&gt;dashkit_modules_lighthouse_runner -->
<g id="edge22" class="edge">
<title>dashkit_modules_lighthouse&#45;&gt;dashkit_modules_lighthouse_runner</title><style>.edge>path:hover{stroke-width:8}</style>
<path fill="none" stroke="black" d="M301.07,-379.56C308.87,-449.31 335.98,-666.51 376.35,-722.86 381.22,-729.67 387.68,-735.49 394.65,-740.4"/>
<polygon fill="#ac2b2b" stroke="black" points="392.76,-743.34 403.08,-745.73 396.5,-737.43 392.76,-743.34"/>
</g>
<!-- dashkit_modules_lighthouse_widgets -->
<g id="node18" class="node">
<title>dashkit_modules_lighthouse_widgets</title><style>.edge>path:hover{stroke-width:8}</style>
<ellipse fill="#b03a3a" stroke="black" cx="442.82" cy="-357.86" rx="44.72" ry="29.52"/>
<text xml:space="preserve" text-anchor="middle" x="442.82" y="-365.24" font-family="Helvetica,sans-Serif" font-size="10.00" fill="#ffffff">modules.</text>
<text xml:space="preserve" text-anchor="middle" x="442.82" y="-353.99" font-family="Helvetica,sans-Serif" font-size="10.00" fill="#ffffff">lighthouse.</text>
<text xml:space="preserve" text-anchor="middle" x="442.82" y="-342.74" font-family="Helvetica,sans-Serif" font-size="10.00" fill="#ffffff">widgets</text>
</g>
<!-- dashkit_modules_lighthouse&#45;&gt;dashkit_modules_lighthouse_widgets -->
<g id="edge23" class="edge">
<title>dashkit_modules_lighthouse&#45;&gt;dashkit_modules_lighthouse_widgets</title><style>.edge>path:hover{stroke-width:8}</style>
<path fill="none" stroke="black" d="M340.51,-357.86C354.84,-357.86 371.11,-357.86 386.35,-357.86"/>
<polygon fill="#ac2b2b" stroke="black" points="386.24,-361.36 396.24,-357.86 386.24,-354.36 386.24,-361.36"/>
</g>
<!-- dashkit_modules_lighthouse_audits -->
<g id="node13" class="node">
<title>dashkit_modules_lighthouse_audits</title><style>.edge>path:hover{stroke-width:8}</style>
<ellipse fill="#db2f2f" stroke="black" cx="762.13" cy="-330.86" rx="44.72" ry="29.52"/>
<text xml:space="preserve" text-anchor="middle" x="762.13" y="-338.24" font-family="Helvetica,sans-Serif" font-size="10.00" fill="#ffffff">modules.</text>
<text xml:space="preserve" text-anchor="middle" x="762.13" y="-326.99" font-family="Helvetica,sans-Serif" font-size="10.00" fill="#ffffff">lighthouse.</text>
<text xml:space="preserve" text-anchor="middle" x="762.13" y="-315.74" font-family="Helvetica,sans-Serif" font-size="10.00" fill="#ffffff">audits</text>
</g>
<!-- dashkit_modules_lighthouse_categories -->
<g id="node14" class="node">
<title>dashkit_modules_lighthouse_categories</title><style>.edge>path:hover{stroke-width:8}</style>
<ellipse fill="#c04040" stroke="black" cx="612.81" cy="-311.86" rx="44.72" ry="29.52"/>
<text xml:space="preserve" text-anchor="middle" x="612.81" y="-319.24" font-family="Helvetica,sans-Serif" font-size="10.00" fill="#ffffff">modules.</text>
<text xml:space="preserve" text-anchor="middle" x="612.81" y="-307.99" font-family="Helvetica,sans-Serif" font-size="10.00" fill="#ffffff">lighthouse.</text>
<text xml:space="preserve" text-anchor="middle" x="612.81" y="-296.74" font-family="Helvetica,sans-Serif" font-size="10.00" fill="#ffffff">categories</text>
</g>
<!-- dashkit_modules_lighthouse_categories&#45;&gt;dashkit_modules_lighthouse_audits -->
<g id="edge16" class="edge">
<title>dashkit_modules_lighthouse_categories&#45;&gt;dashkit_modules_lighthouse_audits</title><style>.edge>path:hover{stroke-width:8}</style>
<path fill="none" stroke="black" d="M657.21,-317.46C672.73,-319.46 690.41,-321.74 706.74,-323.85"/>
<polygon fill="#c04040" stroke="black" points="705.91,-327.27 716.28,-325.08 706.81,-320.33 705.91,-327.27"/>
</g>
<!-- dashkit_modules_lighthouse_config -->
<g id="node15" class="node">
<title>dashkit_modules_lighthouse_config</title><style>.edge>path:hover{stroke-width:8}</style>
<ellipse fill="#c24747" stroke="black" cx="612.81" cy="-618.86" rx="44.72" ry="29.52"/>
<text xml:space="preserve" text-anchor="middle" x="612.81" y="-626.24" font-family="Helvetica,sans-Serif" font-size="10.00" fill="#ffffff">modules.</text>
<text xml:space="preserve" text-anchor="middle" x="612.81" y="-614.99" font-family="Helvetica,sans-Serif" font-size="10.00" fill="#ffffff">lighthouse.</text>
<text xml:space="preserve" text-anchor="middle" x="612.81" y="-603.74" font-family="Helvetica,sans-Serif" font-size="10.00" fill="#ffffff">config</text>
</g>
<!-- dashkit_modules_lighthouse_http -->
<g id="node16" class="node">
<title>dashkit_modules_lighthouse_http</title><style>.edge>path:hover{stroke-width:8}</style>
<ellipse fill="#c24747" stroke="black" cx="612.81" cy="-761.86" rx="44.72" ry="29.52"/>
<text xml:space="preserve" text-anchor="middle" x="612.81" y="-769.24" font-family="Helvetica,sans-Serif" font-size="10.00" fill="#ffffff">modules.</text>
<text xml:space="preserve" text-anchor="middle" x="612.81" y="-757.99" font-family="Helvetica,sans-Serif" font-size="10.00" fill="#ffffff">lighthouse.</text>
<text xml:space="preserve" text-anchor="middle" x="612.81" y="-746.74" font-family="Helvetica,sans-Serif" font-size="10.00" fill="#ffffff">http</text>
</g>
<!-- dashkit_modules_lighthouse_runner&#45;&gt;dashkit_modules_lighthouse_http -->
<g id="edge21" class="edge">
<title>dashkit_modules_lighthouse_runner&#45;&gt;dashkit_modules_lighthouse_http</title><style>.edge>path:hover{stroke-width:8}</style>
<path fill="none" stroke="black" d="M487.95,-761.86C508.9,-761.86 534.15,-761.86 556.37,-761.86"/>
<polygon fill="#b03a3a" stroke="black" points="556.16,-765.36 566.16,-761.86 556.16,-758.36 556.16,-765.36"/>
</g>
<!-- dashkit_modules_lighthouse_runner&#45;&gt;dashkit_services -->
<g id="edge29" class="edge">
<title>dashkit_modules_lighthouse_runner&#45;&gt;dashkit_services</title><style>.edge>path:hover{stroke-width:8}</style>
<path fill="none" stroke="black" d="M763.13,-819.86C790.93,-817.42 822.34,-817.42 846.79,-818.03"/>
<polygon fill="#b03a3a" stroke="black" points="846.57,-821.53 856.67,-818.33 846.78,-814.53 846.57,-821.53"/>
</g>
<!-- dashkit_services_snapshots -->
<g id="node23" class="node">
<title>dashkit_services_snapshots</title><style>.edge>path:hover{stroke-width:8}</style>
<ellipse fill="#c24747" stroke="black" cx="889.7" cy="-761.86" rx="43.13" ry="21.57"/>
<text xml:space="preserve" text-anchor="middle" x="889.7" y="-763.61" font-family="Helvetica,sans-Serif" font-size="10.00" fill="#ffffff">services.</text>
<text xml:space="preserve" text-anchor="middle" x="889.7" y="-752.36" font-family="Helvetica,sans-Serif" font-size="10.00" fill="#ffffff">snapshots</text>
</g>
<!-- dashkit_modules_lighthouse_runner&#45;&gt;dashkit_services_snapshots -->
<g id="edge30" class="edge">
<title>dashkit_modules_lighthouse_runner&#45;&gt;dashkit_services_snapshots</title><style>.edge>path:hover{stroke-width:8}</style>
<path fill="none" stroke="black" d="M763.13,-819.86C795.91,-816.18 829.67,-799.75 853.91,-785.31"/>
<polygon fill="#b03a3a" stroke="black" points="855.72,-788.31 862.4,-780.08 852.05,-782.35 855.72,-788.31"/>
<path fill="none" stroke="black" d="M480.15,-778.67C499.15,-786.72 523.04,-795.71 545.28,-800.86 639.11,-822.57 665.43,-830.6 761.13,-819.86"/>
</g>
<!-- dashkit_modules_lighthouse_widgets_audits -->
<g id="node19" class="node">
<title>dashkit_modules_lighthouse_widgets_audits</title><style>.edge>path:hover{stroke-width:8}</style>
<ellipse fill="#8a2e2e" stroke="black" cx="442.82" cy="-442.86" rx="44.72" ry="37.48"/>
<text xml:space="preserve" text-anchor="middle" x="442.82" y="-455.86" font-family="Helvetica,sans-Serif" font-size="10.00" fill="#ffffff">modules.</text>
<text xml:space="preserve" text-anchor="middle" x="442.82" y="-444.61" font-family="Helvetica,sans-Serif" font-size="10.00" fill="#ffffff">lighthouse.</text>
<text xml:space="preserve" text-anchor="middle" x="442.82" y="-433.36" font-family="Helvetica,sans-Serif" font-size="10.00" fill="#ffffff">widgets.</text>
<text xml:space="preserve" text-anchor="middle" x="442.82" y="-422.11" font-family="Helvetica,sans-Serif" font-size="10.00" fill="#ffffff">audits</text>
</g>
<!-- dashkit_modules_lighthouse_widgets&#45;&gt;dashkit_modules_lighthouse_widgets_audits -->
<g id="edge24" class="edge">
<title>dashkit_modules_lighthouse_widgets&#45;&gt;dashkit_modules_lighthouse_widgets_audits</title><style>.edge>path:hover{stroke-width:8}</style>
<path fill="none" stroke="black" d="M442.82,-387.75C442.82,-389.72 442.82,-391.69 442.82,-393.67"/>
<polygon fill="#b03a3a" stroke="black" points="439.32,-393.46 442.82,-403.46 446.32,-393.46 439.32,-393.46"/>
</g>
<!-- dashkit_modules_lighthouse_widgets_metrics_summary -->
<g id="node20" class="node">
<title>dashkit_modules_lighthouse_widgets_metrics_summary</title><style>.edge>path:hover{stroke-width:8}</style>
<ellipse fill="#913030" stroke="black" cx="442.82" cy="-535.86" rx="66.47" ry="37.48"/>
<text xml:space="preserve" text-anchor="middle" x="442.82" y="-548.86" font-family="Helvetica,sans-Serif" font-size="10.00" fill="#ffffff">modules.</text>
<text xml:space="preserve" text-anchor="middle" x="442.82" y="-537.61" font-family="Helvetica,sans-Serif" font-size="10.00" fill="#ffffff">lighthouse.</text>
<text xml:space="preserve" text-anchor="middle" x="442.82" y="-526.36" font-family="Helvetica,sans-Serif" font-size="10.00" fill="#ffffff">widgets.</text>
<text xml:space="preserve" text-anchor="middle" x="442.82" y="-515.11" font-family="Helvetica,sans-Serif" font-size="10.00" fill="#ffffff">metrics_summary</text>
</g>
<!-- dashkit_modules_lighthouse_widgets&#45;&gt;dashkit_modules_lighthouse_widgets_metrics_summary -->
<g id="edge25" class="edge">
<title>dashkit_modules_lighthouse_widgets&#45;&gt;dashkit_modules_lighthouse_widgets_metrics_summary</title><style>.edge>path:hover{stroke-width:8}</style>
<path fill="none" stroke="black" d="M402.16,-370.64C385.51,-378.11 367.93,-389.39 358.35,-405.86 341.81,-434.29 342.79,-450.89 358.35,-479.86 363.83,-490.08 372.1,-498.75 381.34,-505.99"/>
<polygon fill="#b03a3a" stroke="black" points="379.05,-508.66 389.22,-511.62 383.12,-502.96 379.05,-508.66"/>
</g>
<!-- dashkit_modules_lighthouse_widgets_thirdparty -->
<g id="node21" class="node">
<title>dashkit_modules_lighthouse_widgets_thirdparty</title><style>.edge>path:hover{stroke-width:8}</style>
<ellipse fill="#a83838" stroke="black" cx="442.82" cy="-676.86" rx="44.72" ry="37.48"/>
<text xml:space="preserve" text-anchor="middle" x="442.82" y="-689.86" font-family="Helvetica,sans-Serif" font-size="10.00" fill="#ffffff">modules.</text>
<text xml:space="preserve" text-anchor="middle" x="442.82" y="-678.61" font-family="Helvetica,sans-Serif" font-size="10.00" fill="#ffffff">lighthouse.</text>
<text xml:space="preserve" text-anchor="middle" x="442.82" y="-667.36" font-family="Helvetica,sans-Serif" font-size="10.00" fill="#ffffff">widgets.</text>
<text xml:space="preserve" text-anchor="middle" x="442.82" y="-656.11" font-family="Helvetica,sans-Serif" font-size="10.00" fill="#ffffff">thirdparty</text>
</g>
<!-- dashkit_modules_lighthouse_widgets&#45;&gt;dashkit_modules_lighthouse_widgets_thirdparty -->
<g id="edge26" class="edge">
<title>dashkit_modules_lighthouse_widgets&#45;&gt;dashkit_modules_lighthouse_widgets_thirdparty</title><style>.edge>path:hover{stroke-width:8}</style>
<path fill="none" stroke="black" d="M402.16,-370.64C385.51,-378.11 367.93,-389.39 358.35,-405.86 339.68,-437.94 345.93,-537.89 358.35,-572.86 367.59,-598.91 386.45,-623.17 404,-641.71"/>
<polygon fill="#b03a3a" stroke="black" points="401.38,-644.03 410.88,-648.72 406.38,-639.13 401.38,-644.03"/>
</g>
<!-- dashkit_modules_lighthouse_widgets_audits&#45;&gt;dashkit_framework -->
<g id="edge5" class="edge">
<title>dashkit_modules_lighthouse_widgets_audits&#45;&gt;dashkit_framework</title><style>.edge>path:hover{stroke-width:8}</style>
<path fill="none" stroke="black" d="M481.19,-422.99C491.54,-415.93 501.93,-407.15 509.28,-396.86 542.65,-350.17 500.95,-309.3 545.28,-272.86 582.48,-242.29 714.11,-243.47 761.13,-253.86"/>
</g>
<!-- dashkit_modules_lighthouse_widgets_audits&#45;&gt;dashkit_framework_status -->
<g id="edge9" class="edge">
<title>dashkit_modules_lighthouse_widgets_audits&#45;&gt;dashkit_framework_status</title><style>.edge>path:hover{stroke-width:8}</style>
<path fill="none" stroke="black" d="M763.13,-464.86C788.04,-462.35 815.31,-457.02 838.05,-451.84"/>
<polygon fill="#8a2e2e" stroke="black" points="838.74,-455.28 847.68,-449.59 837.14,-448.46 838.74,-455.28"/>
<path fill="none" stroke="black" d="M487,-450.49C548.12,-460.24 663.33,-474.73 761.13,-464.86"/>
</g>
<!-- dashkit_modules_lighthouse_widgets_audits&#45;&gt;dashkit_modules_lighthouse_audits -->
<g id="edge17" class="edge">
<title>dashkit_modules_lighthouse_widgets_audits&#45;&gt;dashkit_modules_lighthouse_audits</title><style>.edge>path:hover{stroke-width:8}</style>
<path fill="none" stroke="black" d="M613.81,-369.86C645.72,-362.18 681.29,-352.79 709.48,-345.15"/>
<polygon fill="#8a2e2e" stroke="black" points="710.1,-348.6 718.83,-342.6 708.26,-341.85 710.1,-348.6"/>
<path fill="none" stroke="black" d="M480.54,-422.45C513.74,-405.1 564.51,-381.25 611.81,-369.86"/>
</g>
<!-- dashkit_modules_lighthouse_widgets_audits&#45;&gt;dashkit_modules_lighthouse_categories -->
<g id="edge19" class="edge">
<title>dashkit_modules_lighthouse_widgets_audits&#45;&gt;dashkit_modules_lighthouse_categories</title><style>.edge>path:hover{stroke-width:8}</style>
<path fill="none" stroke="black" d="M478.96,-420.45C489.12,-413.38 499.98,-405.21 509.28,-396.86 527.33,-380.67 527.01,-371.8 545.28,-355.86 552.63,-349.45 560.98,-343.24 569.21,-337.6"/>
<polygon fill="#8a2e2e" stroke="black" points="571.1,-340.54 577.49,-332.1 567.23,-334.71 571.1,-340.54"/>
</g>
<!-- dashkit_modules_lighthouse_widgets_audits&#45;&gt;rich -->
<g id="edge43" class="edge">
<title>dashkit_modules_lighthouse_widgets_audits&#45;&gt;rich</title><style>.edge>path:hover{stroke-width:8}</style>
<path fill="none" stroke="black" d="M613.81,-369.86C696.81,-349.88 924.52,-433.18 997.48,-388.86"/>
</g>
<!-- dashkit_modules_lighthouse_widgets_metrics_summary&#45;&gt;dashkit_framework -->
<g id="edge6" class="edge">
<title>dashkit_modules_lighthouse_widgets_metrics_summary&#45;&gt;dashkit_framework</title><style>.edge>path:hover{stroke-width:8}</style>
<path fill="none" stroke="black" d="M613.81,-483.86C710.15,-456.89 730.79,-433.59 807.91,-369.86 831.57,-350.31 854.23,-323.55 869.51,-303.93"/>
<polygon fill="#913030" stroke="black" points="872.17,-306.21 875.46,-296.14 866.61,-301.96 872.17,-306.21"/>
<path fill="none" stroke="black" d="M500.59,-517C515.12,-512.28 530.76,-507.3 545.28,-502.86 574.69,-493.88 582.49,-493.14 611.81,-483.86"/>
</g>
<!-- dashkit_modules_lighthouse_widgets_metrics_summary&#45;&gt;dashkit_framework_status -->
<g id="edge10" class="edge">
<title>dashkit_modules_lighthouse_widgets_metrics_summary&#45;&gt;dashkit_framework_status</title><style>.edge>path:hover{stroke-width:8}</style>
<path fill="none" stroke="black" d="M613.81,-483.86C677.38,-466.06 695.67,-473.43 761.13,-464.86"/>
</g>
<!-- dashkit_modules_lighthouse_widgets_metrics_summary&#45;&gt;dashkit_modules_lighthouse_audits -->
<g id="edge18" class="edge">
<title>dashkit_modules_lighthouse_widgets_metrics_summary&#45;&gt;dashkit_modules_lighthouse_audits</title><style>.edge>path:hover{stroke-width:8}</style>
<path fill="none" stroke="black" d="M487.21,-507.51C505.16,-495.81 526.2,-482.15 545.28,-469.86 605.12,-431.35 620.58,-422.49 680.34,-383.86 693.36,-375.45 707.51,-366.2 720.28,-357.81"/>
<polygon fill="#913030" stroke="black" points="722.03,-360.85 728.47,-352.43 718.19,-355 722.03,-360.85"/>
</g>
<!-- dashkit_modules_lighthouse_widgets_metrics_summary&#45;&gt;dashkit_modules_lighthouse_config -->
<g id="edge20" class="edge">
<title>dashkit_modules_lighthouse_widgets_metrics_summary&#45;&gt;dashkit_modules_lighthouse_config</title><style>.edge>path:hover{stroke-width:8}</style>
<path fill="none" stroke="black" d="M493.31,-560.32C516.29,-571.67 543.43,-585.08 565.94,-596.2"/>
<polygon fill="#913030" stroke="black" points="564.38,-599.33 574.9,-600.62 567.48,-593.06 564.38,-599.33"/>
</g>
<!-- dashkit_modules_lighthouse_widgets_metrics_summary&#45;&gt;rich -->
<g id="edge44" class="edge">
<title>dashkit_modules_lighthouse_widgets_metrics_summary&#45;&gt;rich</title><style>.edge>path:hover{stroke-width:8}</style>
<path fill="none" stroke="black" d="M613.81,-676.86C644.1,-671.57 652.77,-671.48 680.34,-657.86 783.82,-606.74 786.23,-555.99 888.7,-502.86"/>
<path fill="none" stroke="black" d="M465.07,-571.63C483.13,-599.06 511.47,-635.83 545.28,-657.86 571.05,-674.65 581.09,-678.29 611.81,-676.86"/>
</g>
<!-- dashkit_modules_lighthouse_widgets_thirdparty&#45;&gt;rich -->
<g id="edge45" class="edge">
<title>dashkit_modules_lighthouse_widgets_thirdparty&#45;&gt;rich</title><style>.edge>path:hover{stroke-width:8}</style>
<path fill="none" stroke="black" d="M487.7,-677.98C521.61,-678.57 569.71,-678.83 611.81,-676.86"/>
</g>
<!-- yaml -->
<g id="node32" class="node">
<title>yaml</title><style>.edge>path:hover{stroke-width:8}</style>
<polygon fill="#a253b6" stroke="black" points="916.7,-241.86 913.7,-245.86 892.7,-245.86 889.7,-241.86 862.7,-241.86 862.7,-205.86 916.7,-205.86 916.7,-241.86"/>
<text xml:space="preserve" text-anchor="middle" x="889.7" y="-219.99" font-family="Helvetica,sans-Serif" font-size="10.00" fill="#ffffff">yaml</text>
</g>
<!-- dashkit_services_workspaces&#45;&gt;yaml -->
<g id="edge50" class="edge">
<title>dashkit_services_workspaces&#45;&gt;yaml</title><style>.edge>path:hover{stroke-width:8}</style>
<path fill="none" stroke="black" d="M481.37,-256.41C500.29,-250.23 523.73,-243.5 545.28,-239.86 655.31,-221.31 787.78,-221.32 851.24,-222.68"/>
<polygon fill="#cc3333" stroke="black" points="851.03,-226.17 861.11,-222.92 851.2,-219.18 851.03,-226.17"/>
</g>
<!-- dashkit_tui_app&#45;&gt;dashkit_framework -->
<g id="edge7" class="edge">
<title>dashkit_tui_app&#45;&gt;dashkit_framework</title><style>.edge>path:hover{stroke-width:8}</style>
<path fill="none" stroke="black" d="M763.13,-139.86C822.28,-154.83 798.94,-209.63 843.91,-250.86 846.97,-253.67 850.36,-256.33 853.87,-258.81"/>
<polygon fill="#822b2b" stroke="black" points="851.73,-261.59 862.02,-264.11 855.55,-255.73 851.73,-261.59"/>
</g>
<!-- dashkit_tui_app&#45;&gt;dashkit_framework_views -->
<g id="edge13" class="edge">
<title>dashkit_tui_app&#45;&gt;dashkit_framework_views</title><style>.edge>path:hover{stroke-width:8}</style>
<path fill="none" stroke="black" d="M456.98,-78.24C474.69,-58.59 508.27,-25.83 545.28,-12.86 601.94,6.98 621.83,0.52 680.34,-12.86 695.08,-16.23 710.25,-22.65 723.41,-29.33"/>
<polygon fill="#822b2b" stroke="black" points="721.68,-32.37 732.15,-33.97 724.96,-26.19 721.68,-32.37"/>
</g>
<!-- dashkit_tui_parsers -->
<g id="node27" class="node">
<title>dashkit_tui_parsers</title><style>.edge>path:hover{stroke-width:8}</style>
<ellipse fill="#c24747" stroke="black" cx="612.81" cy="-39.86" rx="36.54" ry="18"/>
<text xml:space="preserve" text-anchor="middle" x="612.81" y="-35.99" font-family="Helvetica,sans-Serif" font-size="10.00" fill="#ffffff">tui.parsers</text>
</g>
<!-- dashkit_tui_app&#45;&gt;dashkit_tui_parsers -->
<g id="edge35" class="edge">
<title>dashkit_tui_app&#45;&gt;dashkit_tui_parsers</title><style>.edge>path:hover{stroke-width:8}</style>
<path fill="none" stroke="black" d="M467.53,-86.24C494.23,-77.66 538.1,-63.56 570.47,-53.15"/>
<polygon fill="#822b2b" stroke="black" points="571.5,-56.5 579.95,-50.1 569.36,-49.83 571.5,-56.5"/>
</g>
<!-- dashkit_tui_sidebar -->
<g id="node28" class="node">
<title>dashkit_tui_sidebar</title><style>.edge>path:hover{stroke-width:8}</style>
<ellipse fill="#a83838" stroke="black" cx="612.81" cy="-93.86" rx="36.09" ry="18"/>
<text xml:space="preserve" text-anchor="middle" x="612.81" y="-89.99" font-family="Helvetica,sans-Serif" font-size="10.00" fill="#ffffff">tui.sidebar</text>
</g>
<!-- dashkit_tui_app&#45;&gt;dashkit_tui_sidebar -->
<g id="edge36" class="edge">
<title>dashkit_tui_app&#45;&gt;dashkit_tui_sidebar</title><style>.edge>path:hover{stroke-width:8}</style>
<path fill="none" stroke="black" d="M470.06,-93.86C495.43,-93.86 534.42,-93.86 565.09,-93.86"/>
<polygon fill="#822b2b" stroke="black" points="564.88,-97.36 574.88,-93.86 564.88,-90.36 564.88,-97.36"/>
</g>
<!-- textual -->
<g id="node31" class="node">
<title>textual</title><style>.edge>path:hover{stroke-width:8}</style>
<polygon fill="blue" stroke="black" points="1025.48,-249.86 1022.48,-253.86 1001.48,-253.86 998.48,-249.86 971.48,-249.86 971.48,-213.86 1025.48,-213.86 1025.48,-249.86"/>
<text xml:space="preserve" text-anchor="middle" x="998.48" y="-227.99" font-family="Helvetica,sans-Serif" font-size="10.00" fill="white">textual</text>
</g>
<!-- dashkit_tui_app&#45;&gt;textual -->
<g id="edge48" class="edge">
<title>dashkit_tui_app&#45;&gt;textual</title><style>.edge>path:hover{stroke-width:8}</style>
<path fill="none" stroke="black" d="M467.75,-101.48C488.14,-107.67 518.35,-116.13 545.28,-120.86 640.13,-137.53 667.77,-116.23 761.13,-139.86"/>
<path fill="none" stroke="black" d="M763.13,-139.86C816.45,-156.33 837.69,-117.21 888.7,-139.86"/>
</g>
<!-- dashkit_tui_sidebar&#45;&gt;rich -->
<g id="edge46" class="edge">
<title>dashkit_tui_sidebar&#45;&gt;rich</title><style>.edge>path:hover{stroke-width:8}</style>
<path fill="none" stroke="black" d="M1062.48,-231.86C1070.31,-230.97 1078.74,-230.59 1086.78,-230.5"/>
<polygon fill="#a83838" stroke="black" points="1086.63,-234 1096.65,-230.54 1086.66,-227 1086.63,-234"/>
<path fill="none" stroke="black" d="M644.7,-85.11C656.57,-80.81 669.79,-74.82 680.34,-66.86 701.07,-51.23 693,-32.23 716.34,-20.86 786.31,13.23 816.21,-23.52 888.7,-51.86"/>
<path fill="none" stroke="black" d="M890.7,-51.86C903.65,-56.58 1047.78,-233.42 1061.48,-231.86"/>
</g>
<!-- dashkit_tui_sidebar&#45;&gt;textual -->
<g id="edge49" class="edge">
<title>dashkit_tui_sidebar&#45;&gt;textual</title><style>.edge>path:hover{stroke-width:8}</style>
<path fill="none" stroke="black" d="M649.33,-94.07C703.38,-95.62 808.46,-103.56 888.7,-139.86"/>
<path fill="none" stroke="black" d="M890.7,-139.86C911.33,-149.03 917.67,-149.99 935.48,-163.86 950.64,-175.67 965.23,-191.39 976.45,-204.74"/>
<polygon fill="#a83838" stroke="black" points="973.65,-206.83 982.69,-212.35 979.06,-202.4 973.65,-206.83"/>
</g>
<!-- textual&#45;&gt;rich -->
<g id="edge47" class="edge">
<title>textual&#45;&gt;rich</title><style>.edge>path:hover{stroke-width:8}</style>
<path fill="none" stroke="black" d="M1025.8,-233.18C1036.85,-233.39 1049.82,-233.19 1061.48,-231.86"/>
</g>
</g>
</svg>
