<?xml version="1.0" encoding="UTF-8" standalone="no"?>
<!DOCTYPE svg PUBLIC "-//W3C//DTD SVG 1.1//EN"
 "http://www.w3.org/Graphics/SVG/1.1/DTD/svg11.dtd">
<!-- Generated by graphviz version 14.1.2 (20260124.0452)
 -->
<!-- Title: G Pages: 1 -->
<svg width="1193pt" height="1195pt"
 viewBox="0.00 0.00 1193.00 1195.00" xmlns="http://www.w3.org/2000/svg" xmlns:xlink="http://www.w3.org/1999/xlink">
<g id="graph0" class="graph" transform="scale(1 1) rotate(0) translate(4 1190.82)">
<title>G</title><style>.edge>path:hover{stroke-width:8}</style>
<polygon fill="white" stroke="none" points="-4,4 -4,-1190.82 1189.36,-1190.82 1189.36,4 -4,4"/>
<!-- dashkit_cli -->
<g id="node1" class="node">
<title>dashkit_cli</title><style>.edge>path:hover{stroke-width:8}</style>
<ellipse fill="#b03a3a" stroke="black" cx="45.79" cy="-854" rx="27" ry="18"/>
<text xml:space="preserve" text-anchor="middle" x="45.79" y="-850.12" font-family="Helvetica,sans-Serif" font-size="10.00" fill="#ffffff">cli</text>
</g>
<!-- dashkit_cli_lighthouse -->
<g id="node2" class="node">
<title>dashkit_cli_lighthouse</title><style>.edge>path:hover{stroke-width:8}</style>
<ellipse fill="#a13535" stroke="black" cx="173.36" cy="-908" rx="43.19" ry="18"/>
<text xml:space="preserve" text-anchor="middle" x="173.36" y="-904.12" font-family="Helvetica,sans-Serif" font-size="10.00" fill="#ffffff">cli.lighthouse</text>
</g>
<!-- dashkit_cli&#45;&gt;dashkit_cli_lighthouse -->
<g id="edge1" class="edge">
<title>dashkit_cli&#45;&gt;dashkit_cli_lighthouse</title><style>.edge>path:hover{stroke-width:8}</style>
<path fill="none" stroke="black" d="M69.23,-863.65C86.66,-871.15 111.26,-881.73 132.07,-890.68"/>
<polygon fill="#b03a3a" stroke="black" points="130.59,-893.85 141.15,-894.58 133.35,-887.42 130.59,-893.85"/>
</g>
<!-- dashkit_cli_printer -->
<g id="node3" class="node">
<title>dashkit_cli_printer</title><style>.edge>path:hover{stroke-width:8}</style>
<ellipse fill="#993333" stroke="black" cx="173.36" cy="-854" rx="32.99" ry="18"/>
<text xml:space="preserve" text-anchor="middle" x="173.36" y="-850.12" font-family="Helvetica,sans-Serif" font-size="10.00" fill="#ffffff">cli.printer</text>
</g>
<!-- dashkit_cli&#45;&gt;dashkit_cli_printer -->
<g id="edge2" class="edge">
<title>dashkit_cli&#45;&gt;dashkit_cli_printer</title><style>.edge>path:hover{stroke-width:8}</style>
<path fill="none" stroke="black" d="M73.11,-854C89.23,-854 110.26,-854 128.81,-854"/>
<polygon fill="#b03a3a" stroke="black" points="128.76,-857.5 138.76,-854 128.76,-850.5 128.76,-857.5"/>
</g>
<!-- dashkit_cli_tui -->
<g id="node4" class="node">
<title>dashkit_cli_tui</title><style>.edge>path:hover{stroke-width:8}</style>
<ellipse fill="#a83838" stroke="black" cx="173.36" cy="-800" rx="27" ry="18"/>
<text xml:space="preserve" text-anchor="middle" x="173.36" y="-796.12" font-family="Helvetica,sans-Serif" font-size="10.00" fill="#ffffff">cli.tui</text>
</g>
<!-- dashkit_cli&#45;&gt;dashkit_cli_tui -->
<g id="edge3" class="edge">
<title>dashkit_cli&#45;&gt;dashkit_cli_tui</title><style>.edge>path:hover{stroke-width:8}</style>
<path fill="none" stroke="black" d="M69.23,-844.35C88.88,-835.9 117.65,-823.52 139.82,-813.99"/>
<polygon fill="#b03a3a" stroke="black" points="140.91,-817.33 148.71,-810.17 138.14,-810.9 140.91,-817.33"/>
</g>
<!-- dashkit_modules -->
<g id="node12" class="node">
<title>dashkit_modules</title><style>.edge>path:hover{stroke-width:8}</style>
<ellipse fill="#ce3b3b" stroke="black" cx="459.26" cy="-1109" rx="31.21" ry="18"/>
<text xml:space="preserve" text-anchor="middle" x="459.26" y="-1105.12" font-family="Helvetica,sans-Serif" font-size="10.00" fill="#ffffff">modules</text>
</g>
<!-- dashkit_cli_lighthouse&#45;&gt;dashkit_modules -->
<g id="edge15" class="edge">
<title>dashkit_cli_lighthouse&#45;&gt;dashkit_modules</title><style>.edge>path:hover{stroke-width:8}</style>
<path fill="none" stroke="black" d="M298.74,-1155C309.73,-1160.74 377.98,-1137.99 421.57,-1122.45"/>
<polygon fill="#a13535" stroke="black" points="422.69,-1125.77 430.92,-1119.1 420.32,-1119.18 422.69,-1125.77"/>
<path fill="none" stroke="black" d="M203.18,-921.34C209.06,-925.1 214.78,-929.65 219.14,-935 284.63,-1015.38 204.85,-1106.99 296.74,-1155"/>
</g>
<!-- dashkit_modules_lighthouse -->
<g id="node13" class="node">
<title>dashkit_modules_lighthouse</title><style>.edge>path:hover{stroke-width:8}</style>
<ellipse fill="#ac2b2b" stroke="black" cx="297.74" cy="-966" rx="42.6" ry="21.57"/>
<text xml:space="preserve" text-anchor="middle" x="297.74" y="-967.75" font-family="Helvetica,sans-Serif" font-size="10.00" fill="#ffffff">modules.</text>
<text xml:space="preserve" text-anchor="middle" x="297.74" y="-956.5" font-family="Helvetica,sans-Serif" font-size="10.00" fill="#ffffff">lighthouse</text>
</g>
<!-- dashkit_cli_lighthouse&#45;&gt;dashkit_modules_lighthouse -->
<g id="edge16" class="edge">
<title>dashkit_cli_lighthouse&#45;&gt;dashkit_modules_lighthouse</title><style>.edge>path:hover{stroke-width:8}</style>
<path fill="none" stroke="black" d="M202.74,-921.45C218.56,-928.95 238.53,-938.41 256,-946.69"/>
<polygon fill="#a13535" stroke="black" points="254.04,-949.63 264.57,-950.75 257.03,-943.31 254.04,-949.63"/>
</g>
<!-- dashkit_services -->
<g id="node23" class="node">
<title>dashkit_services</title><style>.edge>path:hover{stroke-width:8}</style>
<ellipse fill="#e72222" stroke="black" cx="922.58" cy="-908" rx="31.21" ry="18"/>
<text xml:space="preserve" text-anchor="middle" x="922.58" y="-904.12" font-family="Helvetica,sans-Serif" font-size="10.00" fill="#ffffff">services</text>
</g>
<!-- dashkit_cli_lighthouse&#45;&gt;dashkit_services -->
<g id="edge28" class="edge">
<title>dashkit_cli_lighthouse&#45;&gt;dashkit_services</title><style>.edge>path:hover{stroke-width:8}</style>
<path fill="none" stroke="black" d="M216.67,-905.78C240.3,-905.1 270.23,-905.16 296.74,-908"/>
</g>
<!-- dashkit_services_workspaces -->
<g id="node25" class="node">
<title>dashkit_services_workspaces</title><style>.edge>path:hover{stroke-width:8}</style>
<ellipse fill="#d92626" stroke="black" cx="459.26" cy="-858" rx="48.44" ry="21.57"/>
<text xml:space="preserve" text-anchor="middle" x="459.26" y="-859.75" font-family="Helvetica,sans-Serif" font-size="10.00" fill="#ffffff">services.</text>
<text xml:space="preserve" text-anchor="middle" x="459.26" y="-848.5" font-family="Helvetica,sans-Serif" font-size="10.00" fill="#ffffff">workspaces</text>
</g>
<!-- dashkit_cli_lighthouse&#45;&gt;dashkit_services_workspaces -->
<g id="edge33" class="edge">
<title>dashkit_cli_lighthouse&#45;&gt;dashkit_services_workspaces</title><style>.edge>path:hover{stroke-width:8}</style>
<path fill="none" stroke="black" d="M201.14,-893.81C225.33,-882.12 262.33,-866.98 296.74,-864"/>
</g>
<!-- dotenv -->
<g id="node30" class="node">
<title>dotenv</title><style>.edge>path:hover{stroke-width:8}</style>
<polygon fill="#a2b653" stroke="black" points="672.69,-1173 669.69,-1177 648.69,-1177 645.69,-1173 618.69,-1173 618.69,-1137 672.69,-1137 672.69,-1173"/>
<text xml:space="preserve" text-anchor="middle" x="645.69" y="-1151.12" font-family="Helvetica,sans-Serif" font-size="10.00" fill="#000000">dotenv</text>
</g>
<!-- dashkit_cli_lighthouse&#45;&gt;dotenv -->
<g id="edge40" class="edge">
<title>dashkit_cli_lighthouse&#45;&gt;dotenv</title><style>.edge>path:hover{stroke-width:8}</style>
<path fill="none" stroke="black" d="M298.74,-1155C399.68,-1207.73 540.89,-1182.35 607.33,-1165.64"/>
<polygon fill="#a13535" stroke="black" points="608.2,-1169.03 617,-1163.12 606.44,-1162.25 608.2,-1169.03"/>
</g>
<!-- dashkit_framework -->
<g id="node5" class="node">
<title>dashkit_framework</title><style>.edge>path:hover{stroke-width:8}</style>
<ellipse fill="#f91010" stroke="black" cx="922.58" cy="-202" rx="36.54" ry="18"/>
<text xml:space="preserve" text-anchor="middle" x="922.58" y="-198.12" font-family="Helvetica,sans-Serif" font-size="10.00" fill="#ffffff">framework</text>
</g>
<!-- dashkit_cli_printer&#45;&gt;dashkit_framework -->
<g id="edge4" class="edge">
<title>dashkit_cli_printer&#45;&gt;dashkit_framework</title><style>.edge>path:hover{stroke-width:8}</style>
<path fill="none" stroke="black" d="M199.27,-842.78C206.41,-838.63 213.72,-833.36 219.14,-827 279.64,-756.06 303.77,-496.53 376.35,-438 405.91,-414.16 676.65,-390.27 713.22,-380 722.52,-377.39 785.92,-353.28 794.01,-348"/>
</g>
<!-- dashkit_framework_views -->
<g id="node11" class="node">
<title>dashkit_framework_views</title><style>.edge>path:hover{stroke-width:8}</style>
<ellipse fill="#c43131" stroke="black" cx="795.01" cy="-398" rx="45.79" ry="21.57"/>
<text xml:space="preserve" text-anchor="middle" x="795.01" y="-399.75" font-family="Helvetica,sans-Serif" font-size="10.00" fill="#ffffff">framework.</text>
<text xml:space="preserve" text-anchor="middle" x="795.01" y="-388.5" font-family="Helvetica,sans-Serif" font-size="10.00" fill="#ffffff">views</text>
</g>
<!-- dashkit_cli_printer&#45;&gt;dashkit_framework_views -->
<g id="edge13" class="edge">
<title>dashkit_cli_printer&#45;&gt;dashkit_framework_views</title><style>.edge>path:hover{stroke-width:8}</style>
<path fill="none" stroke="black" d="M298.74,-770C399.93,-689.09 279.44,-575 376.35,-489 489.61,-388.49 568.78,-483.47 713.22,-438 727.47,-433.51 742.33,-426.81 755.36,-420.17"/>
<polygon fill="#993333" stroke="black" points="756.82,-423.36 764.03,-415.6 753.55,-417.16 756.82,-423.36"/>
<path fill="none" stroke="black" d="M196.93,-840.93C204.12,-836.63 212.04,-831.73 219.14,-827 254.75,-803.26 263.35,-796.76 296.74,-770"/>
</g>
<!-- dashkit_cli_printer&#45;&gt;dashkit_services -->
<g id="edge29" class="edge">
<title>dashkit_cli_printer&#45;&gt;dashkit_services</title><style>.edge>path:hover{stroke-width:8}</style>
<path fill="none" stroke="black" d="M646.69,-908C728.97,-901.64 825.52,-903.87 879.51,-905.99"/>
<polygon fill="#993333" stroke="black" points="879.36,-909.49 889.5,-906.4 879.65,-902.49 879.36,-909.49"/>
<path fill="none" stroke="black" d="M298.74,-908C451.62,-924.4 491.56,-921.79 644.69,-908"/>
<path fill="none" stroke="black" d="M195.36,-867.65C218.91,-881.87 258.78,-902.8 296.74,-908"/>
</g>
<!-- dashkit_cli_printer&#45;&gt;dashkit_services_workspaces -->
<g id="edge34" class="edge">
<title>dashkit_cli_printer&#45;&gt;dashkit_services_workspaces</title><style>.edge>path:hover{stroke-width:8}</style>
<path fill="none" stroke="black" d="M205.3,-859.4C230.04,-863.03 265.63,-866.7 296.74,-864"/>
<path fill="none" stroke="black" d="M298.74,-864C331.92,-861.12 369.09,-859.63 399.2,-858.85"/>
<polygon fill="#993333" stroke="black" points="398.94,-862.35 408.85,-858.62 398.77,-855.36 398.94,-862.35"/>
</g>
<!-- rich -->
<g id="node31" class="node">
<title>rich</title><style>.edge>path:hover{stroke-width:8}</style>
<polygon fill="blue" stroke="black" points="1185.36,-117 1182.36,-121 1161.36,-121 1158.36,-117 1131.36,-117 1131.36,-81 1185.36,-81 1185.36,-117"/>
<text xml:space="preserve" text-anchor="middle" x="1158.36" y="-95.12" font-family="Helvetica,sans-Serif" font-size="10.00" fill="white">rich</text>
</g>
<!-- dashkit_cli_printer&#45;&gt;rich -->
<g id="edge41" class="edge">
<title>dashkit_cli_printer&#45;&gt;rich</title><style>.edge>path:hover{stroke-width:8}</style>
<path fill="none" stroke="black" d="M298.74,-770C328.74,-745.97 606.25,-770.07 644.69,-770"/>
</g>
<!-- dashkit_cli_tui&#45;&gt;dashkit_services -->
<g id="edge30" class="edge">
<title>dashkit_cli_tui&#45;&gt;dashkit_services</title><style>.edge>path:hover{stroke-width:8}</style>
<path fill="none" stroke="black" d="M200.57,-801.23C250.64,-803.48 363.34,-808 458.26,-808 458.26,-808 458.26,-808 646.69,-808 695.32,-808 825.02,-863.96 887.28,-892.16"/>
<polygon fill="#a83838" stroke="black" points="885.81,-895.33 896.36,-896.29 888.71,-888.96 885.81,-895.33"/>
</g>
<!-- dashkit_cli_tui&#45;&gt;dashkit_services_workspaces -->
<g id="edge35" class="edge">
<title>dashkit_cli_tui&#45;&gt;dashkit_services_workspaces</title><style>.edge>path:hover{stroke-width:8}</style>
<path fill="none" stroke="black" d="M192.18,-786.87C207.86,-776.19 231.77,-761.95 255.14,-756 291.84,-746.65 304.86,-742.78 340.35,-756 379.2,-770.47 413.78,-804.15 435.28,-828.86"/>
<polygon fill="#a83838" stroke="black" points="432.49,-830.98 441.62,-836.35 437.83,-826.46 432.49,-830.98"/>
</g>
<!-- dashkit_tui -->
<g id="node26" class="node">
<title>dashkit_tui</title><style>.edge>path:hover{stroke-width:8}</style>
<ellipse fill="#c24747" stroke="black" cx="459.26" cy="-220" rx="27" ry="18"/>
<text xml:space="preserve" text-anchor="middle" x="459.26" y="-216.12" font-family="Helvetica,sans-Serif" font-size="10.00" fill="#ffffff">tui</text>
</g>
<!-- dashkit_cli_tui&#45;&gt;dashkit_tui -->
<g id="edge36" class="edge">
<title>dashkit_cli_tui&#45;&gt;dashkit_tui</title><style>.edge>path:hover{stroke-width:8}</style>
<path fill="none" stroke="black" d="M298.74,-220C329.43,-185.49 387.82,-195.94 424.8,-207.42"/>
<polygon fill="#a83838" stroke="black" points="423.51,-210.68 434.1,-210.49 425.7,-204.03 423.51,-210.68"/>
</g>
<!-- dashkit_tui_app -->
<g id="node27" class="node">
<title>dashkit_tui_app</title><style>.edge>path:hover{stroke-width:8}</style>
<ellipse fill="#822b2b" stroke="black" cx="459.26" cy="-110" rx="27" ry="18"/>
<text xml:space="preserve" text-anchor="middle" x="459.26" y="-106.12" font-family="Helvetica,sans-Serif" font-size="10.00" fill="#ffffff">tui.app</text>
</g>
<!-- dashkit_cli_tui&#45;&gt;dashkit_tui_app -->
<g id="edge37" class="edge">
<title>dashkit_cli_tui&#45;&gt;dashkit_tui_app</title><style>.edge>path:hover{stroke-width:8}</style>
<path fill="none" stroke="black" d="M175.8,-781.85C183.17,-693.25 219.37,-306.99 296.74,-220"/>
<path fill="none" stroke="black" d="M298.74,-220C335.82,-178.31 391.8,-144.47 426.63,-125.81"/>
<polygon fill="#a83838" stroke="black" points="428.15,-128.96 435.38,-121.22 424.9,-122.77 428.15,-128.96"/>
</g>
<!-- dashkit_framework_presenters_occurrence_tables -->
<g id="node6" class="node">
<title>dashkit_framework_presenters_occurrence_tables</title><style>.edge>path:hover{stroke-width:8}</style>
<ellipse fill="#993333" stroke="black" cx="645.69" cy="-712" rx="67.53" ry="29.52"/>
<text xml:space="preserve" text-anchor="middle" x="645.69" y="-719.38" font-family="Helvetica,sans-Serif" font-size="10.00" fill="#ffffff">framework.</text>
<text xml:space="preserve" text-anchor="middle" x="645.69" y="-708.12" font-family="Helvetica,sans-Serif" font-size="10.00" fill="#ffffff">presenters.</text>
<text xml:space="preserve" text-anchor="middle" x="645.69" y="-696.88" font-family="Helvetica,sans-Serif" font-size="10.00" fill="#ffffff">occurrence_tables</text>
</g>
<!-- dashkit_framework_status -->
<g id="node8" class="node">
<title>dashkit_framework_status</title><style>.edge>path:hover{stroke-width:8}</style>
<ellipse fill="#d02424" stroke="black" cx="922.58" cy="-298" rx="45.79" ry="21.57"/>
<text xml:space="preserve" text-anchor="middle" x="922.58" y="-299.75" font-family="Helvetica,sans-Serif" font-size="10.00" fill="#ffffff">framework.</text>
<text xml:space="preserve" text-anchor="middle" x="922.58" y="-288.5" font-family="Helvetica,sans-Serif" font-size="10.00" fill="#ffffff">status</text>
</g>
<!-- dashkit_framework_presenters_occurrence_tables&#45;&gt;dashkit_framework_status -->
<g id="edge9" class="edge">
<title>dashkit_framework_presenters_occurrence_tables&#45;&gt;dashkit_framework_status</title><style>.edge>path:hover{stroke-width:8}</style>
<path fill="none" stroke="black" d="M706.05,-698.47C735.04,-689.57 768.98,-675.48 794.01,-654"/>
</g>
<!-- dashkit_framework_presenters_occurrence_tables&#45;&gt;rich -->
<g id="edge42" class="edge">
<title>dashkit_framework_presenters_occurrence_tables&#45;&gt;rich</title><style>.edge>path:hover{stroke-width:8}</style>
<path fill="none" stroke="black" d="M704.6,-726.84C733.9,-730.9 768.55,-730.05 794.01,-712"/>
</g>
<!-- dashkit_framework_presenters_test_occurrence_tables -->
<g id="node7" class="node">
<title>dashkit_framework_presenters_test_occurrence_tables</title><style>.edge>path:hover{stroke-width:8}</style>
<ellipse fill="#8f3d3d" stroke="black" cx="459.26" cy="-620" rx="82.91" ry="29.52"/>
<text xml:space="preserve" text-anchor="middle" x="459.26" y="-627.38" font-family="Helvetica,sans-Serif" font-size="10.00" fill="#ffffff">framework.</text>
<text xml:space="preserve" text-anchor="middle" x="459.26" y="-616.12" font-family="Helvetica,sans-Serif" font-size="10.00" fill="#ffffff">presenters.</text>
<text xml:space="preserve" text-anchor="middle" x="459.26" y="-604.88" font-family="Helvetica,sans-Serif" font-size="10.00" fill="#ffffff">test_occurrence_tables</text>
</g>
<!-- dashkit_framework_presenters_test_occurrence_tables&#45;&gt;dashkit_framework_presenters_occurrence_tables -->
<g id="edge8" class="edge">
<title>dashkit_framework_presenters_test_occurrence_tables&#45;&gt;dashkit_framework_presenters_occurrence_tables</title><style>.edge>path:hover{stroke-width:8}</style>
<path fill="none" stroke="black" d="M510.19,-643.46C520.78,-648.52 531.87,-653.89 542.16,-659 558.21,-666.97 575.56,-675.83 591.34,-684"/>
<polygon fill="#8f3d3d" stroke="black" points="589.62,-687.05 600.11,-688.55 592.84,-680.84 589.62,-687.05"/>
</g>
<!-- dashkit_framework_presenters_test_occurrence_tables&#45;&gt;rich -->
<g id="edge43" class="edge">
<title>dashkit_framework_presenters_test_occurrence_tables&#45;&gt;rich</title><style>.edge>path:hover{stroke-width:8}</style>
<path fill="none" stroke="black" d="M646.69,-770C717.06,-769.88 733.75,-748.34 794.01,-712"/>
<path fill="none" stroke="black" d="M518.61,-640.93C527.27,-645.88 535.51,-651.85 542.16,-659 572.08,-691.14 545.68,-721.46 578.16,-751 600.91,-771.69 613.94,-770.05 644.69,-770"/>
</g>
<!-- dashkit_framework_status&#45;&gt;rich -->
<g id="edge44" class="edge">
<title>dashkit_framework_status&#45;&gt;rich</title><style>.edge>path:hover{stroke-width:8}</style>
<path fill="none" stroke="black" d="M960.32,-285.29C981.97,-276.75 1009.18,-264.11 1030.36,-248"/>
</g>
<!-- dashkit_framework_test_utils -->
<g id="node9" class="node">
<title>dashkit_framework_test_utils</title><style>.edge>path:hover{stroke-width:8}</style>
<ellipse fill="#b34c4c" stroke="black" cx="45.79" cy="-966" rx="45.79" ry="21.57"/>
<text xml:space="preserve" text-anchor="middle" x="45.79" y="-967.75" font-family="Helvetica,sans-Serif" font-size="10.00" fill="#ffffff">framework.</text>
<text xml:space="preserve" text-anchor="middle" x="45.79" y="-956.5" font-family="Helvetica,sans-Serif" font-size="10.00" fill="#ffffff">test_utils</text>
</g>
<!-- dashkit_framework_utils -->
<g id="node10" class="node">
<title>dashkit_framework_utils</title><style>.edge>path:hover{stroke-width:8}</style>
<ellipse fill="#c24747" stroke="black" cx="173.36" cy="-966" rx="45.79" ry="21.57"/>
<text xml:space="preserve" text-anchor="middle" x="173.36" y="-967.75" font-family="Helvetica,sans-Serif" font-size="10.00" fill="#ffffff">framework.</text>
<text xml:space="preserve" text-anchor="middle" x="173.36" y="-956.5" font-family="Helvetica,sans-Serif" font-size="10.00" fill="#ffffff">utils</text>
</g>
<!-- dashkit_framework_test_utils&#45;&gt;dashkit_framework_utils -->
<g id="edge12" class="edge">
<title>dashkit_framework_test_utils&#45;&gt;dashkit_framework_utils</title><style>.edge>path:hover{stroke-width:8}</style>
<path fill="none" stroke="black" d="M91.76,-966C99.61,-966 107.86,-966 115.96,-966"/>
<polygon fill="#b34c4c" stroke="black" points="115.75,-969.5 125.75,-966 115.75,-962.5 115.75,-969.5"/>
</g>
<!-- dashkit_framework_views&#45;&gt;rich -->
<g id="edge45" class="edge">
<title>dashkit_framework_views&#45;&gt;rich</title><style>.edge>path:hover{stroke-width:8}</style>
<path fill="none" stroke="black" d="M822.36,-380.64C829.04,-375.28 835.75,-368.94 840.79,-362 867.32,-325.46 841.28,-294.89 876.79,-267 930.88,-224.52 975.62,-289.63 1030.36,-248"/>
</g>
<!-- dashkit_modules_lighthouse_runner -->
<g id="node18" class="node">
<title>dashkit_modules_lighthouse_runner</title><style>.edge>path:hover{stroke-width:8}</style>
<ellipse fill="#b03a3a" stroke="black" cx="459.26" cy="-966" rx="44.72" ry="29.52"/>
<text xml:space="preserve" text-anchor="middle" x="459.26" y="-973.38" font-family="Helvetica,sans-Serif" font-size="10.00" fill="#ffffff">modules.</text>
<text xml:space="preserve" text-anchor="middle" x="459.26" y="-962.12" font-family="Helvetica,sans-Serif" font-size="10.00" fill="#ffffff">lighthouse.</text>
<text xml:space="preserve" text-anchor="middle" x="459.26" y="-950.88" font-family="Helvetica,sans-Serif" font-size="10.00" fill="#ffffff">runner</text>
</g>
<!-- dashkit_modules_lighthouse&#45;&gt;dashkit_modules_lighthouse_runner -->
<g id="edge23" class="edge">
<title>dashkit_modules_lighthouse&#45;&gt;dashkit_modules_lighthouse_runner</title><style>.edge>path:hover{stroke-width:8}</style>
<path fill="none" stroke="black" d="M340.65,-966C359.65,-966 382.37,-966 402.75,-966"/>
<polygon fill="#ac2b2b" stroke="black" points="402.6,-969.5 412.6,-966 402.6,-962.5 402.6,-969.5"/>
</g>
<!-- dashkit_modules_lighthouse_widgets -->
<g id="node19" class="node">
<title>dashkit_modules_lighthouse_widgets</title><style>.edge>path:hover{stroke-width:8}</style>
<ellipse fill="#b03a3a" stroke="black" cx="459.26" cy="-1043" rx="44.72" ry="29.52"/>
<text xml:space="preserve" text-anchor="middle" x="459.26" y="-1050.38" font-family="Helvetica,sans-Serif" font-size="10.00" fill="#ffffff">modules.</text>
<text xml:space="preserve" text-anchor="middle" x="459.26" y="-1039.12" font-family="Helvetica,sans-Serif" font-size="10.00" fill="#ffffff">lighthouse.</text>
<text xml:space="preserve" text-anchor="middle" x="459.26" y="-1027.88" font-family="Helvetica,sans-Serif" font-size="10.00" fill="#ffffff">widgets</text>
</g>
<!-- dashkit_modules_lighthouse&#45;&gt;dashkit_modules_lighthouse_widgets -->
<g id="edge24" class="edge">
<title>dashkit_modules_lighthouse&#45;&gt;dashkit_modules_lighthouse_widgets</title><style>.edge>path:hover{stroke-width:8}</style>
<path fill="none" stroke="black" d="M328.49,-981.22C342.89,-988.52 360.46,-997.33 376.35,-1005 387.69,-1010.48 399.99,-1016.27 411.52,-1021.63"/>
<polygon fill="#ac2b2b" stroke="black" points="409.93,-1024.75 420.48,-1025.77 412.87,-1018.39 409.93,-1024.75"/>
</g>
<!-- dashkit_modules_lighthouse_audits -->
<g id="node14" class="node">
<title>dashkit_modules_lighthouse_audits</title><style>.edge>path:hover{stroke-width:8}</style>
<ellipse fill="#db2f2f" stroke="black" cx="795.01" cy="-252" rx="44.72" ry="29.52"/>
<text xml:space="preserve" text-anchor="middle" x="795.01" y="-259.38" font-family="Helvetica,sans-Serif" font-size="10.00" fill="#ffffff">modules.</text>
<text xml:space="preserve" text-anchor="middle" x="795.01" y="-248.12" font-family="Helvetica,sans-Serif" font-size="10.00" fill="#ffffff">lighthouse.</text>
<text xml:space="preserve" text-anchor="middle" x="795.01" y="-236.88" font-family="Helvetica,sans-Serif" font-size="10.00" fill="#ffffff">audits</text>
</g>
<!-- dashkit_modules_lighthouse_categories -->
<g id="node15" class="node">
<title>dashkit_modules_lighthouse_categories</title><style>.edge>path:hover{stroke-width:8}</style>
<ellipse fill="#c04040" stroke="black" cx="645.69" cy="-252" rx="44.72" ry="29.52"/>
<text xml:space="preserve" text-anchor="middle" x="645.69" y="-259.38" font-family="Helvetica,sans-Serif" font-size="10.00" fill="#ffffff">modules.</text>
<text xml:space="preserve" text-anchor="middle" x="645.69" y="-248.12" font-family="Helvetica,sans-Serif" font-size="10.00" fill="#ffffff">lighthouse.</text>
<text xml:space="preserve" text-anchor="middle" x="645.69" y="-236.88" font-family="Helvetica,sans-Serif" font-size="10.00" fill="#ffffff">categories</text>
</g>
<!-- dashkit_modules_lighthouse_categories&#45;&gt;dashkit_modules_lighthouse_audits -->
<g id="edge17" class="edge">
<title>dashkit_modules_lighthouse_categories&#45;&gt;dashkit_modules_lighthouse_audits</title><style>.edge>path:hover{stroke-width:8}</style>
<path fill="none" stroke="black" d="M690.89,-252C705.89,-252 722.85,-252 738.61,-252"/>
<polygon fill="#c04040" stroke="black" points="738.32,-255.5 748.32,-252 738.32,-248.5 738.32,-255.5"/>
</g>
<!-- dashkit_modules_lighthouse_config -->
<g id="node16" class="node">
<title>dashkit_modules_lighthouse_config</title><style>.edge>path:hover{stroke-width:8}</style>
<ellipse fill="#c24747" stroke="black" cx="645.69" cy="-596" rx="44.72" ry="29.52"/>
<text xml:space="preserve" text-anchor="middle" x="645.69" y="-603.38" font-family="Helvetica,sans-Serif" font-size="10.00" fill="#ffffff">modules.</text>
<text xml:space="preserve" text-anchor="middle" x="645.69" y="-592.12" font-family="Helvetica,sans-Serif" font-size="10.00" fill="#ffffff">lighthouse.</text>
<text xml:space="preserve" text-anchor="middle" x="645.69" y="-580.88" font-family="Helvetica,sans-Serif" font-size="10.00" fill="#ffffff">config</text>
</g>
<!-- dashkit_modules_lighthouse_http -->
<g id="node17" class="node">
<title>dashkit_modules_lighthouse_http</title><style>.edge>path:hover{stroke-width:8}</style>
<ellipse fill="#c24747" stroke="black" cx="645.69" cy="-966" rx="44.72" ry="29.52"/>
<text xml:space="preserve" text-anchor="middle" x="645.69" y="-973.38" font-family="Helvetica,sans-Serif" font-size="10.00" fill="#ffffff">modules.</text>
<text xml:space="preserve" text-anchor="middle" x="645.69" y="-962.12" font-family="Helvetica,sans-Serif" font-size="10.00" fill="#ffffff">lighthouse.</text>
<text xml:space="preserve" text-anchor="middle" x="645.69" y="-950.88" font-family="Helvetica,sans-Serif" font-size="10.00" fill="#ffffff">http</text>
</g>
<!-- dashkit_modules_lighthouse_runner&#45;&gt;dashkit_modules_lighthouse_http -->
<g id="edge22" class="edge">
<title>dashkit_modules_lighthouse_runner&#45;&gt;dashkit_modules_lighthouse_http</title><style>.edge>path:hover{stroke-width:8}</style>
<path fill="none" stroke="black" d="M504.43,-966C529.89,-966 562.12,-966 589.27,-966"/>
<polygon fill="#b03a3a" stroke="black" points="589.04,-969.5 599.04,-966 589.04,-962.5 589.04,-969.5"/>
</g>
<!-- dashkit_modules_lighthouse_runner&#45;&gt;dashkit_services -->
<g id="edge31" class="edge">
<title>dashkit_modules_lighthouse_runner&#45;&gt;dashkit_services</title><style>.edge>path:hover{stroke-width:8}</style>
<path fill="none" stroke="black" d="M496.36,-949.25C532.85,-933.63 591.31,-912.13 644.69,-908"/>
</g>
<!-- dashkit_services_reports -->
<g id="node24" class="node">
<title>dashkit_services_reports</title><style>.edge>path:hover{stroke-width:8}</style>
<ellipse fill="#c24747" stroke="black" cx="922.58" cy="-1024" rx="39.42" ry="21.57"/>
<text xml:space="preserve" text-anchor="middle" x="922.58" y="-1025.75" font-family="Helvetica,sans-Serif" font-size="10.00" fill="#ffffff">services.</text>
<text xml:space="preserve" text-anchor="middle" x="922.58" y="-1014.5" font-family="Helvetica,sans-Serif" font-size="10.00" fill="#ffffff">reports</text>
</g>
<!-- dashkit_modules_lighthouse_runner&#45;&gt;dashkit_services_reports -->
<g id="edge32" class="edge">
<title>dashkit_modules_lighthouse_runner&#45;&gt;dashkit_services_reports</title><style>.edge>path:hover{stroke-width:8}</style>
<path fill="none" stroke="black" d="M498.08,-981.35C520.88,-989.88 550.73,-999.8 578.16,-1005 681.18,-1024.53 804.44,-1026.21 871.71,-1025.33"/>
<polygon fill="#b03a3a" stroke="black" points="871.35,-1028.84 881.29,-1025.18 871.24,-1021.84 871.35,-1028.84"/>
</g>
<!-- dashkit_modules_lighthouse_widgets_audits -->
<g id="node20" class="node">
<title>dashkit_modules_lighthouse_widgets_audits</title><style>.edge>path:hover{stroke-width:8}</style>
<ellipse fill="#8a2e2e" stroke="black" cx="459.26" cy="-354" rx="44.72" ry="37.48"/>
<text xml:space="preserve" text-anchor="middle" x="459.26" y="-367" font-family="Helvetica,sans-Serif" font-size="10.00" fill="#ffffff">modules.</text>
<text xml:space="preserve" text-anchor="middle" x="459.26" y="-355.75" font-family="Helvetica,sans-Serif" font-size="10.00" fill="#ffffff">lighthouse.</text>
<text xml:space="preserve" text-anchor="middle" x="459.26" y="-344.5" font-family="Helvetica,sans-Serif" font-size="10.00" fill="#ffffff">widgets.</text>
<text xml:space="preserve" text-anchor="middle" x="459.26" y="-333.25" font-family="Helvetica,sans-Serif" font-size="10.00" fill="#ffffff">audits</text>
</g>
<!-- dashkit_modules_lighthouse_widgets&#45;&gt;dashkit_modules_lighthouse_widgets_audits -->
<g id="edge25" class="edge">
<title>dashkit_modules_lighthouse_widgets&#45;&gt;dashkit_modules_lighthouse_widgets_audits</title><style>.edge>path:hover{stroke-width:8}</style>
<path fill="none" stroke="black" d="M415.97,-1034.5C394.63,-1027.86 370.84,-1016.22 358.35,-996 329.26,-948.93 341.7,-550.77 358.35,-498 371.07,-457.68 399.56,-418.83 423.04,-391.67"/>
<polygon fill="#b03a3a" stroke="black" points="425.46,-394.22 429.46,-384.41 420.21,-389.59 425.46,-394.22"/>
</g>
<!-- dashkit_modules_lighthouse_widgets_metrics_summary -->
<g id="node21" class="node">
<title>dashkit_modules_lighthouse_widgets_metrics_summary</title><style>.edge>path:hover{stroke-width:8}</style>
<ellipse fill="#913030" stroke="black" cx="459.26" cy="-535" rx="66.47" ry="37.48"/>
<text xml:space="preserve" text-anchor="middle" x="459.26" y="-548" font-family="Helvetica,sans-Serif" font-size="10.00" fill="#ffffff">modules.</text>
<text xml:space="preserve" text-anchor="middle" x="459.26" y="-536.75" font-family="Helvetica,sans-Serif" font-size="10.00" fill="#ffffff">lighthouse.</text>
<text xml:space="preserve" text-anchor="middle" x="459.26" y="-525.5" font-family="Helvetica,sans-Serif" font-size="10.00" fill="#ffffff">widgets.</text>
<text xml:space="preserve" text-anchor="middle" x="459.26" y="-514.25" font-family="Helvetica,sans-Serif" font-size="10.00" fill="#ffffff">metrics_summary</text>
</g>
<!-- dashkit_modules_lighthouse_widgets&#45;&gt;dashkit_modules_lighthouse_widgets_metrics_summary -->
<g id="edge26" class="edge">
<title>dashkit_modules_lighthouse_widgets&#45;&gt;dashkit_modules_lighthouse_widgets_metrics_summary</title><style>.edge>path:hover{stroke-width:8}</style>
<path fill="none" stroke="black" d="M415.97,-1034.5C394.63,-1027.86 370.84,-1016.22 358.35,-996 334.63,-957.63 335.31,-628.79 358.35,-590 366.13,-576.89 378.27,-566.7 391.46,-558.86"/>
<polygon fill="#b03a3a" stroke="black" points="392.76,-562.14 399.88,-554.28 389.42,-555.99 392.76,-562.14"/>
</g>
<!-- dashkit_modules_lighthouse_widgets_thirdparty -->
<g id="node22" class="node">
<title>dashkit_modules_lighthouse_widgets_thirdparty</title><style>.edge>path:hover{stroke-width:8}</style>
<ellipse fill="#a83838" stroke="black" cx="459.26" cy="-705" rx="44.72" ry="37.48"/>
<text xml:space="preserve" text-anchor="middle" x="459.26" y="-718" font-family="Helvetica,sans-Serif" font-size="10.00" fill="#ffffff">modules.</text>
<text xml:space="preserve" text-anchor="middle" x="459.26" y="-706.75" font-family="Helvetica,sans-Serif" font-size="10.00" fill="#ffffff">lighthouse.</text>
<text xml:space="preserve" text-anchor="middle" x="459.26" y="-695.5" font-family="Helvetica,sans-Serif" font-size="10.00" fill="#ffffff">widgets.</text>
<text xml:space="preserve" text-anchor="middle" x="459.26" y="-684.25" font-family="Helvetica,sans-Serif" font-size="10.00" fill="#ffffff">thirdparty</text>
</g>
<!-- dashkit_modules_lighthouse_widgets&#45;&gt;dashkit_modules_lighthouse_widgets_thirdparty -->
<g id="edge27" class="edge">
<title>dashkit_modules_lighthouse_widgets&#45;&gt;dashkit_modules_lighthouse_widgets_thirdparty</title><style>.edge>path:hover{stroke-width:8}</style>
<path fill="none" stroke="black" d="M415.97,-1034.5C394.63,-1027.86 370.84,-1016.22 358.35,-996 344.85,-974.17 345.66,-787.31 358.35,-765 369.02,-746.24 388.13,-732.73 406.87,-723.35"/>
<polygon fill="#b03a3a" stroke="black" points="408.22,-726.58 415.81,-719.18 405.27,-720.23 408.22,-726.58"/>
</g>
<!-- dashkit_modules_lighthouse_widgets_audits&#45;&gt;dashkit_framework -->
<g id="edge5" class="edge">
<title>dashkit_modules_lighthouse_widgets_audits&#45;&gt;dashkit_framework</title><style>.edge>path:hover{stroke-width:8}</style>
<path fill="none" stroke="black" d="M504.14,-358.58C583.42,-365.99 746.73,-377.05 794.01,-348"/>
<path fill="none" stroke="black" d="M796.01,-348C848,-314.05 834.15,-279.15 876.79,-234 880.71,-229.85 885.24,-225.9 889.88,-222.27"/>
<polygon fill="#8a2e2e" stroke="black" points="891.58,-225.36 897.58,-216.64 887.44,-219.71 891.58,-225.36"/>
</g>
<!-- dashkit_modules_lighthouse_widgets_audits&#45;&gt;dashkit_framework_status -->
<g id="edge10" class="edge">
<title>dashkit_modules_lighthouse_widgets_audits&#45;&gt;dashkit_framework_status</title><style>.edge>path:hover{stroke-width:8}</style>
<path fill="none" stroke="black" d="M495.27,-376.79C566.82,-420.19 732.18,-503.99 840.79,-429 877.95,-403.35 850.26,-370.54 876.79,-334 879.63,-330.09 882.99,-326.38 886.58,-322.92"/>
<polygon fill="#8a2e2e" stroke="black" points="888.87,-325.57 894.09,-316.35 884.26,-320.3 888.87,-325.57"/>
</g>
<!-- dashkit_modules_lighthouse_widgets_audits&#45;&gt;dashkit_modules_lighthouse_audits -->
<g id="edge18" class="edge">
<title>dashkit_modules_lighthouse_widgets_audits&#45;&gt;dashkit_modules_lighthouse_audits</title><style>.edge>path:hover{stroke-width:8}</style>
<path fill="none" stroke="black" d="M646.69,-194C684.93,-181.28 727.7,-202.16 757.26,-222.32"/>
<polygon fill="#8a2e2e" stroke="black" points="754.96,-224.98 765.13,-227.92 759.01,-219.27 754.96,-224.98"/>
</g>
<!-- dashkit_modules_lighthouse_widgets_audits&#45;&gt;dashkit_modules_lighthouse_categories -->
<g id="edge20" class="edge">
<title>dashkit_modules_lighthouse_widgets_audits&#45;&gt;dashkit_modules_lighthouse_categories</title><style>.edge>path:hover{stroke-width:8}</style>
<path fill="none" stroke="black" d="M497.14,-333.6C527.02,-317.08 569.2,-293.75 600.81,-276.27"/>
<polygon fill="#8a2e2e" stroke="black" points="602.29,-279.45 609.35,-271.55 598.91,-273.32 602.29,-279.45"/>
</g>
<!-- dashkit_modules_lighthouse_widgets_audits&#45;&gt;rich -->
<g id="edge46" class="edge">
<title>dashkit_modules_lighthouse_widgets_audits&#45;&gt;rich</title><style>.edge>path:hover{stroke-width:8}</style>
<path fill="none" stroke="black" d="M483.29,-322.28C510.63,-285.45 555.35,-227.82 578.16,-213 603.95,-196.24 615.51,-203.71 644.69,-194"/>
<path fill="none" stroke="black" d="M646.69,-194C782.58,-148.79 838.39,-114.86 968.36,-175 1006.99,-192.87 996.82,-274.2 1030.36,-248"/>
<path fill="none" stroke="black" d="M1032.36,-248C1088.67,-203.57 1025.27,-118.26 1094.36,-99"/>
</g>
<!-- dashkit_modules_lighthouse_widgets_metrics_summary&#45;&gt;dashkit_framework -->
<g id="edge6" class="edge">
<title>dashkit_modules_lighthouse_widgets_metrics_summary&#45;&gt;dashkit_framework</title><style>.edge>path:hover{stroke-width:8}</style>
<path fill="none" stroke="black" d="M525.98,-537.03C612.14,-535.81 761.59,-519.63 840.79,-429 889.33,-373.46 847.32,-334.61 876.79,-267 882.82,-253.16 891.96,-239.2 900.4,-227.78"/>
<polygon fill="#913030" stroke="black" points="903.03,-230.11 906.34,-220.04 897.47,-225.85 903.03,-230.11"/>
</g>
<!-- dashkit_modules_lighthouse_widgets_metrics_summary&#45;&gt;dashkit_framework_status -->
<g id="edge11" class="edge">
<title>dashkit_modules_lighthouse_widgets_metrics_summary&#45;&gt;dashkit_framework_status</title><style>.edge>path:hover{stroke-width:8}</style>
<path fill="none" stroke="black" d="M646.69,-654C677.09,-666.14 769.16,-675.32 794.01,-654"/>
<path fill="none" stroke="black" d="M511.31,-558.75C522.16,-565.1 533.07,-572.58 542.16,-581 563.32,-600.6 554.86,-618 578.16,-635 603,-653.13 616.13,-642.6 644.69,-654"/>
<path fill="none" stroke="black" d="M796.01,-654C907.32,-558.47 802.8,-460.66 876.79,-334 879.17,-329.93 882.19,-326.14 885.55,-322.65"/>
<polygon fill="#913030" stroke="black" points="887.67,-325.46 892.7,-316.14 882.95,-320.29 887.67,-325.46"/>
</g>
<!-- dashkit_modules_lighthouse_widgets_metrics_summary&#45;&gt;dashkit_modules_lighthouse_audits -->
<g id="edge19" class="edge">
<title>dashkit_modules_lighthouse_widgets_metrics_summary&#45;&gt;dashkit_modules_lighthouse_audits</title><style>.edge>path:hover{stroke-width:8}</style>
<path fill="none" stroke="black" d="M496.93,-503.9C561.46,-449.19 694.5,-336.37 758.32,-282.26"/>
<polygon fill="#913030" stroke="black" points="760.34,-285.14 765.7,-276 755.81,-279.8 760.34,-285.14"/>
</g>
<!-- dashkit_modules_lighthouse_widgets_metrics_summary&#45;&gt;dashkit_modules_lighthouse_config -->
<g id="edge21" class="edge">
<title>dashkit_modules_lighthouse_widgets_metrics_summary&#45;&gt;dashkit_modules_lighthouse_config</title><style>.edge>path:hover{stroke-width:8}</style>
<path fill="none" stroke="black" d="M517.35,-553.88C541.92,-562.01 570.4,-571.43 594.18,-579.29"/>
<polygon fill="#913030" stroke="black" points="593.07,-582.61 603.66,-582.43 595.27,-575.97 593.07,-582.61"/>
</g>
<!-- dashkit_modules_lighthouse_widgets_metrics_summary&#45;&gt;rich -->
<g id="edge47" class="edge">
<title>dashkit_modules_lighthouse_widgets_metrics_summary&#45;&gt;rich</title><style>.edge>path:hover{stroke-width:8}</style>
<path fill="none" stroke="black" d="M646.69,-654C675.25,-665.4 684.48,-662.05 713.22,-673 750.48,-687.19 761.48,-735.06 794.01,-712"/>
<path fill="none" stroke="black" d="M796.01,-712C818.77,-695.86 824.83,-690.89 840.79,-668 899.38,-584.02 949.98,-311.43 1030.36,-248"/>
</g>
<!-- dashkit_modules_lighthouse_widgets_thirdparty&#45;&gt;rich -->
<g id="edge48" class="edge">
<title>dashkit_modules_lighthouse_widgets_thirdparty&#45;&gt;rich</title><style>.edge>path:hover{stroke-width:8}</style>
<path fill="none" stroke="black" d="M496.72,-726.14C533,-745.16 590.88,-770.09 644.69,-770"/>
</g>
<!-- yaml -->
<g id="node33" class="node">
<title>yaml</title><style>.edge>path:hover{stroke-width:8}</style>
<polygon fill="#a253b6" stroke="black" points="949.58,-872 946.58,-876 925.58,-876 922.58,-872 895.58,-872 895.58,-836 949.58,-836 949.58,-872"/>
<text xml:space="preserve" text-anchor="middle" x="922.58" y="-850.12" font-family="Helvetica,sans-Serif" font-size="10.00" fill="#ffffff">yaml</text>
</g>
<!-- dashkit_services_workspaces&#45;&gt;yaml -->
<g id="edge53" class="edge">
<title>dashkit_services_workspaces&#45;&gt;yaml</title><style>.edge>path:hover{stroke-width:8}</style>
<path fill="none" stroke="black" d="M507.89,-857.59C599.82,-856.79 800.03,-855.05 883.67,-854.33"/>
<polygon fill="#d92626" stroke="black" points="883.65,-857.83 893.62,-854.24 883.59,-850.83 883.65,-857.83"/>
</g>
<!-- dashkit_tui_app&#45;&gt;dashkit_framework -->
<g id="edge7" class="edge">
<title>dashkit_tui_app&#45;&gt;dashkit_framework</title><style>.edge>path:hover{stroke-width:8}</style>
<path fill="none" stroke="black" d="M485.04,-115.96C508.86,-121.63 545.89,-130.25 578.16,-137 684.9,-159.31 811.01,-182.33 876.7,-194.07"/>
<polygon fill="#822b2b" stroke="black" points="875.91,-197.48 886.37,-195.79 877.14,-190.59 875.91,-197.48"/>
</g>
<!-- dashkit_tui_app&#45;&gt;dashkit_framework_views -->
<g id="edge14" class="edge">
<title>dashkit_tui_app&#45;&gt;dashkit_framework_views</title><style>.edge>path:hover{stroke-width:8}</style>
<path fill="none" stroke="black" d="M477.5,-123.59C495.76,-138.79 524.38,-164.97 542.16,-193 567.02,-232.18 547.17,-256.46 578.16,-291 622.48,-340.39 694.76,-369.65 743.32,-384.77"/>
<polygon fill="#822b2b" stroke="black" points="742.18,-388.08 752.77,-387.61 744.2,-381.38 742.18,-388.08"/>
</g>
<!-- dashkit_tui_parsers -->
<g id="node28" class="node">
<title>dashkit_tui_parsers</title><style>.edge>path:hover{stroke-width:8}</style>
<ellipse fill="#c24747" stroke="black" cx="645.69" cy="-110" rx="36.54" ry="18"/>
<text xml:space="preserve" text-anchor="middle" x="645.69" y="-106.12" font-family="Helvetica,sans-Serif" font-size="10.00" fill="#ffffff">tui.parsers</text>
</g>
<!-- dashkit_tui_app&#45;&gt;dashkit_tui_parsers -->
<g id="edge38" class="edge">
<title>dashkit_tui_app&#45;&gt;dashkit_tui_parsers</title><style>.edge>path:hover{stroke-width:8}</style>
<path fill="none" stroke="black" d="M486.68,-110C515.5,-110 562.2,-110 597.37,-110"/>
<polygon fill="#822b2b" stroke="black" points="597.3,-113.5 607.3,-110 597.3,-106.5 597.3,-113.5"/>
</g>
<!-- dashkit_tui_sidebar -->
<g id="node29" class="node">
<title>dashkit_tui_sidebar</title><style>.edge>path:hover{stroke-width:8}</style>
<ellipse fill="#a83838" stroke="black" cx="645.69" cy="-18" rx="36.09" ry="18"/>
<text xml:space="preserve" text-anchor="middle" x="645.69" y="-14.12" font-family="Helvetica,sans-Serif" font-size="10.00" fill="#ffffff">tui.sidebar</text>
</g>
<!-- dashkit_tui_app&#45;&gt;dashkit_tui_sidebar -->
<g id="edge39" class="edge">
<title>dashkit_tui_app&#45;&gt;dashkit_tui_sidebar</title><style>.edge>path:hover{stroke-width:8}</style>
<path fill="none" stroke="black" d="M481.06,-99.24C504.56,-87.12 543.99,-66.91 578.16,-50 587.95,-45.16 598.59,-39.99 608.43,-35.26"/>
<polygon fill="#822b2b" stroke="black" points="609.85,-38.46 617.35,-30.98 606.82,-32.15 609.85,-38.46"/>
</g>
<!-- textual -->
<g id="node32" class="node">
<title>textual</title><style>.edge>path:hover{stroke-width:8}</style>
<polygon fill="blue" stroke="black" points="1058.36,-117 1055.36,-121 1034.36,-121 1031.36,-117 1004.36,-117 1004.36,-81 1058.36,-81 1058.36,-117"/>
<text xml:space="preserve" text-anchor="middle" x="1031.36" y="-95.12" font-family="Helvetica,sans-Serif" font-size="10.00" fill="white">textual</text>
</g>
<!-- dashkit_tui_app&#45;&gt;textual -->
<g id="edge51" class="edge">
<title>dashkit_tui_app&#45;&gt;textual</title><style>.edge>path:hover{stroke-width:8}</style>
<path fill="none" stroke="black" d="M484.37,-102.8C508.01,-96.14 545.19,-86.73 578.16,-83 731.3,-65.69 915.29,-84.31 992.91,-93.95"/>
<polygon fill="#822b2b" stroke="black" points="992.14,-97.38 1002.5,-95.17 993.03,-90.44 992.14,-97.38"/>
</g>
<!-- dashkit_tui_sidebar&#45;&gt;rich -->
<g id="edge49" class="edge">
<title>dashkit_tui_sidebar&#45;&gt;rich</title><style>.edge>path:hover{stroke-width:8}</style>
<path fill="none" stroke="black" d="M1095.36,-99C1103.07,-97.05 1111.5,-96.22 1119.59,-96.04"/>
<polygon fill="#a83838" stroke="black" points="1119.51,-99.54 1129.55,-96.15 1119.59,-92.54 1119.51,-99.54"/>
<path fill="none" stroke="black" d="M680.92,-22.86C732.86,-30.12 834.73,-43.92 921.58,-53"/>
<path fill="none" stroke="black" d="M923.58,-53C983.27,-62.8 1002.45,-48.9 1058.36,-72 1076.85,-79.64 1074.97,-103.91 1094.36,-99"/>
</g>
<!-- dashkit_tui_sidebar&#45;&gt;textual -->
<g id="edge52" class="edge">
<title>dashkit_tui_sidebar&#45;&gt;textual</title><style>.edge>path:hover{stroke-width:8}</style>
<path fill="none" stroke="black" d="M923.58,-53C948.37,-55.59 974.09,-66.39 994.07,-76.87"/>
<polygon fill="#a83838" stroke="black" points="992.18,-79.82 1002.63,-81.55 995.54,-73.68 992.18,-79.82"/>
</g>
<!-- textual&#45;&gt;rich -->
<g id="edge50" class="edge">
<title>textual&#45;&gt;rich</title><style>.edge>path:hover{stroke-width:8}</style>
<path fill="none" stroke="black" d="M1058.66,-101.83C1069.82,-102.31 1082.88,-101.9 1094.36,-99"/>
</g>
</g>
</svg>
