<?xml version="1.0" encoding="UTF-8" standalone="no"?>
<!DOCTYPE svg PUBLIC "-//W3C//DTD SVG 1.1//EN"
 "http://www.w3.org/Graphics/SVG/1.1/DTD/svg11.dtd">
<!-- Generated by graphviz version 14.1.2 (20260124.0452)
 -->
<!-- Title: G Pages: 1 -->
<svg width="1191pt" height="1032pt"
 viewBox="0.00 0.00 1191.00 1032.00" xmlns="http://www.w3.org/2000/svg" xmlns:xlink="http://www.w3.org/1999/xlink">
<g id="graph0" class="graph" transform="scale(1 1) rotate(0) translate(4 1027.51)">
<title>G</title><style>.edge>path:hover{stroke-width:8}</style>
<polygon fill="white" stroke="none" points="-4,4 -4,-1027.51 1187.24,-1027.51 1187.24,4 -4,4"/>
<!-- dashkit_cli -->
<g id="node1" class="node">
<title>dashkit_cli</title><style>.edge>path:hover{stroke-width:8}</style>
<ellipse fill="#913030" stroke="black" cx="45.79" cy="-257.94" rx="27" ry="18"/>
<text xml:space="preserve" text-anchor="middle" x="45.79" y="-254.06" font-family="Helvetica,sans-Serif" font-size="10.00" fill="#ffffff">cli</text>
</g>
<!-- dashkit_cli_lighthouse -->
<g id="node2" class="node">
<title>dashkit_cli_lighthouse</title><style>.edge>path:hover{stroke-width:8}</style>
<ellipse fill="#a13535" stroke="black" cx="173.36" cy="-333.94" rx="43.19" ry="18"/>
<text xml:space="preserve" text-anchor="middle" x="173.36" y="-330.06" font-family="Helvetica,sans-Serif" font-size="10.00" fill="#ffffff">cli.lighthouse</text>
</g>
<!-- dashkit_cli&#45;&gt;dashkit_cli_lighthouse -->
<g id="edge1" class="edge">
<title>dashkit_cli&#45;&gt;dashkit_cli_lighthouse</title><style>.edge>path:hover{stroke-width:8}</style>
<path fill="none" stroke="black" d="M66.41,-269.81C85.51,-281.38 114.96,-299.2 137.96,-313.12"/>
<polygon fill="#913030" stroke="black" points="136.03,-316.05 146.4,-318.23 139.66,-310.06 136.03,-316.05"/>
</g>
<!-- dashkit_cli_printer -->
<g id="node3" class="node">
<title>dashkit_cli_printer</title><style>.edge>path:hover{stroke-width:8}</style>
<ellipse fill="#a83838" stroke="black" cx="458.19" cy="-199.94" rx="32.99" ry="18"/>
<text xml:space="preserve" text-anchor="middle" x="458.19" y="-196.06" font-family="Helvetica,sans-Serif" font-size="10.00" fill="#ffffff">cli.printer</text>
</g>
<!-- dashkit_cli&#45;&gt;dashkit_cli_printer -->
<g id="edge2" class="edge">
<title>dashkit_cli&#45;&gt;dashkit_cli_printer</title><style>.edge>path:hover{stroke-width:8}</style>
<path fill="none" stroke="black" d="M72.92,-255.7C98.44,-254.04 138.29,-252.85 172.36,-257.94"/>
<path fill="none" stroke="black" d="M298.74,-257.94C335.74,-254.62 341.47,-239.72 376.35,-226.94 389.92,-221.97 404.9,-216.86 418.24,-212.44"/>
<polygon fill="#913030" stroke="black" points="419.15,-215.83 427.56,-209.39 416.96,-209.18 419.15,-215.83"/>
<path fill="none" stroke="black" d="M174.36,-257.94C228.15,-265.97 242.57,-262.8 296.74,-257.94"/>
</g>
<!-- dashkit_cli_tui -->
<g id="node4" class="node">
<title>dashkit_cli_tui</title><style>.edge>path:hover{stroke-width:8}</style>
<ellipse fill="#b83d3d" stroke="black" cx="173.36" cy="-211.94" rx="27" ry="18"/>
<text xml:space="preserve" text-anchor="middle" x="173.36" y="-208.06" font-family="Helvetica,sans-Serif" font-size="10.00" fill="#ffffff">cli.tui</text>
</g>
<!-- dashkit_cli&#45;&gt;dashkit_cli_tui -->
<g id="edge3" class="edge">
<title>dashkit_cli&#45;&gt;dashkit_cli_tui</title><style>.edge>path:hover{stroke-width:8}</style>
<path fill="none" stroke="black" d="M70.11,-249.39C89.32,-242.36 116.81,-232.29 138.45,-224.36"/>
<polygon fill="#913030" stroke="black" points="139.55,-227.68 147.73,-220.96 137.14,-221.11 139.55,-227.68"/>
</g>
<!-- dashkit_services -->
<g id="node24" class="node">
<title>dashkit_services</title><style>.edge>path:hover{stroke-width:8}</style>
<ellipse fill="#db2f2f" stroke="black" cx="920.46" cy="-920.94" rx="31.21" ry="18"/>
<text xml:space="preserve" text-anchor="middle" x="920.46" y="-917.06" font-family="Helvetica,sans-Serif" font-size="10.00" fill="#ffffff">services</text>
</g>
<!-- dashkit_cli&#45;&gt;dashkit_services -->
<g id="edge30" class="edge">
<title>dashkit_cli&#45;&gt;dashkit_services</title><style>.edge>path:hover{stroke-width:8}</style>
<path fill="none" stroke="black" d="M49.72,-276.07C65.98,-374.02 148.02,-838.85 255.14,-927.94 324.67,-985.76 366.76,-952.56 457.19,-951.94"/>
</g>
<!-- dashkit_services_workspaces -->
<g id="node26" class="node">
<title>dashkit_services_workspaces</title><style>.edge>path:hover{stroke-width:8}</style>
<ellipse fill="#cc3333" stroke="black" cx="458.19" cy="-257.94" rx="48.44" ry="21.57"/>
<text xml:space="preserve" text-anchor="middle" x="458.19" y="-259.69" font-family="Helvetica,sans-Serif" font-size="10.00" fill="#ffffff">services.</text>
<text xml:space="preserve" text-anchor="middle" x="458.19" y="-248.44" font-family="Helvetica,sans-Serif" font-size="10.00" fill="#ffffff">workspaces</text>
</g>
<!-- dashkit_cli&#45;&gt;dashkit_services_workspaces -->
<g id="edge34" class="edge">
<title>dashkit_cli&#45;&gt;dashkit_services_workspaces</title><style>.edge>path:hover{stroke-width:8}</style>
<path fill="none" stroke="black" d="M298.74,-257.94C331.52,-255 368.26,-254.81 398.11,-255.44"/>
<polygon fill="#913030" stroke="black" points="398,-258.94 408.09,-255.69 398.18,-251.94 398,-258.94"/>
</g>
<!-- dotenv -->
<g id="node31" class="node">
<title>dotenv</title><style>.edge>path:hover{stroke-width:8}</style>
<polygon fill="#a9c247" stroke="black" points="670.57,-315.94 667.57,-319.94 646.57,-319.94 643.57,-315.94 616.57,-315.94 616.57,-279.94 670.57,-279.94 670.57,-315.94"/>
<text xml:space="preserve" text-anchor="middle" x="643.57" y="-294.06" font-family="Helvetica,sans-Serif" font-size="10.00" fill="#000000">dotenv</text>
</g>
<!-- dashkit_cli&#45;&gt;dotenv -->
<g id="edge40" class="edge">
<title>dashkit_cli&#45;&gt;dotenv</title><style>.edge>path:hover{stroke-width:8}</style>
<path fill="none" stroke="black" d="M298.74,-333.94C409.67,-350.5 541.86,-323.7 605.16,-308.02"/>
<polygon fill="#913030" stroke="black" points="605.86,-311.45 614.69,-305.61 604.14,-304.67 605.86,-311.45"/>
<path fill="none" stroke="black" d="M174.36,-257.94C237.68,-267.4 233.33,-325.05 296.74,-333.94"/>
</g>
<!-- dashkit_modules -->
<g id="node11" class="node">
<title>dashkit_modules</title><style>.edge>path:hover{stroke-width:8}</style>
<ellipse fill="#db2f2f" stroke="black" cx="458.19" cy="-905.94" rx="31.21" ry="18"/>
<text xml:space="preserve" text-anchor="middle" x="458.19" y="-902.06" font-family="Helvetica,sans-Serif" font-size="10.00" fill="#ffffff">modules</text>
</g>
<!-- dashkit_cli_lighthouse&#45;&gt;dashkit_modules -->
<g id="edge14" class="edge">
<title>dashkit_cli_lighthouse&#45;&gt;dashkit_modules</title><style>.edge>path:hover{stroke-width:8}</style>
<path fill="none" stroke="black" d="M175.39,-352.19C180.86,-442.07 209.61,-836.53 296.74,-913.94"/>
<path fill="none" stroke="black" d="M298.74,-913.94C332.05,-943.53 386.54,-932.53 422.13,-920.42"/>
<polygon fill="#a13535" stroke="black" points="422.88,-923.87 431.1,-917.19 420.51,-917.29 422.88,-923.87"/>
</g>
<!-- dashkit_modules_lighthouse -->
<g id="node12" class="node">
<title>dashkit_modules_lighthouse</title><style>.edge>path:hover{stroke-width:8}</style>
<ellipse fill="#b62020" stroke="black" cx="297.74" cy="-669.94" rx="42.6" ry="21.57"/>
<text xml:space="preserve" text-anchor="middle" x="297.74" y="-671.69" font-family="Helvetica,sans-Serif" font-size="10.00" fill="#ffffff">modules.</text>
<text xml:space="preserve" text-anchor="middle" x="297.74" y="-660.44" font-family="Helvetica,sans-Serif" font-size="10.00" fill="#ffffff">lighthouse</text>
</g>
<!-- dashkit_cli_lighthouse&#45;&gt;dashkit_modules_lighthouse -->
<g id="edge15" class="edge">
<title>dashkit_cli_lighthouse&#45;&gt;dashkit_modules_lighthouse</title><style>.edge>path:hover{stroke-width:8}</style>
<path fill="none" stroke="black" d="M180.94,-352C200.69,-406.23 259.67,-568.16 284.99,-637.66"/>
<polygon fill="#a13535" stroke="black" points="281.66,-638.76 288.37,-646.95 288.24,-636.36 281.66,-638.76"/>
</g>
<!-- dashkit_cli_lighthouse&#45;&gt;dashkit_services -->
<g id="edge31" class="edge">
<title>dashkit_cli_lighthouse&#45;&gt;dashkit_services</title><style>.edge>path:hover{stroke-width:8}</style>
<path fill="none" stroke="black" d="M459.19,-951.94C607.65,-948.39 644.53,-902.48 791.88,-920.94"/>
<path fill="none" stroke="black" d="M298.74,-913.94C300.91,-915.87 456.99,-951.94 457.19,-951.94"/>
</g>
<!-- dashkit_cli_lighthouse&#45;&gt;dashkit_services_workspaces -->
<g id="edge35" class="edge">
<title>dashkit_cli_lighthouse&#45;&gt;dashkit_services_workspaces</title><style>.edge>path:hover{stroke-width:8}</style>
<path fill="none" stroke="black" d="M210.46,-324.24C259.89,-310.96 348.91,-287.04 405.42,-271.85"/>
<polygon fill="#a13535" stroke="black" points="406.06,-275.3 414.81,-269.33 404.24,-268.54 406.06,-275.3"/>
</g>
<!-- dashkit_cli_lighthouse&#45;&gt;dotenv -->
<g id="edge41" class="edge">
<title>dashkit_cli_lighthouse&#45;&gt;dotenv</title><style>.edge>path:hover{stroke-width:8}</style>
<path fill="none" stroke="black" d="M216.22,-330.89C239.96,-329.92 270.16,-329.97 296.74,-333.94"/>
</g>
<!-- dashkit_framework -->
<g id="node5" class="node">
<title>dashkit_framework</title><style>.edge>path:hover{stroke-width:8}</style>
<ellipse fill="#f31616" stroke="black" cx="920.46" cy="-258.94" rx="36.54" ry="18"/>
<text xml:space="preserve" text-anchor="middle" x="920.46" y="-255.06" font-family="Helvetica,sans-Serif" font-size="10.00" fill="#ffffff">framework</text>
</g>
<!-- dashkit_cli_printer&#45;&gt;dashkit_framework -->
<g id="edge4" class="edge">
<title>dashkit_cli_printer&#45;&gt;dashkit_framework</title><style>.edge>path:hover{stroke-width:8}</style>
<path fill="none" stroke="black" d="M793.88,-213.94C825.84,-216.67 859.98,-229.62 884.58,-240.93"/>
<polygon fill="#a83838" stroke="black" points="882.93,-244.02 893.47,-245.16 885.94,-237.7 882.93,-244.02"/>
</g>
<!-- dashkit_framework_views -->
<g id="node10" class="node">
<title>dashkit_framework_views</title><style>.edge>path:hover{stroke-width:8}</style>
<ellipse fill="#c43131" stroke="black" cx="792.88" cy="-125.94" rx="45.79" ry="21.57"/>
<text xml:space="preserve" text-anchor="middle" x="792.88" y="-127.69" font-family="Helvetica,sans-Serif" font-size="10.00" fill="#ffffff">framework.</text>
<text xml:space="preserve" text-anchor="middle" x="792.88" y="-116.44" font-family="Helvetica,sans-Serif" font-size="10.00" fill="#ffffff">views</text>
</g>
<!-- dashkit_cli_printer&#45;&gt;dashkit_framework_views -->
<g id="edge12" class="edge">
<title>dashkit_cli_printer&#45;&gt;dashkit_framework_views</title><style>.edge>path:hover{stroke-width:8}</style>
<path fill="none" stroke="black" d="M486.9,-190.74C502.52,-185.54 522.38,-178.9 540.04,-172.94 585.66,-157.53 594.51,-140.91 642.57,-137.94"/>
</g>
<!-- rich -->
<g id="node32" class="node">
<title>rich</title><style>.edge>path:hover{stroke-width:8}</style>
<polygon fill="blue" stroke="black" points="1183.24,-426.94 1180.24,-430.94 1159.24,-430.94 1156.24,-426.94 1129.24,-426.94 1129.24,-390.94 1183.24,-390.94 1183.24,-426.94"/>
<text xml:space="preserve" text-anchor="middle" x="1156.24" y="-405.06" font-family="Helvetica,sans-Serif" font-size="10.00" fill="white">rich</text>
</g>
<!-- dashkit_cli_printer&#45;&gt;rich -->
<g id="edge42" class="edge">
<title>dashkit_cli_printer&#45;&gt;rich</title><style>.edge>path:hover{stroke-width:8}</style>
<path fill="none" stroke="black" d="M793.88,-213.94C849.49,-218.7 876.58,-177.22 919.46,-212.94"/>
<path fill="none" stroke="black" d="M491.37,-200.37C550.82,-201.36 681.87,-204.52 791.88,-213.94"/>
</g>
<!-- dashkit_tui -->
<g id="node27" class="node">
<title>dashkit_tui</title><style>.edge>path:hover{stroke-width:8}</style>
<ellipse fill="#c24747" stroke="black" cx="458.19" cy="-145.94" rx="27" ry="18"/>
<text xml:space="preserve" text-anchor="middle" x="458.19" y="-142.06" font-family="Helvetica,sans-Serif" font-size="10.00" fill="#ffffff">tui</text>
</g>
<!-- dashkit_cli_tui&#45;&gt;dashkit_tui -->
<g id="edge36" class="edge">
<title>dashkit_cli_tui&#45;&gt;dashkit_tui</title><style>.edge>path:hover{stroke-width:8}</style>
<path fill="none" stroke="black" d="M298.74,-145.94C338.65,-132.39 387.53,-135.06 420.36,-139.38"/>
<polygon fill="#b83d3d" stroke="black" points="419.79,-142.84 430.18,-140.81 420.79,-135.91 419.79,-142.84"/>
</g>
<!-- dashkit_tui_app -->
<g id="node28" class="node">
<title>dashkit_tui_app</title><style>.edge>path:hover{stroke-width:8}</style>
<ellipse fill="#822b2b" stroke="black" cx="458.19" cy="-91.94" rx="27" ry="18"/>
<text xml:space="preserve" text-anchor="middle" x="458.19" y="-88.06" font-family="Helvetica,sans-Serif" font-size="10.00" fill="#ffffff">tui.app</text>
</g>
<!-- dashkit_cli_tui&#45;&gt;dashkit_tui_app -->
<g id="edge37" class="edge">
<title>dashkit_cli_tui&#45;&gt;dashkit_tui_app</title><style>.edge>path:hover{stroke-width:8}</style>
<path fill="none" stroke="black" d="M192.95,-199.33C216.18,-184.2 257.65,-159.21 296.74,-145.94"/>
<path fill="none" stroke="black" d="M298.74,-145.94C333.32,-134.2 341.78,-130.72 376.35,-118.94 391.49,-113.78 408.26,-108.16 422.58,-103.39"/>
<polygon fill="#b83d3d" stroke="black" points="423.64,-106.73 432.03,-100.25 421.44,-100.08 423.64,-106.73"/>
</g>
<!-- dashkit_framework_presenters_occurrence_tables -->
<g id="node6" class="node">
<title>dashkit_framework_presenters_occurrence_tables</title><style>.edge>path:hover{stroke-width:8}</style>
<ellipse fill="#8f3d3d" stroke="black" cx="643.57" cy="-439.94" rx="67.53" ry="29.52"/>
<text xml:space="preserve" text-anchor="middle" x="643.57" y="-447.31" font-family="Helvetica,sans-Serif" font-size="10.00" fill="#ffffff">framework.</text>
<text xml:space="preserve" text-anchor="middle" x="643.57" y="-436.06" font-family="Helvetica,sans-Serif" font-size="10.00" fill="#ffffff">presenters.</text>
<text xml:space="preserve" text-anchor="middle" x="643.57" y="-424.81" font-family="Helvetica,sans-Serif" font-size="10.00" fill="#ffffff">occurrence_tables</text>
</g>
<!-- dashkit_framework_status -->
<g id="node7" class="node">
<title>dashkit_framework_status</title><style>.edge>path:hover{stroke-width:8}</style>
<ellipse fill="#d02424" stroke="black" cx="920.46" cy="-408.94" rx="45.79" ry="21.57"/>
<text xml:space="preserve" text-anchor="middle" x="920.46" y="-410.69" font-family="Helvetica,sans-Serif" font-size="10.00" fill="#ffffff">framework.</text>
<text xml:space="preserve" text-anchor="middle" x="920.46" y="-399.44" font-family="Helvetica,sans-Serif" font-size="10.00" fill="#ffffff">status</text>
</g>
<!-- dashkit_framework_presenters_occurrence_tables&#45;&gt;dashkit_framework_status -->
<g id="edge8" class="edge">
<title>dashkit_framework_presenters_occurrence_tables&#45;&gt;dashkit_framework_status</title><style>.edge>path:hover{stroke-width:8}</style>
<path fill="none" stroke="black" d="M705.28,-452.24C731.78,-456.45 763.28,-459.9 791.88,-458.94"/>
<path fill="none" stroke="black" d="M793.88,-458.94C825.28,-457.89 858.18,-444.26 882.42,-431.5"/>
<polygon fill="#8f3d3d" stroke="black" points="883.83,-434.72 890.93,-426.85 880.47,-428.58 883.83,-434.72"/>
</g>
<!-- dashkit_framework_presenters_occurrence_tables&#45;&gt;rich -->
<g id="edge43" class="edge">
<title>dashkit_framework_presenters_occurrence_tables&#45;&gt;rich</title><style>.edge>path:hover{stroke-width:8}</style>
<path fill="none" stroke="black" d="M793.88,-458.94C870.91,-456.36 892.32,-461.73 966.24,-439.94 995.79,-431.23 997.43,-408.98 1028.24,-408.94"/>
</g>
<!-- dashkit_framework_status&#45;&gt;rich -->
<g id="edge44" class="edge">
<title>dashkit_framework_status&#45;&gt;rich</title><style>.edge>path:hover{stroke-width:8}</style>
<path fill="none" stroke="black" d="M966.66,-408.96C985.67,-408.97 1008.03,-408.97 1028.24,-408.94"/>
</g>
<!-- dashkit_framework_test_utils -->
<g id="node8" class="node">
<title>dashkit_framework_test_utils</title><style>.edge>path:hover{stroke-width:8}</style>
<ellipse fill="#b34c4c" stroke="black" cx="45.79" cy="-1001.94" rx="45.79" ry="21.57"/>
<text xml:space="preserve" text-anchor="middle" x="45.79" y="-1003.69" font-family="Helvetica,sans-Serif" font-size="10.00" fill="#ffffff">framework.</text>
<text xml:space="preserve" text-anchor="middle" x="45.79" y="-992.44" font-family="Helvetica,sans-Serif" font-size="10.00" fill="#ffffff">test_utils</text>
</g>
<!-- dashkit_framework_utils -->
<g id="node9" class="node">
<title>dashkit_framework_utils</title><style>.edge>path:hover{stroke-width:8}</style>
<ellipse fill="#c24747" stroke="black" cx="173.36" cy="-1001.94" rx="45.79" ry="21.57"/>
<text xml:space="preserve" text-anchor="middle" x="173.36" y="-1003.69" font-family="Helvetica,sans-Serif" font-size="10.00" fill="#ffffff">framework.</text>
<text xml:space="preserve" text-anchor="middle" x="173.36" y="-992.44" font-family="Helvetica,sans-Serif" font-size="10.00" fill="#ffffff">utils</text>
</g>
<!-- dashkit_framework_test_utils&#45;&gt;dashkit_framework_utils -->
<g id="edge11" class="edge">
<title>dashkit_framework_test_utils&#45;&gt;dashkit_framework_utils</title><style>.edge>path:hover{stroke-width:8}</style>
<path fill="none" stroke="black" d="M91.76,-1001.94C99.61,-1001.94 107.86,-1001.94 115.96,-1001.94"/>
<polygon fill="#b34c4c" stroke="black" points="115.75,-1005.44 125.75,-1001.94 115.75,-998.44 115.75,-1005.44"/>
</g>
<!-- dashkit_framework_views&#45;&gt;rich -->
<g id="edge45" class="edge">
<title>dashkit_framework_views&#45;&gt;rich</title><style>.edge>path:hover{stroke-width:8}</style>
<path fill="none" stroke="black" d="M816.1,-144.94C831.92,-158.04 853.95,-175.45 874.67,-188.94 893.59,-201.26 902.1,-198.48 919.46,-212.94"/>
<path fill="none" stroke="black" d="M921.46,-212.94C938.07,-226.78 951.45,-216.17 966.24,-231.94 1023.25,-292.74 944.89,-409.05 1028.24,-408.94"/>
</g>
<!-- dashkit_modules_lighthouse_runner -->
<g id="node17" class="node">
<title>dashkit_modules_lighthouse_runner</title><style>.edge>path:hover{stroke-width:8}</style>
<ellipse fill="#b03a3a" stroke="black" cx="458.19" cy="-669.94" rx="44.72" ry="29.52"/>
<text xml:space="preserve" text-anchor="middle" x="458.19" y="-677.31" font-family="Helvetica,sans-Serif" font-size="10.00" fill="#ffffff">modules.</text>
<text xml:space="preserve" text-anchor="middle" x="458.19" y="-666.06" font-family="Helvetica,sans-Serif" font-size="10.00" fill="#ffffff">lighthouse.</text>
<text xml:space="preserve" text-anchor="middle" x="458.19" y="-654.81" font-family="Helvetica,sans-Serif" font-size="10.00" fill="#ffffff">runner</text>
</g>
<!-- dashkit_modules_lighthouse&#45;&gt;dashkit_modules_lighthouse_runner -->
<g id="edge24" class="edge">
<title>dashkit_modules_lighthouse&#45;&gt;dashkit_modules_lighthouse_runner</title><style>.edge>path:hover{stroke-width:8}</style>
<path fill="none" stroke="black" d="M340.79,-669.94C359.41,-669.94 381.58,-669.94 401.55,-669.94"/>
<polygon fill="#b62020" stroke="black" points="401.5,-673.44 411.5,-669.94 401.5,-666.44 401.5,-673.44"/>
</g>
<!-- dashkit_modules_lighthouse_widgets -->
<g id="node19" class="node">
<title>dashkit_modules_lighthouse_widgets</title><style>.edge>path:hover{stroke-width:8}</style>
<ellipse fill="#bc2f2f" stroke="black" cx="458.19" cy="-839.94" rx="44.72" ry="29.52"/>
<text xml:space="preserve" text-anchor="middle" x="458.19" y="-847.31" font-family="Helvetica,sans-Serif" font-size="10.00" fill="#ffffff">modules.</text>
<text xml:space="preserve" text-anchor="middle" x="458.19" y="-836.06" font-family="Helvetica,sans-Serif" font-size="10.00" fill="#ffffff">lighthouse.</text>
<text xml:space="preserve" text-anchor="middle" x="458.19" y="-824.81" font-family="Helvetica,sans-Serif" font-size="10.00" fill="#ffffff">widgets</text>
</g>
<!-- dashkit_modules_lighthouse&#45;&gt;dashkit_modules_lighthouse_widgets -->
<g id="edge25" class="edge">
<title>dashkit_modules_lighthouse&#45;&gt;dashkit_modules_lighthouse_widgets</title><style>.edge>path:hover{stroke-width:8}</style>
<path fill="none" stroke="black" d="M306.7,-691.1C318.25,-719.36 342.08,-769.47 376.35,-800.94 385.49,-809.33 396.76,-816.28 407.96,-821.86"/>
<polygon fill="#b62020" stroke="black" points="406.25,-824.92 416.79,-825.97 409.2,-818.58 406.25,-824.92"/>
</g>
<!-- dashkit_modules_lighthouse_audits -->
<g id="node13" class="node">
<title>dashkit_modules_lighthouse_audits</title><style>.edge>path:hover{stroke-width:8}</style>
<ellipse fill="#e61919" stroke="black" cx="792.88" cy="-555.94" rx="44.72" ry="29.52"/>
<text xml:space="preserve" text-anchor="middle" x="792.88" y="-563.31" font-family="Helvetica,sans-Serif" font-size="10.00" fill="#ffffff">modules.</text>
<text xml:space="preserve" text-anchor="middle" x="792.88" y="-552.06" font-family="Helvetica,sans-Serif" font-size="10.00" fill="#ffffff">lighthouse.</text>
<text xml:space="preserve" text-anchor="middle" x="792.88" y="-540.81" font-family="Helvetica,sans-Serif" font-size="10.00" fill="#ffffff">audits</text>
</g>
<!-- dashkit_modules_lighthouse_config -->
<g id="node15" class="node">
<title>dashkit_modules_lighthouse_config</title><style>.edge>path:hover{stroke-width:8}</style>
<ellipse fill="#ce3b3b" stroke="black" cx="920.46" cy="-516.94" rx="44.72" ry="29.52"/>
<text xml:space="preserve" text-anchor="middle" x="920.46" y="-524.31" font-family="Helvetica,sans-Serif" font-size="10.00" fill="#ffffff">modules.</text>
<text xml:space="preserve" text-anchor="middle" x="920.46" y="-513.06" font-family="Helvetica,sans-Serif" font-size="10.00" fill="#ffffff">lighthouse.</text>
<text xml:space="preserve" text-anchor="middle" x="920.46" y="-501.81" font-family="Helvetica,sans-Serif" font-size="10.00" fill="#ffffff">config</text>
</g>
<!-- dashkit_modules_lighthouse_audits&#45;&gt;dashkit_modules_lighthouse_config -->
<g id="edge21" class="edge">
<title>dashkit_modules_lighthouse_audits&#45;&gt;dashkit_modules_lighthouse_config</title><style>.edge>path:hover{stroke-width:8}</style>
<path fill="none" stroke="black" d="M833.96,-543.49C844.95,-540.08 857.01,-536.33 868.52,-532.76"/>
<polygon fill="#e61919" stroke="black" points="869.37,-536.16 877.88,-529.85 867.3,-529.47 869.37,-536.16"/>
</g>
<!-- dashkit_modules_lighthouse_categories -->
<g id="node14" class="node">
<title>dashkit_modules_lighthouse_categories</title><style>.edge>path:hover{stroke-width:8}</style>
<ellipse fill="#c04040" stroke="black" cx="643.57" cy="-670.94" rx="44.72" ry="29.52"/>
<text xml:space="preserve" text-anchor="middle" x="643.57" y="-678.31" font-family="Helvetica,sans-Serif" font-size="10.00" fill="#ffffff">modules.</text>
<text xml:space="preserve" text-anchor="middle" x="643.57" y="-667.06" font-family="Helvetica,sans-Serif" font-size="10.00" fill="#ffffff">lighthouse.</text>
<text xml:space="preserve" text-anchor="middle" x="643.57" y="-655.81" font-family="Helvetica,sans-Serif" font-size="10.00" fill="#ffffff">categories</text>
</g>
<!-- dashkit_modules_lighthouse_categories&#45;&gt;dashkit_modules_lighthouse_audits -->
<g id="edge16" class="edge">
<title>dashkit_modules_lighthouse_categories&#45;&gt;dashkit_modules_lighthouse_audits</title><style>.edge>path:hover{stroke-width:8}</style>
<path fill="none" stroke="black" d="M679.76,-652.94C690.18,-647.06 701.39,-640.17 711.1,-632.94 728.51,-619.97 746.15,-603.61 760.48,-589.31"/>
<polygon fill="#c04040" stroke="black" points="762.92,-591.82 767.45,-582.24 757.94,-586.9 762.92,-591.82"/>
</g>
<!-- dashkit_modules_lighthouse_http -->
<g id="node16" class="node">
<title>dashkit_modules_lighthouse_http</title><style>.edge>path:hover{stroke-width:8}</style>
<ellipse fill="#c24747" stroke="black" cx="643.57" cy="-786.94" rx="44.72" ry="29.52"/>
<text xml:space="preserve" text-anchor="middle" x="643.57" y="-794.31" font-family="Helvetica,sans-Serif" font-size="10.00" fill="#ffffff">modules.</text>
<text xml:space="preserve" text-anchor="middle" x="643.57" y="-783.06" font-family="Helvetica,sans-Serif" font-size="10.00" fill="#ffffff">lighthouse.</text>
<text xml:space="preserve" text-anchor="middle" x="643.57" y="-771.81" font-family="Helvetica,sans-Serif" font-size="10.00" fill="#ffffff">http</text>
</g>
<!-- dashkit_modules_lighthouse_runner&#45;&gt;dashkit_modules_lighthouse_http -->
<g id="edge23" class="edge">
<title>dashkit_modules_lighthouse_runner&#45;&gt;dashkit_modules_lighthouse_http</title><style>.edge>path:hover{stroke-width:8}</style>
<path fill="none" stroke="black" d="M496.74,-685.14C510.85,-691.59 526.69,-699.75 540.04,-708.94 558.17,-721.42 558.8,-729.26 576.04,-742.94 583.68,-749 592.16,-755.06 600.43,-760.65"/>
<polygon fill="#b03a3a" stroke="black" points="598.45,-763.54 608.71,-766.15 602.31,-757.7 598.45,-763.54"/>
</g>
<!-- dashkit_modules_lighthouse_runner&#45;&gt;dashkit_services -->
<g id="edge32" class="edge">
<title>dashkit_modules_lighthouse_runner&#45;&gt;dashkit_services</title><style>.edge>path:hover{stroke-width:8}</style>
<path fill="none" stroke="black" d="M644.57,-844.94C713.57,-870.76 718.78,-911.78 791.88,-920.94"/>
<path fill="none" stroke="black" d="M793.88,-920.94C821.68,-924.42 853.2,-924.41 877.71,-923.53"/>
<polygon fill="#b03a3a" stroke="black" points="877.78,-927.03 887.62,-923.11 877.48,-920.04 877.78,-927.03"/>
</g>
<!-- dashkit_services_snapshots -->
<g id="node25" class="node">
<title>dashkit_services_snapshots</title><style>.edge>path:hover{stroke-width:8}</style>
<ellipse fill="#c24747" stroke="black" cx="920.46" cy="-624.94" rx="43.13" ry="21.57"/>
<text xml:space="preserve" text-anchor="middle" x="920.46" y="-626.69" font-family="Helvetica,sans-Serif" font-size="10.00" fill="#ffffff">services.</text>
<text xml:space="preserve" text-anchor="middle" x="920.46" y="-615.44" font-family="Helvetica,sans-Serif" font-size="10.00" fill="#ffffff">snapshots</text>
</g>
<!-- dashkit_modules_lighthouse_runner&#45;&gt;dashkit_services_snapshots -->
<g id="edge33" class="edge">
<title>dashkit_modules_lighthouse_runner&#45;&gt;dashkit_services_snapshots</title><style>.edge>path:hover{stroke-width:8}</style>
<path fill="none" stroke="black" d="M499.68,-681.86C514.16,-687.91 529.48,-696.65 540.04,-708.94 575.5,-750.2 537.18,-787.86 576.04,-825.94 598.01,-847.46 615.63,-830.12 642.57,-844.94"/>
<path fill="none" stroke="black" d="M644.57,-844.94C729.6,-891.71 768.66,-756.46 874.67,-660.94 878.63,-657.37 882.89,-653.72 887.15,-650.19"/>
<polygon fill="#b03a3a" stroke="black" points="889.08,-653.12 894.62,-644.09 884.66,-647.7 889.08,-653.12"/>
</g>
<!-- dashkit_modules_lighthouse_test_audits -->
<g id="node18" class="node">
<title>dashkit_modules_lighthouse_test_audits</title><style>.edge>path:hover{stroke-width:8}</style>
<ellipse fill="#b34c4c" stroke="black" cx="643.57" cy="-593.94" rx="45.25" ry="29.52"/>
<text xml:space="preserve" text-anchor="middle" x="643.57" y="-601.31" font-family="Helvetica,sans-Serif" font-size="10.00" fill="#ffffff">modules.</text>
<text xml:space="preserve" text-anchor="middle" x="643.57" y="-590.06" font-family="Helvetica,sans-Serif" font-size="10.00" fill="#ffffff">lighthouse.</text>
<text xml:space="preserve" text-anchor="middle" x="643.57" y="-578.81" font-family="Helvetica,sans-Serif" font-size="10.00" fill="#ffffff">test_audits</text>
</g>
<!-- dashkit_modules_lighthouse_test_audits&#45;&gt;dashkit_modules_lighthouse_audits -->
<g id="edge17" class="edge">
<title>dashkit_modules_lighthouse_test_audits&#45;&gt;dashkit_modules_lighthouse_audits</title><style>.edge>path:hover{stroke-width:8}</style>
<path fill="none" stroke="black" d="M686,-583.25C702.69,-578.95 722.14,-573.93 739.77,-569.38"/>
<polygon fill="#b34c4c" stroke="black" points="740.49,-572.81 749.3,-566.92 738.75,-566.03 740.49,-572.81"/>
</g>
<!-- dashkit_modules_lighthouse_widgets_audits -->
<g id="node20" class="node">
<title>dashkit_modules_lighthouse_widgets_audits</title><style>.edge>path:hover{stroke-width:8}</style>
<ellipse fill="#8a2e2e" stroke="black" cx="458.19" cy="-584.94" rx="44.72" ry="37.48"/>
<text xml:space="preserve" text-anchor="middle" x="458.19" y="-597.94" font-family="Helvetica,sans-Serif" font-size="10.00" fill="#ffffff">modules.</text>
<text xml:space="preserve" text-anchor="middle" x="458.19" y="-586.69" font-family="Helvetica,sans-Serif" font-size="10.00" fill="#ffffff">lighthouse.</text>
<text xml:space="preserve" text-anchor="middle" x="458.19" y="-575.44" font-family="Helvetica,sans-Serif" font-size="10.00" fill="#ffffff">widgets.</text>
<text xml:space="preserve" text-anchor="middle" x="458.19" y="-564.19" font-family="Helvetica,sans-Serif" font-size="10.00" fill="#ffffff">audits</text>
</g>
<!-- dashkit_modules_lighthouse_widgets&#45;&gt;dashkit_modules_lighthouse_widgets_audits -->
<g id="edge26" class="edge">
<title>dashkit_modules_lighthouse_widgets&#45;&gt;dashkit_modules_lighthouse_widgets_audits</title><style>.edge>path:hover{stroke-width:8}</style>
<path fill="none" stroke="black" d="M415.16,-830.74C394.13,-823.83 370.73,-811.98 358.35,-791.94 340.59,-763.21 341.16,-669.02 358.35,-639.94 368.7,-622.42 386.84,-610.1 404.85,-601.63"/>
<polygon fill="#bc2f2f" stroke="black" points="406.2,-604.86 413.98,-597.68 403.42,-598.44 406.2,-604.86"/>
</g>
<!-- dashkit_modules_lighthouse_widgets_metrics_summary -->
<g id="node21" class="node">
<title>dashkit_modules_lighthouse_widgets_metrics_summary</title><style>.edge>path:hover{stroke-width:8}</style>
<ellipse fill="#9b2626" stroke="black" cx="458.19" cy="-398.94" rx="66.47" ry="37.48"/>
<text xml:space="preserve" text-anchor="middle" x="458.19" y="-411.94" font-family="Helvetica,sans-Serif" font-size="10.00" fill="#ffffff">modules.</text>
<text xml:space="preserve" text-anchor="middle" x="458.19" y="-400.69" font-family="Helvetica,sans-Serif" font-size="10.00" fill="#ffffff">lighthouse.</text>
<text xml:space="preserve" text-anchor="middle" x="458.19" y="-389.44" font-family="Helvetica,sans-Serif" font-size="10.00" fill="#ffffff">widgets.</text>
<text xml:space="preserve" text-anchor="middle" x="458.19" y="-378.19" font-family="Helvetica,sans-Serif" font-size="10.00" fill="#ffffff">metrics_summary</text>
</g>
<!-- dashkit_modules_lighthouse_widgets&#45;&gt;dashkit_modules_lighthouse_widgets_metrics_summary -->
<g id="edge27" class="edge">
<title>dashkit_modules_lighthouse_widgets&#45;&gt;dashkit_modules_lighthouse_widgets_metrics_summary</title><style>.edge>path:hover{stroke-width:8}</style>
<path fill="none" stroke="black" d="M415.16,-830.74C394.13,-823.83 370.73,-811.98 358.35,-791.94 338.66,-760.09 339.42,-487.25 358.35,-454.94 365.95,-441.96 377.79,-431.75 390.69,-423.82"/>
<polygon fill="#bc2f2f" stroke="black" points="392.39,-426.88 399.4,-418.94 388.96,-420.78 392.39,-426.88"/>
</g>
<!-- dashkit_modules_lighthouse_widgets_thirdparty -->
<g id="node23" class="node">
<title>dashkit_modules_lighthouse_widgets_thirdparty</title><style>.edge>path:hover{stroke-width:8}</style>
<ellipse fill="#a83838" stroke="black" cx="458.19" cy="-754.94" rx="44.72" ry="37.48"/>
<text xml:space="preserve" text-anchor="middle" x="458.19" y="-767.94" font-family="Helvetica,sans-Serif" font-size="10.00" fill="#ffffff">modules.</text>
<text xml:space="preserve" text-anchor="middle" x="458.19" y="-756.69" font-family="Helvetica,sans-Serif" font-size="10.00" fill="#ffffff">lighthouse.</text>
<text xml:space="preserve" text-anchor="middle" x="458.19" y="-745.44" font-family="Helvetica,sans-Serif" font-size="10.00" fill="#ffffff">widgets.</text>
<text xml:space="preserve" text-anchor="middle" x="458.19" y="-734.19" font-family="Helvetica,sans-Serif" font-size="10.00" fill="#ffffff">thirdparty</text>
</g>
<!-- dashkit_modules_lighthouse_widgets&#45;&gt;dashkit_modules_lighthouse_widgets_thirdparty -->
<g id="edge29" class="edge">
<title>dashkit_modules_lighthouse_widgets&#45;&gt;dashkit_modules_lighthouse_widgets_thirdparty</title><style>.edge>path:hover{stroke-width:8}</style>
<path fill="none" stroke="black" d="M458.19,-810.1C458.19,-808.12 458.19,-806.14 458.19,-804.15"/>
<polygon fill="#bc2f2f" stroke="black" points="461.69,-804.3 458.19,-794.3 454.69,-804.3 461.69,-804.3"/>
</g>
<!-- dashkit_modules_lighthouse_widgets_audits&#45;&gt;dashkit_framework -->
<g id="edge5" class="edge">
<title>dashkit_modules_lighthouse_widgets_audits&#45;&gt;dashkit_framework</title><style>.edge>path:hover{stroke-width:8}</style>
<path fill="none" stroke="black" d="M644.57,-381.94C726.16,-351.96 767.68,-408.1 838.67,-357.94 867.89,-337.29 850.39,-312.21 874.67,-285.94 877.49,-282.89 880.72,-280.07 884.14,-277.5"/>
<polygon fill="#8a2e2e" stroke="black" points="885.83,-280.58 892.19,-272.1 881.93,-274.76 885.83,-280.58"/>
<path fill="none" stroke="black" d="M499.2,-569.54C513.97,-562.04 529.62,-551.63 540.04,-537.94 578.17,-487.84 532,-445.93 576.04,-400.94 597.55,-378.97 613.94,-393.17 642.57,-381.94"/>
</g>
<!-- dashkit_modules_lighthouse_widgets_audits&#45;&gt;dashkit_framework_status -->
<g id="edge9" class="edge">
<title>dashkit_modules_lighthouse_widgets_audits&#45;&gt;dashkit_framework_status</title><style>.edge>path:hover{stroke-width:8}</style>
<path fill="none" stroke="black" d="M644.57,-381.94C708.04,-358.62 724.92,-410.55 791.88,-419.94"/>
</g>
<!-- dashkit_modules_lighthouse_widgets_audits&#45;&gt;dashkit_modules_lighthouse_audits -->
<g id="edge18" class="edge">
<title>dashkit_modules_lighthouse_widgets_audits&#45;&gt;dashkit_modules_lighthouse_audits</title><style>.edge>path:hover{stroke-width:8}</style>
<path fill="none" stroke="black" d="M500.34,-571.67C522.51,-565.22 550.48,-558.17 576.04,-554.94 635.59,-547.42 651.08,-554.57 711.1,-554.94 719.3,-554.99 727.96,-555.07 736.45,-555.16"/>
<polygon fill="#8a2e2e" stroke="black" points="736.31,-558.66 746.35,-555.28 736.39,-551.66 736.31,-558.66"/>
</g>
<!-- dashkit_modules_lighthouse_widgets_audits&#45;&gt;dashkit_modules_lighthouse_categories -->
<g id="edge20" class="edge">
<title>dashkit_modules_lighthouse_widgets_audits&#45;&gt;dashkit_modules_lighthouse_categories</title><style>.edge>path:hover{stroke-width:8}</style>
<path fill="none" stroke="black" d="M497.64,-602.97C526.29,-616.41 565.56,-634.82 596,-649.1"/>
<polygon fill="#8a2e2e" stroke="black" points="594.45,-652.24 604.99,-653.32 597.43,-645.9 594.45,-652.24"/>
</g>
<!-- dashkit_modules_lighthouse_widgets_audits&#45;&gt;rich -->
<g id="edge46" class="edge">
<title>dashkit_modules_lighthouse_widgets_audits&#45;&gt;rich</title><style>.edge>path:hover{stroke-width:8}</style>
<path fill="none" stroke="black" d="M498.87,-601.22C513.24,-608.63 528.71,-618.54 540.04,-630.94 566.07,-659.42 543.59,-689.06 576.04,-709.94 626.53,-742.41 653.91,-728.16 711.1,-709.94 796.02,-682.88 796.68,-637.07 874.67,-593.94 913.23,-572.62 934.99,-587.01 966.24,-555.94 1016.52,-505.95 957.33,-408.69 1028.24,-408.94"/>
</g>
<!-- dashkit_modules_lighthouse_widgets_metrics_summary&#45;&gt;dashkit_framework -->
<g id="edge6" class="edge">
<title>dashkit_modules_lighthouse_widgets_metrics_summary&#45;&gt;dashkit_framework</title><style>.edge>path:hover{stroke-width:8}</style>
<path fill="none" stroke="black" d="M644.57,-343.94C710.03,-342.65 727,-352.68 791.88,-343.94"/>
<path fill="none" stroke="black" d="M510.54,-375.39C546.65,-360.87 596.55,-344.84 642.57,-343.94"/>
<path fill="none" stroke="black" d="M793.88,-343.94C837.69,-338.04 837.76,-310.26 874.67,-285.94 878.4,-283.48 882.35,-280.97 886.3,-278.52"/>
<polygon fill="#9b2626" stroke="black" points="887.99,-281.59 894.7,-273.39 884.34,-275.61 887.99,-281.59"/>
</g>
<!-- dashkit_modules_lighthouse_widgets_metrics_summary&#45;&gt;dashkit_framework_status -->
<g id="edge10" class="edge">
<title>dashkit_modules_lighthouse_widgets_metrics_summary&#45;&gt;dashkit_framework_status</title><style>.edge>path:hover{stroke-width:8}</style>
<path fill="none" stroke="black" d="M644.57,-343.94C676,-343.32 682.92,-354.01 711.1,-367.94 749.38,-386.86 749.6,-414.01 791.88,-419.94"/>
<path fill="none" stroke="black" d="M793.88,-419.94C817.6,-423.26 843.98,-421.74 866.42,-418.9"/>
<polygon fill="#9b2626" stroke="black" points="866.84,-422.37 876.26,-417.52 865.87,-415.44 866.84,-422.37"/>
</g>
<!-- dashkit_modules_lighthouse_widgets_metrics_summary&#45;&gt;dashkit_modules_lighthouse_audits -->
<g id="edge19" class="edge">
<title>dashkit_modules_lighthouse_widgets_metrics_summary&#45;&gt;dashkit_modules_lighthouse_audits</title><style>.edge>path:hover{stroke-width:8}</style>
<path fill="none" stroke="black" d="M644.57,-497.94C677.99,-509.8 715.14,-524.44 743.77,-536.04"/>
<polygon fill="#9b2626" stroke="black" points="742.32,-539.23 752.9,-539.76 744.96,-532.75 742.32,-539.23"/>
</g>
<!-- dashkit_modules_lighthouse_widgets_metrics_summary&#45;&gt;dashkit_modules_lighthouse_config -->
<g id="edge22" class="edge">
<title>dashkit_modules_lighthouse_widgets_metrics_summary&#45;&gt;dashkit_modules_lighthouse_config</title><style>.edge>path:hover{stroke-width:8}</style>
<path fill="none" stroke="black" d="M644.57,-497.94C683.62,-511.8 795.69,-515.6 864.07,-516.61"/>
<polygon fill="#9b2626" stroke="black" points="863.92,-520.11 873.97,-516.74 864.01,-513.11 863.92,-520.11"/>
<path fill="none" stroke="black" d="M507.3,-424.62C518.35,-431.14 529.84,-438.43 540.04,-445.94 557.53,-458.8 557.1,-468.34 576.04,-478.94 602.88,-493.95 613.87,-486.9 642.57,-497.94"/>
</g>
<!-- dashkit_modules_lighthouse_widgets_metrics_summary&#45;&gt;rich -->
<g id="edge47" class="edge">
<title>dashkit_modules_lighthouse_widgets_metrics_summary&#45;&gt;rich</title><style>.edge>path:hover{stroke-width:8}</style>
<path fill="none" stroke="black" d="M793.88,-343.94C871.26,-333.52 892.35,-352.7 966.24,-377.94 995.39,-387.9 997.43,-408.77 1028.24,-408.94"/>
</g>
<!-- dashkit_modules_lighthouse_widgets_test_metrics_summary -->
<g id="node22" class="node">
<title>dashkit_modules_lighthouse_widgets_test_metrics_summary</title><style>.edge>path:hover{stroke-width:8}</style>
<ellipse fill="#964040" stroke="black" cx="458.19" cy="-491.94" rx="81.85" ry="37.48"/>
<text xml:space="preserve" text-anchor="middle" x="458.19" y="-504.94" font-family="Helvetica,sans-Serif" font-size="10.00" fill="#ffffff">modules.</text>
<text xml:space="preserve" text-anchor="middle" x="458.19" y="-493.69" font-family="Helvetica,sans-Serif" font-size="10.00" fill="#ffffff">lighthouse.</text>
<text xml:space="preserve" text-anchor="middle" x="458.19" y="-482.44" font-family="Helvetica,sans-Serif" font-size="10.00" fill="#ffffff">widgets.</text>
<text xml:space="preserve" text-anchor="middle" x="458.19" y="-471.19" font-family="Helvetica,sans-Serif" font-size="10.00" fill="#ffffff">test_metrics_summary</text>
</g>
<!-- dashkit_modules_lighthouse_widgets_test_metrics_summary&#45;&gt;dashkit_modules_lighthouse_widgets_metrics_summary -->
<g id="edge28" class="edge">
<title>dashkit_modules_lighthouse_widgets_test_metrics_summary&#45;&gt;dashkit_modules_lighthouse_widgets_metrics_summary</title><style>.edge>path:hover{stroke-width:8}</style>
<path fill="none" stroke="black" d="M458.19,-453.98C458.19,-452 458.19,-450.02 458.19,-448.04"/>
<polygon fill="#964040" stroke="black" points="461.69,-448.23 458.19,-438.23 454.69,-448.23 461.69,-448.23"/>
</g>
<!-- dashkit_modules_lighthouse_widgets_thirdparty&#45;&gt;rich -->
<g id="edge48" class="edge">
<title>dashkit_modules_lighthouse_widgets_thirdparty&#45;&gt;rich</title><style>.edge>path:hover{stroke-width:8}</style>
<path fill="none" stroke="black" d="M498.06,-772.01C512.33,-779.52 527.94,-789.29 540.04,-800.94 561.9,-821.98 549.53,-844.19 576.04,-858.94 628.5,-888.12 653.79,-876.79 711.1,-858.94 849.45,-815.85 891.54,-780.11 966.24,-655.94 1024.58,-558.95 915.06,-408.54 1028.24,-408.94"/>
</g>
<!-- yaml -->
<g id="node34" class="node">
<title>yaml</title><style>.edge>path:hover{stroke-width:8}</style>
<polygon fill="#a253b6" stroke="black" points="947.46,-330.94 944.46,-334.94 923.46,-334.94 920.46,-330.94 893.46,-330.94 893.46,-294.94 947.46,-294.94 947.46,-330.94"/>
<text xml:space="preserve" text-anchor="middle" x="920.46" y="-309.06" font-family="Helvetica,sans-Serif" font-size="10.00" fill="#ffffff">yaml</text>
</g>
<!-- dashkit_services_workspaces&#45;&gt;yaml -->
<g id="edge53" class="edge">
<title>dashkit_services_workspaces&#45;&gt;yaml</title><style>.edge>path:hover{stroke-width:8}</style>
<path fill="none" stroke="black" d="M506.73,-258.31C557.52,-259.19 640.28,-262.02 711.1,-270.94 771.5,-278.54 840.59,-293.79 882.08,-303.67"/>
<polygon fill="#cc3333" stroke="black" points="881.01,-307.01 891.55,-305.95 882.65,-300.21 881.01,-307.01"/>
</g>
<!-- dashkit_tui_app&#45;&gt;dashkit_framework -->
<g id="edge7" class="edge">
<title>dashkit_tui_app&#45;&gt;dashkit_framework</title><style>.edge>path:hover{stroke-width:8}</style>
<path fill="none" stroke="black" d="M484.4,-97.44C500.97,-101.75 522.7,-108.73 540.04,-118.94 558.75,-129.95 556.61,-142.28 576.04,-151.94 682.29,-204.76 729.95,-152.41 838.67,-199.94 857,-207.95 858.53,-215.12 874.67,-226.94 879.46,-230.45 884.57,-234.14 889.55,-237.72"/>
<polygon fill="#822b2b" stroke="black" points="887.47,-240.53 897.64,-243.5 891.54,-234.84 887.47,-240.53"/>
</g>
<!-- dashkit_tui_app&#45;&gt;dashkit_framework_views -->
<g id="edge13" class="edge">
<title>dashkit_tui_app&#45;&gt;dashkit_framework_views</title><style>.edge>path:hover{stroke-width:8}</style>
<path fill="none" stroke="black" d="M644.57,-137.94C674.82,-136.07 708.52,-133.37 736.05,-131.01"/>
<polygon fill="#822b2b" stroke="black" points="736.27,-134.5 745.93,-130.15 735.66,-127.53 736.27,-134.5"/>
<path fill="none" stroke="black" d="M482.94,-99.81C525.06,-113.45 611.37,-139.87 642.57,-137.94"/>
</g>
<!-- dashkit_tui_parsers -->
<g id="node29" class="node">
<title>dashkit_tui_parsers</title><style>.edge>path:hover{stroke-width:8}</style>
<ellipse fill="#c24747" stroke="black" cx="643.57" cy="-91.94" rx="36.54" ry="18"/>
<text xml:space="preserve" text-anchor="middle" x="643.57" y="-88.06" font-family="Helvetica,sans-Serif" font-size="10.00" fill="#ffffff">tui.parsers</text>
</g>
<!-- dashkit_tui_app&#45;&gt;dashkit_tui_parsers -->
<g id="edge38" class="edge">
<title>dashkit_tui_app&#45;&gt;dashkit_tui_parsers</title><style>.edge>path:hover{stroke-width:8}</style>
<path fill="none" stroke="black" d="M485.47,-91.94C514.03,-91.94 560.26,-91.94 595.19,-91.94"/>
<polygon fill="#822b2b" stroke="black" points="595.05,-95.44 605.05,-91.94 595.05,-88.44 595.05,-95.44"/>
</g>
<!-- dashkit_tui_sidebar -->
<g id="node30" class="node">
<title>dashkit_tui_sidebar</title><style>.edge>path:hover{stroke-width:8}</style>
<ellipse fill="#a83838" stroke="black" cx="643.57" cy="-37.94" rx="36.09" ry="18"/>
<text xml:space="preserve" text-anchor="middle" x="643.57" y="-34.06" font-family="Helvetica,sans-Serif" font-size="10.00" fill="#ffffff">tui.sidebar</text>
</g>
<!-- dashkit_tui_app&#45;&gt;dashkit_tui_sidebar -->
<g id="edge39" class="edge">
<title>dashkit_tui_app&#45;&gt;dashkit_tui_sidebar</title><style>.edge>path:hover{stroke-width:8}</style>
<path fill="none" stroke="black" d="M483.17,-84.88C513.08,-76.07 564.72,-60.86 601.1,-50.15"/>
<polygon fill="#822b2b" stroke="black" points="601.81,-53.59 610.41,-47.41 599.83,-46.88 601.81,-53.59"/>
</g>
<!-- textual -->
<g id="node33" class="node">
<title>textual</title><style>.edge>path:hover{stroke-width:8}</style>
<polygon fill="blue" stroke="black" points="1056.24,-192.94 1053.24,-196.94 1032.24,-196.94 1029.24,-192.94 1002.24,-192.94 1002.24,-156.94 1056.24,-156.94 1056.24,-192.94"/>
<text xml:space="preserve" text-anchor="middle" x="1029.24" y="-171.06" font-family="Helvetica,sans-Serif" font-size="10.00" fill="white">textual</text>
</g>
<!-- dashkit_tui_app&#45;&gt;textual -->
<g id="edge51" class="edge">
<title>dashkit_tui_app&#45;&gt;textual</title><style>.edge>path:hover{stroke-width:8}</style>
<path fill="none" stroke="black" d="M474.15,-76.95C494.9,-57.33 534.58,-23.9 576.04,-10.94 633.33,6.98 651.9,-1.02 711.1,-10.94 825.29,-30.08 941.68,-108.59 996.27,-149.65"/>
<polygon fill="#822b2b" stroke="black" points="994.14,-152.43 1004.22,-155.71 998.38,-146.86 994.14,-152.43"/>
</g>
<!-- dashkit_tui_sidebar&#45;&gt;rich -->
<g id="edge49" class="edge">
<title>dashkit_tui_sidebar&#45;&gt;rich</title><style>.edge>path:hover{stroke-width:8}</style>
<path fill="none" stroke="black" d="M921.46,-174.94C938.16,-190.13 951.99,-181.42 966.24,-198.94 1027.66,-274.43 930.93,-408.4 1028.24,-408.94"/>
<path fill="none" stroke="black" d="M1030.24,-408.94C1057.8,-409.09 1068.56,-394.85 1092.24,-408.94"/>
</g>
<!-- dashkit_tui_sidebar&#45;&gt;textual -->
<g id="edge52" class="edge">
<title>dashkit_tui_sidebar&#45;&gt;textual</title><style>.edge>path:hover{stroke-width:8}</style>
<path fill="none" stroke="black" d="M921.46,-174.94C939.71,-191.64 967.95,-190.93 990.81,-186.42"/>
<polygon fill="#a83838" stroke="black" points="991.42,-189.87 1000.38,-184.21 989.85,-183.05 991.42,-189.87"/>
<path fill="none" stroke="black" d="M678.87,-42.76C719.34,-49.6 787.55,-64.78 838.67,-94.94 882.19,-120.62 882.17,-140.83 919.46,-174.94"/>
</g>
<!-- textual&#45;&gt;rich -->
<g id="edge50" class="edge">
<title>textual&#45;&gt;rich</title><style>.edge>path:hover{stroke-width:8}</style>
<path fill="none" stroke="black" d="M1093.24,-408.94C1100.49,-413.25 1109.11,-414.93 1117.59,-415.17"/>
<polygon fill="blue" stroke="black" points="1117.54,-418.67 1127.4,-414.79 1117.27,-411.68 1117.54,-418.67"/>
<path fill="none" stroke="black" d="M1031.93,-193.43C1037.06,-244.73 1054.5,-386.48 1092.24,-408.94"/>
</g>
</g>
</svg>
