<?xml version="1.0" encoding="UTF-8" standalone="no"?>
<!DOCTYPE svg PUBLIC "-//W3C//DTD SVG 1.1//EN"
 "http://www.w3.org/Graphics/SVG/1.1/DTD/svg11.dtd">
<!-- Generated by graphviz version 14.1.2 (20260124.0452)
 -->
<!-- Title: G Pages: 1 -->
<svg width="1168pt" height="1368pt"
 viewBox="0.00 0.00 1168.00 1368.00" xmlns="http://www.w3.org/2000/svg" xmlns:xlink="http://www.w3.org/1999/xlink">
<g id="graph0" class="graph" transform="scale(1 1) rotate(0) translate(4 1364.04)">
<title>G</title><style>.edge>path:hover{stroke-width:8}</style>
<polygon fill="white" stroke="none" points="-4,4 -4,-1364.04 1163.91,-1364.04 1163.91,4 -4,4"/>
<!-- dashkit_cli -->
<g id="node1" class="node">
<title>dashkit_cli</title><style>.edge>path:hover{stroke-width:8}</style>
<ellipse fill="#b03a3a" stroke="black" cx="45.79" cy="-822.52" rx="35.65" ry="18"/>
<text xml:space="preserve" text-anchor="middle" x="45.79" y="-818.65" font-family="Helvetica,sans-Serif" font-size="10.00" fill="#ffffff">dashkit.cli</text>
</g>
<!-- dashkit_cli_lighthouse -->
<g id="node2" class="node">
<title>dashkit_cli_lighthouse</title><style>.edge>path:hover{stroke-width:8}</style>
<ellipse fill="#a13535" stroke="black" cx="173.36" cy="-923.52" rx="42.6" ry="29.52"/>
<text xml:space="preserve" text-anchor="middle" x="173.36" y="-930.9" font-family="Helvetica,sans-Serif" font-size="10.00" fill="#ffffff">dashkit.</text>
<text xml:space="preserve" text-anchor="middle" x="173.36" y="-919.65" font-family="Helvetica,sans-Serif" font-size="10.00" fill="#ffffff">cli.</text>
<text xml:space="preserve" text-anchor="middle" x="173.36" y="-908.4" font-family="Helvetica,sans-Serif" font-size="10.00" fill="#ffffff">lighthouse</text>
</g>
<!-- dashkit_cli&#45;&gt;dashkit_cli_lighthouse -->
<g id="edge1" class="edge">
<title>dashkit_cli&#45;&gt;dashkit_cli_lighthouse</title><style>.edge>path:hover{stroke-width:8}</style>
<path fill="none" stroke="black" d="M65.86,-837.86C84.39,-852.77 113.01,-875.79 135.92,-894.22"/>
<polygon fill="#b03a3a" stroke="black" points="133.54,-896.79 143.52,-900.33 137.93,-891.34 133.54,-896.79"/>
</g>
<!-- dashkit_cli_printer -->
<g id="node3" class="node">
<title>dashkit_cli_printer</title><style>.edge>path:hover{stroke-width:8}</style>
<ellipse fill="#993333" stroke="black" cx="173.36" cy="-822.52" rx="35.71" ry="29.52"/>
<text xml:space="preserve" text-anchor="middle" x="173.36" y="-829.9" font-family="Helvetica,sans-Serif" font-size="10.00" fill="#ffffff">dashkit.</text>
<text xml:space="preserve" text-anchor="middle" x="173.36" y="-818.65" font-family="Helvetica,sans-Serif" font-size="10.00" fill="#ffffff">cli.</text>
<text xml:space="preserve" text-anchor="middle" x="173.36" y="-807.4" font-family="Helvetica,sans-Serif" font-size="10.00" fill="#ffffff">printer</text>
</g>
<!-- dashkit_cli&#45;&gt;dashkit_cli_printer -->
<g id="edge2" class="edge">
<title>dashkit_cli&#45;&gt;dashkit_cli_printer</title><style>.edge>path:hover{stroke-width:8}</style>
<path fill="none" stroke="black" d="M81.76,-822.52C95.51,-822.52 111.48,-822.52 126.15,-822.52"/>
<polygon fill="#b03a3a" stroke="black" points="126.05,-826.02 136.05,-822.52 126.05,-819.02 126.05,-826.02"/>
</g>
<!-- dashkit_cli_tui -->
<g id="node4" class="node">
<title>dashkit_cli_tui</title><style>.edge>path:hover{stroke-width:8}</style>
<ellipse fill="#a83838" stroke="black" cx="173.36" cy="-745.52" rx="35.71" ry="29.52"/>
<text xml:space="preserve" text-anchor="middle" x="173.36" y="-752.9" font-family="Helvetica,sans-Serif" font-size="10.00" fill="#ffffff">dashkit.</text>
<text xml:space="preserve" text-anchor="middle" x="173.36" y="-741.65" font-family="Helvetica,sans-Serif" font-size="10.00" fill="#ffffff">cli.</text>
<text xml:space="preserve" text-anchor="middle" x="173.36" y="-730.4" font-family="Helvetica,sans-Serif" font-size="10.00" fill="#ffffff">tui</text>
</g>
<!-- dashkit_cli&#45;&gt;dashkit_cli_tui -->
<g id="edge3" class="edge">
<title>dashkit_cli&#45;&gt;dashkit_cli_tui</title><style>.edge>path:hover{stroke-width:8}</style>
<path fill="none" stroke="black" d="M69.53,-808.58C87.58,-797.5 113.23,-781.78 134.39,-768.8"/>
<polygon fill="#b03a3a" stroke="black" points="136.08,-771.87 142.77,-763.66 132.42,-765.91 136.08,-771.87"/>
</g>
<!-- dashkit_modules -->
<g id="node11" class="node">
<title>dashkit_modules</title><style>.edge>path:hover{stroke-width:8}</style>
<ellipse fill="#ce3b3b" stroke="black" cx="442.82" cy="-986.52" rx="37.3" ry="21.57"/>
<text xml:space="preserve" text-anchor="middle" x="442.82" y="-988.27" font-family="Helvetica,sans-Serif" font-size="10.00" fill="#ffffff">dashkit.</text>
<text xml:space="preserve" text-anchor="middle" x="442.82" y="-977.02" font-family="Helvetica,sans-Serif" font-size="10.00" fill="#ffffff">modules</text>
</g>
<!-- dashkit_cli_lighthouse&#45;&gt;dashkit_modules -->
<g id="edge14" class="edge">
<title>dashkit_cli_lighthouse&#45;&gt;dashkit_modules</title><style>.edge>path:hover{stroke-width:8}</style>
<path fill="none" stroke="black" d="M298.74,-936.52C335.38,-941.59 374.91,-956.16 403.11,-968.28"/>
<polygon fill="#a13535" stroke="black" points="401.39,-971.34 411.96,-972.16 404.21,-964.93 401.39,-971.34"/>
</g>
<!-- dashkit_modules_lighthouse -->
<g id="node12" class="node">
<title>dashkit_modules_lighthouse</title><style>.edge>path:hover{stroke-width:8}</style>
<ellipse fill="#ac2b2b" stroke="black" cx="297.74" cy="-1172.52" rx="42.6" ry="29.52"/>
<text xml:space="preserve" text-anchor="middle" x="297.74" y="-1179.9" font-family="Helvetica,sans-Serif" font-size="10.00" fill="#ffffff">dashkit.</text>
<text xml:space="preserve" text-anchor="middle" x="297.74" y="-1168.65" font-family="Helvetica,sans-Serif" font-size="10.00" fill="#ffffff">modules.</text>
<text xml:space="preserve" text-anchor="middle" x="297.74" y="-1157.4" font-family="Helvetica,sans-Serif" font-size="10.00" fill="#ffffff">lighthouse</text>
</g>
<!-- dashkit_cli_lighthouse&#45;&gt;dashkit_modules_lighthouse -->
<g id="edge15" class="edge">
<title>dashkit_cli_lighthouse&#45;&gt;dashkit_modules_lighthouse</title><style>.edge>path:hover{stroke-width:8}</style>
<path fill="none" stroke="black" d="M203.53,-944.45C209.25,-949.55 214.82,-955.34 219.14,-961.52 256.15,-1014.5 277.75,-1087.22 288.39,-1131.98"/>
<polygon fill="#a13535" stroke="black" points="284.94,-1132.56 290.59,-1141.53 291.76,-1131 284.94,-1132.56"/>
</g>
<!-- dashkit_services -->
<g id="node22" class="node">
<title>dashkit_services</title><style>.edge>path:hover{stroke-width:8}</style>
<ellipse fill="#e72222" stroke="black" cx="897.12" cy="-664.52" rx="37.3" ry="21.57"/>
<text xml:space="preserve" text-anchor="middle" x="897.12" y="-666.27" font-family="Helvetica,sans-Serif" font-size="10.00" fill="#ffffff">dashkit.</text>
<text xml:space="preserve" text-anchor="middle" x="897.12" y="-655.02" font-family="Helvetica,sans-Serif" font-size="10.00" fill="#ffffff">services</text>
</g>
<!-- dashkit_cli_lighthouse&#45;&gt;dashkit_services -->
<g id="edge27" class="edge">
<title>dashkit_cli_lighthouse&#45;&gt;dashkit_services</title><style>.edge>path:hover{stroke-width:8}</style>
<path fill="none" stroke="black" d="M443.82,-936.52C519.96,-941.54 540.49,-922.59 615.52,-936.52"/>
<path fill="none" stroke="black" d="M216.07,-927.29C239.77,-929.6 269.97,-932.82 296.74,-936.52"/>
<path fill="none" stroke="black" d="M298.74,-936.52C361.73,-945.23 378.37,-932.34 441.82,-936.52"/>
</g>
<!-- dashkit_services_workspaces -->
<g id="node24" class="node">
<title>dashkit_services_workspaces</title><style>.edge>path:hover{stroke-width:8}</style>
<ellipse fill="#d92626" stroke="black" cx="442.82" cy="-338.52" rx="48.44" ry="29.52"/>
<text xml:space="preserve" text-anchor="middle" x="442.82" y="-345.9" font-family="Helvetica,sans-Serif" font-size="10.00" fill="#ffffff">dashkit.</text>
<text xml:space="preserve" text-anchor="middle" x="442.82" y="-334.65" font-family="Helvetica,sans-Serif" font-size="10.00" fill="#ffffff">services.</text>
<text xml:space="preserve" text-anchor="middle" x="442.82" y="-323.4" font-family="Helvetica,sans-Serif" font-size="10.00" fill="#ffffff">workspaces</text>
</g>
<!-- dashkit_cli_lighthouse&#45;&gt;dashkit_services_workspaces -->
<g id="edge32" class="edge">
<title>dashkit_cli_lighthouse&#45;&gt;dashkit_services_workspaces</title><style>.edge>path:hover{stroke-width:8}</style>
<path fill="none" stroke="black" d="M194.88,-897.84C203.02,-886.99 212.09,-874.01 219.14,-861.52 316.05,-689.91 397.27,-467.77 428.31,-378.37"/>
<polygon fill="#a13535" stroke="black" points="431.56,-379.67 431.52,-369.07 424.94,-377.38 431.56,-379.67"/>
</g>
<!-- dotenv -->
<g id="node29" class="node">
<title>dotenv</title><style>.edge>path:hover{stroke-width:8}</style>
<polygon fill="#a2b653" stroke="black" points="643.52,-1000.52 640.52,-1004.52 619.52,-1004.52 616.52,-1000.52 589.52,-1000.52 589.52,-964.52 643.52,-964.52 643.52,-1000.52"/>
<text xml:space="preserve" text-anchor="middle" x="616.52" y="-978.65" font-family="Helvetica,sans-Serif" font-size="10.00" fill="#000000">dotenv</text>
</g>
<!-- dashkit_cli_lighthouse&#45;&gt;dotenv -->
<g id="edge39" class="edge">
<title>dashkit_cli_lighthouse&#45;&gt;dotenv</title><style>.edge>path:hover{stroke-width:8}</style>
<path fill="none" stroke="black" d="M443.82,-936.52C491.61,-939.67 544.56,-955.91 578.86,-968.21"/>
<polygon fill="#a13535" stroke="black" points="577.29,-971.36 587.88,-971.52 579.7,-964.79 577.29,-971.36"/>
</g>
<!-- dashkit_framework -->
<g id="node5" class="node">
<title>dashkit_framework</title><style>.edge>path:hover{stroke-width:8}</style>
<ellipse fill="#f31616" stroke="black" cx="897.12" cy="-448.52" rx="43.66" ry="21.57"/>
<text xml:space="preserve" text-anchor="middle" x="897.12" y="-450.27" font-family="Helvetica,sans-Serif" font-size="10.00" fill="#ffffff">dashkit.</text>
<text xml:space="preserve" text-anchor="middle" x="897.12" y="-439.02" font-family="Helvetica,sans-Serif" font-size="10.00" fill="#ffffff">framework</text>
</g>
<!-- dashkit_cli_printer&#45;&gt;dashkit_framework -->
<g id="edge4" class="edge">
<title>dashkit_cli_printer&#45;&gt;dashkit_framework</title><style>.edge>path:hover{stroke-width:8}</style>
<path fill="none" stroke="black" d="M202.4,-840.2C227.11,-853.56 264.15,-868.24 296.74,-859.52"/>
<path fill="none" stroke="black" d="M617.52,-432.52C693.75,-400.53 792.12,-418.29 849.26,-433.7"/>
<polygon fill="#993333" stroke="black" points="848.09,-437 858.67,-436.32 849.98,-430.26 848.09,-437"/>
<path fill="none" stroke="black" d="M298.74,-859.52C410.31,-829.67 315.2,-709.5 376.35,-611.52 431.1,-523.79 455.09,-502.11 545.28,-451.52 573.49,-435.7 586.24,-446.25 615.52,-432.52"/>
</g>
<!-- dashkit_framework_views -->
<g id="node10" class="node">
<title>dashkit_framework_views</title><style>.edge>path:hover{stroke-width:8}</style>
<ellipse fill="#c43131" stroke="black" cx="769.55" cy="-260.52" rx="45.79" ry="29.52"/>
<text xml:space="preserve" text-anchor="middle" x="769.55" y="-267.9" font-family="Helvetica,sans-Serif" font-size="10.00" fill="#ffffff">dashkit.</text>
<text xml:space="preserve" text-anchor="middle" x="769.55" y="-256.65" font-family="Helvetica,sans-Serif" font-size="10.00" fill="#ffffff">framework.</text>
<text xml:space="preserve" text-anchor="middle" x="769.55" y="-245.4" font-family="Helvetica,sans-Serif" font-size="10.00" fill="#ffffff">views</text>
</g>
<!-- dashkit_cli_printer&#45;&gt;dashkit_framework_views -->
<g id="edge12" class="edge">
<title>dashkit_cli_printer&#45;&gt;dashkit_framework_views</title><style>.edge>path:hover{stroke-width:8}</style>
<path fill="none" stroke="black" d="M201.71,-804.63C208.4,-798.97 214.86,-792.18 219.14,-784.52 274.46,-685.62 201.58,-342.05 296.74,-280.52"/>
<path fill="none" stroke="black" d="M298.74,-280.52C315.82,-269.48 591.11,-263.51 712.17,-261.4"/>
<polygon fill="#993333" stroke="black" points="711.94,-264.91 721.88,-261.24 711.82,-257.91 711.94,-264.91"/>
</g>
<!-- dashkit_cli_printer&#45;&gt;dashkit_services -->
<g id="edge28" class="edge">
<title>dashkit_cli_printer&#45;&gt;dashkit_services</title><style>.edge>path:hover{stroke-width:8}</style>
<path fill="none" stroke="black" d="M298.74,-859.52C360.17,-843.09 381.03,-840.84 441.82,-859.52"/>
</g>
<!-- dashkit_cli_printer&#45;&gt;dashkit_services_workspaces -->
<g id="edge33" class="edge">
<title>dashkit_cli_printer&#45;&gt;dashkit_services_workspaces</title><style>.edge>path:hover{stroke-width:8}</style>
<path fill="none" stroke="black" d="M298.74,-280.52C315.82,-269.48 362.92,-291.9 398.45,-312"/>
<polygon fill="#993333" stroke="black" points="396.4,-314.86 406.81,-316.82 399.9,-308.8 396.4,-314.86"/>
</g>
<!-- rich -->
<g id="node30" class="node">
<title>rich</title><style>.edge>path:hover{stroke-width:8}</style>
<polygon fill="blue" stroke="black" points="1159.91,-574.52 1156.91,-578.52 1135.91,-578.52 1132.91,-574.52 1105.91,-574.52 1105.91,-538.52 1159.91,-538.52 1159.91,-574.52"/>
<text xml:space="preserve" text-anchor="middle" x="1132.91" y="-552.65" font-family="Helvetica,sans-Serif" font-size="10.00" fill="white">rich</text>
</g>
<!-- dashkit_cli_printer&#45;&gt;rich -->
<g id="edge40" class="edge">
<title>dashkit_cli_printer&#45;&gt;rich</title><style>.edge>path:hover{stroke-width:8}</style>
<path fill="none" stroke="black" d="M200.68,-803.24C207.22,-797.67 213.86,-791.26 219.14,-784.52 315.69,-661.4 256.73,-570.39 376.35,-469.52 473,-388.02 838.77,-345.82 942.91,-417.52 998.62,-455.89 937.91,-547.2 1004.91,-556.52"/>
</g>
<!-- dashkit_cli_tui&#45;&gt;dashkit_services -->
<g id="edge29" class="edge">
<title>dashkit_cli_tui&#45;&gt;dashkit_services</title><style>.edge>path:hover{stroke-width:8}</style>
<path fill="none" stroke="black" d="M203.84,-761.19C242.62,-781.37 313.26,-816.7 376.35,-840.52 404.69,-851.22 413.86,-847.84 441.82,-859.52"/>
<path fill="none" stroke="black" d="M443.82,-859.52C493.47,-874.78 497.27,-897.69 545.28,-917.52 575.17,-929.87 583.73,-930.62 615.52,-936.52"/>
<path fill="none" stroke="black" d="M770.55,-959.52C856.56,-875.01 783.99,-800.54 851.34,-700.52 854.53,-695.78 858.53,-691.36 862.83,-687.35"/>
<polygon fill="#a83838" stroke="black" points="864.78,-690.29 870.15,-681.16 860.26,-684.94 864.78,-690.29"/>
<path fill="none" stroke="black" d="M617.52,-936.52C634.21,-939.62 756.44,-971.42 768.55,-959.52"/>
</g>
<!-- dashkit_cli_tui&#45;&gt;dashkit_services_workspaces -->
<g id="edge34" class="edge">
<title>dashkit_cli_tui&#45;&gt;dashkit_services_workspaces</title><style>.edge>path:hover{stroke-width:8}</style>
<path fill="none" stroke="black" d="M298.74,-234.52C318.67,-217.96 374.48,-268.41 410.22,-304.74"/>
<polygon fill="#a83838" stroke="black" points="407.43,-306.88 416.91,-311.61 412.45,-302 407.43,-306.88"/>
</g>
<!-- dashkit_tui -->
<g id="node25" class="node">
<title>dashkit_tui</title><style>.edge>path:hover{stroke-width:8}</style>
<ellipse fill="#c24747" stroke="black" cx="442.82" cy="-234.52" rx="36.09" ry="18"/>
<text xml:space="preserve" text-anchor="middle" x="442.82" y="-230.65" font-family="Helvetica,sans-Serif" font-size="10.00" fill="#ffffff">dashkit.tui</text>
</g>
<!-- dashkit_cli_tui&#45;&gt;dashkit_tui -->
<g id="edge35" class="edge">
<title>dashkit_cli_tui&#45;&gt;dashkit_tui</title><style>.edge>path:hover{stroke-width:8}</style>
<path fill="none" stroke="black" d="M298.74,-234.52C326.73,-211.26 369.54,-214.62 401.04,-221.75"/>
<polygon fill="#a83838" stroke="black" points="400.07,-225.12 410.62,-224.14 401.77,-218.33 400.07,-225.12"/>
</g>
<!-- dashkit_tui_app -->
<g id="node26" class="node">
<title>dashkit_tui_app</title><style>.edge>path:hover{stroke-width:8}</style>
<ellipse fill="#822b2b" stroke="black" cx="442.82" cy="-106.52" rx="35.71" ry="29.52"/>
<text xml:space="preserve" text-anchor="middle" x="442.82" y="-113.9" font-family="Helvetica,sans-Serif" font-size="10.00" fill="#ffffff">dashkit.</text>
<text xml:space="preserve" text-anchor="middle" x="442.82" y="-102.65" font-family="Helvetica,sans-Serif" font-size="10.00" fill="#ffffff">tui.</text>
<text xml:space="preserve" text-anchor="middle" x="442.82" y="-91.4" font-family="Helvetica,sans-Serif" font-size="10.00" fill="#ffffff">app</text>
</g>
<!-- dashkit_cli_tui&#45;&gt;dashkit_tui_app -->
<g id="edge36" class="edge">
<title>dashkit_cli_tui&#45;&gt;dashkit_tui_app</title><style>.edge>path:hover{stroke-width:8}</style>
<path fill="none" stroke="black" d="M176.54,-715.71C183.73,-623.33 208.93,-343.42 255.14,-266.52 267.16,-246.53 278.81,-249.43 296.74,-234.52"/>
<path fill="none" stroke="black" d="M298.74,-234.52C338,-201.89 381.49,-162.49 410.1,-136.1"/>
<polygon fill="#a83838" stroke="black" points="412.41,-138.73 417.37,-129.38 407.65,-133.6 412.41,-138.73"/>
</g>
<!-- dashkit_framework_presenters_occurrences_tables -->
<g id="node6" class="node">
<title>dashkit_framework_presenters_occurrences_tables</title><style>.edge>path:hover{stroke-width:8}</style>
<ellipse fill="#8f3d3d" stroke="black" cx="616.52" cy="-497.52" rx="71.24" ry="37.48"/>
<text xml:space="preserve" text-anchor="middle" x="616.52" y="-510.52" font-family="Helvetica,sans-Serif" font-size="10.00" fill="#ffffff">dashkit.</text>
<text xml:space="preserve" text-anchor="middle" x="616.52" y="-499.27" font-family="Helvetica,sans-Serif" font-size="10.00" fill="#ffffff">framework.</text>
<text xml:space="preserve" text-anchor="middle" x="616.52" y="-488.02" font-family="Helvetica,sans-Serif" font-size="10.00" fill="#ffffff">presenters.</text>
<text xml:space="preserve" text-anchor="middle" x="616.52" y="-476.77" font-family="Helvetica,sans-Serif" font-size="10.00" fill="#ffffff">occurrences_tables</text>
</g>
<!-- dashkit_framework_status -->
<g id="node7" class="node">
<title>dashkit_framework_status</title><style>.edge>path:hover{stroke-width:8}</style>
<ellipse fill="#d02424" stroke="black" cx="897.12" cy="-556.52" rx="45.79" ry="29.52"/>
<text xml:space="preserve" text-anchor="middle" x="897.12" y="-563.9" font-family="Helvetica,sans-Serif" font-size="10.00" fill="#ffffff">dashkit.</text>
<text xml:space="preserve" text-anchor="middle" x="897.12" y="-552.65" font-family="Helvetica,sans-Serif" font-size="10.00" fill="#ffffff">framework.</text>
<text xml:space="preserve" text-anchor="middle" x="897.12" y="-541.4" font-family="Helvetica,sans-Serif" font-size="10.00" fill="#ffffff">status</text>
</g>
<!-- dashkit_framework_presenters_occurrences_tables&#45;&gt;dashkit_framework_status -->
<g id="edge8" class="edge">
<title>dashkit_framework_presenters_occurrences_tables&#45;&gt;dashkit_framework_status</title><style>.edge>path:hover{stroke-width:8}</style>
<path fill="none" stroke="black" d="M663.06,-526.35C692.02,-542.28 730.99,-559.47 768.55,-562.52"/>
<path fill="none" stroke="black" d="M770.55,-562.52C793.32,-564.37 818.47,-563.71 840.24,-562.27"/>
<polygon fill="#8f3d3d" stroke="black" points="840.39,-565.77 850.11,-561.55 839.88,-558.79 840.39,-565.77"/>
</g>
<!-- dashkit_framework_presenters_occurrences_tables&#45;&gt;rich -->
<g id="edge41" class="edge">
<title>dashkit_framework_presenters_occurrences_tables&#45;&gt;rich</title><style>.edge>path:hover{stroke-width:8}</style>
<path fill="none" stroke="black" d="M687.28,-491.99C754.45,-488.93 858.05,-490.21 942.91,-517.52 973.89,-527.5 973.09,-549.64 1004.91,-556.52"/>
</g>
<!-- dashkit_framework_status&#45;&gt;rich -->
<g id="edge42" class="edge">
<title>dashkit_framework_status&#45;&gt;rich</title><style>.edge>path:hover{stroke-width:8}</style>
<path fill="none" stroke="black" d="M942.73,-552.34C962.04,-551.6 984.79,-552.17 1004.91,-556.52"/>
</g>
<!-- dashkit_framework_test_utils -->
<g id="node8" class="node">
<title>dashkit_framework_test_utils</title><style>.edge>path:hover{stroke-width:8}</style>
<ellipse fill="#b34c4c" stroke="black" cx="45.79" cy="-1000.52" rx="45.79" ry="29.52"/>
<text xml:space="preserve" text-anchor="middle" x="45.79" y="-1007.9" font-family="Helvetica,sans-Serif" font-size="10.00" fill="#ffffff">dashkit.</text>
<text xml:space="preserve" text-anchor="middle" x="45.79" y="-996.65" font-family="Helvetica,sans-Serif" font-size="10.00" fill="#ffffff">framework.</text>
<text xml:space="preserve" text-anchor="middle" x="45.79" y="-985.4" font-family="Helvetica,sans-Serif" font-size="10.00" fill="#ffffff">test_utils</text>
</g>
<!-- dashkit_framework_utils -->
<g id="node9" class="node">
<title>dashkit_framework_utils</title><style>.edge>path:hover{stroke-width:8}</style>
<ellipse fill="#c24747" stroke="black" cx="173.36" cy="-1000.52" rx="45.79" ry="29.52"/>
<text xml:space="preserve" text-anchor="middle" x="173.36" y="-1007.9" font-family="Helvetica,sans-Serif" font-size="10.00" fill="#ffffff">dashkit.</text>
<text xml:space="preserve" text-anchor="middle" x="173.36" y="-996.65" font-family="Helvetica,sans-Serif" font-size="10.00" fill="#ffffff">framework.</text>
<text xml:space="preserve" text-anchor="middle" x="173.36" y="-985.4" font-family="Helvetica,sans-Serif" font-size="10.00" fill="#ffffff">utils</text>
</g>
<!-- dashkit_framework_test_utils&#45;&gt;dashkit_framework_utils -->
<g id="edge11" class="edge">
<title>dashkit_framework_test_utils&#45;&gt;dashkit_framework_utils</title><style>.edge>path:hover{stroke-width:8}</style>
<path fill="none" stroke="black" d="M91.76,-1000.52C99.61,-1000.52 107.86,-1000.52 115.96,-1000.52"/>
<polygon fill="#b34c4c" stroke="black" points="115.75,-1004.02 125.75,-1000.52 115.75,-997.02 115.75,-1004.02"/>
</g>
<!-- dashkit_framework_views&#45;&gt;rich -->
<g id="edge43" class="edge">
<title>dashkit_framework_views&#45;&gt;rich</title><style>.edge>path:hover{stroke-width:8}</style>
<path fill="none" stroke="black" d="M811.29,-247.92C838.55,-242.22 873.44,-240.59 896.12,-260.52"/>
</g>
<!-- dashkit_modules_lighthouse_runner -->
<g id="node17" class="node">
<title>dashkit_modules_lighthouse_runner</title><style>.edge>path:hover{stroke-width:8}</style>
<ellipse fill="#b03a3a" stroke="black" cx="442.82" cy="-1265.52" rx="44.72" ry="37.48"/>
<text xml:space="preserve" text-anchor="middle" x="442.82" y="-1278.52" font-family="Helvetica,sans-Serif" font-size="10.00" fill="#ffffff">dashkit.</text>
<text xml:space="preserve" text-anchor="middle" x="442.82" y="-1267.27" font-family="Helvetica,sans-Serif" font-size="10.00" fill="#ffffff">modules.</text>
<text xml:space="preserve" text-anchor="middle" x="442.82" y="-1256.02" font-family="Helvetica,sans-Serif" font-size="10.00" fill="#ffffff">lighthouse.</text>
<text xml:space="preserve" text-anchor="middle" x="442.82" y="-1244.77" font-family="Helvetica,sans-Serif" font-size="10.00" fill="#ffffff">runner</text>
</g>
<!-- dashkit_modules_lighthouse&#45;&gt;dashkit_modules_lighthouse_runner -->
<g id="edge22" class="edge">
<title>dashkit_modules_lighthouse&#45;&gt;dashkit_modules_lighthouse_runner</title><style>.edge>path:hover{stroke-width:8}</style>
<path fill="none" stroke="black" d="M329.44,-1192.47C349.25,-1205.35 375.35,-1222.31 397.4,-1236.65"/>
<polygon fill="#ac2b2b" stroke="black" points="395.34,-1239.48 405.63,-1242 399.15,-1233.62 395.34,-1239.48"/>
</g>
<!-- dashkit_modules_lighthouse_widgets -->
<g id="node18" class="node">
<title>dashkit_modules_lighthouse_widgets</title><style>.edge>path:hover{stroke-width:8}</style>
<ellipse fill="#b03a3a" stroke="black" cx="442.82" cy="-1172.52" rx="44.72" ry="37.48"/>
<text xml:space="preserve" text-anchor="middle" x="442.82" y="-1185.52" font-family="Helvetica,sans-Serif" font-size="10.00" fill="#ffffff">dashkit.</text>
<text xml:space="preserve" text-anchor="middle" x="442.82" y="-1174.27" font-family="Helvetica,sans-Serif" font-size="10.00" fill="#ffffff">modules.</text>
<text xml:space="preserve" text-anchor="middle" x="442.82" y="-1163.02" font-family="Helvetica,sans-Serif" font-size="10.00" fill="#ffffff">lighthouse.</text>
<text xml:space="preserve" text-anchor="middle" x="442.82" y="-1151.77" font-family="Helvetica,sans-Serif" font-size="10.00" fill="#ffffff">widgets</text>
</g>
<!-- dashkit_modules_lighthouse&#45;&gt;dashkit_modules_lighthouse_widgets -->
<g id="edge23" class="edge">
<title>dashkit_modules_lighthouse&#45;&gt;dashkit_modules_lighthouse_widgets</title><style>.edge>path:hover{stroke-width:8}</style>
<path fill="none" stroke="black" d="M340.51,-1172.52C354.84,-1172.52 371.11,-1172.52 386.35,-1172.52"/>
<polygon fill="#ac2b2b" stroke="black" points="386.24,-1176.02 396.24,-1172.52 386.24,-1169.02 386.24,-1176.02"/>
</g>
<!-- dashkit_modules_lighthouse_audits -->
<g id="node13" class="node">
<title>dashkit_modules_lighthouse_audits</title><style>.edge>path:hover{stroke-width:8}</style>
<ellipse fill="#db2f2f" stroke="black" cx="769.55" cy="-646.52" rx="44.72" ry="37.48"/>
<text xml:space="preserve" text-anchor="middle" x="769.55" y="-659.52" font-family="Helvetica,sans-Serif" font-size="10.00" fill="#ffffff">dashkit.</text>
<text xml:space="preserve" text-anchor="middle" x="769.55" y="-648.27" font-family="Helvetica,sans-Serif" font-size="10.00" fill="#ffffff">modules.</text>
<text xml:space="preserve" text-anchor="middle" x="769.55" y="-637.02" font-family="Helvetica,sans-Serif" font-size="10.00" fill="#ffffff">lighthouse.</text>
<text xml:space="preserve" text-anchor="middle" x="769.55" y="-625.77" font-family="Helvetica,sans-Serif" font-size="10.00" fill="#ffffff">audits</text>
</g>
<!-- dashkit_modules_lighthouse_categories -->
<g id="node14" class="node">
<title>dashkit_modules_lighthouse_categories</title><style>.edge>path:hover{stroke-width:8}</style>
<ellipse fill="#c04040" stroke="black" cx="616.52" cy="-665.52" rx="44.72" ry="37.48"/>
<text xml:space="preserve" text-anchor="middle" x="616.52" y="-678.52" font-family="Helvetica,sans-Serif" font-size="10.00" fill="#ffffff">dashkit.</text>
<text xml:space="preserve" text-anchor="middle" x="616.52" y="-667.27" font-family="Helvetica,sans-Serif" font-size="10.00" fill="#ffffff">modules.</text>
<text xml:space="preserve" text-anchor="middle" x="616.52" y="-656.02" font-family="Helvetica,sans-Serif" font-size="10.00" fill="#ffffff">lighthouse.</text>
<text xml:space="preserve" text-anchor="middle" x="616.52" y="-644.77" font-family="Helvetica,sans-Serif" font-size="10.00" fill="#ffffff">categories</text>
</g>
<!-- dashkit_modules_lighthouse_categories&#45;&gt;dashkit_modules_lighthouse_audits -->
<g id="edge16" class="edge">
<title>dashkit_modules_lighthouse_categories&#45;&gt;dashkit_modules_lighthouse_audits</title><style>.edge>path:hover{stroke-width:8}</style>
<path fill="none" stroke="black" d="M661.21,-660.03C677.64,-657.96 696.54,-655.58 713.86,-653.4"/>
<polygon fill="#c04040" stroke="black" points="713.98,-656.91 723.46,-652.19 713.11,-649.97 713.98,-656.91"/>
</g>
<!-- dashkit_modules_lighthouse_config -->
<g id="node15" class="node">
<title>dashkit_modules_lighthouse_config</title><style>.edge>path:hover{stroke-width:8}</style>
<ellipse fill="#c24747" stroke="black" cx="616.52" cy="-871.52" rx="44.72" ry="37.48"/>
<text xml:space="preserve" text-anchor="middle" x="616.52" y="-884.52" font-family="Helvetica,sans-Serif" font-size="10.00" fill="#ffffff">dashkit.</text>
<text xml:space="preserve" text-anchor="middle" x="616.52" y="-873.27" font-family="Helvetica,sans-Serif" font-size="10.00" fill="#ffffff">modules.</text>
<text xml:space="preserve" text-anchor="middle" x="616.52" y="-862.02" font-family="Helvetica,sans-Serif" font-size="10.00" fill="#ffffff">lighthouse.</text>
<text xml:space="preserve" text-anchor="middle" x="616.52" y="-850.77" font-family="Helvetica,sans-Serif" font-size="10.00" fill="#ffffff">config</text>
</g>
<!-- dashkit_modules_lighthouse_http -->
<g id="node16" class="node">
<title>dashkit_modules_lighthouse_http</title><style>.edge>path:hover{stroke-width:8}</style>
<ellipse fill="#c24747" stroke="black" cx="616.52" cy="-1265.52" rx="44.72" ry="37.48"/>
<text xml:space="preserve" text-anchor="middle" x="616.52" y="-1278.52" font-family="Helvetica,sans-Serif" font-size="10.00" fill="#ffffff">dashkit.</text>
<text xml:space="preserve" text-anchor="middle" x="616.52" y="-1267.27" font-family="Helvetica,sans-Serif" font-size="10.00" fill="#ffffff">modules.</text>
<text xml:space="preserve" text-anchor="middle" x="616.52" y="-1256.02" font-family="Helvetica,sans-Serif" font-size="10.00" fill="#ffffff">lighthouse.</text>
<text xml:space="preserve" text-anchor="middle" x="616.52" y="-1244.77" font-family="Helvetica,sans-Serif" font-size="10.00" fill="#ffffff">http</text>
</g>
<!-- dashkit_modules_lighthouse_runner&#45;&gt;dashkit_modules_lighthouse_http -->
<g id="edge21" class="edge">
<title>dashkit_modules_lighthouse_runner&#45;&gt;dashkit_modules_lighthouse_http</title><style>.edge>path:hover{stroke-width:8}</style>
<path fill="none" stroke="black" d="M488.03,-1265.52C509.97,-1265.52 536.68,-1265.52 559.98,-1265.52"/>
<polygon fill="#b03a3a" stroke="black" points="559.94,-1269.02 569.94,-1265.52 559.94,-1262.02 559.94,-1269.02"/>
</g>
<!-- dashkit_modules_lighthouse_runner&#45;&gt;dashkit_services -->
<g id="edge30" class="edge">
<title>dashkit_modules_lighthouse_runner&#45;&gt;dashkit_services</title><style>.edge>path:hover{stroke-width:8}</style>
<path fill="none" stroke="black" d="M478.25,-1242.38C488.5,-1235.08 499.58,-1226.76 509.28,-1218.52 633.46,-1113.13 639.47,-1058.86 768.55,-959.52"/>
</g>
<!-- dashkit_services_reports -->
<g id="node23" class="node">
<title>dashkit_services_reports</title><style>.edge>path:hover{stroke-width:8}</style>
<ellipse fill="#c24747" stroke="black" cx="897.12" cy="-1330.52" rx="39.42" ry="29.52"/>
<text xml:space="preserve" text-anchor="middle" x="897.12" y="-1337.9" font-family="Helvetica,sans-Serif" font-size="10.00" fill="#ffffff">dashkit.</text>
<text xml:space="preserve" text-anchor="middle" x="897.12" y="-1326.65" font-family="Helvetica,sans-Serif" font-size="10.00" fill="#ffffff">services.</text>
<text xml:space="preserve" text-anchor="middle" x="897.12" y="-1315.4" font-family="Helvetica,sans-Serif" font-size="10.00" fill="#ffffff">reports</text>
</g>
<!-- dashkit_modules_lighthouse_runner&#45;&gt;dashkit_services_reports -->
<g id="edge31" class="edge">
<title>dashkit_modules_lighthouse_runner&#45;&gt;dashkit_services_reports</title><style>.edge>path:hover{stroke-width:8}</style>
<path fill="none" stroke="black" d="M480.68,-1286.25C499.43,-1295.73 522.93,-1306.05 545.28,-1311.52 650.03,-1337.14 777.4,-1336.44 846.21,-1333.55"/>
<polygon fill="#b03a3a" stroke="black" points="846.2,-1337.05 856.03,-1333.1 845.88,-1330.06 846.2,-1337.05"/>
</g>
<!-- dashkit_modules_lighthouse_widgets_audits -->
<g id="node19" class="node">
<title>dashkit_modules_lighthouse_widgets_audits</title><style>.edge>path:hover{stroke-width:8}</style>
<ellipse fill="#8a2e2e" stroke="black" cx="442.82" cy="-665.52" rx="44.72" ry="45.43"/>
<text xml:space="preserve" text-anchor="middle" x="442.82" y="-684.15" font-family="Helvetica,sans-Serif" font-size="10.00" fill="#ffffff">dashkit.</text>
<text xml:space="preserve" text-anchor="middle" x="442.82" y="-672.9" font-family="Helvetica,sans-Serif" font-size="10.00" fill="#ffffff">modules.</text>
<text xml:space="preserve" text-anchor="middle" x="442.82" y="-661.65" font-family="Helvetica,sans-Serif" font-size="10.00" fill="#ffffff">lighthouse.</text>
<text xml:space="preserve" text-anchor="middle" x="442.82" y="-650.4" font-family="Helvetica,sans-Serif" font-size="10.00" fill="#ffffff">widgets.</text>
<text xml:space="preserve" text-anchor="middle" x="442.82" y="-639.15" font-family="Helvetica,sans-Serif" font-size="10.00" fill="#ffffff">audits</text>
</g>
<!-- dashkit_modules_lighthouse_widgets&#45;&gt;dashkit_modules_lighthouse_widgets_audits -->
<g id="edge24" class="edge">
<title>dashkit_modules_lighthouse_widgets&#45;&gt;dashkit_modules_lighthouse_widgets_audits</title><style>.edge>path:hover{stroke-width:8}</style>
<path fill="none" stroke="black" d="M402.44,-1156.26C385.62,-1147.23 367.83,-1134.19 358.35,-1116.52 338.64,-1079.81 341.39,-779.58 358.35,-741.52 366.33,-723.6 380.87,-708.13 395.65,-695.91"/>
<polygon fill="#b03a3a" stroke="black" points="397.44,-698.96 403.15,-690.03 393.12,-693.45 397.44,-698.96"/>
</g>
<!-- dashkit_modules_lighthouse_widgets_metrics_summary -->
<g id="node20" class="node">
<title>dashkit_modules_lighthouse_widgets_metrics_summary</title><style>.edge>path:hover{stroke-width:8}</style>
<ellipse fill="#8a2e2e" stroke="black" cx="442.82" cy="-786.52" rx="66.47" ry="45.43"/>
<text xml:space="preserve" text-anchor="middle" x="442.82" y="-805.15" font-family="Helvetica,sans-Serif" font-size="10.00" fill="#ffffff">dashkit.</text>
<text xml:space="preserve" text-anchor="middle" x="442.82" y="-793.9" font-family="Helvetica,sans-Serif" font-size="10.00" fill="#ffffff">modules.</text>
<text xml:space="preserve" text-anchor="middle" x="442.82" y="-782.65" font-family="Helvetica,sans-Serif" font-size="10.00" fill="#ffffff">lighthouse.</text>
<text xml:space="preserve" text-anchor="middle" x="442.82" y="-771.4" font-family="Helvetica,sans-Serif" font-size="10.00" fill="#ffffff">widgets.</text>
<text xml:space="preserve" text-anchor="middle" x="442.82" y="-760.15" font-family="Helvetica,sans-Serif" font-size="10.00" fill="#ffffff">metrics_summary</text>
</g>
<!-- dashkit_modules_lighthouse_widgets&#45;&gt;dashkit_modules_lighthouse_widgets_metrics_summary -->
<g id="edge25" class="edge">
<title>dashkit_modules_lighthouse_widgets&#45;&gt;dashkit_modules_lighthouse_widgets_metrics_summary</title><style>.edge>path:hover{stroke-width:8}</style>
<path fill="none" stroke="black" d="M402.44,-1156.26C385.62,-1147.23 367.83,-1134.19 358.35,-1116.52 344.58,-1090.87 345.78,-880.78 358.35,-854.52 364.06,-842.58 373.01,-832.07 382.98,-823.11"/>
<polygon fill="#b03a3a" stroke="black" points="384.97,-826.01 390.39,-816.91 380.48,-820.64 384.97,-826.01"/>
</g>
<!-- dashkit_modules_lighthouse_widgets_thirdparty -->
<g id="node21" class="node">
<title>dashkit_modules_lighthouse_widgets_thirdparty</title><style>.edge>path:hover{stroke-width:8}</style>
<ellipse fill="#a83838" stroke="black" cx="442.82" cy="-1071.52" rx="44.72" ry="45.43"/>
<text xml:space="preserve" text-anchor="middle" x="442.82" y="-1090.15" font-family="Helvetica,sans-Serif" font-size="10.00" fill="#ffffff">dashkit.</text>
<text xml:space="preserve" text-anchor="middle" x="442.82" y="-1078.9" font-family="Helvetica,sans-Serif" font-size="10.00" fill="#ffffff">modules.</text>
<text xml:space="preserve" text-anchor="middle" x="442.82" y="-1067.65" font-family="Helvetica,sans-Serif" font-size="10.00" fill="#ffffff">lighthouse.</text>
<text xml:space="preserve" text-anchor="middle" x="442.82" y="-1056.4" font-family="Helvetica,sans-Serif" font-size="10.00" fill="#ffffff">widgets.</text>
<text xml:space="preserve" text-anchor="middle" x="442.82" y="-1045.15" font-family="Helvetica,sans-Serif" font-size="10.00" fill="#ffffff">thirdparty</text>
</g>
<!-- dashkit_modules_lighthouse_widgets&#45;&gt;dashkit_modules_lighthouse_widgets_thirdparty -->
<g id="edge26" class="edge">
<title>dashkit_modules_lighthouse_widgets&#45;&gt;dashkit_modules_lighthouse_widgets_thirdparty</title><style>.edge>path:hover{stroke-width:8}</style>
<path fill="none" stroke="black" d="M442.82,-1134.55C442.82,-1132.57 442.82,-1130.59 442.82,-1128.61"/>
<polygon fill="#b03a3a" stroke="black" points="446.32,-1128.8 442.82,-1118.8 439.32,-1128.8 446.32,-1128.8"/>
</g>
<!-- dashkit_modules_lighthouse_widgets_audits&#45;&gt;dashkit_framework -->
<g id="edge5" class="edge">
<title>dashkit_modules_lighthouse_widgets_audits&#45;&gt;dashkit_framework</title><style>.edge>path:hover{stroke-width:8}</style>
<path fill="none" stroke="black" d="M470.99,-630.25C483.92,-612.22 498.8,-589.5 509.28,-567.52 532.52,-518.8 506.42,-488.98 545.28,-451.52 568.57,-429.08 585.7,-445.04 615.52,-432.52"/>
</g>
<!-- dashkit_modules_lighthouse_widgets_audits&#45;&gt;dashkit_framework_status -->
<g id="edge9" class="edge">
<title>dashkit_modules_lighthouse_widgets_audits&#45;&gt;dashkit_framework_status</title><style>.edge>path:hover{stroke-width:8}</style>
<path fill="none" stroke="black" d="M476.59,-635.44C495.57,-619.24 520.53,-599.89 545.28,-586.52 574.31,-570.84 582.83,-566.92 615.52,-562.52"/>
<path fill="none" stroke="black" d="M617.52,-562.52C684.05,-553.58 701.65,-557.08 768.55,-562.52"/>
</g>
<!-- dashkit_modules_lighthouse_widgets_audits&#45;&gt;dashkit_modules_lighthouse_audits -->
<g id="edge17" class="edge">
<title>dashkit_modules_lighthouse_widgets_audits&#45;&gt;dashkit_modules_lighthouse_audits</title><style>.edge>path:hover{stroke-width:8}</style>
<path fill="none" stroke="black" d="M617.52,-562.52C660.64,-556.72 703.37,-584.44 732.31,-609.57"/>
<polygon fill="#8a2e2e" stroke="black" points="729.94,-612.14 739.71,-616.23 734.62,-606.94 729.94,-612.14"/>
</g>
<!-- dashkit_modules_lighthouse_widgets_audits&#45;&gt;dashkit_modules_lighthouse_categories -->
<g id="edge19" class="edge">
<title>dashkit_modules_lighthouse_widgets_audits&#45;&gt;dashkit_modules_lighthouse_categories</title><style>.edge>path:hover{stroke-width:8}</style>
<path fill="none" stroke="black" d="M488.03,-665.52C509.97,-665.52 536.68,-665.52 559.98,-665.52"/>
<polygon fill="#8a2e2e" stroke="black" points="559.94,-669.02 569.94,-665.52 559.94,-662.02 559.94,-669.02"/>
</g>
<!-- dashkit_modules_lighthouse_widgets_audits&#45;&gt;rich -->
<g id="edge44" class="edge">
<title>dashkit_modules_lighthouse_widgets_audits&#45;&gt;rich</title><style>.edge>path:hover{stroke-width:8}</style>
<path fill="none" stroke="black" d="M482.92,-686.39C563.12,-728.62 741.01,-819.17 768.55,-806.52"/>
<path fill="none" stroke="black" d="M770.55,-806.52C848.6,-773.21 794.24,-696.3 851.34,-633.52 880.98,-600.92 903.77,-615.77 942.91,-595.52 971.82,-580.56 973.05,-549.84 1004.91,-556.52"/>
</g>
<!-- dashkit_modules_lighthouse_widgets_metrics_summary&#45;&gt;dashkit_framework -->
<g id="edge6" class="edge">
<title>dashkit_modules_lighthouse_widgets_metrics_summary&#45;&gt;dashkit_framework</title><style>.edge>path:hover{stroke-width:8}</style>
<path fill="none" stroke="black" d="M484.3,-750.69C493.39,-741.22 502.38,-730.55 509.28,-719.52 534.36,-679.49 511.02,-652.04 545.28,-619.52 593.27,-573.99 629,-606.89 687.77,-576.52 705.77,-567.21 706.96,-559.86 723.77,-548.52 767.75,-518.86 820.89,-488.84 856.43,-469.55"/>
<polygon fill="#8a2e2e" stroke="black" points="857.95,-472.71 865.08,-464.88 854.62,-466.55 857.95,-472.71"/>
</g>
<!-- dashkit_modules_lighthouse_widgets_metrics_summary&#45;&gt;dashkit_framework_status -->
<g id="edge10" class="edge">
<title>dashkit_modules_lighthouse_widgets_metrics_summary&#45;&gt;dashkit_framework_status</title><style>.edge>path:hover{stroke-width:8}</style>
<path fill="none" stroke="black" d="M617.52,-806.52C718.99,-806.07 749.16,-769.44 815.34,-692.52 843.97,-659.24 827.14,-637.16 851.34,-600.52 854.11,-596.31 857.35,-592.19 860.79,-588.26"/>
<polygon fill="#8a2e2e" stroke="black" points="863.21,-590.79 867.5,-581.1 858.11,-586 863.21,-590.79"/>
<path fill="none" stroke="black" d="M506.86,-799.08C539.25,-804.2 579.41,-808.52 615.52,-806.52"/>
</g>
<!-- dashkit_modules_lighthouse_widgets_metrics_summary&#45;&gt;dashkit_modules_lighthouse_audits -->
<g id="edge18" class="edge">
<title>dashkit_modules_lighthouse_widgets_metrics_summary&#45;&gt;dashkit_modules_lighthouse_audits</title><style>.edge>path:hover{stroke-width:8}</style>
<path fill="none" stroke="black" d="M507.02,-774.03C557.85,-762.39 630.04,-742.16 687.77,-711.52 702.88,-703.5 717.91,-692.47 730.83,-681.78"/>
<polygon fill="#8a2e2e" stroke="black" points="732.92,-684.6 738.27,-675.45 728.38,-679.27 732.92,-684.6"/>
</g>
<!-- dashkit_modules_lighthouse_widgets_metrics_summary&#45;&gt;dashkit_modules_lighthouse_config -->
<g id="edge20" class="edge">
<title>dashkit_modules_lighthouse_widgets_metrics_summary&#45;&gt;dashkit_modules_lighthouse_config</title><style>.edge>path:hover{stroke-width:8}</style>
<path fill="none" stroke="black" d="M497.2,-812.95C519.64,-824.06 545.55,-836.88 567.39,-847.69"/>
<polygon fill="#8a2e2e" stroke="black" points="565.56,-850.69 576.07,-851.99 568.66,-844.42 565.56,-850.69"/>
</g>
<!-- dashkit_modules_lighthouse_widgets_metrics_summary&#45;&gt;rich -->
<g id="edge45" class="edge">
<title>dashkit_modules_lighthouse_widgets_metrics_summary&#45;&gt;rich</title><style>.edge>path:hover{stroke-width:8}</style>
<path fill="none" stroke="black" d="M617.52,-806.52C684.54,-802.82 706.81,-832.87 768.55,-806.52"/>
</g>
<!-- dashkit_modules_lighthouse_widgets_thirdparty&#45;&gt;rich -->
<g id="edge46" class="edge">
<title>dashkit_modules_lighthouse_widgets_thirdparty&#45;&gt;rich</title><style>.edge>path:hover{stroke-width:8}</style>
<path fill="none" stroke="black" d="M487.76,-1071.73C563.52,-1069.77 719.8,-1055.28 815.34,-973.52 918.62,-885.14 886.87,-819.38 942.91,-695.52 970.79,-633.89 938.7,-542.63 1004.91,-556.52"/>
</g>
<!-- yaml -->
<g id="node32" class="node">
<title>yaml</title><style>.edge>path:hover{stroke-width:8}</style>
<polygon fill="#a253b6" stroke="black" points="924.12,-370.52 921.12,-374.52 900.12,-374.52 897.12,-370.52 870.12,-370.52 870.12,-334.52 924.12,-334.52 924.12,-370.52"/>
<text xml:space="preserve" text-anchor="middle" x="897.12" y="-348.65" font-family="Helvetica,sans-Serif" font-size="10.00" fill="#ffffff">yaml</text>
</g>
<!-- dashkit_services_workspaces&#45;&gt;yaml -->
<g id="edge51" class="edge">
<title>dashkit_services_workspaces&#45;&gt;yaml</title><style>.edge>path:hover{stroke-width:8}</style>
<path fill="none" stroke="black" d="M491.36,-339.99C581.64,-342.79 776.14,-348.81 858.28,-351.35"/>
<polygon fill="#d92626" stroke="black" points="858.17,-354.85 868.28,-351.66 858.39,-347.85 858.17,-354.85"/>
</g>
<!-- dashkit_tui_app&#45;&gt;dashkit_framework -->
<g id="edge7" class="edge">
<title>dashkit_tui_app&#45;&gt;dashkit_framework</title><style>.edge>path:hover{stroke-width:8}</style>
<path fill="none" stroke="black" d="M469.76,-126.14C547.29,-184.76 777.18,-358.59 863.17,-423.61"/>
<polygon fill="#822b2b" stroke="black" points="860.92,-426.3 871.01,-429.54 865.14,-420.71 860.92,-426.3"/>
</g>
<!-- dashkit_tui_app&#45;&gt;dashkit_framework_views -->
<g id="edge13" class="edge">
<title>dashkit_tui_app&#45;&gt;dashkit_framework_views</title><style>.edge>path:hover{stroke-width:8}</style>
<path fill="none" stroke="black" d="M617.52,-164.52C660.47,-178.42 703.31,-207.46 732.33,-229.98"/>
<polygon fill="#822b2b" stroke="black" points="730.05,-232.64 740.07,-236.1 734.39,-227.15 730.05,-232.64"/>
</g>
<!-- dashkit_tui_parsers -->
<g id="node27" class="node">
<title>dashkit_tui_parsers</title><style>.edge>path:hover{stroke-width:8}</style>
<ellipse fill="#c24747" stroke="black" cx="616.52" cy="-106.52" rx="35.71" ry="29.52"/>
<text xml:space="preserve" text-anchor="middle" x="616.52" y="-113.9" font-family="Helvetica,sans-Serif" font-size="10.00" fill="#ffffff">dashkit.</text>
<text xml:space="preserve" text-anchor="middle" x="616.52" y="-102.65" font-family="Helvetica,sans-Serif" font-size="10.00" fill="#ffffff">tui.</text>
<text xml:space="preserve" text-anchor="middle" x="616.52" y="-91.4" font-family="Helvetica,sans-Serif" font-size="10.00" fill="#ffffff">parsers</text>
</g>
<!-- dashkit_tui_app&#45;&gt;dashkit_tui_parsers -->
<g id="edge37" class="edge">
<title>dashkit_tui_app&#45;&gt;dashkit_tui_parsers</title><style>.edge>path:hover{stroke-width:8}</style>
<path fill="none" stroke="black" d="M478.98,-106.52C505.02,-106.52 540.76,-106.52 569.14,-106.52"/>
<polygon fill="#822b2b" stroke="black" points="568.9,-110.02 578.9,-106.52 568.9,-103.02 568.9,-110.02"/>
</g>
<!-- dashkit_tui_sidebar -->
<g id="node28" class="node">
<title>dashkit_tui_sidebar</title><style>.edge>path:hover{stroke-width:8}</style>
<ellipse fill="#a83838" stroke="black" cx="616.52" cy="-29.52" rx="35.71" ry="29.52"/>
<text xml:space="preserve" text-anchor="middle" x="616.52" y="-36.9" font-family="Helvetica,sans-Serif" font-size="10.00" fill="#ffffff">dashkit.</text>
<text xml:space="preserve" text-anchor="middle" x="616.52" y="-25.65" font-family="Helvetica,sans-Serif" font-size="10.00" fill="#ffffff">tui.</text>
<text xml:space="preserve" text-anchor="middle" x="616.52" y="-14.4" font-family="Helvetica,sans-Serif" font-size="10.00" fill="#ffffff">sidebar</text>
</g>
<!-- dashkit_tui_app&#45;&gt;dashkit_tui_sidebar -->
<g id="edge38" class="edge">
<title>dashkit_tui_app&#45;&gt;dashkit_tui_sidebar</title><style>.edge>path:hover{stroke-width:8}</style>
<path fill="none" stroke="black" d="M474.51,-92.76C502.3,-80.3 543.45,-61.84 574.13,-48.08"/>
<polygon fill="#822b2b" stroke="black" points="575.44,-51.33 583.13,-44.05 572.58,-44.95 575.44,-51.33"/>
</g>
<!-- textual -->
<g id="node31" class="node">
<title>textual</title><style>.edge>path:hover{stroke-width:8}</style>
<polygon fill="blue" stroke="black" points="1032.91,-353.52 1029.91,-357.52 1008.91,-357.52 1005.91,-353.52 978.91,-353.52 978.91,-317.52 1032.91,-317.52 1032.91,-353.52"/>
<text xml:space="preserve" text-anchor="middle" x="1005.91" y="-331.65" font-family="Helvetica,sans-Serif" font-size="10.00" fill="white">textual</text>
</g>
<!-- dashkit_tui_app&#45;&gt;textual -->
<g id="edge49" class="edge">
<title>dashkit_tui_app&#45;&gt;textual</title><style>.edge>path:hover{stroke-width:8}</style>
<path fill="none" stroke="black" d="M475.05,-119.48C494.97,-127.51 521.42,-137.73 545.28,-145.52 576.03,-155.56 584.76,-154.56 615.52,-164.52"/>
<path fill="none" stroke="black" d="M617.52,-164.52C681.38,-185.2 706.75,-138.32 768.55,-164.52"/>
</g>
<!-- dashkit_tui_sidebar&#45;&gt;rich -->
<g id="edge47" class="edge">
<title>dashkit_tui_sidebar&#45;&gt;rich</title><style>.edge>path:hover{stroke-width:8}</style>
<path fill="none" stroke="black" d="M649.76,-40.74C663.14,-46.82 677.83,-55.59 687.77,-67.52 720.95,-107.38 689.46,-139.62 723.77,-178.52 753.5,-212.24 774.74,-202.19 815.34,-221.52 851.33,-238.66 866.17,-234.2 896.12,-260.52"/>
<path fill="none" stroke="black" d="M898.12,-260.52C924.36,-283.8 928.19,-293.67 942.91,-325.52 987.49,-422.02 900.87,-534.69 1004.91,-556.52"/>
<path fill="none" stroke="black" d="M1006.91,-556.52C1033.87,-562.18 1045.06,-542.72 1068.91,-556.52"/>
</g>
<!-- dashkit_tui_sidebar&#45;&gt;textual -->
<g id="edge50" class="edge">
<title>dashkit_tui_sidebar&#45;&gt;textual</title><style>.edge>path:hover{stroke-width:8}</style>
<path fill="none" stroke="black" d="M770.55,-164.52C853.56,-182.02 878.2,-191.67 942.91,-246.52 962.78,-263.37 979.29,-288.01 990.25,-307.09"/>
<polygon fill="#a83838" stroke="black" points="987.12,-308.66 995.03,-315.71 993.25,-305.27 987.12,-308.66"/>
<path fill="none" stroke="black" d="M648.49,-43.07C661.34,-49.48 675.97,-57.86 687.77,-67.52 731.17,-103.07 716.9,-142.62 768.55,-164.52"/>
</g>
<!-- textual&#45;&gt;rich -->
<g id="edge48" class="edge">
<title>textual&#45;&gt;rich</title><style>.edge>path:hover{stroke-width:8}</style>
<path fill="none" stroke="black" d="M1008.84,-353.73C1014.52,-402.84 1033.04,-535.76 1068.91,-556.52"/>
<path fill="none" stroke="black" d="M1069.91,-556.52C1077.21,-560.75 1085.85,-562.39 1094.33,-562.62"/>
<polygon fill="blue" stroke="black" points="1094.27,-566.13 1104.13,-562.25 1094.01,-559.13 1094.27,-566.13"/>
</g>
</g>
</svg>
