<?xml version="1.0" encoding="UTF-8" standalone="no"?>
<!DOCTYPE svg PUBLIC "-//W3C//DTD SVG 1.1//EN"
 "http://www.w3.org/Graphics/SVG/1.1/DTD/svg11.dtd">
<!-- Generated by graphviz version 14.1.2 (20260124.0452)
 -->
<!-- Title: G Pages: 1 -->
<svg width="1080pt" height="1125pt"
 viewBox="0.00 0.00 1080.00 1125.00" xmlns="http://www.w3.org/2000/svg" xmlns:xlink="http://www.w3.org/1999/xlink">
<g id="graph0" class="graph" transform="scale(1 1) rotate(0) translate(4 1121.04)">
<title>G</title><style>.edge>path:hover{stroke-width:8}</style>
<polygon fill="white" stroke="none" points="-4,4 -4,-1121.04 1075.72,-1121.04 1075.72,4 -4,4"/>
<!-- dotenv -->
<g id="node1" class="node">
<title>dotenv</title><style>.edge>path:hover{stroke-width:8}</style>
<polygon fill="#b65353" stroke="black" points="573.07,-909.52 570.07,-913.52 549.07,-913.52 546.07,-909.52 519.07,-909.52 519.07,-873.52 573.07,-873.52 573.07,-909.52"/>
<text xml:space="preserve" text-anchor="middle" x="546.07" y="-887.65" font-family="Helvetica,sans-Serif" font-size="10.00" fill="#ffffff">dotenv</text>
</g>
<!-- framework -->
<g id="node2" class="node">
<title>framework</title><style>.edge>path:hover{stroke-width:8}</style>
<polygon fill="#b6b653" stroke="black" points="944.72,-613.52 941.72,-617.52 920.72,-617.52 917.72,-613.52 882.97,-613.52 882.97,-577.52 944.72,-577.52 944.72,-613.52"/>
<text xml:space="preserve" text-anchor="middle" x="913.84" y="-591.65" font-family="Helvetica,sans-Serif" font-size="10.00" fill="#000000">framework</text>
</g>
<!-- rich -->
<g id="node3" class="node">
<title>rich</title><style>.edge>path:hover{stroke-width:8}</style>
<polygon fill="blue" stroke="black" points="1071.72,-536.52 1068.72,-540.52 1047.72,-540.52 1044.72,-536.52 1017.72,-536.52 1017.72,-500.52 1071.72,-500.52 1071.72,-536.52"/>
<text xml:space="preserve" text-anchor="middle" x="1044.72" y="-514.65" font-family="Helvetica,sans-Serif" font-size="10.00" fill="white">rich</text>
</g>
<!-- framework&#45;&gt;rich -->
<g id="edge3" class="edge">
<title>framework&#45;&gt;rich</title><style>.edge>path:hover{stroke-width:8}</style>
<path fill="none" stroke="black" d="M936.28,-577.17C939.21,-574.37 942.11,-571.44 944.72,-568.52 962.98,-548.12 953.79,-523.48 980.72,-518.52"/>
</g>
<!-- src_cli -->
<g id="node4" class="node">
<title>src_cli</title><style>.edge>path:hover{stroke-width:8}</style>
<ellipse fill="#3ab0b0" stroke="black" cx="27" cy="-750.52" rx="27" ry="18"/>
<text xml:space="preserve" text-anchor="middle" x="27" y="-746.65" font-family="Helvetica,sans-Serif" font-size="10.00" fill="#000000">src.cli</text>
</g>
<!-- src_cli_dashkit -->
<g id="node5" class="node">
<title>src_cli_dashkit</title><style>.edge>path:hover{stroke-width:8}</style>
<ellipse fill="#38a8a8" stroke="black" cx="132.6" cy="-750.52" rx="33.59" ry="29.52"/>
<text xml:space="preserve" text-anchor="middle" x="132.6" y="-757.9" font-family="Helvetica,sans-Serif" font-size="10.00" fill="#000000">src.</text>
<text xml:space="preserve" text-anchor="middle" x="132.6" y="-746.65" font-family="Helvetica,sans-Serif" font-size="10.00" fill="#000000">cli.</text>
<text xml:space="preserve" text-anchor="middle" x="132.6" y="-735.4" font-family="Helvetica,sans-Serif" font-size="10.00" fill="#000000">dashkit</text>
</g>
<!-- src_cli&#45;&gt;src_cli_dashkit -->
<g id="edge12" class="edge">
<title>src_cli&#45;&gt;src_cli_dashkit</title><style>.edge>path:hover{stroke-width:8}</style>
<path fill="none" stroke="black" d="M54.41,-750.52C64.38,-750.52 76.01,-750.52 87.18,-750.52"/>
<polygon fill="#3ab0b0" stroke="black" points="87.04,-754.02 97.04,-750.52 87.04,-747.02 87.04,-754.02"/>
</g>
<!-- src_cli_lighthouse -->
<g id="node6" class="node">
<title>src_cli_lighthouse</title><style>.edge>path:hover{stroke-width:8}</style>
<ellipse fill="#35a1a1" stroke="black" cx="132.6" cy="-864.52" rx="42.6" ry="29.52"/>
<text xml:space="preserve" text-anchor="middle" x="132.6" y="-871.9" font-family="Helvetica,sans-Serif" font-size="10.00" fill="#000000">src.</text>
<text xml:space="preserve" text-anchor="middle" x="132.6" y="-860.65" font-family="Helvetica,sans-Serif" font-size="10.00" fill="#000000">cli.</text>
<text xml:space="preserve" text-anchor="middle" x="132.6" y="-849.4" font-family="Helvetica,sans-Serif" font-size="10.00" fill="#000000">lighthouse</text>
</g>
<!-- src_cli&#45;&gt;src_cli_lighthouse -->
<g id="edge13" class="edge">
<title>src_cli&#45;&gt;src_cli_lighthouse</title><style>.edge>path:hover{stroke-width:8}</style>
<path fill="none" stroke="black" d="M41.97,-765.9C57.19,-782.64 81.97,-809.91 101.63,-831.54"/>
<polygon fill="#3ab0b0" stroke="black" points="98.81,-833.65 108.13,-838.69 103.99,-828.94 98.81,-833.65"/>
</g>
<!-- src_cli_printer -->
<g id="node7" class="node">
<title>src_cli_printer</title><style>.edge>path:hover{stroke-width:8}</style>
<ellipse fill="#339999" stroke="black" cx="132.6" cy="-664.52" rx="30.41" ry="29.52"/>
<text xml:space="preserve" text-anchor="middle" x="132.6" y="-671.9" font-family="Helvetica,sans-Serif" font-size="10.00" fill="#ffffff">src.</text>
<text xml:space="preserve" text-anchor="middle" x="132.6" y="-660.65" font-family="Helvetica,sans-Serif" font-size="10.00" fill="#ffffff">cli.</text>
<text xml:space="preserve" text-anchor="middle" x="132.6" y="-649.4" font-family="Helvetica,sans-Serif" font-size="10.00" fill="#ffffff">printer</text>
</g>
<!-- src_cli&#45;&gt;src_cli_printer -->
<g id="edge14" class="edge">
<title>src_cli&#45;&gt;src_cli_printer</title><style>.edge>path:hover{stroke-width:8}</style>
<path fill="none" stroke="black" d="M44.65,-736.7C59.59,-724.3 81.92,-705.76 100.21,-690.58"/>
<polygon fill="#3ab0b0" stroke="black" points="102.2,-693.48 107.65,-684.4 97.72,-688.1 102.2,-693.48"/>
</g>
<!-- src_dashkit -->
<g id="node8" class="node">
<title>src_dashkit</title><style>.edge>path:hover{stroke-width:8}</style>
<ellipse fill="#47c2c2" stroke="black" cx="398.88" cy="-780.52" rx="37.87" ry="18"/>
<text xml:space="preserve" text-anchor="middle" x="398.88" y="-776.65" font-family="Helvetica,sans-Serif" font-size="10.00" fill="#000000">src.dashkit</text>
</g>
<!-- src_cli_dashkit&#45;&gt;src_dashkit -->
<g id="edge15" class="edge">
<title>src_cli_dashkit&#45;&gt;src_dashkit</title><style>.edge>path:hover{stroke-width:8}</style>
<path fill="none" stroke="black" d="M254.81,-750.52C289.65,-750.16 328.26,-758.81 356.59,-766.92"/>
<polygon fill="#38a8a8" stroke="black" points="355.26,-770.17 365.84,-769.66 357.25,-763.46 355.26,-770.17"/>
</g>
<!-- src_dashkit_app -->
<g id="node9" class="node">
<title>src_dashkit_app</title><style>.edge>path:hover{stroke-width:8}</style>
<ellipse fill="#2e8a8a" stroke="black" cx="398.88" cy="-598.52" rx="35.71" ry="29.52"/>
<text xml:space="preserve" text-anchor="middle" x="398.88" y="-605.9" font-family="Helvetica,sans-Serif" font-size="10.00" fill="#ffffff">src.</text>
<text xml:space="preserve" text-anchor="middle" x="398.88" y="-594.65" font-family="Helvetica,sans-Serif" font-size="10.00" fill="#ffffff">dashkit.</text>
<text xml:space="preserve" text-anchor="middle" x="398.88" y="-583.4" font-family="Helvetica,sans-Serif" font-size="10.00" fill="#ffffff">app</text>
</g>
<!-- src_cli_dashkit&#45;&gt;src_dashkit_app -->
<g id="edge16" class="edge">
<title>src_cli_dashkit&#45;&gt;src_dashkit_app</title><style>.edge>path:hover{stroke-width:8}</style>
<path fill="none" stroke="black" d="M161.39,-734.54C208.7,-707.33 305.01,-651.94 358.99,-620.89"/>
<polygon fill="#38a8a8" stroke="black" points="360.63,-623.98 367.56,-615.96 357.14,-617.91 360.63,-623.98"/>
</g>
<!-- src_services -->
<g id="node26" class="node">
<title>src_services</title><style>.edge>path:hover{stroke-width:8}</style>
<ellipse fill="#22e7e7" stroke="black" cx="800.67" cy="-861.52" rx="40.97" ry="18"/>
<text xml:space="preserve" text-anchor="middle" x="800.67" y="-857.65" font-family="Helvetica,sans-Serif" font-size="10.00" fill="#000000">src.services</text>
</g>
<!-- src_cli_dashkit&#45;&gt;src_services -->
<g id="edge38" class="edge">
<title>src_cli_dashkit&#45;&gt;src_services</title><style>.edge>path:hover{stroke-width:8}</style>
<path fill="none" stroke="black" d="M547.07,-845.52C617.19,-845.52 698.04,-851.74 749,-856.42"/>
<polygon fill="#38a8a8" stroke="black" points="748.55,-859.89 758.83,-857.34 749.2,-852.93 748.55,-859.89"/>
<path fill="none" stroke="black" d="M164.02,-762.11C231.48,-786.79 399.21,-842.55 545.07,-845.52"/>
</g>
<!-- src_services_workspaces -->
<g id="node28" class="node">
<title>src_services_workspaces</title><style>.edge>path:hover{stroke-width:8}</style>
<ellipse fill="#26d9d9" stroke="black" cx="398.88" cy="-714.52" rx="48.44" ry="29.52"/>
<text xml:space="preserve" text-anchor="middle" x="398.88" y="-721.9" font-family="Helvetica,sans-Serif" font-size="10.00" fill="#000000">src.</text>
<text xml:space="preserve" text-anchor="middle" x="398.88" y="-710.65" font-family="Helvetica,sans-Serif" font-size="10.00" fill="#000000">services.</text>
<text xml:space="preserve" text-anchor="middle" x="398.88" y="-699.4" font-family="Helvetica,sans-Serif" font-size="10.00" fill="#000000">workspaces</text>
</g>
<!-- src_cli_dashkit&#45;&gt;src_services_workspaces -->
<g id="edge43" class="edge">
<title>src_cli_dashkit&#45;&gt;src_services_workspaces</title><style>.edge>path:hover{stroke-width:8}</style>
<path fill="none" stroke="black" d="M166.49,-750.7C190.43,-750.79 223.63,-750.82 252.81,-750.52"/>
<path fill="none" stroke="black" d="M254.81,-750.52C285.87,-750.2 319.62,-742.1 346.53,-733.67"/>
<polygon fill="#38a8a8" stroke="black" points="347.37,-737.08 355.8,-730.65 345.21,-730.42 347.37,-737.08"/>
</g>
<!-- src_cli_lighthouse&#45;&gt;dotenv -->
<g id="edge1" class="edge">
<title>src_cli_lighthouse&#45;&gt;dotenv</title><style>.edge>path:hover{stroke-width:8}</style>
<path fill="none" stroke="black" d="M399.88,-864.52C437,-865.03 478.57,-873.6 507.69,-880.95"/>
<polygon fill="#35a1a1" stroke="black" points="506.56,-884.27 517.12,-883.41 508.33,-877.5 506.56,-884.27"/>
</g>
<!-- src_modules -->
<g id="node15" class="node">
<title>src_modules</title><style>.edge>path:hover{stroke-width:8}</style>
<ellipse fill="#3bcece" stroke="black" cx="398.88" cy="-1095.52" rx="40.97" ry="18"/>
<text xml:space="preserve" text-anchor="middle" x="398.88" y="-1091.65" font-family="Helvetica,sans-Serif" font-size="10.00" fill="#000000">src.modules</text>
</g>
<!-- src_cli_lighthouse&#45;&gt;src_modules -->
<g id="edge25" class="edge">
<title>src_cli_lighthouse&#45;&gt;src_modules</title><style>.edge>path:hover{stroke-width:8}</style>
<path fill="none" stroke="black" d="M151.11,-891.54C165.87,-913.39 188.21,-944.38 211.21,-968.52 259.37,-1019.09 272.53,-1032.59 332.41,-1068.52 339.59,-1072.83 347.58,-1076.75 355.44,-1080.19"/>
<polygon fill="#35a1a1" stroke="black" points="354.01,-1083.39 364.59,-1084 356.7,-1076.93 354.01,-1083.39"/>
</g>
<!-- src_modules_lighthouse -->
<g id="node16" class="node">
<title>src_modules_lighthouse</title><style>.edge>path:hover{stroke-width:8}</style>
<ellipse fill="#2bacac" stroke="black" cx="253.81" cy="-929.52" rx="42.6" ry="29.52"/>
<text xml:space="preserve" text-anchor="middle" x="253.81" y="-936.9" font-family="Helvetica,sans-Serif" font-size="10.00" fill="#000000">src.</text>
<text xml:space="preserve" text-anchor="middle" x="253.81" y="-925.65" font-family="Helvetica,sans-Serif" font-size="10.00" fill="#000000">modules.</text>
<text xml:space="preserve" text-anchor="middle" x="253.81" y="-914.4" font-family="Helvetica,sans-Serif" font-size="10.00" fill="#000000">lighthouse</text>
</g>
<!-- src_cli_lighthouse&#45;&gt;src_modules_lighthouse -->
<g id="edge26" class="edge">
<title>src_cli_lighthouse&#45;&gt;src_modules_lighthouse</title><style>.edge>path:hover{stroke-width:8}</style>
<path fill="none" stroke="black" d="M166.81,-882.63C180.11,-889.88 195.62,-898.34 209.77,-906.05"/>
<polygon fill="#35a1a1" stroke="black" points="208,-909.07 218.45,-910.79 211.35,-902.93 208,-909.07"/>
</g>
<!-- src_cli_lighthouse&#45;&gt;src_services -->
<g id="edge39" class="edge">
<title>src_cli_lighthouse&#45;&gt;src_services</title><style>.edge>path:hover{stroke-width:8}</style>
<path fill="none" stroke="black" d="M399.88,-864.52C464.95,-865.41 479.99,-845.52 545.07,-845.52"/>
<path fill="none" stroke="black" d="M175.26,-864.17C227.33,-863.82 319.2,-863.45 397.88,-864.52"/>
</g>
<!-- src_cli_lighthouse&#45;&gt;src_services_workspaces -->
<g id="edge44" class="edge">
<title>src_cli_lighthouse&#45;&gt;src_services_workspaces</title><style>.edge>path:hover{stroke-width:8}</style>
<path fill="none" stroke="black" d="M166.27,-845.98C213.24,-819.32 300,-770.08 352.96,-740.02"/>
<polygon fill="#35a1a1" stroke="black" points="354.48,-743.18 361.45,-735.2 351.02,-737.09 354.48,-743.18"/>
</g>
<!-- src_cli_printer&#45;&gt;rich -->
<g id="edge4" class="edge">
<title>src_cli_printer&#45;&gt;rich</title><style>.edge>path:hover{stroke-width:8}</style>
<path fill="none" stroke="black" d="M673.58,-87.52C729.47,-83.35 759.11,-48.86 799.67,-87.52"/>
<path fill="none" stroke="black" d="M547.07,-87.52C600.98,-75.02 616.4,-91.64 671.58,-87.52"/>
</g>
<!-- src_framework -->
<g id="node12" class="node">
<title>src_framework</title><style>.edge>path:hover{stroke-width:8}</style>
<ellipse fill="#2fdbdb" stroke="black" cx="800.67" cy="-293.52" rx="46.3" ry="18"/>
<text xml:space="preserve" text-anchor="middle" x="800.67" y="-289.65" font-family="Helvetica,sans-Serif" font-size="10.00" fill="#000000">src.framework</text>
</g>
<!-- src_cli_printer&#45;&gt;src_framework -->
<g id="edge19" class="edge">
<title>src_cli_printer&#45;&gt;src_framework</title><style>.edge>path:hover{stroke-width:8}</style>
<path fill="none" stroke="black" d="M547.07,-87.52C566.61,-82.97 702.98,-131.66 718.37,-144.52 756.59,-176.47 779.79,-231.21 791.13,-264.7"/>
<polygon fill="#339999" stroke="black" points="787.78,-265.71 794.19,-274.15 794.44,-263.55 787.78,-265.71"/>
</g>
<!-- src_framework_views -->
<g id="node14" class="node">
<title>src_framework_views</title><style>.edge>path:hover{stroke-width:8}</style>
<ellipse fill="#3db8b8" stroke="black" cx="672.58" cy="-29.52" rx="45.79" ry="29.52"/>
<text xml:space="preserve" text-anchor="middle" x="672.58" y="-36.9" font-family="Helvetica,sans-Serif" font-size="10.00" fill="#000000">src.</text>
<text xml:space="preserve" text-anchor="middle" x="672.58" y="-25.65" font-family="Helvetica,sans-Serif" font-size="10.00" fill="#000000">framework.</text>
<text xml:space="preserve" text-anchor="middle" x="672.58" y="-14.4" font-family="Helvetica,sans-Serif" font-size="10.00" fill="#000000">views</text>
</g>
<!-- src_cli_printer&#45;&gt;src_framework_views -->
<g id="edge24" class="edge">
<title>src_cli_printer&#45;&gt;src_framework_views</title><style>.edge>path:hover{stroke-width:8}</style>
<path fill="none" stroke="black" d="M547.07,-87.52C577.74,-86.71 609.02,-72.08 632.56,-57.71"/>
<polygon fill="#339999" stroke="black" points="634.31,-60.74 640.87,-52.42 630.55,-54.84 634.31,-60.74"/>
<path fill="none" stroke="black" d="M139.33,-635.52C164.1,-519.49 273.26,-94.68 545.07,-87.52"/>
</g>
<!-- src_cli_printer&#45;&gt;src_services -->
<g id="edge40" class="edge">
<title>src_cli_printer&#45;&gt;src_services</title><style>.edge>path:hover{stroke-width:8}</style>
<path fill="none" stroke="black" d="M254.81,-656.52C348.56,-662.69 384.99,-626.84 465.35,-675.52 490.65,-690.85 478.82,-712.34 501.35,-731.52 577.24,-796.12 690.2,-833.42 753.1,-850.37"/>
<polygon fill="#339999" stroke="black" points="751.84,-853.66 762.4,-852.82 753.62,-846.89 751.84,-853.66"/>
<path fill="none" stroke="black" d="M163.01,-660.21C187.14,-657.24 222.2,-654.2 252.81,-656.52"/>
</g>
<!-- src_cli_printer&#45;&gt;src_services_workspaces -->
<g id="edge45" class="edge">
<title>src_cli_printer&#45;&gt;src_services_workspaces</title><style>.edge>path:hover{stroke-width:8}</style>
<path fill="none" stroke="black" d="M254.81,-656.52C289.91,-658.83 326.62,-674.01 354.07,-688.27"/>
<polygon fill="#339999" stroke="black" points="352.31,-691.3 362.78,-692.94 355.62,-685.13 352.31,-691.3"/>
</g>
<!-- src_dashkit_app&#45;&gt;framework -->
<g id="edge2" class="edge">
<title>src_dashkit_app&#45;&gt;framework</title><style>.edge>path:hover{stroke-width:8}</style>
<path fill="none" stroke="black" d="M429.7,-614.15C441.84,-621.56 455.34,-631.27 465.35,-642.52 488.6,-668.66 471.49,-694.3 501.35,-712.52 535.28,-733.23 551.53,-718.72 590.8,-712.52 709.01,-693.85 736.5,-675.56 846.97,-629.52 855.32,-626.04 864.06,-621.91 872.33,-617.74"/>
<polygon fill="#2e8a8a" stroke="black" points="873.88,-620.88 881.16,-613.19 870.67,-614.66 873.88,-620.88"/>
</g>
<!-- src_dashkit_parsers -->
<g id="node10" class="node">
<title>src_dashkit_parsers</title><style>.edge>path:hover{stroke-width:8}</style>
<ellipse fill="#47c2c2" stroke="black" cx="546.07" cy="-673.52" rx="35.71" ry="29.52"/>
<text xml:space="preserve" text-anchor="middle" x="546.07" y="-680.9" font-family="Helvetica,sans-Serif" font-size="10.00" fill="#000000">src.</text>
<text xml:space="preserve" text-anchor="middle" x="546.07" y="-669.65" font-family="Helvetica,sans-Serif" font-size="10.00" fill="#000000">dashkit.</text>
<text xml:space="preserve" text-anchor="middle" x="546.07" y="-658.4" font-family="Helvetica,sans-Serif" font-size="10.00" fill="#000000">parsers</text>
</g>
<!-- src_dashkit_app&#45;&gt;src_dashkit_parsers -->
<g id="edge17" class="edge">
<title>src_dashkit_app&#45;&gt;src_dashkit_parsers</title><style>.edge>path:hover{stroke-width:8}</style>
<path fill="none" stroke="black" d="M429.61,-613.88C451.44,-625.15 481.32,-640.59 505.21,-652.93"/>
<polygon fill="#2e8a8a" stroke="black" points="503.55,-656.01 514.04,-657.49 506.76,-649.79 503.55,-656.01"/>
</g>
<!-- src_dashkit_sidebar -->
<g id="node11" class="node">
<title>src_dashkit_sidebar</title><style>.edge>path:hover{stroke-width:8}</style>
<ellipse fill="#38a8a8" stroke="black" cx="546.07" cy="-557.52" rx="35.71" ry="29.52"/>
<text xml:space="preserve" text-anchor="middle" x="546.07" y="-564.9" font-family="Helvetica,sans-Serif" font-size="10.00" fill="#000000">src.</text>
<text xml:space="preserve" text-anchor="middle" x="546.07" y="-553.65" font-family="Helvetica,sans-Serif" font-size="10.00" fill="#000000">dashkit.</text>
<text xml:space="preserve" text-anchor="middle" x="546.07" y="-542.4" font-family="Helvetica,sans-Serif" font-size="10.00" fill="#000000">sidebar</text>
</g>
<!-- src_dashkit_app&#45;&gt;src_dashkit_sidebar -->
<g id="edge18" class="edge">
<title>src_dashkit_app&#45;&gt;src_dashkit_sidebar</title><style>.edge>path:hover{stroke-width:8}</style>
<path fill="none" stroke="black" d="M433.19,-589.12C453.3,-583.44 479.15,-576.14 500.95,-569.98"/>
<polygon fill="#2e8a8a" stroke="black" points="501.79,-573.38 510.46,-567.3 499.89,-566.64 501.79,-573.38"/>
</g>
<!-- textual -->
<g id="node29" class="node">
<title>textual</title><style>.edge>path:hover{stroke-width:8}</style>
<polygon fill="blue" stroke="black" points="940.84,-559.52 937.84,-563.52 916.84,-563.52 913.84,-559.52 886.84,-559.52 886.84,-523.52 940.84,-523.52 940.84,-559.52"/>
<text xml:space="preserve" text-anchor="middle" x="913.84" y="-537.65" font-family="Helvetica,sans-Serif" font-size="10.00" fill="white">textual</text>
</g>
<!-- src_dashkit_app&#45;&gt;textual -->
<g id="edge46" class="edge">
<title>src_dashkit_app&#45;&gt;textual</title><style>.edge>path:hover{stroke-width:8}</style>
<path fill="none" stroke="black" d="M434.8,-599.81C473.15,-600.84 536.49,-601.41 590.8,-596.52 694.87,-587.15 815.92,-562.79 875.63,-549.86"/>
<polygon fill="#2e8a8a" stroke="black" points="876.23,-553.31 885.25,-547.76 874.73,-546.47 876.23,-553.31"/>
</g>
<!-- src_dashkit_sidebar&#45;&gt;rich -->
<g id="edge5" class="edge">
<title>src_dashkit_sidebar&#45;&gt;rich</title><style>.edge>path:hover{stroke-width:8}</style>
<path fill="none" stroke="black" d="M581.81,-554.86C630.51,-551.11 721.86,-544.01 799.67,-537.52"/>
<path fill="none" stroke="black" d="M801.67,-537.52C854.09,-531.06 867.56,-468.33 912.84,-495.52"/>
</g>
<!-- src_dashkit_sidebar&#45;&gt;textual -->
<g id="edge47" class="edge">
<title>src_dashkit_sidebar&#45;&gt;textual</title><style>.edge>path:hover{stroke-width:8}</style>
<path fill="none" stroke="black" d="M801.67,-537.52C826.19,-535.48 853.84,-536.46 875.43,-537.96"/>
<polygon fill="#38a8a8" stroke="black" points="875,-541.44 885.24,-538.72 875.53,-534.46 875,-541.44"/>
</g>
<!-- src_framework_status -->
<g id="node13" class="node">
<title>src_framework_status</title><style>.edge>path:hover{stroke-width:8}</style>
<ellipse fill="#31c4c4" stroke="black" cx="800.67" cy="-437.52" rx="45.79" ry="29.52"/>
<text xml:space="preserve" text-anchor="middle" x="800.67" y="-444.9" font-family="Helvetica,sans-Serif" font-size="10.00" fill="#000000">src.</text>
<text xml:space="preserve" text-anchor="middle" x="800.67" y="-433.65" font-family="Helvetica,sans-Serif" font-size="10.00" fill="#000000">framework.</text>
<text xml:space="preserve" text-anchor="middle" x="800.67" y="-422.4" font-family="Helvetica,sans-Serif" font-size="10.00" fill="#000000">status</text>
</g>
<!-- src_framework_status&#45;&gt;rich -->
<g id="edge6" class="edge">
<title>src_framework_status&#45;&gt;rich</title><style>.edge>path:hover{stroke-width:8}</style>
<path fill="none" stroke="black" d="M838.07,-455.13C860.07,-466.11 888.49,-480.9 912.84,-495.52"/>
</g>
<!-- src_framework_views&#45;&gt;rich -->
<g id="edge7" class="edge">
<title>src_framework_views&#45;&gt;rich</title><style>.edge>path:hover{stroke-width:8}</style>
<path fill="none" stroke="black" d="M981.72,-518.52C989.47,-517.1 997.86,-516.48 1005.89,-516.34"/>
<polygon fill="#3db8b8" stroke="black" points="1005.74,-519.84 1015.77,-516.41 1005.79,-512.84 1005.74,-519.84"/>
<path fill="none" stroke="black" d="M715.09,-40.9C741.85,-49.96 775.95,-64.91 799.67,-87.52"/>
<path fill="none" stroke="black" d="M801.67,-87.52C869.69,-152.36 832.28,-447.14 912.84,-495.52"/>
<path fill="none" stroke="black" d="M914.84,-495.52C941.43,-511.49 950.22,-524.13 980.72,-518.52"/>
</g>
<!-- src_modules_lighthouse_runner -->
<g id="node21" class="node">
<title>src_modules_lighthouse_runner</title><style>.edge>path:hover{stroke-width:8}</style>
<ellipse fill="#3ab0b0" stroke="black" cx="398.88" cy="-1022.52" rx="44.72" ry="37.48"/>
<text xml:space="preserve" text-anchor="middle" x="398.88" y="-1035.52" font-family="Helvetica,sans-Serif" font-size="10.00" fill="#000000">src.</text>
<text xml:space="preserve" text-anchor="middle" x="398.88" y="-1024.27" font-family="Helvetica,sans-Serif" font-size="10.00" fill="#000000">modules.</text>
<text xml:space="preserve" text-anchor="middle" x="398.88" y="-1013.02" font-family="Helvetica,sans-Serif" font-size="10.00" fill="#000000">lighthouse.</text>
<text xml:space="preserve" text-anchor="middle" x="398.88" y="-1001.77" font-family="Helvetica,sans-Serif" font-size="10.00" fill="#000000">runner</text>
</g>
<!-- src_modules_lighthouse&#45;&gt;src_modules_lighthouse_runner -->
<g id="edge33" class="edge">
<title>src_modules_lighthouse&#45;&gt;src_modules_lighthouse_runner</title><style>.edge>path:hover{stroke-width:8}</style>
<path fill="none" stroke="black" d="M285.5,-949.47C305.31,-962.35 331.41,-979.31 353.47,-993.65"/>
<polygon fill="#2bacac" stroke="black" points="351.4,-996.48 361.69,-999 355.22,-990.62 351.4,-996.48"/>
</g>
<!-- src_modules_lighthouse_widgets -->
<g id="node22" class="node">
<title>src_modules_lighthouse_widgets</title><style>.edge>path:hover{stroke-width:8}</style>
<ellipse fill="#3ab0b0" stroke="black" cx="398.88" cy="-929.52" rx="44.72" ry="37.48"/>
<text xml:space="preserve" text-anchor="middle" x="398.88" y="-942.52" font-family="Helvetica,sans-Serif" font-size="10.00" fill="#000000">src.</text>
<text xml:space="preserve" text-anchor="middle" x="398.88" y="-931.27" font-family="Helvetica,sans-Serif" font-size="10.00" fill="#000000">modules.</text>
<text xml:space="preserve" text-anchor="middle" x="398.88" y="-920.02" font-family="Helvetica,sans-Serif" font-size="10.00" fill="#000000">lighthouse.</text>
<text xml:space="preserve" text-anchor="middle" x="398.88" y="-908.77" font-family="Helvetica,sans-Serif" font-size="10.00" fill="#000000">widgets</text>
</g>
<!-- src_modules_lighthouse&#45;&gt;src_modules_lighthouse_widgets -->
<g id="edge34" class="edge">
<title>src_modules_lighthouse&#45;&gt;src_modules_lighthouse_widgets</title><style>.edge>path:hover{stroke-width:8}</style>
<path fill="none" stroke="black" d="M296.58,-929.52C310.9,-929.52 327.17,-929.52 342.41,-929.52"/>
<polygon fill="#2bacac" stroke="black" points="342.31,-933.02 352.31,-929.52 342.31,-926.02 342.31,-933.02"/>
</g>
<!-- src_modules_lighthouse_audits -->
<g id="node17" class="node">
<title>src_modules_lighthouse_audits</title><style>.edge>path:hover{stroke-width:8}</style>
<ellipse fill="#2fdbdb" stroke="black" cx="672.58" cy="-190.52" rx="44.72" ry="37.48"/>
<text xml:space="preserve" text-anchor="middle" x="672.58" y="-203.52" font-family="Helvetica,sans-Serif" font-size="10.00" fill="#000000">src.</text>
<text xml:space="preserve" text-anchor="middle" x="672.58" y="-192.27" font-family="Helvetica,sans-Serif" font-size="10.00" fill="#000000">modules.</text>
<text xml:space="preserve" text-anchor="middle" x="672.58" y="-181.02" font-family="Helvetica,sans-Serif" font-size="10.00" fill="#000000">lighthouse.</text>
<text xml:space="preserve" text-anchor="middle" x="672.58" y="-169.77" font-family="Helvetica,sans-Serif" font-size="10.00" fill="#000000">audits</text>
</g>
<!-- src_modules_lighthouse_categories -->
<g id="node18" class="node">
<title>src_modules_lighthouse_categories</title><style>.edge>path:hover{stroke-width:8}</style>
<ellipse fill="#40bfc0" stroke="black" cx="546.07" cy="-190.52" rx="44.72" ry="37.48"/>
<text xml:space="preserve" text-anchor="middle" x="546.07" y="-203.52" font-family="Helvetica,sans-Serif" font-size="10.00" fill="#000000">src.</text>
<text xml:space="preserve" text-anchor="middle" x="546.07" y="-192.27" font-family="Helvetica,sans-Serif" font-size="10.00" fill="#000000">modules.</text>
<text xml:space="preserve" text-anchor="middle" x="546.07" y="-181.02" font-family="Helvetica,sans-Serif" font-size="10.00" fill="#000000">lighthouse.</text>
<text xml:space="preserve" text-anchor="middle" x="546.07" y="-169.77" font-family="Helvetica,sans-Serif" font-size="10.00" fill="#000000">categories</text>
</g>
<!-- src_modules_lighthouse_categories&#45;&gt;src_modules_lighthouse_audits -->
<g id="edge27" class="edge">
<title>src_modules_lighthouse_categories&#45;&gt;src_modules_lighthouse_audits</title><style>.edge>path:hover{stroke-width:8}</style>
<path fill="none" stroke="black" d="M590.97,-190.52C599.15,-190.52 607.8,-190.52 616.27,-190.52"/>
<polygon fill="#40bfc0" stroke="black" points="616.15,-194.02 626.15,-190.52 616.15,-187.02 616.15,-194.02"/>
</g>
<!-- src_modules_lighthouse_config -->
<g id="node19" class="node">
<title>src_modules_lighthouse_config</title><style>.edge>path:hover{stroke-width:8}</style>
<ellipse fill="#47c2c2" stroke="black" cx="546.07" cy="-396.52" rx="44.72" ry="37.48"/>
<text xml:space="preserve" text-anchor="middle" x="546.07" y="-409.52" font-family="Helvetica,sans-Serif" font-size="10.00" fill="#000000">src.</text>
<text xml:space="preserve" text-anchor="middle" x="546.07" y="-398.27" font-family="Helvetica,sans-Serif" font-size="10.00" fill="#000000">modules.</text>
<text xml:space="preserve" text-anchor="middle" x="546.07" y="-387.02" font-family="Helvetica,sans-Serif" font-size="10.00" fill="#000000">lighthouse.</text>
<text xml:space="preserve" text-anchor="middle" x="546.07" y="-375.77" font-family="Helvetica,sans-Serif" font-size="10.00" fill="#000000">config</text>
</g>
<!-- src_modules_lighthouse_http -->
<g id="node20" class="node">
<title>src_modules_lighthouse_http</title><style>.edge>path:hover{stroke-width:8}</style>
<ellipse fill="#47c2c2" stroke="black" cx="546.07" cy="-1022.52" rx="44.72" ry="37.48"/>
<text xml:space="preserve" text-anchor="middle" x="546.07" y="-1035.52" font-family="Helvetica,sans-Serif" font-size="10.00" fill="#000000">src.</text>
<text xml:space="preserve" text-anchor="middle" x="546.07" y="-1024.27" font-family="Helvetica,sans-Serif" font-size="10.00" fill="#000000">modules.</text>
<text xml:space="preserve" text-anchor="middle" x="546.07" y="-1013.02" font-family="Helvetica,sans-Serif" font-size="10.00" fill="#000000">lighthouse.</text>
<text xml:space="preserve" text-anchor="middle" x="546.07" y="-1001.77" font-family="Helvetica,sans-Serif" font-size="10.00" fill="#000000">http</text>
</g>
<!-- src_modules_lighthouse_runner&#45;&gt;src_modules_lighthouse_http -->
<g id="edge32" class="edge">
<title>src_modules_lighthouse_runner&#45;&gt;src_modules_lighthouse_http</title><style>.edge>path:hover{stroke-width:8}</style>
<path fill="none" stroke="black" d="M443.84,-1022.52C458.34,-1022.52 474.65,-1022.52 489.88,-1022.52"/>
<polygon fill="#3ab0b0" stroke="black" points="489.75,-1026.02 499.75,-1022.52 489.75,-1019.02 489.75,-1026.02"/>
</g>
<!-- src_modules_lighthouse_runner&#45;&gt;src_services -->
<g id="edge41" class="edge">
<title>src_modules_lighthouse_runner&#45;&gt;src_services</title><style>.edge>path:hover{stroke-width:8}</style>
<path fill="none" stroke="black" d="M435.47,-1044.23C488.21,-1073.47 589.69,-1118.48 671.58,-1087.52"/>
<path fill="none" stroke="black" d="M673.58,-1087.52C754.59,-1057.28 785.06,-944.79 795.19,-890.8"/>
<polygon fill="#3ab0b0" stroke="black" points="798.61,-891.56 796.89,-881.11 791.72,-890.35 798.61,-891.56"/>
</g>
<!-- src_services_reports -->
<g id="node27" class="node">
<title>src_services_reports</title><style>.edge>path:hover{stroke-width:8}</style>
<ellipse fill="#47c2c2" stroke="black" cx="800.67" cy="-1087.52" rx="39.42" ry="29.52"/>
<text xml:space="preserve" text-anchor="middle" x="800.67" y="-1094.9" font-family="Helvetica,sans-Serif" font-size="10.00" fill="#000000">src.</text>
<text xml:space="preserve" text-anchor="middle" x="800.67" y="-1083.65" font-family="Helvetica,sans-Serif" font-size="10.00" fill="#000000">services.</text>
<text xml:space="preserve" text-anchor="middle" x="800.67" y="-1072.4" font-family="Helvetica,sans-Serif" font-size="10.00" fill="#000000">reports</text>
</g>
<!-- src_modules_lighthouse_runner&#45;&gt;src_services_reports -->
<g id="edge42" class="edge">
<title>src_modules_lighthouse_runner&#45;&gt;src_services_reports</title><style>.edge>path:hover{stroke-width:8}</style>
<path fill="none" stroke="black" d="M673.58,-1087.52C697.87,-1078.34 726.71,-1077.67 750.68,-1079.59"/>
<polygon fill="#3ab0b0" stroke="black" points="750.21,-1083.06 760.5,-1080.56 750.9,-1076.09 750.21,-1083.06"/>
</g>
<!-- src_modules_lighthouse_widgets_audits -->
<g id="node23" class="node">
<title>src_modules_lighthouse_widgets_audits</title><style>.edge>path:hover{stroke-width:8}</style>
<ellipse fill="#2e8a8a" stroke="black" cx="398.88" cy="-287.52" rx="44.72" ry="45.43"/>
<text xml:space="preserve" text-anchor="middle" x="398.88" y="-306.15" font-family="Helvetica,sans-Serif" font-size="10.00" fill="#ffffff">src.</text>
<text xml:space="preserve" text-anchor="middle" x="398.88" y="-294.9" font-family="Helvetica,sans-Serif" font-size="10.00" fill="#ffffff">modules.</text>
<text xml:space="preserve" text-anchor="middle" x="398.88" y="-283.65" font-family="Helvetica,sans-Serif" font-size="10.00" fill="#ffffff">lighthouse.</text>
<text xml:space="preserve" text-anchor="middle" x="398.88" y="-272.4" font-family="Helvetica,sans-Serif" font-size="10.00" fill="#ffffff">widgets.</text>
<text xml:space="preserve" text-anchor="middle" x="398.88" y="-261.15" font-family="Helvetica,sans-Serif" font-size="10.00" fill="#ffffff">audits</text>
</g>
<!-- src_modules_lighthouse_widgets&#45;&gt;src_modules_lighthouse_widgets_audits -->
<g id="edge35" class="edge">
<title>src_modules_lighthouse_widgets&#45;&gt;src_modules_lighthouse_widgets_audits</title><style>.edge>path:hover{stroke-width:8}</style>
<path fill="none" stroke="black" d="M359.31,-911.95C342.23,-902.12 323.98,-888.06 314.41,-869.52 301.21,-843.95 301.61,-377.29 314.41,-351.52 322,-336.26 335.15,-323.66 348.85,-313.8"/>
<polygon fill="#3ab0b0" stroke="black" points="350.76,-316.74 357.1,-308.26 346.85,-310.93 350.76,-316.74"/>
</g>
<!-- src_modules_lighthouse_widgets_metrics_summary -->
<g id="node24" class="node">
<title>src_modules_lighthouse_widgets_metrics_summary</title><style>.edge>path:hover{stroke-width:8}</style>
<ellipse fill="#2e8a8a" stroke="black" cx="398.88" cy="-396.52" rx="66.47" ry="45.43"/>
<text xml:space="preserve" text-anchor="middle" x="398.88" y="-415.15" font-family="Helvetica,sans-Serif" font-size="10.00" fill="#ffffff">src.</text>
<text xml:space="preserve" text-anchor="middle" x="398.88" y="-403.9" font-family="Helvetica,sans-Serif" font-size="10.00" fill="#ffffff">modules.</text>
<text xml:space="preserve" text-anchor="middle" x="398.88" y="-392.65" font-family="Helvetica,sans-Serif" font-size="10.00" fill="#ffffff">lighthouse.</text>
<text xml:space="preserve" text-anchor="middle" x="398.88" y="-381.4" font-family="Helvetica,sans-Serif" font-size="10.00" fill="#ffffff">widgets.</text>
<text xml:space="preserve" text-anchor="middle" x="398.88" y="-370.15" font-family="Helvetica,sans-Serif" font-size="10.00" fill="#ffffff">metrics_summary</text>
</g>
<!-- src_modules_lighthouse_widgets&#45;&gt;src_modules_lighthouse_widgets_metrics_summary -->
<g id="edge36" class="edge">
<title>src_modules_lighthouse_widgets&#45;&gt;src_modules_lighthouse_widgets_metrics_summary</title><style>.edge>path:hover{stroke-width:8}</style>
<path fill="none" stroke="black" d="M359.31,-911.95C342.23,-902.12 323.98,-888.06 314.41,-869.52 293.57,-829.14 294.19,-501.22 314.41,-460.52 319.87,-449.55 328.2,-439.95 337.55,-431.76"/>
<polygon fill="#3ab0b0" stroke="black" points="339.61,-434.59 345.18,-425.58 335.21,-429.15 339.61,-434.59"/>
</g>
<!-- src_modules_lighthouse_widgets_thirdparty -->
<g id="node25" class="node">
<title>src_modules_lighthouse_widgets_thirdparty</title><style>.edge>path:hover{stroke-width:8}</style>
<ellipse fill="#38a8a8" stroke="black" cx="398.88" cy="-505.52" rx="44.72" ry="45.43"/>
<text xml:space="preserve" text-anchor="middle" x="398.88" y="-524.15" font-family="Helvetica,sans-Serif" font-size="10.00" fill="#000000">src.</text>
<text xml:space="preserve" text-anchor="middle" x="398.88" y="-512.9" font-family="Helvetica,sans-Serif" font-size="10.00" fill="#000000">modules.</text>
<text xml:space="preserve" text-anchor="middle" x="398.88" y="-501.65" font-family="Helvetica,sans-Serif" font-size="10.00" fill="#000000">lighthouse.</text>
<text xml:space="preserve" text-anchor="middle" x="398.88" y="-490.4" font-family="Helvetica,sans-Serif" font-size="10.00" fill="#000000">widgets.</text>
<text xml:space="preserve" text-anchor="middle" x="398.88" y="-479.15" font-family="Helvetica,sans-Serif" font-size="10.00" fill="#000000">thirdparty</text>
</g>
<!-- src_modules_lighthouse_widgets&#45;&gt;src_modules_lighthouse_widgets_thirdparty -->
<g id="edge37" class="edge">
<title>src_modules_lighthouse_widgets&#45;&gt;src_modules_lighthouse_widgets_thirdparty</title><style>.edge>path:hover{stroke-width:8}</style>
<path fill="none" stroke="black" d="M359.31,-911.95C342.23,-902.12 323.98,-888.06 314.41,-869.52 299.07,-839.8 299.42,-598.42 314.41,-568.52 322.01,-553.38 335.17,-540.94 348.87,-531.24"/>
<polygon fill="#3ab0b0" stroke="black" points="350.7,-534.23 357.11,-525.8 346.84,-528.39 350.7,-534.23"/>
</g>
<!-- src_modules_lighthouse_widgets_audits&#45;&gt;rich -->
<g id="edge8" class="edge">
<title>src_modules_lighthouse_widgets_audits&#45;&gt;rich</title><style>.edge>path:hover{stroke-width:8}</style>
<path fill="none" stroke="black" d="M547.07,-125.52C601.15,-104.95 613.89,-91.83 671.58,-87.52"/>
<path fill="none" stroke="black" d="M420.32,-247.48C438.11,-215.98 466.49,-172.82 501.35,-144.52 517.8,-131.17 525.27,-133.05 545.07,-125.52"/>
</g>
<!-- src_modules_lighthouse_widgets_audits&#45;&gt;src_framework -->
<g id="edge20" class="edge">
<title>src_modules_lighthouse_widgets_audits&#45;&gt;src_framework</title><style>.edge>path:hover{stroke-width:8}</style>
<path fill="none" stroke="black" d="M443.56,-282.35C497.97,-277.3 593.3,-273.03 671.58,-293.52"/>
<path fill="none" stroke="black" d="M673.58,-293.52C696.48,-300.93 722.96,-301.98 745.72,-300.76"/>
<polygon fill="#2e8a8a" stroke="black" points="745.67,-304.27 755.4,-300.07 745.18,-297.29 745.67,-304.27"/>
</g>
<!-- src_modules_lighthouse_widgets_audits&#45;&gt;src_framework_status -->
<g id="edge22" class="edge">
<title>src_modules_lighthouse_widgets_audits&#45;&gt;src_framework_status</title><style>.edge>path:hover{stroke-width:8}</style>
<path fill="none" stroke="black" d="M673.58,-293.52C724.3,-309.93 760.96,-362.32 781.27,-399.15"/>
<polygon fill="#2e8a8a" stroke="black" points="778.06,-400.57 785.85,-407.75 784.24,-397.28 778.06,-400.57"/>
</g>
<!-- src_modules_lighthouse_widgets_audits&#45;&gt;src_modules_lighthouse_audits -->
<g id="edge28" class="edge">
<title>src_modules_lighthouse_widgets_audits&#45;&gt;src_modules_lighthouse_audits</title><style>.edge>path:hover{stroke-width:8}</style>
<path fill="none" stroke="black" d="M547.07,-125.52C578.13,-113.71 611.4,-132.89 635.73,-153.41"/>
<polygon fill="#2e8a8a" stroke="black" points="633.33,-155.96 643.14,-159.98 637.98,-150.72 633.33,-155.96"/>
</g>
<!-- src_modules_lighthouse_widgets_audits&#45;&gt;src_modules_lighthouse_categories -->
<g id="edge30" class="edge">
<title>src_modules_lighthouse_widgets_audits&#45;&gt;src_modules_lighthouse_categories</title><style>.edge>path:hover{stroke-width:8}</style>
<path fill="none" stroke="black" d="M436.89,-262.79C456.48,-249.71 480.65,-233.56 501.18,-219.85"/>
<polygon fill="#2e8a8a" stroke="black" points="502.99,-222.85 509.36,-214.38 499.1,-217.02 502.99,-222.85"/>
</g>
<!-- src_modules_lighthouse_widgets_metrics_summary&#45;&gt;rich -->
<g id="edge9" class="edge">
<title>src_modules_lighthouse_widgets_metrics_summary&#45;&gt;rich</title><style>.edge>path:hover{stroke-width:8}</style>
<path fill="none" stroke="black" d="M673.58,-461.52C731.51,-465.08 741.77,-491.41 799.67,-495.52"/>
<path fill="none" stroke="black" d="M801.67,-495.52C850.96,-499.02 870.48,-470.08 912.84,-495.52"/>
</g>
<!-- src_modules_lighthouse_widgets_metrics_summary&#45;&gt;src_framework -->
<g id="edge21" class="edge">
<title>src_modules_lighthouse_widgets_metrics_summary&#45;&gt;src_framework</title><style>.edge>path:hover{stroke-width:8}</style>
<path fill="none" stroke="black" d="M452.92,-369.62C468.26,-362.63 485.22,-355.64 501.35,-350.52 524.37,-343.22 667.28,-317.17 746.65,-302.95"/>
<polygon fill="#2e8a8a" stroke="black" points="747.16,-306.41 756.39,-301.21 745.93,-299.52 747.16,-306.41"/>
</g>
<!-- src_modules_lighthouse_widgets_metrics_summary&#45;&gt;src_framework_status -->
<g id="edge23" class="edge">
<title>src_modules_lighthouse_widgets_metrics_summary&#45;&gt;src_framework_status</title><style>.edge>path:hover{stroke-width:8}</style>
<path fill="none" stroke="black" d="M452.16,-424C467.62,-431.08 484.84,-437.98 501.35,-442.52 574.75,-462.71 595.47,-460.04 671.58,-461.52"/>
<path fill="none" stroke="black" d="M673.58,-461.52C698.32,-463.04 725.36,-458.71 748.03,-453.33"/>
<polygon fill="#2e8a8a" stroke="black" points="748.81,-456.74 757.65,-450.9 747.1,-449.95 748.81,-456.74"/>
</g>
<!-- src_modules_lighthouse_widgets_metrics_summary&#45;&gt;src_modules_lighthouse_audits -->
<g id="edge29" class="edge">
<title>src_modules_lighthouse_widgets_metrics_summary&#45;&gt;src_modules_lighthouse_audits</title><style>.edge>path:hover{stroke-width:8}</style>
<path fill="none" stroke="black" d="M443.43,-362.3C461.31,-348.33 482.26,-332.07 501.35,-317.52 544.69,-284.49 594.73,-247.27 629.28,-221.7"/>
<polygon fill="#2e8a8a" stroke="black" points="630.98,-224.8 636.94,-216.04 626.82,-219.17 630.98,-224.8"/>
</g>
<!-- src_modules_lighthouse_widgets_metrics_summary&#45;&gt;src_modules_lighthouse_config -->
<g id="edge31" class="edge">
<title>src_modules_lighthouse_widgets_metrics_summary&#45;&gt;src_modules_lighthouse_config</title><style>.edge>path:hover{stroke-width:8}</style>
<path fill="none" stroke="black" d="M465.68,-396.52C473.75,-396.52 481.92,-396.52 489.81,-396.52"/>
<polygon fill="#2e8a8a" stroke="black" points="489.6,-400.02 499.6,-396.52 489.6,-393.02 489.6,-400.02"/>
</g>
<!-- src_modules_lighthouse_widgets_thirdparty&#45;&gt;rich -->
<g id="edge10" class="edge">
<title>src_modules_lighthouse_widgets_thirdparty&#45;&gt;rich</title><style>.edge>path:hover{stroke-width:8}</style>
<path fill="none" stroke="black" d="M443.7,-502.04C517.3,-496.73 670.4,-487.98 799.67,-495.52"/>
</g>
<!-- yaml -->
<g id="node30" class="node">
<title>yaml</title><style>.edge>path:hover{stroke-width:8}</style>
<polygon fill="#b653b6" stroke="black" points="827.67,-825.52 824.67,-829.52 803.67,-829.52 800.67,-825.52 773.67,-825.52 773.67,-789.52 827.67,-789.52 827.67,-825.52"/>
<text xml:space="preserve" text-anchor="middle" x="800.67" y="-803.65" font-family="Helvetica,sans-Serif" font-size="10.00" fill="#ffffff">yaml</text>
</g>
<!-- src_services_workspaces&#45;&gt;yaml -->
<g id="edge48" class="edge">
<title>src_services_workspaces&#45;&gt;yaml</title><style>.edge>path:hover{stroke-width:8}</style>
<path fill="none" stroke="black" d="M442.09,-728.36C460.23,-734.06 481.72,-740.49 501.35,-745.52 594.4,-769.35 705.54,-790.57 762.29,-800.89"/>
<polygon fill="#26d9d9" stroke="black" points="761.59,-804.32 772.06,-802.66 762.84,-797.43 761.59,-804.32"/>
</g>
<!-- textual&#45;&gt;rich -->
<g id="edge11" class="edge">
<title>textual&#45;&gt;rich</title><style>.edge>path:hover{stroke-width:8}</style>
<path fill="none" stroke="black" d="M941.26,-530.21C953.1,-525.69 967.38,-520.98 980.72,-518.52"/>
</g>
</g>
</svg>
