<?xml version="1.0" encoding="UTF-8" standalone="no"?>
<!DOCTYPE svg PUBLIC "-//W3C//DTD SVG 1.1//EN"
 "http://www.w3.org/Graphics/SVG/1.1/DTD/svg11.dtd">
<!-- Generated by graphviz version 14.1.2 (20260124.0452)
 -->
<!-- Title: G Pages: 1 -->
<svg width="1160pt" height="1201pt"
 viewBox="0.00 0.00 1160.00 1201.00" xmlns="http://www.w3.org/2000/svg" xmlns:xlink="http://www.w3.org/1999/xlink">
<g id="graph0" class="graph" transform="scale(1 1) rotate(0) translate(4 1196.57)">
<title>G</title><style>.edge>path:hover{stroke-width:8}</style>
<polygon fill="white" stroke="none" points="-4,4 -4,-1196.57 1156.48,-1196.57 1156.48,4 -4,4"/>
<!-- dashkit_cli -->
<g id="node1" class="node">
<title>dashkit_cli</title><style>.edge>path:hover{stroke-width:8}</style>
<ellipse fill="#b03a3a" stroke="black" cx="45.79" cy="-700" rx="27" ry="18"/>
<text xml:space="preserve" text-anchor="middle" x="45.79" y="-696.12" font-family="Helvetica,sans-Serif" font-size="10.00" fill="#ffffff">cli</text>
</g>
<!-- dashkit_cli_lighthouse -->
<g id="node2" class="node">
<title>dashkit_cli_lighthouse</title><style>.edge>path:hover{stroke-width:8}</style>
<ellipse fill="#a13535" stroke="black" cx="173.36" cy="-803" rx="43.19" ry="18"/>
<text xml:space="preserve" text-anchor="middle" x="173.36" y="-799.12" font-family="Helvetica,sans-Serif" font-size="10.00" fill="#ffffff">cli.lighthouse</text>
</g>
<!-- dashkit_cli&#45;&gt;dashkit_cli_lighthouse -->
<g id="edge1" class="edge">
<title>dashkit_cli&#45;&gt;dashkit_cli_lighthouse</title><style>.edge>path:hover{stroke-width:8}</style>
<path fill="none" stroke="black" d="M63.72,-713.89C84.35,-730.81 119.5,-759.64 144.22,-779.92"/>
<polygon fill="#b03a3a" stroke="black" points="141.68,-782.37 151.64,-786 146.12,-776.96 141.68,-782.37"/>
</g>
<!-- dashkit_cli_printer -->
<g id="node3" class="node">
<title>dashkit_cli_printer</title><style>.edge>path:hover{stroke-width:8}</style>
<ellipse fill="#993333" stroke="black" cx="173.36" cy="-700" rx="32.99" ry="18"/>
<text xml:space="preserve" text-anchor="middle" x="173.36" y="-696.12" font-family="Helvetica,sans-Serif" font-size="10.00" fill="#ffffff">cli.printer</text>
</g>
<!-- dashkit_cli&#45;&gt;dashkit_cli_printer -->
<g id="edge2" class="edge">
<title>dashkit_cli&#45;&gt;dashkit_cli_printer</title><style>.edge>path:hover{stroke-width:8}</style>
<path fill="none" stroke="black" d="M73.11,-700C89.23,-700 110.26,-700 128.81,-700"/>
<polygon fill="#b03a3a" stroke="black" points="128.76,-703.5 138.76,-700 128.76,-696.5 128.76,-703.5"/>
</g>
<!-- dashkit_cli_tui -->
<g id="node4" class="node">
<title>dashkit_cli_tui</title><style>.edge>path:hover{stroke-width:8}</style>
<ellipse fill="#a83838" stroke="black" cx="173.36" cy="-646" rx="27" ry="18"/>
<text xml:space="preserve" text-anchor="middle" x="173.36" y="-642.12" font-family="Helvetica,sans-Serif" font-size="10.00" fill="#ffffff">cli.tui</text>
</g>
<!-- dashkit_cli&#45;&gt;dashkit_cli_tui -->
<g id="edge3" class="edge">
<title>dashkit_cli&#45;&gt;dashkit_cli_tui</title><style>.edge>path:hover{stroke-width:8}</style>
<path fill="none" stroke="black" d="M69.23,-690.35C88.88,-681.9 117.65,-669.52 139.82,-659.99"/>
<polygon fill="#b03a3a" stroke="black" points="140.91,-663.33 148.71,-656.17 138.14,-656.9 140.91,-663.33"/>
</g>
<!-- dashkit_modules -->
<g id="node11" class="node">
<title>dashkit_modules</title><style>.edge>path:hover{stroke-width:8}</style>
<ellipse fill="#ce3b3b" stroke="black" cx="442.82" cy="-878" rx="31.21" ry="18"/>
<text xml:space="preserve" text-anchor="middle" x="442.82" y="-874.12" font-family="Helvetica,sans-Serif" font-size="10.00" fill="#ffffff">modules</text>
</g>
<!-- dashkit_cli_lighthouse&#45;&gt;dashkit_modules -->
<g id="edge14" class="edge">
<title>dashkit_cli_lighthouse&#45;&gt;dashkit_modules</title><style>.edge>path:hover{stroke-width:8}</style>
<path fill="none" stroke="black" d="M298.74,-832C336.04,-839.29 377.22,-853.18 405.78,-863.8"/>
<polygon fill="#a13535" stroke="black" points="404.44,-867.03 415.03,-867.29 406.92,-860.48 404.44,-867.03"/>
</g>
<!-- dashkit_modules_lighthouse -->
<g id="node12" class="node">
<title>dashkit_modules_lighthouse</title><style>.edge>path:hover{stroke-width:8}</style>
<ellipse fill="#ac2b2b" stroke="black" cx="297.74" cy="-1036" rx="42.6" ry="21.57"/>
<text xml:space="preserve" text-anchor="middle" x="297.74" y="-1037.75" font-family="Helvetica,sans-Serif" font-size="10.00" fill="#ffffff">modules.</text>
<text xml:space="preserve" text-anchor="middle" x="297.74" y="-1026.5" font-family="Helvetica,sans-Serif" font-size="10.00" fill="#ffffff">lighthouse</text>
</g>
<!-- dashkit_cli_lighthouse&#45;&gt;dashkit_modules_lighthouse -->
<g id="edge15" class="edge">
<title>dashkit_cli_lighthouse&#45;&gt;dashkit_modules_lighthouse</title><style>.edge>path:hover{stroke-width:8}</style>
<path fill="none" stroke="black" d="M203.1,-816.41C208.99,-820.16 214.73,-824.7 219.14,-830 262.03,-881.52 282.58,-959.16 291.27,-1002.93"/>
<polygon fill="#a13535" stroke="black" points="287.79,-1003.4 293.08,-1012.58 294.67,-1002.11 287.79,-1003.4"/>
</g>
<!-- dashkit_services -->
<g id="node22" class="node">
<title>dashkit_services</title><style>.edge>path:hover{stroke-width:8}</style>
<ellipse fill="#e72222" stroke="black" cx="889.7" cy="-574" rx="31.21" ry="18"/>
<text xml:space="preserve" text-anchor="middle" x="889.7" y="-570.12" font-family="Helvetica,sans-Serif" font-size="10.00" fill="#ffffff">services</text>
</g>
<!-- dashkit_cli_lighthouse&#45;&gt;dashkit_services -->
<g id="edge27" class="edge">
<title>dashkit_cli_lighthouse&#45;&gt;dashkit_services</title><style>.edge>path:hover{stroke-width:8}</style>
<path fill="none" stroke="black" d="M443.82,-832C518.31,-837.02 538.36,-818.58 611.81,-832"/>
<path fill="none" stroke="black" d="M210.88,-812.45C235.12,-818.53 267.71,-826.32 296.74,-832"/>
<path fill="none" stroke="black" d="M298.74,-832C361.15,-844.21 378.37,-827.73 441.82,-832"/>
</g>
<!-- dashkit_services_workspaces -->
<g id="node24" class="node">
<title>dashkit_services_workspaces</title><style>.edge>path:hover{stroke-width:8}</style>
<ellipse fill="#d92626" stroke="black" cx="442.82" cy="-268" rx="48.44" ry="21.57"/>
<text xml:space="preserve" text-anchor="middle" x="442.82" y="-269.75" font-family="Helvetica,sans-Serif" font-size="10.00" fill="#ffffff">services.</text>
<text xml:space="preserve" text-anchor="middle" x="442.82" y="-258.5" font-family="Helvetica,sans-Serif" font-size="10.00" fill="#ffffff">workspaces</text>
</g>
<!-- dashkit_cli_lighthouse&#45;&gt;dashkit_services_workspaces -->
<g id="edge32" class="edge">
<title>dashkit_cli_lighthouse&#45;&gt;dashkit_services_workspaces</title><style>.edge>path:hover{stroke-width:8}</style>
<path fill="none" stroke="black" d="M185.26,-785.42C194.6,-770.16 208.21,-747.38 219.14,-727 303.7,-569.27 393.5,-374.57 427.59,-299.54"/>
<polygon fill="#a13535" stroke="black" points="430.64,-301.28 431.58,-290.73 424.26,-298.39 430.64,-301.28"/>
</g>
<!-- dotenv -->
<g id="node29" class="node">
<title>dotenv</title><style>.edge>path:hover{stroke-width:8}</style>
<polygon fill="#a2b653" stroke="black" points="639.81,-896 636.81,-900 615.81,-900 612.81,-896 585.81,-896 585.81,-860 639.81,-860 639.81,-896"/>
<text xml:space="preserve" text-anchor="middle" x="612.81" y="-874.12" font-family="Helvetica,sans-Serif" font-size="10.00" fill="#000000">dotenv</text>
</g>
<!-- dashkit_cli_lighthouse&#45;&gt;dotenv -->
<g id="edge39" class="edge">
<title>dashkit_cli_lighthouse&#45;&gt;dotenv</title><style>.edge>path:hover{stroke-width:8}</style>
<path fill="none" stroke="black" d="M443.82,-832C490.03,-835.11 541.09,-850.97 574.65,-863.21"/>
<polygon fill="#a13535" stroke="black" points="573.32,-866.44 583.91,-866.66 575.76,-859.89 573.32,-866.44"/>
</g>
<!-- dashkit_framework -->
<g id="node5" class="node">
<title>dashkit_framework</title><style>.edge>path:hover{stroke-width:8}</style>
<ellipse fill="#f31616" stroke="black" cx="889.7" cy="-382" rx="36.54" ry="18"/>
<text xml:space="preserve" text-anchor="middle" x="889.7" y="-378.12" font-family="Helvetica,sans-Serif" font-size="10.00" fill="#ffffff">framework</text>
</g>
<!-- dashkit_cli_printer&#45;&gt;dashkit_framework -->
<g id="edge4" class="edge">
<title>dashkit_cli_printer&#45;&gt;dashkit_framework</title><style>.edge>path:hover{stroke-width:8}</style>
<path fill="none" stroke="black" d="M190.31,-715.51C212.71,-735.41 255.39,-766.64 296.74,-760"/>
<path fill="none" stroke="black" d="M613.81,-370C691.49,-339.05 791.46,-356.04 846.92,-369.88"/>
<polygon fill="#993333" stroke="black" points="846.03,-373.26 856.59,-372.38 847.79,-366.48 846.03,-373.26"/>
<path fill="none" stroke="black" d="M298.74,-760C402.77,-743.31 317.37,-623.31 376.35,-536 379.83,-530.85 539.82,-391.97 545.28,-389 572.31,-374.33 583.77,-382.62 611.81,-370"/>
</g>
<!-- dashkit_framework_views -->
<g id="node10" class="node">
<title>dashkit_framework_views</title><style>.edge>path:hover{stroke-width:8}</style>
<ellipse fill="#c43131" stroke="black" cx="762.13" cy="-206" rx="45.79" ry="21.57"/>
<text xml:space="preserve" text-anchor="middle" x="762.13" y="-207.75" font-family="Helvetica,sans-Serif" font-size="10.00" fill="#ffffff">framework.</text>
<text xml:space="preserve" text-anchor="middle" x="762.13" y="-196.5" font-family="Helvetica,sans-Serif" font-size="10.00" fill="#ffffff">views</text>
</g>
<!-- dashkit_cli_printer&#45;&gt;dashkit_framework_views -->
<g id="edge12" class="edge">
<title>dashkit_cli_printer&#45;&gt;dashkit_framework_views</title><style>.edge>path:hover{stroke-width:8}</style>
<path fill="none" stroke="black" d="M200.15,-689.45C207.33,-685.33 214.43,-679.9 219.14,-673 334.74,-503.53 124.46,-329.36 296.74,-218"/>
<path fill="none" stroke="black" d="M298.74,-218C332.04,-196.48 589.08,-201.02 704.89,-204.22"/>
<polygon fill="#993333" stroke="black" points="704.69,-207.72 714.79,-204.5 704.89,-200.72 704.69,-207.72"/>
</g>
<!-- dashkit_cli_printer&#45;&gt;dashkit_services -->
<g id="edge28" class="edge">
<title>dashkit_cli_printer&#45;&gt;dashkit_services</title><style>.edge>path:hover{stroke-width:8}</style>
<path fill="none" stroke="black" d="M298.74,-760C361.53,-749.93 380.88,-741.83 441.82,-760"/>
</g>
<!-- dashkit_cli_printer&#45;&gt;dashkit_services_workspaces -->
<g id="edge33" class="edge">
<title>dashkit_cli_printer&#45;&gt;dashkit_services_workspaces</title><style>.edge>path:hover{stroke-width:8}</style>
<path fill="none" stroke="black" d="M298.74,-218C315.99,-206.85 365.4,-227.89 401.33,-246"/>
<polygon fill="#993333" stroke="black" points="399.7,-249.1 410.19,-250.56 402.9,-242.87 399.7,-249.1"/>
</g>
<!-- rich -->
<g id="node30" class="node">
<title>rich</title><style>.edge>path:hover{stroke-width:8}</style>
<polygon fill="blue" stroke="black" points="1152.48,-496 1149.48,-500 1128.48,-500 1125.48,-496 1098.48,-496 1098.48,-460 1152.48,-460 1152.48,-496"/>
<text xml:space="preserve" text-anchor="middle" x="1125.48" y="-474.12" font-family="Helvetica,sans-Serif" font-size="10.00" fill="white">rich</text>
</g>
<!-- dashkit_cli_printer&#45;&gt;rich -->
<g id="edge40" class="edge">
<title>dashkit_cli_printer&#45;&gt;rich</title><style>.edge>path:hover{stroke-width:8}</style>
<path fill="none" stroke="black" d="M198.63,-688.18C205.75,-684.01 213.2,-678.87 219.14,-673 313.56,-579.67 273.68,-503.18 376.35,-419 438.31,-368.19 466.73,-371.84 545.28,-356 630.28,-338.86 862.74,-307.81 935.48,-355 986.84,-388.32 936.84,-469.64 997.48,-478"/>
</g>
<!-- dashkit_cli_tui&#45;&gt;dashkit_services -->
<g id="edge29" class="edge">
<title>dashkit_cli_tui&#45;&gt;dashkit_services</title><style>.edge>path:hover{stroke-width:8}</style>
<path fill="none" stroke="black" d="M195.11,-657.1C231.2,-676.09 308.19,-715.26 376.35,-741 404.69,-751.7 413.76,-748.55 441.82,-760"/>
<path fill="none" stroke="black" d="M443.82,-760C492.57,-774.54 498.03,-794.14 545.28,-813 573.84,-824.4 581.56,-826.47 611.81,-832"/>
<path fill="none" stroke="black" d="M763.13,-855C848.63,-776.1 776.64,-700.93 843.91,-606 847.5,-600.93 852.16,-596.37 857.1,-592.4"/>
<polygon fill="#a83838" stroke="black" points="858.86,-595.44 864.93,-586.76 854.77,-589.76 858.86,-595.44"/>
<path fill="none" stroke="black" d="M613.81,-832C630.11,-834.98 748.95,-866.24 761.13,-855"/>
</g>
<!-- dashkit_cli_tui&#45;&gt;dashkit_services_workspaces -->
<g id="edge34" class="edge">
<title>dashkit_cli_tui&#45;&gt;dashkit_services_workspaces</title><style>.edge>path:hover{stroke-width:8}</style>
<path fill="none" stroke="black" d="M298.74,-172C319.39,-155.92 378.65,-206.67 414.09,-240.4"/>
<polygon fill="#a83838" stroke="black" points="411.41,-242.68 421.04,-247.1 416.27,-237.64 411.41,-242.68"/>
</g>
<!-- dashkit_tui -->
<g id="node25" class="node">
<title>dashkit_tui</title><style>.edge>path:hover{stroke-width:8}</style>
<ellipse fill="#c24747" stroke="black" cx="442.82" cy="-172" rx="27" ry="18"/>
<text xml:space="preserve" text-anchor="middle" x="442.82" y="-168.12" font-family="Helvetica,sans-Serif" font-size="10.00" fill="#ffffff">tui</text>
</g>
<!-- dashkit_cli_tui&#45;&gt;dashkit_tui -->
<g id="edge35" class="edge">
<title>dashkit_cli_tui&#45;&gt;dashkit_tui</title><style>.edge>path:hover{stroke-width:8}</style>
<path fill="none" stroke="black" d="M298.74,-172C329.29,-148.21 375.67,-153.39 407.29,-161.08"/>
<polygon fill="#a83838" stroke="black" points="406.18,-164.41 416.75,-163.59 407.98,-157.64 406.18,-164.41"/>
</g>
<!-- dashkit_tui_app -->
<g id="node26" class="node">
<title>dashkit_tui_app</title><style>.edge>path:hover{stroke-width:8}</style>
<ellipse fill="#822b2b" stroke="black" cx="442.82" cy="-72" rx="27" ry="18"/>
<text xml:space="preserve" text-anchor="middle" x="442.82" y="-68.12" font-family="Helvetica,sans-Serif" font-size="10.00" fill="#ffffff">tui.app</text>
</g>
<!-- dashkit_cli_tui&#45;&gt;dashkit_tui_app -->
<g id="edge36" class="edge">
<title>dashkit_cli_tui&#45;&gt;dashkit_tui_app</title><style>.edge>path:hover{stroke-width:8}</style>
<path fill="none" stroke="black" d="M175.95,-627.6C182.66,-553.52 210.24,-277.58 255.14,-204 267.29,-184.09 278.34,-186.33 296.74,-172"/>
<path fill="none" stroke="black" d="M298.74,-172C337.41,-141.89 384.32,-109.91 413.63,-90.45"/>
<polygon fill="#a83838" stroke="black" points="415.18,-93.62 421.59,-85.18 411.32,-87.78 415.18,-93.62"/>
</g>
<!-- dashkit_framework_presenters_occurrence_tables -->
<g id="node6" class="node">
<title>dashkit_framework_presenters_occurrence_tables</title><style>.edge>path:hover{stroke-width:8}</style>
<ellipse fill="#8f3d3d" stroke="black" cx="612.81" cy="-428" rx="67.53" ry="29.52"/>
<text xml:space="preserve" text-anchor="middle" x="612.81" y="-435.38" font-family="Helvetica,sans-Serif" font-size="10.00" fill="#ffffff">framework.</text>
<text xml:space="preserve" text-anchor="middle" x="612.81" y="-424.12" font-family="Helvetica,sans-Serif" font-size="10.00" fill="#ffffff">presenters.</text>
<text xml:space="preserve" text-anchor="middle" x="612.81" y="-412.88" font-family="Helvetica,sans-Serif" font-size="10.00" fill="#ffffff">occurrence_tables</text>
</g>
<!-- dashkit_framework_status -->
<g id="node7" class="node">
<title>dashkit_framework_status</title><style>.edge>path:hover{stroke-width:8}</style>
<ellipse fill="#d02424" stroke="black" cx="889.7" cy="-478" rx="45.79" ry="21.57"/>
<text xml:space="preserve" text-anchor="middle" x="889.7" y="-479.75" font-family="Helvetica,sans-Serif" font-size="10.00" fill="#ffffff">framework.</text>
<text xml:space="preserve" text-anchor="middle" x="889.7" y="-468.5" font-family="Helvetica,sans-Serif" font-size="10.00" fill="#ffffff">status</text>
</g>
<!-- dashkit_framework_presenters_occurrence_tables&#45;&gt;dashkit_framework_status -->
<g id="edge8" class="edge">
<title>dashkit_framework_presenters_occurrence_tables&#45;&gt;dashkit_framework_status</title><style>.edge>path:hover{stroke-width:8}</style>
<path fill="none" stroke="black" d="M654.11,-451.73C682.85,-466.65 723,-483.53 761.13,-486"/>
<path fill="none" stroke="black" d="M763.13,-486C786.22,-487.49 811.71,-486.38 833.66,-484.56"/>
<polygon fill="#8f3d3d" stroke="black" points="833.96,-488.05 843.6,-483.66 833.33,-481.08 833.96,-488.05"/>
</g>
<!-- dashkit_framework_presenters_occurrence_tables&#45;&gt;rich -->
<g id="edge41" class="edge">
<title>dashkit_framework_presenters_occurrence_tables&#45;&gt;rich</title><style>.edge>path:hover{stroke-width:8}</style>
<path fill="none" stroke="black" d="M680.04,-424.23C745.95,-422.25 849.42,-423.98 935.48,-447 965.24,-454.96 967.27,-471.96 997.48,-478"/>
</g>
<!-- dashkit_framework_status&#45;&gt;rich -->
<g id="edge42" class="edge">
<title>dashkit_framework_status&#45;&gt;rich</title><style>.edge>path:hover{stroke-width:8}</style>
<path fill="none" stroke="black" d="M935.24,-474.12C954.55,-473.43 977.3,-473.96 997.48,-478"/>
</g>
<!-- dashkit_framework_test_utils -->
<g id="node8" class="node">
<title>dashkit_framework_test_utils</title><style>.edge>path:hover{stroke-width:8}</style>
<ellipse fill="#b34c4c" stroke="black" cx="45.79" cy="-861" rx="45.79" ry="21.57"/>
<text xml:space="preserve" text-anchor="middle" x="45.79" y="-862.75" font-family="Helvetica,sans-Serif" font-size="10.00" fill="#ffffff">framework.</text>
<text xml:space="preserve" text-anchor="middle" x="45.79" y="-851.5" font-family="Helvetica,sans-Serif" font-size="10.00" fill="#ffffff">test_utils</text>
</g>
<!-- dashkit_framework_utils -->
<g id="node9" class="node">
<title>dashkit_framework_utils</title><style>.edge>path:hover{stroke-width:8}</style>
<ellipse fill="#c24747" stroke="black" cx="173.36" cy="-861" rx="45.79" ry="21.57"/>
<text xml:space="preserve" text-anchor="middle" x="173.36" y="-862.75" font-family="Helvetica,sans-Serif" font-size="10.00" fill="#ffffff">framework.</text>
<text xml:space="preserve" text-anchor="middle" x="173.36" y="-851.5" font-family="Helvetica,sans-Serif" font-size="10.00" fill="#ffffff">utils</text>
</g>
<!-- dashkit_framework_test_utils&#45;&gt;dashkit_framework_utils -->
<g id="edge11" class="edge">
<title>dashkit_framework_test_utils&#45;&gt;dashkit_framework_utils</title><style>.edge>path:hover{stroke-width:8}</style>
<path fill="none" stroke="black" d="M91.76,-861C99.61,-861 107.86,-861 115.96,-861"/>
<polygon fill="#b34c4c" stroke="black" points="115.75,-864.5 125.75,-861 115.75,-857.5 115.75,-864.5"/>
</g>
<!-- dashkit_framework_views&#45;&gt;rich -->
<g id="edge43" class="edge">
<title>dashkit_framework_views&#45;&gt;rich</title><style>.edge>path:hover{stroke-width:8}</style>
<path fill="none" stroke="black" d="M801.18,-194.31C828.58,-188.42 864.77,-186.18 888.7,-206"/>
</g>
<!-- dashkit_modules_lighthouse_runner -->
<g id="node17" class="node">
<title>dashkit_modules_lighthouse_runner</title><style>.edge>path:hover{stroke-width:8}</style>
<ellipse fill="#b03a3a" stroke="black" cx="442.82" cy="-1113" rx="44.72" ry="29.52"/>
<text xml:space="preserve" text-anchor="middle" x="442.82" y="-1120.38" font-family="Helvetica,sans-Serif" font-size="10.00" fill="#ffffff">modules.</text>
<text xml:space="preserve" text-anchor="middle" x="442.82" y="-1109.12" font-family="Helvetica,sans-Serif" font-size="10.00" fill="#ffffff">lighthouse.</text>
<text xml:space="preserve" text-anchor="middle" x="442.82" y="-1097.88" font-family="Helvetica,sans-Serif" font-size="10.00" fill="#ffffff">runner</text>
</g>
<!-- dashkit_modules_lighthouse&#45;&gt;dashkit_modules_lighthouse_runner -->
<g id="edge22" class="edge">
<title>dashkit_modules_lighthouse&#45;&gt;dashkit_modules_lighthouse_runner</title><style>.edge>path:hover{stroke-width:8}</style>
<path fill="none" stroke="black" d="M327.7,-1051.58C347.66,-1062.33 374.59,-1076.82 397.27,-1089.03"/>
<polygon fill="#ac2b2b" stroke="black" points="395.56,-1092.08 406.03,-1093.74 398.88,-1085.92 395.56,-1092.08"/>
</g>
<!-- dashkit_modules_lighthouse_widgets -->
<g id="node18" class="node">
<title>dashkit_modules_lighthouse_widgets</title><style>.edge>path:hover{stroke-width:8}</style>
<ellipse fill="#b03a3a" stroke="black" cx="442.82" cy="-1036" rx="44.72" ry="29.52"/>
<text xml:space="preserve" text-anchor="middle" x="442.82" y="-1043.38" font-family="Helvetica,sans-Serif" font-size="10.00" fill="#ffffff">modules.</text>
<text xml:space="preserve" text-anchor="middle" x="442.82" y="-1032.12" font-family="Helvetica,sans-Serif" font-size="10.00" fill="#ffffff">lighthouse.</text>
<text xml:space="preserve" text-anchor="middle" x="442.82" y="-1020.88" font-family="Helvetica,sans-Serif" font-size="10.00" fill="#ffffff">widgets</text>
</g>
<!-- dashkit_modules_lighthouse&#45;&gt;dashkit_modules_lighthouse_widgets -->
<g id="edge23" class="edge">
<title>dashkit_modules_lighthouse&#45;&gt;dashkit_modules_lighthouse_widgets</title><style>.edge>path:hover{stroke-width:8}</style>
<path fill="none" stroke="black" d="M340.51,-1036C354.84,-1036 371.11,-1036 386.35,-1036"/>
<polygon fill="#ac2b2b" stroke="black" points="386.24,-1039.5 396.24,-1036 386.24,-1032.5 386.24,-1039.5"/>
</g>
<!-- dashkit_modules_lighthouse_audits -->
<g id="node13" class="node">
<title>dashkit_modules_lighthouse_audits</title><style>.edge>path:hover{stroke-width:8}</style>
<ellipse fill="#db2f2f" stroke="black" cx="762.13" cy="-563" rx="44.72" ry="29.52"/>
<text xml:space="preserve" text-anchor="middle" x="762.13" y="-570.38" font-family="Helvetica,sans-Serif" font-size="10.00" fill="#ffffff">modules.</text>
<text xml:space="preserve" text-anchor="middle" x="762.13" y="-559.12" font-family="Helvetica,sans-Serif" font-size="10.00" fill="#ffffff">lighthouse.</text>
<text xml:space="preserve" text-anchor="middle" x="762.13" y="-547.88" font-family="Helvetica,sans-Serif" font-size="10.00" fill="#ffffff">audits</text>
</g>
<!-- dashkit_modules_lighthouse_categories -->
<g id="node14" class="node">
<title>dashkit_modules_lighthouse_categories</title><style>.edge>path:hover{stroke-width:8}</style>
<ellipse fill="#c04040" stroke="black" cx="612.81" cy="-582" rx="44.72" ry="29.52"/>
<text xml:space="preserve" text-anchor="middle" x="612.81" y="-589.38" font-family="Helvetica,sans-Serif" font-size="10.00" fill="#ffffff">modules.</text>
<text xml:space="preserve" text-anchor="middle" x="612.81" y="-578.12" font-family="Helvetica,sans-Serif" font-size="10.00" fill="#ffffff">lighthouse.</text>
<text xml:space="preserve" text-anchor="middle" x="612.81" y="-566.88" font-family="Helvetica,sans-Serif" font-size="10.00" fill="#ffffff">categories</text>
</g>
<!-- dashkit_modules_lighthouse_categories&#45;&gt;dashkit_modules_lighthouse_audits -->
<g id="edge16" class="edge">
<title>dashkit_modules_lighthouse_categories&#45;&gt;dashkit_modules_lighthouse_audits</title><style>.edge>path:hover{stroke-width:8}</style>
<path fill="none" stroke="black" d="M657.21,-576.4C672.73,-574.4 690.41,-572.12 706.74,-570.01"/>
<polygon fill="#c04040" stroke="black" points="706.81,-573.53 716.28,-568.78 705.91,-566.59 706.81,-573.53"/>
</g>
<!-- dashkit_modules_lighthouse_config -->
<g id="node15" class="node">
<title>dashkit_modules_lighthouse_config</title><style>.edge>path:hover{stroke-width:8}</style>
<ellipse fill="#c24747" stroke="black" cx="612.81" cy="-774" rx="44.72" ry="29.52"/>
<text xml:space="preserve" text-anchor="middle" x="612.81" y="-781.38" font-family="Helvetica,sans-Serif" font-size="10.00" fill="#ffffff">modules.</text>
<text xml:space="preserve" text-anchor="middle" x="612.81" y="-770.12" font-family="Helvetica,sans-Serif" font-size="10.00" fill="#ffffff">lighthouse.</text>
<text xml:space="preserve" text-anchor="middle" x="612.81" y="-758.88" font-family="Helvetica,sans-Serif" font-size="10.00" fill="#ffffff">config</text>
</g>
<!-- dashkit_modules_lighthouse_http -->
<g id="node16" class="node">
<title>dashkit_modules_lighthouse_http</title><style>.edge>path:hover{stroke-width:8}</style>
<ellipse fill="#c24747" stroke="black" cx="612.81" cy="-1113" rx="44.72" ry="29.52"/>
<text xml:space="preserve" text-anchor="middle" x="612.81" y="-1120.38" font-family="Helvetica,sans-Serif" font-size="10.00" fill="#ffffff">modules.</text>
<text xml:space="preserve" text-anchor="middle" x="612.81" y="-1109.12" font-family="Helvetica,sans-Serif" font-size="10.00" fill="#ffffff">lighthouse.</text>
<text xml:space="preserve" text-anchor="middle" x="612.81" y="-1097.88" font-family="Helvetica,sans-Serif" font-size="10.00" fill="#ffffff">http</text>
</g>
<!-- dashkit_modules_lighthouse_runner&#45;&gt;dashkit_modules_lighthouse_http -->
<g id="edge21" class="edge">
<title>dashkit_modules_lighthouse_runner&#45;&gt;dashkit_modules_lighthouse_http</title><style>.edge>path:hover{stroke-width:8}</style>
<path fill="none" stroke="black" d="M487.95,-1113C508.9,-1113 534.15,-1113 556.37,-1113"/>
<polygon fill="#b03a3a" stroke="black" points="556.16,-1116.5 566.16,-1113 556.16,-1109.5 556.16,-1116.5"/>
</g>
<!-- dashkit_modules_lighthouse_runner&#45;&gt;dashkit_services -->
<g id="edge30" class="edge">
<title>dashkit_modules_lighthouse_runner&#45;&gt;dashkit_services</title><style>.edge>path:hover{stroke-width:8}</style>
<path fill="none" stroke="black" d="M478.23,-1094.67C488.48,-1088.78 499.56,-1081.97 509.28,-1075 630.07,-988.41 642.7,-944.79 761.13,-855"/>
</g>
<!-- dashkit_services_reports -->
<g id="node23" class="node">
<title>dashkit_services_reports</title><style>.edge>path:hover{stroke-width:8}</style>
<ellipse fill="#c24747" stroke="black" cx="889.7" cy="-1171" rx="39.42" ry="21.57"/>
<text xml:space="preserve" text-anchor="middle" x="889.7" y="-1172.75" font-family="Helvetica,sans-Serif" font-size="10.00" fill="#ffffff">services.</text>
<text xml:space="preserve" text-anchor="middle" x="889.7" y="-1161.5" font-family="Helvetica,sans-Serif" font-size="10.00" fill="#ffffff">reports</text>
</g>
<!-- dashkit_modules_lighthouse_runner&#45;&gt;dashkit_services_reports -->
<g id="edge31" class="edge">
<title>dashkit_modules_lighthouse_runner&#45;&gt;dashkit_services_reports</title><style>.edge>path:hover{stroke-width:8}</style>
<path fill="none" stroke="black" d="M479.61,-1129.9C498.67,-1138.09 522.77,-1147.18 545.28,-1152 647.94,-1174 771.58,-1174.74 838.95,-1173.05"/>
<polygon fill="#b03a3a" stroke="black" points="838.66,-1176.56 848.55,-1172.78 838.46,-1169.56 838.66,-1176.56"/>
</g>
<!-- dashkit_modules_lighthouse_widgets_audits -->
<g id="node19" class="node">
<title>dashkit_modules_lighthouse_widgets_audits</title><style>.edge>path:hover{stroke-width:8}</style>
<ellipse fill="#8a2e2e" stroke="black" cx="442.82" cy="-582" rx="44.72" ry="37.48"/>
<text xml:space="preserve" text-anchor="middle" x="442.82" y="-595" font-family="Helvetica,sans-Serif" font-size="10.00" fill="#ffffff">modules.</text>
<text xml:space="preserve" text-anchor="middle" x="442.82" y="-583.75" font-family="Helvetica,sans-Serif" font-size="10.00" fill="#ffffff">lighthouse.</text>
<text xml:space="preserve" text-anchor="middle" x="442.82" y="-572.5" font-family="Helvetica,sans-Serif" font-size="10.00" fill="#ffffff">widgets.</text>
<text xml:space="preserve" text-anchor="middle" x="442.82" y="-561.25" font-family="Helvetica,sans-Serif" font-size="10.00" fill="#ffffff">audits</text>
</g>
<!-- dashkit_modules_lighthouse_widgets&#45;&gt;dashkit_modules_lighthouse_widgets_audits -->
<g id="edge24" class="edge">
<title>dashkit_modules_lighthouse_widgets&#45;&gt;dashkit_modules_lighthouse_widgets_audits</title><style>.edge>path:hover{stroke-width:8}</style>
<path fill="none" stroke="black" d="M402.16,-1023.22C385.51,-1015.76 367.93,-1004.47 358.35,-988 339.91,-956.31 343.43,-691.49 358.35,-658 366.67,-639.32 382.1,-623.31 397.52,-610.87"/>
<polygon fill="#b03a3a" stroke="black" points="399.53,-613.74 405.34,-604.88 395.27,-608.18 399.53,-613.74"/>
</g>
<!-- dashkit_modules_lighthouse_widgets_metrics_summary -->
<g id="node20" class="node">
<title>dashkit_modules_lighthouse_widgets_metrics_summary</title><style>.edge>path:hover{stroke-width:8}</style>
<ellipse fill="#913030" stroke="black" cx="442.82" cy="-695" rx="66.47" ry="37.48"/>
<text xml:space="preserve" text-anchor="middle" x="442.82" y="-708" font-family="Helvetica,sans-Serif" font-size="10.00" fill="#ffffff">modules.</text>
<text xml:space="preserve" text-anchor="middle" x="442.82" y="-696.75" font-family="Helvetica,sans-Serif" font-size="10.00" fill="#ffffff">lighthouse.</text>
<text xml:space="preserve" text-anchor="middle" x="442.82" y="-685.5" font-family="Helvetica,sans-Serif" font-size="10.00" fill="#ffffff">widgets.</text>
<text xml:space="preserve" text-anchor="middle" x="442.82" y="-674.25" font-family="Helvetica,sans-Serif" font-size="10.00" fill="#ffffff">metrics_summary</text>
</g>
<!-- dashkit_modules_lighthouse_widgets&#45;&gt;dashkit_modules_lighthouse_widgets_metrics_summary -->
<g id="edge25" class="edge">
<title>dashkit_modules_lighthouse_widgets&#45;&gt;dashkit_modules_lighthouse_widgets_metrics_summary</title><style>.edge>path:hover{stroke-width:8}</style>
<path fill="none" stroke="black" d="M402.16,-1023.22C385.51,-1015.76 367.93,-1004.47 358.35,-988 345.33,-965.62 346.47,-778 358.35,-755 364.15,-743.75 373.15,-734.15 383.15,-726.15"/>
<polygon fill="#b03a3a" stroke="black" points="384.95,-729.17 390.92,-720.42 380.79,-723.54 384.95,-729.17"/>
</g>
<!-- dashkit_modules_lighthouse_widgets_thirdparty -->
<g id="node21" class="node">
<title>dashkit_modules_lighthouse_widgets_thirdparty</title><style>.edge>path:hover{stroke-width:8}</style>
<ellipse fill="#a83838" stroke="black" cx="442.82" cy="-951" rx="44.72" ry="37.48"/>
<text xml:space="preserve" text-anchor="middle" x="442.82" y="-964" font-family="Helvetica,sans-Serif" font-size="10.00" fill="#ffffff">modules.</text>
<text xml:space="preserve" text-anchor="middle" x="442.82" y="-952.75" font-family="Helvetica,sans-Serif" font-size="10.00" fill="#ffffff">lighthouse.</text>
<text xml:space="preserve" text-anchor="middle" x="442.82" y="-941.5" font-family="Helvetica,sans-Serif" font-size="10.00" fill="#ffffff">widgets.</text>
<text xml:space="preserve" text-anchor="middle" x="442.82" y="-930.25" font-family="Helvetica,sans-Serif" font-size="10.00" fill="#ffffff">thirdparty</text>
</g>
<!-- dashkit_modules_lighthouse_widgets&#45;&gt;dashkit_modules_lighthouse_widgets_thirdparty -->
<g id="edge26" class="edge">
<title>dashkit_modules_lighthouse_widgets&#45;&gt;dashkit_modules_lighthouse_widgets_thirdparty</title><style>.edge>path:hover{stroke-width:8}</style>
<path fill="none" stroke="black" d="M442.82,-1006.16C442.82,-1004.18 442.82,-1002.2 442.82,-1000.21"/>
<polygon fill="#b03a3a" stroke="black" points="446.32,-1000.37 442.82,-990.37 439.32,-1000.37 446.32,-1000.37"/>
</g>
<!-- dashkit_modules_lighthouse_widgets_audits&#45;&gt;dashkit_framework -->
<g id="edge5" class="edge">
<title>dashkit_modules_lighthouse_widgets_audits&#45;&gt;dashkit_framework</title><style>.edge>path:hover{stroke-width:8}</style>
<path fill="none" stroke="black" d="M469.95,-551.8C483.08,-535.5 498.45,-514.55 509.28,-494 532.28,-450.36 509.5,-422.96 545.28,-389 567.59,-367.83 583.24,-381.38 611.81,-370"/>
</g>
<!-- dashkit_modules_lighthouse_widgets_audits&#45;&gt;dashkit_framework_status -->
<g id="edge9" class="edge">
<title>dashkit_modules_lighthouse_widgets_audits&#45;&gt;dashkit_framework_status</title><style>.edge>path:hover{stroke-width:8}</style>
<path fill="none" stroke="black" d="M474.19,-554.83C505.9,-528.98 558.36,-493.04 611.81,-486"/>
<path fill="none" stroke="black" d="M613.81,-486C678.72,-477.46 695.79,-481.77 761.13,-486"/>
</g>
<!-- dashkit_modules_lighthouse_widgets_audits&#45;&gt;dashkit_modules_lighthouse_audits -->
<g id="edge17" class="edge">
<title>dashkit_modules_lighthouse_widgets_audits&#45;&gt;dashkit_modules_lighthouse_audits</title><style>.edge>path:hover{stroke-width:8}</style>
<path fill="none" stroke="black" d="M613.81,-486C656.41,-480.39 699.29,-507.35 727.71,-530.9"/>
<polygon fill="#8a2e2e" stroke="black" points="725.4,-533.52 735.26,-537.39 729.96,-528.21 725.4,-533.52"/>
</g>
<!-- dashkit_modules_lighthouse_widgets_audits&#45;&gt;dashkit_modules_lighthouse_categories -->
<g id="edge19" class="edge">
<title>dashkit_modules_lighthouse_widgets_audits&#45;&gt;dashkit_modules_lighthouse_categories</title><style>.edge>path:hover{stroke-width:8}</style>
<path fill="none" stroke="black" d="M487.95,-582C508.9,-582 534.15,-582 556.37,-582"/>
<polygon fill="#8a2e2e" stroke="black" points="556.16,-585.5 566.16,-582 556.16,-578.5 556.16,-585.5"/>
</g>
<!-- dashkit_modules_lighthouse_widgets_audits&#45;&gt;rich -->
<g id="edge44" class="edge">
<title>dashkit_modules_lighthouse_widgets_audits&#45;&gt;rich</title><style>.edge>path:hover{stroke-width:8}</style>
<path fill="none" stroke="black" d="M481.44,-601.55C559.53,-641.58 734.18,-728.16 761.13,-716"/>
<path fill="none" stroke="black" d="M763.13,-716C839.78,-683.51 787.67,-608.39 843.91,-547 873.68,-514.51 895.4,-527.31 935.48,-509 963.5,-496.2 967.23,-472.17 997.48,-478"/>
</g>
<!-- dashkit_modules_lighthouse_widgets_metrics_summary&#45;&gt;dashkit_framework -->
<g id="edge6" class="edge">
<title>dashkit_modules_lighthouse_widgets_metrics_summary&#45;&gt;dashkit_framework</title><style>.edge>path:hover{stroke-width:8}</style>
<path fill="none" stroke="black" d="M479.45,-663.42C489.97,-652.88 500.9,-640.59 509.28,-628 532.01,-593.85 514.96,-570.64 545.28,-543 591.84,-500.56 624.6,-529.35 680.34,-500 698.28,-490.56 699.29,-482.96 716.34,-472 760.99,-443.31 815.81,-415.91 851.47,-399.04"/>
<polygon fill="#913030" stroke="black" points="852.95,-402.21 860.51,-394.79 849.97,-395.87 852.95,-402.21"/>
</g>
<!-- dashkit_modules_lighthouse_widgets_metrics_summary&#45;&gt;dashkit_framework_status -->
<g id="edge10" class="edge">
<title>dashkit_modules_lighthouse_widgets_metrics_summary&#45;&gt;dashkit_framework_status</title><style>.edge>path:hover{stroke-width:8}</style>
<path fill="none" stroke="black" d="M613.81,-716C713.86,-715.82 742.39,-677.61 807.91,-602 835.58,-570.07 818.64,-547.87 843.91,-514 846.8,-510.13 850.19,-506.44 853.8,-503"/>
<polygon fill="#913030" stroke="black" points="856.08,-505.65 861.32,-496.44 851.49,-500.37 856.08,-505.65"/>
<path fill="none" stroke="black" d="M505.46,-707.98C537.15,-713.31 576.44,-717.85 611.81,-716"/>
</g>
<!-- dashkit_modules_lighthouse_widgets_metrics_summary&#45;&gt;dashkit_modules_lighthouse_audits -->
<g id="edge18" class="edge">
<title>dashkit_modules_lighthouse_widgets_metrics_summary&#45;&gt;dashkit_modules_lighthouse_audits</title><style>.edge>path:hover{stroke-width:8}</style>
<path fill="none" stroke="black" d="M505.16,-681.54C554.16,-669.45 623.75,-649.25 680.34,-621 695.78,-613.29 711.48,-602.77 724.88,-592.79"/>
<polygon fill="#913030" stroke="black" points="726.72,-595.79 732.55,-586.94 722.48,-590.22 726.72,-595.79"/>
</g>
<!-- dashkit_modules_lighthouse_widgets_metrics_summary&#45;&gt;dashkit_modules_lighthouse_config -->
<g id="edge20" class="edge">
<title>dashkit_modules_lighthouse_widgets_metrics_summary&#45;&gt;dashkit_modules_lighthouse_config</title><style>.edge>path:hover{stroke-width:8}</style>
<path fill="none" stroke="black" d="M494.68,-718.92C517.17,-729.49 543.43,-741.84 565.39,-752.17"/>
<polygon fill="#913030" stroke="black" points="563.87,-755.32 574.41,-756.41 566.85,-748.99 563.87,-755.32"/>
</g>
<!-- dashkit_modules_lighthouse_widgets_metrics_summary&#45;&gt;rich -->
<g id="edge45" class="edge">
<title>dashkit_modules_lighthouse_widgets_metrics_summary&#45;&gt;rich</title><style>.edge>path:hover{stroke-width:8}</style>
<path fill="none" stroke="black" d="M613.81,-716C679.19,-712.57 700.84,-741.55 761.13,-716"/>
</g>
<!-- dashkit_modules_lighthouse_widgets_thirdparty&#45;&gt;rich -->
<g id="edge46" class="edge">
<title>dashkit_modules_lighthouse_widgets_thirdparty&#45;&gt;rich</title><style>.edge>path:hover{stroke-width:8}</style>
<path fill="none" stroke="black" d="M487.77,-953.28C562.35,-954.75 714.65,-947.11 807.91,-869 812.54,-865.12 991.55,-476.86 997.48,-478"/>
</g>
<!-- yaml -->
<g id="node32" class="node">
<title>yaml</title><style>.edge>path:hover{stroke-width:8}</style>
<polygon fill="#a253b6" stroke="black" points="916.7,-308 913.7,-312 892.7,-312 889.7,-308 862.7,-308 862.7,-272 916.7,-272 916.7,-308"/>
<text xml:space="preserve" text-anchor="middle" x="889.7" y="-286.12" font-family="Helvetica,sans-Serif" font-size="10.00" fill="#ffffff">yaml</text>
</g>
<!-- dashkit_services_workspaces&#45;&gt;yaml -->
<g id="edge51" class="edge">
<title>dashkit_services_workspaces&#45;&gt;yaml</title><style>.edge>path:hover{stroke-width:8}</style>
<path fill="none" stroke="black" d="M491.43,-270.35C580.52,-274.76 770.69,-284.16 851.32,-288.15"/>
<polygon fill="#d92626" stroke="black" points="850.72,-291.63 860.88,-288.62 851.07,-284.63 850.72,-291.63"/>
</g>
<!-- dashkit_tui_app&#45;&gt;dashkit_framework -->
<g id="edge7" class="edge">
<title>dashkit_tui_app&#45;&gt;dashkit_framework</title><style>.edge>path:hover{stroke-width:8}</style>
<path fill="none" stroke="black" d="M462.36,-84.93C531.17,-132.87 772.26,-300.87 858.08,-360.67"/>
<polygon fill="#822b2b" stroke="black" points="856.08,-363.54 866.28,-366.38 860.08,-357.79 856.08,-363.54"/>
</g>
<!-- dashkit_tui_app&#45;&gt;dashkit_framework_views -->
<g id="edge13" class="edge">
<title>dashkit_tui_app&#45;&gt;dashkit_framework_views</title><style>.edge>path:hover{stroke-width:8}</style>
<path fill="none" stroke="black" d="M613.81,-118C657.34,-130.3 701.06,-158.97 729.43,-180.26"/>
<polygon fill="#822b2b" stroke="black" points="727.17,-182.94 737.23,-186.24 731.42,-177.38 727.17,-182.94"/>
</g>
<!-- dashkit_tui_parsers -->
<g id="node27" class="node">
<title>dashkit_tui_parsers</title><style>.edge>path:hover{stroke-width:8}</style>
<ellipse fill="#c24747" stroke="black" cx="612.81" cy="-72" rx="36.54" ry="18"/>
<text xml:space="preserve" text-anchor="middle" x="612.81" y="-68.12" font-family="Helvetica,sans-Serif" font-size="10.00" fill="#ffffff">tui.parsers</text>
</g>
<!-- dashkit_tui_app&#45;&gt;dashkit_tui_parsers -->
<g id="edge37" class="edge">
<title>dashkit_tui_app&#45;&gt;dashkit_tui_parsers</title><style>.edge>path:hover{stroke-width:8}</style>
<path fill="none" stroke="black" d="M470.06,-72C495.35,-72 534.17,-72 564.79,-72"/>
<polygon fill="#822b2b" stroke="black" points="564.57,-75.5 574.57,-72 564.57,-68.5 564.57,-75.5"/>
</g>
<!-- dashkit_tui_sidebar -->
<g id="node28" class="node">
<title>dashkit_tui_sidebar</title><style>.edge>path:hover{stroke-width:8}</style>
<ellipse fill="#a83838" stroke="black" cx="612.81" cy="-18" rx="36.09" ry="18"/>
<text xml:space="preserve" text-anchor="middle" x="612.81" y="-14.12" font-family="Helvetica,sans-Serif" font-size="10.00" fill="#ffffff">tui.sidebar</text>
</g>
<!-- dashkit_tui_app&#45;&gt;dashkit_tui_sidebar -->
<g id="edge38" class="edge">
<title>dashkit_tui_app&#45;&gt;dashkit_tui_sidebar</title><style>.edge>path:hover{stroke-width:8}</style>
<path fill="none" stroke="black" d="M467.53,-64.38C494.31,-55.77 538.37,-41.61 570.76,-31.19"/>
<polygon fill="#822b2b" stroke="black" points="571.8,-34.54 580.25,-28.15 569.66,-27.87 571.8,-34.54"/>
</g>
<!-- textual -->
<g id="node31" class="node">
<title>textual</title><style>.edge>path:hover{stroke-width:8}</style>
<polygon fill="blue" stroke="black" points="1025.48,-291 1022.48,-295 1001.48,-295 998.48,-291 971.48,-291 971.48,-255 1025.48,-255 1025.48,-291"/>
<text xml:space="preserve" text-anchor="middle" x="998.48" y="-269.12" font-family="Helvetica,sans-Serif" font-size="10.00" fill="white">textual</text>
</g>
<!-- dashkit_tui_app&#45;&gt;textual -->
<g id="edge49" class="edge">
<title>dashkit_tui_app&#45;&gt;textual</title><style>.edge>path:hover{stroke-width:8}</style>
<path fill="none" stroke="black" d="M468.33,-78.58C501.08,-87.4 560.89,-103.61 611.81,-118"/>
<path fill="none" stroke="black" d="M613.81,-118C676.82,-135.81 699.33,-96.36 761.13,-118"/>
</g>
<!-- dashkit_tui_sidebar&#45;&gt;rich -->
<g id="edge47" class="edge">
<title>dashkit_tui_sidebar&#45;&gt;rich</title><style>.edge>path:hover{stroke-width:8}</style>
<path fill="none" stroke="black" d="M646.25,-25.47C658.19,-29.58 671.05,-35.78 680.34,-45 710.03,-74.49 686.95,-102.22 716.34,-132 774.9,-191.34 824.5,-152.81 888.7,-206"/>
<path fill="none" stroke="black" d="M890.7,-206C915.36,-226.73 920.79,-234.33 935.48,-263 980.82,-351.51 899.83,-459.19 997.48,-478"/>
<path fill="none" stroke="black" d="M999.48,-478C1026.54,-483.21 1037.41,-464.59 1061.48,-478"/>
</g>
<!-- dashkit_tui_sidebar&#45;&gt;textual -->
<g id="edge50" class="edge">
<title>dashkit_tui_sidebar&#45;&gt;textual</title><style>.edge>path:hover{stroke-width:8}</style>
<path fill="none" stroke="black" d="M763.13,-118C845.4,-131.41 869.7,-140.79 935.48,-192 954.17,-206.55 970.26,-228.01 981.35,-245.18"/>
<polygon fill="#a83838" stroke="black" points="978.24,-246.79 986.5,-253.43 984.18,-243.09 978.24,-246.79"/>
<path fill="none" stroke="black" d="M643.71,-27.59C655.57,-32.03 669.04,-37.91 680.34,-45 721.34,-70.71 715.45,-102.01 761.13,-118"/>
</g>
<!-- textual&#45;&gt;rich -->
<g id="edge48" class="edge">
<title>textual&#45;&gt;rich</title><style>.edge>path:hover{stroke-width:8}</style>
<path fill="none" stroke="black" d="M1001.82,-291.27C1008.26,-337.98 1028.02,-459.37 1061.48,-478"/>
<path fill="none" stroke="black" d="M1062.48,-478C1069.79,-482.07 1078.37,-483.67 1086.78,-483.92"/>
<polygon fill="blue" stroke="black" points="1086.62,-487.43 1096.49,-483.59 1086.38,-480.43 1086.62,-487.43"/>
</g>
</g>
</svg>
